<svg width="190" height="169" viewBox="0 0 190 169" fill="none" xmlns="http://www.w3.org/2000/svg">
<rect x="25.7363" y="6.31134" width="150" height="150" fill="white"/>
<path d="M46.6688 72.3113C46.5221 72.3113 46.4088 72.2713 46.3288 72.1913C46.2488 72.098 46.2088 71.9847 46.2088 71.8513V58.7713C46.2088 58.638 46.2488 58.5313 46.3288 58.4513C46.4088 58.358 46.5221 58.3113 46.6688 58.3113H47.7288C47.8621 58.3113 47.9688 58.358 48.0488 58.4513C48.1421 58.5313 48.1888 58.638 48.1888 58.7713V71.8513C48.1888 71.9847 48.1421 72.098 48.0488 72.1913C47.9688 72.2713 47.8621 72.3113 47.7288 72.3113H46.6688ZM51.8775 72.3113C51.7442 72.3113 51.6308 72.2713 51.5375 72.1913C51.4575 72.098 51.4175 71.9847 51.4175 71.8513V62.3713C51.4175 62.238 51.4575 62.1313 51.5375 62.0513C51.6308 61.958 51.7442 61.9113 51.8775 61.9113H52.8175C52.9508 61.9113 53.0575 61.958 53.1375 62.0513C53.2308 62.1313 53.2775 62.238 53.2775 62.3713V63.2513C53.6242 62.798 54.0575 62.4313 54.5775 62.1513C55.1108 61.858 55.7908 61.7113 56.6175 61.7113C57.4842 61.7113 58.2175 61.9047 58.8175 62.2913C59.4308 62.6647 59.8908 63.1913 60.1975 63.8713C60.5042 64.538 60.6575 65.318 60.6575 66.2113V71.8513C60.6575 71.9847 60.6175 72.098 60.5375 72.1913C60.4575 72.2713 60.3508 72.3113 60.2175 72.3113H59.2175C59.0842 72.3113 58.9708 72.2713 58.8775 72.1913C58.7975 72.098 58.7575 71.9847 58.7575 71.8513V66.3113C58.7575 65.378 58.5308 64.6513 58.0775 64.1313C57.6242 63.598 56.9575 63.3313 56.0775 63.3313C55.2508 63.3313 54.5842 63.598 54.0775 64.1313C53.5842 64.6513 53.3375 65.378 53.3375 66.3113V71.8513C53.3375 71.9847 53.2908 72.098 53.1975 72.1913C53.1175 72.2713 53.0108 72.3113 52.8775 72.3113H51.8775ZM67.4697 72.3113C66.723 72.3113 66.1164 72.1713 65.6497 71.8913C65.183 71.598 64.843 71.1913 64.6297 70.6713C64.4164 70.138 64.3097 69.5113 64.3097 68.7913V63.5113H62.7497C62.6164 63.5113 62.503 63.4713 62.4097 63.3913C62.3297 63.298 62.2897 63.1847 62.2897 63.0513V62.3713C62.2897 62.238 62.3297 62.1313 62.4097 62.0513C62.503 61.958 62.6164 61.9113 62.7497 61.9113H64.3097V58.5713C64.3097 58.438 64.3497 58.3313 64.4297 58.2513C64.523 58.158 64.6364 58.1113 64.7697 58.1113H65.7097C65.843 58.1113 65.9497 58.158 66.0297 58.2513C66.123 58.3313 66.1697 58.438 66.1697 58.5713V61.9113H68.6497C68.783 61.9113 68.8897 61.958 68.9697 62.0513C69.063 62.1313 69.1097 62.238 69.1097 62.3713V63.0513C69.1097 63.1847 69.063 63.298 68.9697 63.3913C68.8897 63.4713 68.783 63.5113 68.6497 63.5113H66.1697V68.6513C66.1697 69.278 66.2764 69.7713 66.4897 70.1313C66.703 70.4913 67.083 70.6713 67.6297 70.6713H68.8497C68.983 70.6713 69.0897 70.718 69.1697 70.8113C69.263 70.8913 69.3097 70.998 69.3097 71.1313V71.8513C69.3097 71.9847 69.263 72.098 69.1697 72.1913C69.0897 72.2713 68.983 72.3113 68.8497 72.3113H67.4697ZM75.3622 72.5113C73.9889 72.5113 72.8955 72.0913 72.0822 71.2513C71.2689 70.398 70.8222 69.238 70.7422 67.7713C70.7289 67.598 70.7222 67.378 70.7222 67.1113C70.7222 66.8313 70.7289 66.6047 70.7422 66.4313C70.7955 65.4847 71.0155 64.658 71.4022 63.9513C71.7889 63.2313 72.3155 62.678 72.9822 62.2913C73.6622 61.9047 74.4555 61.7113 75.3622 61.7113C76.3755 61.7113 77.2222 61.9247 77.9022 62.3513C78.5955 62.778 79.1222 63.3847 79.4822 64.1713C79.8422 64.958 80.0222 65.878 80.0222 66.9313V67.2713C80.0222 67.418 79.9755 67.5313 79.8822 67.6113C79.8022 67.6913 79.6955 67.7313 79.5622 67.7313H72.6422C72.6422 67.7447 72.6422 67.7713 72.6422 67.8113C72.6422 67.8513 72.6422 67.8847 72.6422 67.9113C72.6689 68.458 72.7889 68.9713 73.0022 69.4513C73.2155 69.918 73.5222 70.298 73.9222 70.5913C74.3222 70.8847 74.8022 71.0313 75.3622 71.0313C75.8422 71.0313 76.2422 70.958 76.5622 70.8113C76.8822 70.6647 77.1422 70.5047 77.3422 70.3313C77.5422 70.1447 77.6755 70.0047 77.7422 69.9113C77.8622 69.738 77.9555 69.638 78.0222 69.6113C78.0889 69.5713 78.1955 69.5513 78.3422 69.5513H79.3022C79.4355 69.5513 79.5422 69.5913 79.6222 69.6713C79.7155 69.738 79.7555 69.838 79.7422 69.9713C79.7289 70.1713 79.6222 70.418 79.4222 70.7113C79.2222 70.9913 78.9355 71.2713 78.5622 71.5513C78.1889 71.8313 77.7355 72.0647 77.2022 72.2513C76.6689 72.4247 76.0555 72.5113 75.3622 72.5113ZM72.6422 66.3513H78.1222V66.2913C78.1222 65.6913 78.0089 65.158 77.7822 64.6913C77.5689 64.2247 77.2555 63.858 76.8422 63.5913C76.4289 63.3113 75.9355 63.1713 75.3622 63.1713C74.7889 63.1713 74.2955 63.3113 73.8822 63.5913C73.4822 63.858 73.1755 64.2247 72.9622 64.6913C72.7489 65.158 72.6422 65.6913 72.6422 66.2913V66.3513ZM82.8936 72.3113C82.7603 72.3113 82.6469 72.2713 82.5536 72.1913C82.4736 72.098 82.4336 71.9847 82.4336 71.8513V58.5713C82.4336 58.438 82.4736 58.3313 82.5536 58.2513C82.6469 58.158 82.7603 58.1113 82.8936 58.1113H83.8336C83.9803 58.1113 84.0936 58.158 84.1736 58.2513C84.2536 58.3313 84.2936 58.438 84.2936 58.5713V71.8513C84.2936 71.9847 84.2536 72.098 84.1736 72.1913C84.0936 72.2713 83.9803 72.3113 83.8336 72.3113H82.8936ZM87.9322 72.3113C87.7989 72.3113 87.6855 72.2713 87.5922 72.1913C87.5122 72.098 87.4722 71.9847 87.4722 71.8513V62.3713C87.4722 62.238 87.5122 62.1313 87.5922 62.0513C87.6855 61.958 87.7989 61.9113 87.9322 61.9113H88.8922C89.0255 61.9113 89.1322 61.958 89.2122 62.0513C89.2922 62.1313 89.3322 62.238 89.3322 62.3713V71.8513C89.3322 71.9847 89.2922 72.098 89.2122 72.1913C89.1322 72.2713 89.0255 72.3113 88.8922 72.3113H87.9322ZM87.7722 59.9713C87.6389 59.9713 87.5255 59.9313 87.4322 59.8513C87.3522 59.758 87.3122 59.6447 87.3122 59.5113V58.4313C87.3122 58.298 87.3522 58.1913 87.4322 58.1113C87.5255 58.018 87.6389 57.9713 87.7722 57.9713H89.0322C89.1655 57.9713 89.2722 58.018 89.3522 58.1113C89.4455 58.1913 89.4922 58.298 89.4922 58.4313V59.5113C89.4922 59.6447 89.4455 59.758 89.3522 59.8513C89.2722 59.9313 89.1655 59.9713 89.0322 59.9713H87.7722ZM96.5759 76.7113C95.6693 76.7113 94.9226 76.5913 94.3359 76.3513C93.7626 76.1113 93.3093 75.818 92.9759 75.4713C92.6559 75.138 92.4226 74.798 92.2759 74.4513C92.1426 74.118 92.0693 73.8513 92.0559 73.6513C92.0426 73.518 92.0826 73.4047 92.1759 73.3113C92.2826 73.218 92.3959 73.1713 92.5159 73.1713H93.4759C93.5959 73.1713 93.6959 73.198 93.7759 73.2513C93.8559 73.3047 93.9226 73.418 93.9759 73.5913C94.0559 73.7913 94.1759 74.0113 94.3359 74.2513C94.4959 74.5047 94.7426 74.718 95.0759 74.8913C95.4093 75.078 95.8759 75.1713 96.4759 75.1713C97.1026 75.1713 97.6293 75.0847 98.0559 74.9113C98.4826 74.7513 98.8026 74.458 99.0159 74.0313C99.2426 73.618 99.3559 73.0447 99.3559 72.3113V70.9513C99.0359 71.3647 98.6159 71.7113 98.0959 71.9913C97.5759 72.258 96.9226 72.3913 96.1359 72.3913C95.3893 72.3913 94.7493 72.2647 94.2159 72.0113C93.6826 71.7447 93.2426 71.3913 92.8959 70.9513C92.5626 70.498 92.3093 69.9847 92.1359 69.4113C91.9759 68.838 91.8826 68.238 91.8559 67.6113C91.8426 67.238 91.8426 66.8713 91.8559 66.5113C91.8826 65.8847 91.9759 65.2847 92.1359 64.7113C92.3093 64.138 92.5626 63.6247 92.8959 63.1713C93.2426 62.718 93.6826 62.3647 94.2159 62.1113C94.7493 61.8447 95.3893 61.7113 96.1359 61.7113C96.9359 61.7113 97.5959 61.8647 98.1159 62.1713C98.6493 62.4647 99.0826 62.8247 99.4159 63.2513V62.3913C99.4159 62.258 99.4559 62.1447 99.5359 62.0513C99.6293 61.958 99.7426 61.9113 99.8759 61.9113H100.796C100.929 61.9113 101.043 61.958 101.136 62.0513C101.229 62.1447 101.276 62.258 101.276 62.3913V72.0913C101.276 72.9847 101.123 73.778 100.816 74.4713C100.523 75.1647 100.029 75.7113 99.3359 76.1113C98.6559 76.5113 97.7359 76.7113 96.5759 76.7113ZM96.5359 70.7913C97.2026 70.7913 97.7359 70.638 98.1359 70.3313C98.5493 70.0247 98.8493 69.638 99.0359 69.1713C99.2359 68.7047 99.3426 68.2313 99.3559 67.7513C99.3693 67.5647 99.3759 67.338 99.3759 67.0713C99.3759 66.7913 99.3693 66.558 99.3559 66.3713C99.3426 65.8913 99.2359 65.418 99.0359 64.9513C98.8493 64.4847 98.5493 64.098 98.1359 63.7913C97.7359 63.4847 97.2026 63.3313 96.5359 63.3313C95.8693 63.3313 95.3359 63.4847 94.9359 63.7913C94.5359 64.0847 94.2493 64.478 94.0759 64.9713C93.9026 65.4513 93.8026 65.9713 93.7759 66.5313C93.7626 66.878 93.7626 67.2313 93.7759 67.5913C93.8026 68.1513 93.9026 68.678 94.0759 69.1713C94.2493 69.6513 94.5359 70.0447 94.9359 70.3513C95.3359 70.6447 95.8693 70.7913 96.5359 70.7913ZM108.39 72.5113C107.016 72.5113 105.923 72.0913 105.11 71.2513C104.296 70.398 103.85 69.238 103.77 67.7713C103.756 67.598 103.75 67.378 103.75 67.1113C103.75 66.8313 103.756 66.6047 103.77 66.4313C103.823 65.4847 104.043 64.658 104.43 63.9513C104.816 63.2313 105.343 62.678 106.01 62.2913C106.69 61.9047 107.483 61.7113 108.39 61.7113C109.403 61.7113 110.25 61.9247 110.93 62.3513C111.623 62.778 112.15 63.3847 112.51 64.1713C112.87 64.958 113.05 65.878 113.05 66.9313V67.2713C113.05 67.418 113.003 67.5313 112.91 67.6113C112.83 67.6913 112.723 67.7313 112.59 67.7313H105.67C105.67 67.7447 105.67 67.7713 105.67 67.8113C105.67 67.8513 105.67 67.8847 105.67 67.9113C105.696 68.458 105.816 68.9713 106.03 69.4513C106.243 69.918 106.55 70.298 106.95 70.5913C107.35 70.8847 107.83 71.0313 108.39 71.0313C108.87 71.0313 109.27 70.958 109.59 70.8113C109.91 70.6647 110.17 70.5047 110.37 70.3313C110.57 70.1447 110.703 70.0047 110.77 69.9113C110.89 69.738 110.983 69.638 111.05 69.6113C111.116 69.5713 111.223 69.5513 111.37 69.5513H112.33C112.463 69.5513 112.57 69.5913 112.65 69.6713C112.743 69.738 112.783 69.838 112.77 69.9713C112.756 70.1713 112.65 70.418 112.45 70.7113C112.25 70.9913 111.963 71.2713 111.59 71.5513C111.216 71.8313 110.763 72.0647 110.23 72.2513C109.696 72.4247 109.083 72.5113 108.39 72.5113ZM105.67 66.3513H111.15V66.2913C111.15 65.6913 111.036 65.158 110.81 64.6913C110.596 64.2247 110.283 63.858 109.87 63.5913C109.456 63.3113 108.963 63.1713 108.39 63.1713C107.816 63.1713 107.323 63.3113 106.91 63.5913C106.51 63.858 106.203 64.2247 105.99 64.6913C105.776 65.158 105.67 65.6913 105.67 66.2913V66.3513ZM105.67 60.4113C105.47 60.4113 105.37 60.3313 105.37 60.1713C105.37 60.0647 105.443 59.938 105.59 59.7913L107.43 57.9513C107.563 57.8047 107.676 57.7247 107.77 57.7113C107.876 57.6847 107.983 57.6713 108.09 57.6713H108.69C108.81 57.6713 108.916 57.6847 109.01 57.7113C109.103 57.7247 109.216 57.8047 109.35 57.9513L111.19 59.7913C111.323 59.938 111.39 60.0647 111.39 60.1713C111.39 60.3313 111.296 60.4113 111.11 60.4113H110.59C110.496 60.4113 110.396 60.398 110.29 60.3713C110.183 60.3447 110.096 60.3113 110.03 60.2713L108.39 59.1313L106.75 60.2713C106.67 60.3113 106.576 60.3447 106.47 60.3713C106.376 60.398 106.283 60.4113 106.19 60.4113H105.67ZM115.901 72.3113C115.768 72.3113 115.654 72.2713 115.561 72.1913C115.481 72.098 115.441 71.9847 115.441 71.8513V62.3713C115.441 62.238 115.481 62.1313 115.561 62.0513C115.654 61.958 115.768 61.9113 115.901 61.9113H116.841C116.974 61.9113 117.081 61.958 117.161 62.0513C117.254 62.1313 117.301 62.238 117.301 62.3713V63.2513C117.648 62.798 118.081 62.4313 118.601 62.1513C119.134 61.858 119.814 61.7113 120.641 61.7113C121.508 61.7113 122.241 61.9047 122.841 62.2913C123.454 62.6647 123.914 63.1913 124.221 63.8713C124.528 64.538 124.681 65.318 124.681 66.2113V71.8513C124.681 71.9847 124.641 72.098 124.561 72.1913C124.481 72.2713 124.374 72.3113 124.241 72.3113H123.241C123.108 72.3113 122.994 72.2713 122.901 72.1913C122.821 72.098 122.781 71.9847 122.781 71.8513V66.3113C122.781 65.378 122.554 64.6513 122.101 64.1313C121.648 63.598 120.981 63.3313 120.101 63.3313C119.274 63.3313 118.608 63.598 118.101 64.1313C117.608 64.6513 117.361 65.378 117.361 66.3113V71.8513C117.361 71.9847 117.314 72.098 117.221 72.1913C117.141 72.2713 117.034 72.3113 116.901 72.3113H115.901ZM131.77 72.5113C130.823 72.5113 130.003 72.3313 129.31 71.9713C128.63 71.598 128.103 71.0713 127.73 70.3913C127.357 69.698 127.157 68.8713 127.13 67.9113C127.117 67.7113 127.11 67.4447 127.11 67.1113C127.11 66.778 127.117 66.5113 127.13 66.3113C127.157 65.3513 127.357 64.5313 127.73 63.8513C128.103 63.158 128.63 62.6313 129.31 62.2713C130.003 61.898 130.823 61.7113 131.77 61.7113C132.543 61.7113 133.203 61.818 133.75 62.0313C134.31 62.2447 134.77 62.518 135.13 62.8513C135.49 63.1847 135.757 63.5447 135.93 63.9313C136.117 64.318 136.217 64.6847 136.23 65.0313C136.243 65.1647 136.203 65.2713 136.11 65.3513C136.017 65.4313 135.903 65.4713 135.77 65.4713H134.81C134.677 65.4713 134.577 65.4447 134.51 65.3913C134.443 65.3247 134.377 65.218 134.31 65.0713C134.07 64.418 133.743 63.958 133.33 63.6913C132.917 63.4247 132.403 63.2913 131.79 63.2913C130.99 63.2913 130.337 63.538 129.83 64.0313C129.337 64.5247 129.07 65.318 129.03 66.4113C129.017 66.8913 129.017 67.358 129.03 67.8113C129.07 68.918 129.337 69.718 129.83 70.2113C130.337 70.6913 130.99 70.9313 131.79 70.9313C132.403 70.9313 132.917 70.798 133.33 70.5313C133.743 70.2647 134.07 69.8047 134.31 69.1513C134.377 69.0047 134.443 68.9047 134.51 68.8513C134.577 68.7847 134.677 68.7513 134.81 68.7513H135.77C135.903 68.7513 136.017 68.7913 136.11 68.8713C136.203 68.9513 136.243 69.058 136.23 69.1913C136.217 69.4713 136.157 69.758 136.05 70.0513C135.943 70.3447 135.77 70.6447 135.53 70.9513C135.303 71.2447 135.017 71.5113 134.67 71.7513C134.323 71.978 133.903 72.1647 133.41 72.3113C132.93 72.4447 132.383 72.5113 131.77 72.5113ZM139.065 72.3113C138.932 72.3113 138.818 72.2713 138.725 72.1913C138.645 72.098 138.605 71.9847 138.605 71.8513V62.3713C138.605 62.238 138.645 62.1313 138.725 62.0513C138.818 61.958 138.932 61.9113 139.065 61.9113H140.025C140.158 61.9113 140.265 61.958 140.345 62.0513C140.425 62.1313 140.465 62.238 140.465 62.3713V71.8513C140.465 71.9847 140.425 72.098 140.345 72.1913C140.265 72.2713 140.158 72.3113 140.025 72.3113H139.065ZM138.905 59.9713C138.772 59.9713 138.658 59.9313 138.565 59.8513C138.485 59.758 138.445 59.6447 138.445 59.5113V58.4313C138.445 58.298 138.485 58.1913 138.565 58.1113C138.658 58.018 138.772 57.9713 138.905 57.9713H140.165C140.298 57.9713 140.405 58.018 140.485 58.1113C140.578 58.1913 140.625 58.298 140.625 58.4313V59.5113C140.625 59.6447 140.578 59.758 140.485 59.8513C140.405 59.9313 140.298 59.9713 140.165 59.9713H138.905ZM146.349 72.5113C145.682 72.5113 145.075 72.378 144.529 72.1113C143.982 71.8447 143.542 71.4847 143.209 71.0313C142.875 70.578 142.709 70.0647 142.709 69.4913C142.709 68.5713 143.082 67.838 143.829 67.2913C144.575 66.7447 145.549 66.3847 146.749 66.2113L149.729 65.7913V65.2113C149.729 64.5713 149.542 64.0713 149.169 63.7113C148.809 63.3513 148.215 63.1713 147.389 63.1713C146.789 63.1713 146.302 63.2913 145.929 63.5313C145.569 63.7713 145.315 64.078 145.169 64.4513C145.089 64.6513 144.949 64.7513 144.749 64.7513H143.849C143.702 64.7513 143.589 64.7113 143.509 64.6313C143.442 64.538 143.409 64.4313 143.409 64.3113C143.409 64.1113 143.482 63.8647 143.629 63.5713C143.789 63.278 144.029 62.9913 144.349 62.7113C144.669 62.4313 145.075 62.198 145.569 62.0113C146.075 61.8113 146.689 61.7113 147.409 61.7113C148.209 61.7113 148.882 61.818 149.429 62.0313C149.975 62.2313 150.402 62.5047 150.709 62.8513C151.029 63.198 151.255 63.5913 151.389 64.0313C151.535 64.4713 151.609 64.918 151.609 65.3713V71.8513C151.609 71.9847 151.562 72.098 151.469 72.1913C151.389 72.2713 151.282 72.3113 151.149 72.3113H150.229C150.082 72.3113 149.969 72.2713 149.889 72.1913C149.809 72.098 149.769 71.9847 149.769 71.8513V70.9913C149.595 71.2313 149.362 71.4713 149.069 71.7113C148.775 71.938 148.409 72.1313 147.969 72.2913C147.529 72.438 146.989 72.5113 146.349 72.5113ZM146.769 71.0113C147.315 71.0113 147.815 70.898 148.269 70.6713C148.722 70.4313 149.075 70.0647 149.329 69.5713C149.595 69.078 149.729 68.458 149.729 67.7113V67.1513L147.409 67.4913C146.462 67.6247 145.749 67.8513 145.269 68.1713C144.789 68.478 144.549 68.8713 144.549 69.3513C144.549 69.7247 144.655 70.038 144.869 70.2913C145.095 70.5313 145.375 70.7113 145.709 70.8313C146.055 70.9513 146.409 71.0113 146.769 71.0113ZM43.4656 96.3113C43.319 96.3113 43.2056 96.2713 43.1256 96.1913C43.0456 96.098 43.0056 95.9847 43.0056 95.8513V82.7713C43.0056 82.638 43.0456 82.5313 43.1256 82.4513C43.2056 82.358 43.319 82.3113 43.4656 82.3113H44.5256C44.659 82.3113 44.7656 82.358 44.8456 82.4513C44.939 82.5313 44.9856 82.638 44.9856 82.7713V95.8513C44.9856 95.9847 44.939 96.098 44.8456 96.1913C44.7656 96.2713 44.659 96.3113 44.5256 96.3113H43.4656ZM48.6744 96.3113C48.541 96.3113 48.4277 96.2713 48.3344 96.1913C48.2544 96.098 48.2144 95.9847 48.2144 95.8513V86.3713C48.2144 86.238 48.2544 86.1313 48.3344 86.0513C48.4277 85.958 48.541 85.9113 48.6744 85.9113H49.6144C49.7477 85.9113 49.8544 85.958 49.9344 86.0513C50.0277 86.1313 50.0744 86.238 50.0744 86.3713V87.2513C50.421 86.798 50.8544 86.4313 51.3744 86.1513C51.9077 85.858 52.5877 85.7113 53.4144 85.7113C54.281 85.7113 55.0144 85.9047 55.6144 86.2913C56.2277 86.6647 56.6877 87.1913 56.9944 87.8713C57.301 88.538 57.4544 89.318 57.4544 90.2113V95.8513C57.4544 95.9847 57.4144 96.098 57.3344 96.1913C57.2544 96.2713 57.1477 96.3113 57.0144 96.3113H56.0144C55.881 96.3113 55.7677 96.2713 55.6744 96.1913C55.5944 96.098 55.5544 95.9847 55.5544 95.8513V90.3113C55.5544 89.378 55.3277 88.6513 54.8744 88.1313C54.421 87.598 53.7544 87.3313 52.8744 87.3313C52.0477 87.3313 51.381 87.598 50.8744 88.1313C50.381 88.6513 50.1344 89.378 50.1344 90.3113V95.8513C50.1344 95.9847 50.0877 96.098 49.9944 96.1913C49.9144 96.2713 49.8077 96.3113 49.6744 96.3113H48.6744ZM64.2666 96.3113C63.5199 96.3113 62.9132 96.1713 62.4466 95.8913C61.9799 95.598 61.6399 95.1913 61.4266 94.6713C61.2132 94.138 61.1066 93.5113 61.1066 92.7913V87.5113H59.5466C59.4132 87.5113 59.2999 87.4713 59.2066 87.3913C59.1266 87.298 59.0866 87.1847 59.0866 87.0513V86.3713C59.0866 86.238 59.1266 86.1313 59.2066 86.0513C59.2999 85.958 59.4132 85.9113 59.5466 85.9113H61.1066V82.5713C61.1066 82.438 61.1466 82.3313 61.2266 82.2513C61.3199 82.158 61.4332 82.1113 61.5666 82.1113H62.5066C62.6399 82.1113 62.7466 82.158 62.8266 82.2513C62.9199 82.3313 62.9666 82.438 62.9666 82.5713V85.9113H65.4466C65.5799 85.9113 65.6866 85.958 65.7666 86.0513C65.8599 86.1313 65.9066 86.238 65.9066 86.3713V87.0513C65.9066 87.1847 65.8599 87.298 65.7666 87.3913C65.6866 87.4713 65.5799 87.5113 65.4466 87.5113H62.9666V92.6513C62.9666 93.278 63.0732 93.7713 63.2866 94.1313C63.4999 94.4913 63.8799 94.6713 64.4266 94.6713H65.6466C65.7799 94.6713 65.8866 94.718 65.9666 94.8113C66.0599 94.8913 66.1066 94.998 66.1066 95.1313V95.8513C66.1066 95.9847 66.0599 96.098 65.9666 96.1913C65.8866 96.2713 65.7799 96.3113 65.6466 96.3113H64.2666ZM72.1591 96.5113C70.7857 96.5113 69.6924 96.0913 68.8791 95.2513C68.0657 94.398 67.6191 93.238 67.5391 91.7713C67.5257 91.598 67.5191 91.378 67.5191 91.1113C67.5191 90.8313 67.5257 90.6047 67.5391 90.4313C67.5924 89.4847 67.8124 88.658 68.1991 87.9513C68.5857 87.2313 69.1124 86.678 69.7791 86.2913C70.4591 85.9047 71.2524 85.7113 72.1591 85.7113C73.1724 85.7113 74.0191 85.9247 74.6991 86.3513C75.3924 86.778 75.9191 87.3847 76.2791 88.1713C76.6391 88.958 76.8191 89.878 76.8191 90.9313V91.2713C76.8191 91.418 76.7724 91.5313 76.6791 91.6113C76.5991 91.6913 76.4924 91.7313 76.3591 91.7313H69.4391C69.4391 91.7447 69.4391 91.7713 69.4391 91.8113C69.4391 91.8513 69.4391 91.8847 69.4391 91.9113C69.4657 92.458 69.5857 92.9713 69.7991 93.4513C70.0124 93.918 70.3191 94.298 70.7191 94.5913C71.1191 94.8847 71.5991 95.0313 72.1591 95.0313C72.6391 95.0313 73.0391 94.958 73.3591 94.8113C73.6791 94.6647 73.9391 94.5047 74.1391 94.3313C74.3391 94.1447 74.4724 94.0047 74.5391 93.9113C74.6591 93.738 74.7524 93.638 74.8191 93.6113C74.8857 93.5713 74.9924 93.5513 75.1391 93.5513H76.0991C76.2324 93.5513 76.3391 93.5913 76.4191 93.6713C76.5124 93.738 76.5524 93.838 76.5391 93.9713C76.5257 94.1713 76.4191 94.418 76.2191 94.7113C76.0191 94.9913 75.7324 95.2713 75.3591 95.5513C74.9857 95.8313 74.5324 96.0647 73.9991 96.2513C73.4657 96.4247 72.8524 96.5113 72.1591 96.5113ZM69.4391 90.3513H74.9191V90.2913C74.9191 89.6913 74.8057 89.158 74.5791 88.6913C74.3657 88.2247 74.0524 87.858 73.6391 87.5913C73.2257 87.3113 72.7324 87.1713 72.1591 87.1713C71.5857 87.1713 71.0924 87.3113 70.6791 87.5913C70.2791 87.858 69.9724 88.2247 69.7591 88.6913C69.5457 89.158 69.4391 89.6913 69.4391 90.2913V90.3513ZM79.6705 96.3113C79.5371 96.3113 79.4238 96.2713 79.3305 96.1913C79.2505 96.098 79.2105 95.9847 79.2105 95.8513V86.3913C79.2105 86.258 79.2505 86.1447 79.3305 86.0513C79.4238 85.958 79.5371 85.9113 79.6705 85.9113H80.5905C80.7238 85.9113 80.8371 85.958 80.9305 86.0513C81.0238 86.1447 81.0705 86.258 81.0705 86.3913V87.2713C81.3371 86.818 81.7038 86.478 82.1705 86.2513C82.6371 86.0247 83.1971 85.9113 83.8505 85.9113H84.6505C84.7838 85.9113 84.8905 85.958 84.9705 86.0513C85.0505 86.1313 85.0905 86.238 85.0905 86.3713V87.1913C85.0905 87.3247 85.0505 87.4313 84.9705 87.5113C84.8905 87.5913 84.7838 87.6313 84.6505 87.6313H83.4505C82.7305 87.6313 82.1638 87.8447 81.7505 88.2713C81.3371 88.6847 81.1305 89.2513 81.1305 89.9713V95.8513C81.1305 95.9847 81.0838 96.098 80.9905 96.1913C80.8971 96.2713 80.7838 96.3113 80.6505 96.3113H79.6705ZM87.2881 100.111C87.1548 100.111 87.0415 100.065 86.9481 99.9713C86.8681 99.8913 86.8281 99.7847 86.8281 99.6513V86.3713C86.8281 86.238 86.8681 86.1313 86.9481 86.0513C87.0415 85.958 87.1548 85.9113 87.2881 85.9113H88.2081C88.3415 85.9113 88.4481 85.958 88.5281 86.0513C88.6215 86.1313 88.6681 86.238 88.6681 86.3713V87.2513C88.9881 86.8113 89.4148 86.4447 89.9481 86.1513C90.4815 85.858 91.1481 85.7113 91.9481 85.7113C92.6948 85.7113 93.3281 85.838 93.8481 86.0913C94.3815 86.3447 94.8148 86.6913 95.1481 87.1313C95.4948 87.5713 95.7548 88.0713 95.9281 88.6313C96.1015 89.1913 96.1948 89.7913 96.2081 90.4313C96.2215 90.6447 96.2281 90.8713 96.2281 91.1113C96.2281 91.3513 96.2215 91.578 96.2081 91.7913C96.1948 92.418 96.1015 93.018 95.9281 93.5913C95.7548 94.1513 95.4948 94.6513 95.1481 95.0913C94.8148 95.518 94.3815 95.8647 93.8481 96.1313C93.3281 96.3847 92.6948 96.5113 91.9481 96.5113C91.1748 96.5113 90.5215 96.3713 89.9881 96.0913C89.4681 95.798 89.0415 95.438 88.7081 95.0113V99.6513C88.7081 99.7847 88.6681 99.8913 88.5881 99.9713C88.5081 100.065 88.3948 100.111 88.2481 100.111H87.2881ZM91.5281 94.8913C92.2215 94.8913 92.7615 94.7447 93.1481 94.4513C93.5481 94.1447 93.8348 93.7513 94.0081 93.2713C94.1815 92.778 94.2815 92.2513 94.3081 91.6913C94.3215 91.3047 94.3215 90.918 94.3081 90.5313C94.2815 89.9713 94.1815 89.4513 94.0081 88.9713C93.8348 88.478 93.5481 88.0847 93.1481 87.7913C92.7615 87.4847 92.2215 87.3313 91.5281 87.3313C90.8748 87.3313 90.3415 87.4847 89.9281 87.7913C89.5281 88.098 89.2281 88.4913 89.0281 88.9713C88.8415 89.438 88.7348 89.918 88.7081 90.4113C88.6948 90.6247 88.6881 90.878 88.6881 91.1713C88.6881 91.4647 88.6948 91.7247 88.7081 91.9513C88.7215 92.418 88.8281 92.878 89.0281 93.3313C89.2415 93.7847 89.5548 94.158 89.9681 94.4513C90.3815 94.7447 90.9015 94.8913 91.5281 94.8913ZM102.862 96.5113C101.489 96.5113 100.396 96.0913 99.5822 95.2513C98.7689 94.398 98.3222 93.238 98.2422 91.7713C98.2289 91.598 98.2222 91.378 98.2222 91.1113C98.2222 90.8313 98.2289 90.6047 98.2422 90.4313C98.2955 89.4847 98.5155 88.658 98.9022 87.9513C99.2889 87.2313 99.8155 86.678 100.482 86.2913C101.162 85.9047 101.956 85.7113 102.862 85.7113C103.876 85.7113 104.722 85.9247 105.402 86.3513C106.096 86.778 106.622 87.3847 106.982 88.1713C107.342 88.958 107.522 89.878 107.522 90.9313V91.2713C107.522 91.418 107.476 91.5313 107.382 91.6113C107.302 91.6913 107.196 91.7313 107.062 91.7313H100.142C100.142 91.7447 100.142 91.7713 100.142 91.8113C100.142 91.8513 100.142 91.8847 100.142 91.9113C100.169 92.458 100.289 92.9713 100.502 93.4513C100.716 93.918 101.022 94.298 101.422 94.5913C101.822 94.8847 102.302 95.0313 102.862 95.0313C103.342 95.0313 103.742 94.958 104.062 94.8113C104.382 94.6647 104.642 94.5047 104.842 94.3313C105.042 94.1447 105.176 94.0047 105.242 93.9113C105.362 93.738 105.456 93.638 105.522 93.6113C105.589 93.5713 105.696 93.5513 105.842 93.5513H106.802C106.936 93.5513 107.042 93.5913 107.122 93.6713C107.216 93.738 107.256 93.838 107.242 93.9713C107.229 94.1713 107.122 94.418 106.922 94.7113C106.722 94.9913 106.436 95.2713 106.062 95.5513C105.689 95.8313 105.236 96.0647 104.702 96.2513C104.169 96.4247 103.556 96.5113 102.862 96.5113ZM100.142 90.3513H105.622V90.2913C105.622 89.6913 105.509 89.158 105.282 88.6913C105.069 88.2247 104.756 87.858 104.342 87.5913C103.929 87.3113 103.436 87.1713 102.862 87.1713C102.289 87.1713 101.796 87.3113 101.382 87.5913C100.982 87.858 100.676 88.2247 100.462 88.6913C100.249 89.158 100.142 89.6913 100.142 90.2913V90.3513ZM113.514 96.5113C112.767 96.5113 112.127 96.418 111.594 96.2313C111.06 96.0447 110.627 95.818 110.294 95.5513C109.96 95.2847 109.707 95.018 109.534 94.7513C109.374 94.4847 109.287 94.2713 109.274 94.1113C109.26 93.9647 109.307 93.8513 109.414 93.7713C109.52 93.6913 109.627 93.6513 109.734 93.6513H110.614C110.694 93.6513 110.754 93.6647 110.794 93.6913C110.847 93.7047 110.914 93.758 110.994 93.8513C111.167 94.038 111.36 94.2247 111.574 94.4113C111.787 94.598 112.047 94.7513 112.354 94.8713C112.674 94.9913 113.067 95.0513 113.534 95.0513C114.214 95.0513 114.774 94.9247 115.214 94.6713C115.654 94.4047 115.874 94.018 115.874 93.5113C115.874 93.178 115.78 92.9113 115.594 92.7113C115.42 92.5113 115.1 92.3313 114.634 92.1713C114.18 92.0113 113.554 91.8447 112.754 91.6713C111.954 91.4847 111.32 91.258 110.854 90.9913C110.387 90.7113 110.054 90.3847 109.854 90.0113C109.654 89.6247 109.554 89.1913 109.554 88.7113C109.554 88.218 109.7 87.7447 109.994 87.2913C110.287 86.8247 110.714 86.4447 111.274 86.1513C111.847 85.858 112.56 85.7113 113.414 85.7113C114.107 85.7113 114.7 85.798 115.194 85.9713C115.687 86.1447 116.094 86.3647 116.414 86.6313C116.734 86.8847 116.974 87.138 117.134 87.3913C117.294 87.6447 117.38 87.858 117.394 88.0313C117.407 88.1647 117.367 88.278 117.274 88.3713C117.18 88.4513 117.074 88.4913 116.954 88.4913H116.114C116.02 88.4913 115.94 88.4713 115.874 88.4313C115.82 88.3913 115.767 88.3447 115.714 88.2913C115.58 88.118 115.42 87.9447 115.234 87.7713C115.06 87.598 114.827 87.458 114.534 87.3513C114.254 87.2313 113.88 87.1713 113.414 87.1713C112.747 87.1713 112.247 87.3113 111.914 87.5913C111.58 87.8713 111.414 88.2247 111.414 88.6513C111.414 88.9047 111.487 89.1313 111.634 89.3313C111.78 89.5313 112.06 89.7113 112.474 89.8713C112.887 90.0313 113.5 90.2047 114.314 90.3913C115.194 90.5647 115.887 90.798 116.394 91.0913C116.9 91.3847 117.26 91.7247 117.474 92.1113C117.687 92.498 117.794 92.9447 117.794 93.4513C117.794 94.0113 117.627 94.5247 117.294 94.9913C116.974 95.458 116.494 95.8313 115.854 96.1113C115.227 96.378 114.447 96.5113 113.514 96.5113ZM123.709 96.5113C122.962 96.5113 122.322 96.418 121.789 96.2313C121.256 96.0447 120.822 95.818 120.489 95.5513C120.156 95.2847 119.902 95.018 119.729 94.7513C119.569 94.4847 119.482 94.2713 119.469 94.1113C119.456 93.9647 119.502 93.8513 119.609 93.7713C119.716 93.6913 119.822 93.6513 119.929 93.6513H120.809C120.889 93.6513 120.949 93.6647 120.989 93.6913C121.042 93.7047 121.109 93.758 121.189 93.8513C121.362 94.038 121.556 94.2247 121.769 94.4113C121.982 94.598 122.242 94.7513 122.549 94.8713C122.869 94.9913 123.262 95.0513 123.729 95.0513C124.409 95.0513 124.969 94.9247 125.409 94.6713C125.849 94.4047 126.069 94.018 126.069 93.5113C126.069 93.178 125.976 92.9113 125.789 92.7113C125.616 92.5113 125.296 92.3313 124.829 92.1713C124.376 92.0113 123.749 91.8447 122.949 91.6713C122.149 91.4847 121.516 91.258 121.049 90.9913C120.582 90.7113 120.249 90.3847 120.049 90.0113C119.849 89.6247 119.749 89.1913 119.749 88.7113C119.749 88.218 119.896 87.7447 120.189 87.2913C120.482 86.8247 120.909 86.4447 121.469 86.1513C122.042 85.858 122.756 85.7113 123.609 85.7113C124.302 85.7113 124.896 85.798 125.389 85.9713C125.882 86.1447 126.289 86.3647 126.609 86.6313C126.929 86.8847 127.169 87.138 127.329 87.3913C127.489 87.6447 127.576 87.858 127.589 88.0313C127.602 88.1647 127.562 88.278 127.469 88.3713C127.376 88.4513 127.269 88.4913 127.149 88.4913H126.309C126.216 88.4913 126.136 88.4713 126.069 88.4313C126.016 88.3913 125.962 88.3447 125.909 88.2913C125.776 88.118 125.616 87.9447 125.429 87.7713C125.256 87.598 125.022 87.458 124.729 87.3513C124.449 87.2313 124.076 87.1713 123.609 87.1713C122.942 87.1713 122.442 87.3113 122.109 87.5913C121.776 87.8713 121.609 88.2247 121.609 88.6513C121.609 88.9047 121.682 89.1313 121.829 89.3313C121.976 89.5313 122.256 89.7113 122.669 89.8713C123.082 90.0313 123.696 90.2047 124.509 90.3913C125.389 90.5647 126.082 90.798 126.589 91.0913C127.096 91.3847 127.456 91.7247 127.669 92.1113C127.882 92.498 127.989 92.9447 127.989 93.4513C127.989 94.0113 127.822 94.5247 127.489 94.9913C127.169 95.458 126.689 95.8313 126.049 96.1113C125.422 96.378 124.642 96.5113 123.709 96.5113ZM134.564 96.5113C133.551 96.5113 132.704 96.318 132.024 95.9313C131.344 95.5447 130.824 95.0113 130.464 94.3313C130.104 93.638 129.904 92.8513 129.864 91.9713C129.851 91.7447 129.844 91.458 129.844 91.1113C129.844 90.7513 129.851 90.4647 129.864 90.2513C129.904 89.358 130.104 88.5713 130.464 87.8913C130.838 87.2113 131.364 86.678 132.044 86.2913C132.724 85.9047 133.564 85.7113 134.564 85.7113C135.564 85.7113 136.404 85.9047 137.084 86.2913C137.764 86.678 138.284 87.2113 138.644 87.8913C139.018 88.5713 139.224 89.358 139.264 90.2513C139.278 90.4647 139.284 90.7513 139.284 91.1113C139.284 91.458 139.278 91.7447 139.264 91.9713C139.224 92.8513 139.024 93.638 138.664 94.3313C138.304 95.0113 137.784 95.5447 137.104 95.9313C136.424 96.318 135.578 96.5113 134.564 96.5113ZM134.564 94.9713C135.391 94.9713 136.051 94.7113 136.544 94.1913C137.038 93.658 137.304 92.8847 137.344 91.8713C137.358 91.6713 137.364 91.418 137.364 91.1113C137.364 90.8047 137.358 90.5513 137.344 90.3513C137.304 89.338 137.038 88.5713 136.544 88.0513C136.051 87.518 135.391 87.2513 134.564 87.2513C133.738 87.2513 133.071 87.518 132.564 88.0513C132.071 88.5713 131.811 89.338 131.784 90.3513C131.771 90.5513 131.764 90.8047 131.764 91.1113C131.764 91.418 131.771 91.6713 131.784 91.8713C131.811 92.8847 132.071 93.658 132.564 94.1913C133.071 94.7113 133.738 94.9713 134.564 94.9713ZM144.689 96.5113C144.022 96.5113 143.415 96.378 142.869 96.1113C142.322 95.8447 141.882 95.4847 141.549 95.0313C141.215 94.578 141.049 94.0647 141.049 93.4913C141.049 92.5713 141.422 91.838 142.169 91.2913C142.915 90.7447 143.889 90.3847 145.089 90.2113L148.069 89.7913V89.2113C148.069 88.5713 147.882 88.0713 147.509 87.7113C147.149 87.3513 146.555 87.1713 145.729 87.1713C145.129 87.1713 144.642 87.2913 144.269 87.5313C143.909 87.7713 143.655 88.078 143.509 88.4513C143.429 88.6513 143.289 88.7513 143.089 88.7513H142.189C142.042 88.7513 141.929 88.7113 141.849 88.6313C141.782 88.538 141.749 88.4313 141.749 88.3113C141.749 88.1113 141.822 87.8647 141.969 87.5713C142.129 87.278 142.369 86.9913 142.689 86.7113C143.009 86.4313 143.415 86.198 143.909 86.0113C144.415 85.8113 145.029 85.7113 145.749 85.7113C146.549 85.7113 147.222 85.818 147.769 86.0313C148.315 86.2313 148.742 86.5047 149.049 86.8513C149.369 87.198 149.595 87.5913 149.729 88.0313C149.875 88.4713 149.949 88.918 149.949 89.3713V95.8513C149.949 95.9847 149.902 96.098 149.809 96.1913C149.729 96.2713 149.622 96.3113 149.489 96.3113H148.569C148.422 96.3113 148.309 96.2713 148.229 96.1913C148.149 96.098 148.109 95.9847 148.109 95.8513V94.9913C147.935 95.2313 147.702 95.4713 147.409 95.7113C147.115 95.938 146.749 96.1313 146.309 96.2913C145.869 96.438 145.329 96.5113 144.689 96.5113ZM145.109 95.0113C145.655 95.0113 146.155 94.898 146.609 94.6713C147.062 94.4313 147.415 94.0647 147.669 93.5713C147.935 93.078 148.069 92.458 148.069 91.7113V91.1513L145.749 91.4913C144.802 91.6247 144.089 91.8513 143.609 92.1713C143.129 92.478 142.889 92.8713 142.889 93.3513C142.889 93.7247 142.995 94.038 143.209 94.2913C143.435 94.5313 143.715 94.7113 144.049 94.8313C144.395 94.9513 144.749 95.0113 145.109 95.0113ZM153.304 96.3113C153.17 96.3113 153.057 96.2713 152.964 96.1913C152.884 96.098 152.844 95.9847 152.844 95.8513V82.5713C152.844 82.438 152.884 82.3313 152.964 82.2513C153.057 82.158 153.17 82.1113 153.304 82.1113H154.244C154.39 82.1113 154.504 82.158 154.584 82.2513C154.664 82.3313 154.704 82.438 154.704 82.5713V95.8513C154.704 95.9847 154.664 96.098 154.584 96.1913C154.504 96.2713 154.39 96.3113 154.244 96.3113H153.304Z" fill="black"/>
<path d="M30.1808 97.6447C14.4105 66.3961 36.8302 43.1238 63.7363 30.3113C90.6365 30.3113 117.883 31.4102 144.57 34.8113C154.779 36.1126 162.481 39.3801 171.681 43.7558C176.532 46.0633 182.015 47.6674 184.403 52.8669C191.28 67.8424 187.082 89.0851 180.403 103.311C172.641 119.844 146.66 126.8 130.403 129.978C118.947 132.218 106.579 131.56 95.0141 130.645C72.061 128.828 41.4386 119.952 30.1808 97.6447Z" stroke="#2723EB" stroke-width="3" stroke-linecap="round"/>
<path d="M66.7363 4.31133C64.6842 19.4459 51.0281 33.1671 42.6808 45.5336C31.3149 62.3718 23.2248 88.6815 29.1808 108.7C35.587 130.232 56.0918 150.555 76.4585 159.534C102.446 170.99 128.823 168.815 152.625 152.645C161.46 146.643 169.592 139.305 173.07 128.978C176.599 118.498 177.943 107.178 178.736 96.2002C180.345 73.9313 184.885 41.808 165.292 25.7558C146.804 10.609 120.017 4.56982 96.7363 2.75578C85.8991 1.91132 74.79 0.843043 64.7363 5.31133" stroke="#F12430" stroke-width="3" stroke-linecap="round"/>
<path d="M135.736 15.3113C116.984 15.3113 96.8167 13.2458 78.2918 16.7558C58.4197 20.521 39.7751 29.2726 24.014 41.978C4.69367 57.5526 5.62549 86.5677 14.514 107.978C21.3267 124.388 36.2177 148.064 54.4585 154.145C67.8082 158.595 83.7611 158.133 97.5696 158.645C113.888 159.249 133.988 161.748 149.57 155.256C158.82 151.401 161.552 143.745 163.681 134.7C166.443 122.961 169.66 111.237 171.514 99.3113C174.192 82.0859 178.453 54.7667 167.07 39.5891C157.719 27.1223 138.525 23.1173 124.736 17.3113" stroke="#F5ED28" stroke-width="3" stroke-linecap="round"/>
<path d="M124.736 18.3113C104.46 18.3113 84.7314 19.9416 64.7364 23.5336C56.0951 25.0859 45.6221 26.3563 38.0697 31.3113C25.9372 39.2713 21.9269 53.2149 20.5697 66.8669C18.3361 89.3342 21.9109 107.46 33.8475 126.589C43.0436 141.326 56.0729 151.897 72.6253 157.311C82.5901 160.571 92.8908 162.213 103.292 163.311C115.062 164.554 128.384 166.729 139.959 163.089C155.472 158.21 163.379 146.339 169.07 131.645C173.691 119.712 179.084 99.6358 181.736 87.2002C184.29 75.23 186.521 62.4836 184.348 50.2558C178.991 20.1253 145.656 20.6604 121.736 16.3113" stroke="#33E64F" stroke-width="3" stroke-linecap="round"/>
<path d="M130.736 34.3113C93.691 39.5107 50.9197 28.083 21.2919 56.5336C2.77776 74.312 -9.28122 104.736 17.9585 121.534C33.8642 131.342 54.685 133.595 72.6252 137.2C82.0768 139.1 91.5216 140.959 101.07 142.311C117.09 144.581 140.56 147.899 151.459 132.534C163.246 115.915 166.43 91.336 167.014 71.478C167.203 65.0589 166.821 53.8202 161.236 49.0336C159.531 47.5722 156.569 47.7223 154.514 47.3113C149.573 46.3231 144.994 44.5819 140.403 42.5336C134.974 40.1114 130.233 38.166 125.736 34.3113" stroke="#EF33DC" stroke-width="3" stroke-linecap="round"/>
</svg>
