<svg width="183" height="165" viewBox="0 0 183 165" fill="none" xmlns="http://www.w3.org/2000/svg">
<rect x="23.46" y="7" width="150" height="150" fill="white"/>
<path d="M46.3924 73C46.2457 73 46.1324 72.96 46.0524 72.88C45.9724 72.7867 45.9324 72.6733 45.9324 72.54V59.46C45.9324 59.3267 45.9724 59.22 46.0524 59.14C46.1324 59.0467 46.2457 59 46.3924 59H47.4524C47.5857 59 47.6924 59.0467 47.7724 59.14C47.8657 59.22 47.9124 59.3267 47.9124 59.46V72.54C47.9124 72.6733 47.8657 72.7867 47.7724 72.88C47.6924 72.96 47.5857 73 47.4524 73H46.3924ZM51.6011 73C51.4678 73 51.3545 72.96 51.2611 72.88C51.1811 72.7867 51.1411 72.6733 51.1411 72.54V63.06C51.1411 62.9267 51.1811 62.82 51.2611 62.74C51.3545 62.6467 51.4678 62.6 51.6011 62.6H52.5411C52.6745 62.6 52.7811 62.6467 52.8611 62.74C52.9545 62.82 53.0011 62.9267 53.0011 63.06V63.94C53.3478 63.4867 53.7811 63.12 54.3011 62.84C54.8345 62.5467 55.5145 62.4 56.3411 62.4C57.2078 62.4 57.9411 62.5933 58.5411 62.98C59.1545 63.3533 59.6145 63.88 59.9211 64.56C60.2278 65.2267 60.3811 66.0067 60.3811 66.9V72.54C60.3811 72.6733 60.3411 72.7867 60.2611 72.88C60.1811 72.96 60.0745 73 59.9411 73H58.9411C58.8078 73 58.6945 72.96 58.6011 72.88C58.5211 72.7867 58.4811 72.6733 58.4811 72.54V67C58.4811 66.0667 58.2545 65.34 57.8011 64.82C57.3478 64.2867 56.6811 64.02 55.8011 64.02C54.9745 64.02 54.3078 64.2867 53.8011 64.82C53.3078 65.34 53.0611 66.0667 53.0611 67V72.54C53.0611 72.6733 53.0145 72.7867 52.9211 72.88C52.8411 72.96 52.7345 73 52.6011 73H51.6011ZM67.1933 73C66.4467 73 65.84 72.86 65.3733 72.58C64.9067 72.2867 64.5667 71.88 64.3533 71.36C64.14 70.8267 64.0333 70.2 64.0333 69.48V64.2H62.4733C62.34 64.2 62.2267 64.16 62.1333 64.08C62.0533 63.9867 62.0133 63.8733 62.0133 63.74V63.06C62.0133 62.9267 62.0533 62.82 62.1333 62.74C62.2267 62.6467 62.34 62.6 62.4733 62.6H64.0333V59.26C64.0333 59.1267 64.0733 59.02 64.1533 58.94C64.2467 58.8467 64.36 58.8 64.4933 58.8H65.4333C65.5667 58.8 65.6733 58.8467 65.7533 58.94C65.8467 59.02 65.8933 59.1267 65.8933 59.26V62.6H68.3733C68.5067 62.6 68.6133 62.6467 68.6933 62.74C68.7867 62.82 68.8333 62.9267 68.8333 63.06V63.74C68.8333 63.8733 68.7867 63.9867 68.6933 64.08C68.6133 64.16 68.5067 64.2 68.3733 64.2H65.8933V69.34C65.8933 69.9667 66 70.46 66.2133 70.82C66.4267 71.18 66.8067 71.36 67.3533 71.36H68.5733C68.7067 71.36 68.8133 71.4067 68.8933 71.5C68.9867 71.58 69.0333 71.6867 69.0333 71.82V72.54C69.0333 72.6733 68.9867 72.7867 68.8933 72.88C68.8133 72.96 68.7067 73 68.5733 73H67.1933ZM75.0858 73.2C73.7125 73.2 72.6192 72.78 71.8058 71.94C70.9925 71.0867 70.5458 69.9267 70.4658 68.46C70.4525 68.2867 70.4458 68.0667 70.4458 67.8C70.4458 67.52 70.4525 67.2933 70.4658 67.12C70.5192 66.1733 70.7392 65.3467 71.1258 64.64C71.5125 63.92 72.0392 63.3667 72.7058 62.98C73.3858 62.5933 74.1792 62.4 75.0858 62.4C76.0992 62.4 76.9458 62.6133 77.6258 63.04C78.3192 63.4667 78.8458 64.0733 79.2058 64.86C79.5658 65.6467 79.7458 66.5667 79.7458 67.62V67.96C79.7458 68.1067 79.6992 68.22 79.6058 68.3C79.5258 68.38 79.4192 68.42 79.2858 68.42H72.3658C72.3658 68.4333 72.3658 68.46 72.3658 68.5C72.3658 68.54 72.3658 68.5733 72.3658 68.6C72.3925 69.1467 72.5125 69.66 72.7258 70.14C72.9392 70.6067 73.2458 70.9867 73.6458 71.28C74.0458 71.5733 74.5258 71.72 75.0858 71.72C75.5658 71.72 75.9658 71.6467 76.2858 71.5C76.6058 71.3533 76.8658 71.1933 77.0658 71.02C77.2658 70.8333 77.3992 70.6933 77.4658 70.6C77.5858 70.4267 77.6792 70.3267 77.7458 70.3C77.8125 70.26 77.9192 70.24 78.0658 70.24H79.0258C79.1592 70.24 79.2658 70.28 79.3458 70.36C79.4392 70.4267 79.4792 70.5267 79.4658 70.66C79.4525 70.86 79.3458 71.1067 79.1458 71.4C78.9458 71.68 78.6592 71.96 78.2858 72.24C77.9125 72.52 77.4592 72.7533 76.9258 72.94C76.3925 73.1133 75.7792 73.2 75.0858 73.2ZM72.3658 67.04H77.8458V66.98C77.8458 66.38 77.7325 65.8467 77.5058 65.38C77.2925 64.9133 76.9792 64.5467 76.5658 64.28C76.1525 64 75.6592 63.86 75.0858 63.86C74.5125 63.86 74.0192 64 73.6058 64.28C73.2058 64.5467 72.8992 64.9133 72.6858 65.38C72.4725 65.8467 72.3658 66.38 72.3658 66.98V67.04ZM82.6172 73C82.4839 73 82.3706 72.96 82.2772 72.88C82.1972 72.7867 82.1572 72.6733 82.1572 72.54V59.26C82.1572 59.1267 82.1972 59.02 82.2772 58.94C82.3706 58.8467 82.4839 58.8 82.6172 58.8H83.5572C83.7039 58.8 83.8172 58.8467 83.8972 58.94C83.9772 59.02 84.0172 59.1267 84.0172 59.26V72.54C84.0172 72.6733 83.9772 72.7867 83.8972 72.88C83.8172 72.96 83.7039 73 83.5572 73H82.6172ZM87.6558 73C87.5225 73 87.4092 72.96 87.3158 72.88C87.2358 72.7867 87.1958 72.6733 87.1958 72.54V63.06C87.1958 62.9267 87.2358 62.82 87.3158 62.74C87.4092 62.6467 87.5225 62.6 87.6558 62.6H88.6158C88.7492 62.6 88.8558 62.6467 88.9358 62.74C89.0158 62.82 89.0558 62.9267 89.0558 63.06V72.54C89.0558 72.6733 89.0158 72.7867 88.9358 72.88C88.8558 72.96 88.7492 73 88.6158 73H87.6558ZM87.4958 60.66C87.3625 60.66 87.2492 60.62 87.1558 60.54C87.0758 60.4467 87.0358 60.3333 87.0358 60.2V59.12C87.0358 58.9867 87.0758 58.88 87.1558 58.8C87.2492 58.7067 87.3625 58.66 87.4958 58.66H88.7558C88.8892 58.66 88.9958 58.7067 89.0758 58.8C89.1692 58.88 89.2158 58.9867 89.2158 59.12V60.2C89.2158 60.3333 89.1692 60.4467 89.0758 60.54C88.9958 60.62 88.8892 60.66 88.7558 60.66H87.4958ZM96.2996 77.4C95.3929 77.4 94.6462 77.28 94.0596 77.04C93.4862 76.8 93.0329 76.5067 92.6996 76.16C92.3796 75.8267 92.1462 75.4867 91.9996 75.14C91.8662 74.8067 91.7929 74.54 91.7796 74.34C91.7662 74.2067 91.8062 74.0933 91.8996 74C92.0062 73.9067 92.1196 73.86 92.2396 73.86H93.1996C93.3196 73.86 93.4196 73.8867 93.4996 73.94C93.5796 73.9933 93.6462 74.1067 93.6996 74.28C93.7796 74.48 93.8996 74.7 94.0596 74.94C94.2196 75.1933 94.4662 75.4067 94.7996 75.58C95.1329 75.7667 95.5996 75.86 96.1996 75.86C96.8262 75.86 97.3529 75.7733 97.7796 75.6C98.2062 75.44 98.5262 75.1467 98.7396 74.72C98.9662 74.3067 99.0796 73.7333 99.0796 73V71.64C98.7596 72.0533 98.3396 72.4 97.8196 72.68C97.2996 72.9467 96.6462 73.08 95.8596 73.08C95.1129 73.08 94.4729 72.9533 93.9396 72.7C93.4062 72.4333 92.9662 72.08 92.6196 71.64C92.2862 71.1867 92.0329 70.6733 91.8596 70.1C91.6996 69.5267 91.6062 68.9267 91.5796 68.3C91.5662 67.9267 91.5662 67.56 91.5796 67.2C91.6062 66.5733 91.6996 65.9733 91.8596 65.4C92.0329 64.8267 92.2862 64.3133 92.6196 63.86C92.9662 63.4067 93.4062 63.0533 93.9396 62.8C94.4729 62.5333 95.1129 62.4 95.8596 62.4C96.6596 62.4 97.3196 62.5533 97.8396 62.86C98.3729 63.1533 98.8062 63.5133 99.1396 63.94V63.08C99.1396 62.9467 99.1796 62.8333 99.2596 62.74C99.3529 62.6467 99.4662 62.6 99.5996 62.6H100.52C100.653 62.6 100.766 62.6467 100.86 62.74C100.953 62.8333 101 62.9467 101 63.08V72.78C101 73.6733 100.846 74.4667 100.54 75.16C100.246 75.8533 99.7529 76.4 99.0596 76.8C98.3796 77.2 97.4596 77.4 96.2996 77.4ZM96.2596 71.48C96.9262 71.48 97.4596 71.3267 97.8596 71.02C98.2729 70.7133 98.5729 70.3267 98.7596 69.86C98.9596 69.3933 99.0662 68.92 99.0796 68.44C99.0929 68.2533 99.0996 68.0267 99.0996 67.76C99.0996 67.48 99.0929 67.2467 99.0796 67.06C99.0662 66.58 98.9596 66.1067 98.7596 65.64C98.5729 65.1733 98.2729 64.7867 97.8596 64.48C97.4596 64.1733 96.9262 64.02 96.2596 64.02C95.5929 64.02 95.0596 64.1733 94.6596 64.48C94.2596 64.7733 93.9729 65.1667 93.7996 65.66C93.6262 66.14 93.5262 66.66 93.4996 67.22C93.4862 67.5667 93.4862 67.92 93.4996 68.28C93.5262 68.84 93.6262 69.3667 93.7996 69.86C93.9729 70.34 94.2596 70.7333 94.6596 71.04C95.0596 71.3333 95.5929 71.48 96.2596 71.48ZM108.113 73.2C106.74 73.2 105.646 72.78 104.833 71.94C104.02 71.0867 103.573 69.9267 103.493 68.46C103.48 68.2867 103.473 68.0667 103.473 67.8C103.473 67.52 103.48 67.2933 103.493 67.12C103.546 66.1733 103.766 65.3467 104.153 64.64C104.54 63.92 105.066 63.3667 105.733 62.98C106.413 62.5933 107.206 62.4 108.113 62.4C109.126 62.4 109.973 62.6133 110.653 63.04C111.346 63.4667 111.873 64.0733 112.233 64.86C112.593 65.6467 112.773 66.5667 112.773 67.62V67.96C112.773 68.1067 112.726 68.22 112.633 68.3C112.553 68.38 112.446 68.42 112.313 68.42H105.393C105.393 68.4333 105.393 68.46 105.393 68.5C105.393 68.54 105.393 68.5733 105.393 68.6C105.42 69.1467 105.54 69.66 105.753 70.14C105.966 70.6067 106.273 70.9867 106.673 71.28C107.073 71.5733 107.553 71.72 108.113 71.72C108.593 71.72 108.993 71.6467 109.313 71.5C109.633 71.3533 109.893 71.1933 110.093 71.02C110.293 70.8333 110.426 70.6933 110.493 70.6C110.613 70.4267 110.706 70.3267 110.773 70.3C110.84 70.26 110.946 70.24 111.093 70.24H112.053C112.186 70.24 112.293 70.28 112.373 70.36C112.466 70.4267 112.506 70.5267 112.493 70.66C112.48 70.86 112.373 71.1067 112.173 71.4C111.973 71.68 111.686 71.96 111.313 72.24C110.94 72.52 110.486 72.7533 109.953 72.94C109.42 73.1133 108.806 73.2 108.113 73.2ZM105.393 67.04H110.873V66.98C110.873 66.38 110.76 65.8467 110.533 65.38C110.32 64.9133 110.006 64.5467 109.593 64.28C109.18 64 108.686 63.86 108.113 63.86C107.54 63.86 107.046 64 106.633 64.28C106.233 64.5467 105.926 64.9133 105.713 65.38C105.5 65.8467 105.393 66.38 105.393 66.98V67.04ZM105.393 61.1C105.193 61.1 105.093 61.02 105.093 60.86C105.093 60.7533 105.166 60.6267 105.313 60.48L107.153 58.64C107.286 58.4933 107.4 58.4133 107.493 58.4C107.6 58.3733 107.706 58.36 107.813 58.36H108.413C108.533 58.36 108.64 58.3733 108.733 58.4C108.826 58.4133 108.94 58.4933 109.073 58.64L110.913 60.48C111.046 60.6267 111.113 60.7533 111.113 60.86C111.113 61.02 111.02 61.1 110.833 61.1H110.313C110.22 61.1 110.12 61.0867 110.013 61.06C109.906 61.0333 109.82 61 109.753 60.96L108.113 59.82L106.473 60.96C106.393 61 106.3 61.0333 106.193 61.06C106.1 61.0867 106.006 61.1 105.913 61.1H105.393ZM115.625 73C115.491 73 115.378 72.96 115.285 72.88C115.205 72.7867 115.165 72.6733 115.165 72.54V63.06C115.165 62.9267 115.205 62.82 115.285 62.74C115.378 62.6467 115.491 62.6 115.625 62.6H116.565C116.698 62.6 116.805 62.6467 116.885 62.74C116.978 62.82 117.025 62.9267 117.025 63.06V63.94C117.371 63.4867 117.805 63.12 118.325 62.84C118.858 62.5467 119.538 62.4 120.365 62.4C121.231 62.4 121.965 62.5933 122.565 62.98C123.178 63.3533 123.638 63.88 123.945 64.56C124.251 65.2267 124.405 66.0067 124.405 66.9V72.54C124.405 72.6733 124.365 72.7867 124.285 72.88C124.205 72.96 124.098 73 123.965 73H122.965C122.831 73 122.718 72.96 122.625 72.88C122.545 72.7867 122.505 72.6733 122.505 72.54V67C122.505 66.0667 122.278 65.34 121.825 64.82C121.371 64.2867 120.705 64.02 119.825 64.02C118.998 64.02 118.331 64.2867 117.825 64.82C117.331 65.34 117.085 66.0667 117.085 67V72.54C117.085 72.6733 117.038 72.7867 116.945 72.88C116.865 72.96 116.758 73 116.625 73H115.625ZM131.493 73.2C130.547 73.2 129.727 73.02 129.033 72.66C128.353 72.2867 127.827 71.76 127.453 71.08C127.08 70.3867 126.88 69.56 126.853 68.6C126.84 68.4 126.833 68.1333 126.833 67.8C126.833 67.4667 126.84 67.2 126.853 67C126.88 66.04 127.08 65.22 127.453 64.54C127.827 63.8467 128.353 63.32 129.033 62.96C129.727 62.5867 130.547 62.4 131.493 62.4C132.267 62.4 132.927 62.5067 133.473 62.72C134.033 62.9333 134.493 63.2067 134.853 63.54C135.213 63.8733 135.48 64.2333 135.653 64.62C135.84 65.0067 135.94 65.3733 135.953 65.72C135.967 65.8533 135.927 65.96 135.833 66.04C135.74 66.12 135.627 66.16 135.493 66.16H134.533C134.4 66.16 134.3 66.1333 134.233 66.08C134.167 66.0133 134.1 65.9067 134.033 65.76C133.793 65.1067 133.467 64.6467 133.053 64.38C132.64 64.1133 132.127 63.98 131.513 63.98C130.713 63.98 130.06 64.2267 129.553 64.72C129.06 65.2133 128.793 66.0067 128.753 67.1C128.74 67.58 128.74 68.0467 128.753 68.5C128.793 69.6067 129.06 70.4067 129.553 70.9C130.06 71.38 130.713 71.62 131.513 71.62C132.127 71.62 132.64 71.4867 133.053 71.22C133.467 70.9533 133.793 70.4933 134.033 69.84C134.1 69.6933 134.167 69.5933 134.233 69.54C134.3 69.4733 134.4 69.44 134.533 69.44H135.493C135.627 69.44 135.74 69.48 135.833 69.56C135.927 69.64 135.967 69.7467 135.953 69.88C135.94 70.16 135.88 70.4467 135.773 70.74C135.667 71.0333 135.493 71.3333 135.253 71.64C135.027 71.9333 134.74 72.2 134.393 72.44C134.047 72.6667 133.627 72.8533 133.133 73C132.653 73.1333 132.107 73.2 131.493 73.2ZM138.789 73C138.655 73 138.542 72.96 138.449 72.88C138.369 72.7867 138.329 72.6733 138.329 72.54V63.06C138.329 62.9267 138.369 62.82 138.449 62.74C138.542 62.6467 138.655 62.6 138.789 62.6H139.749C139.882 62.6 139.989 62.6467 140.069 62.74C140.149 62.82 140.189 62.9267 140.189 63.06V72.54C140.189 72.6733 140.149 72.7867 140.069 72.88C139.989 72.96 139.882 73 139.749 73H138.789ZM138.629 60.66C138.495 60.66 138.382 60.62 138.289 60.54C138.209 60.4467 138.169 60.3333 138.169 60.2V59.12C138.169 58.9867 138.209 58.88 138.289 58.8C138.382 58.7067 138.495 58.66 138.629 58.66H139.889C140.022 58.66 140.129 58.7067 140.209 58.8C140.302 58.88 140.349 58.9867 140.349 59.12V60.2C140.349 60.3333 140.302 60.4467 140.209 60.54C140.129 60.62 140.022 60.66 139.889 60.66H138.629ZM146.072 73.2C145.406 73.2 144.799 73.0667 144.252 72.8C143.706 72.5333 143.266 72.1733 142.932 71.72C142.599 71.2667 142.432 70.7533 142.432 70.18C142.432 69.26 142.806 68.5267 143.552 67.98C144.299 67.4333 145.272 67.0733 146.472 66.9L149.452 66.48V65.9C149.452 65.26 149.266 64.76 148.892 64.4C148.532 64.04 147.939 63.86 147.112 63.86C146.512 63.86 146.026 63.98 145.652 64.22C145.292 64.46 145.039 64.7667 144.892 65.14C144.812 65.34 144.672 65.44 144.472 65.44H143.572C143.426 65.44 143.312 65.4 143.232 65.32C143.166 65.2267 143.132 65.12 143.132 65C143.132 64.8 143.206 64.5533 143.352 64.26C143.512 63.9667 143.752 63.68 144.072 63.4C144.392 63.12 144.799 62.8867 145.292 62.7C145.799 62.5 146.412 62.4 147.132 62.4C147.932 62.4 148.606 62.5067 149.152 62.72C149.699 62.92 150.126 63.1933 150.432 63.54C150.752 63.8867 150.979 64.28 151.112 64.72C151.259 65.16 151.332 65.6067 151.332 66.06V72.54C151.332 72.6733 151.286 72.7867 151.192 72.88C151.112 72.96 151.006 73 150.872 73H149.952C149.806 73 149.692 72.96 149.612 72.88C149.532 72.7867 149.492 72.6733 149.492 72.54V71.68C149.319 71.92 149.086 72.16 148.792 72.4C148.499 72.6267 148.132 72.82 147.692 72.98C147.252 73.1267 146.712 73.2 146.072 73.2ZM146.492 71.7C147.039 71.7 147.539 71.5867 147.992 71.36C148.446 71.12 148.799 70.7533 149.052 70.26C149.319 69.7667 149.452 69.1467 149.452 68.4V67.84L147.132 68.18C146.186 68.3133 145.472 68.54 144.992 68.86C144.512 69.1667 144.272 69.56 144.272 70.04C144.272 70.4133 144.379 70.7267 144.592 70.98C144.819 71.22 145.099 71.4 145.432 71.52C145.779 71.64 146.132 71.7 146.492 71.7ZM49.8396 97C49.693 97 49.5796 96.96 49.4996 96.88C49.4196 96.7867 49.3796 96.6733 49.3796 96.54V83.48C49.3796 83.3333 49.4196 83.22 49.4996 83.14C49.5796 83.0467 49.693 83 49.8396 83H50.7596C50.9196 83 51.0396 83.04 51.1196 83.12C51.1996 83.1867 51.2463 83.24 51.2596 83.28L57.8996 93.48V83.48C57.8996 83.3333 57.9396 83.22 58.0196 83.14C58.0996 83.0467 58.213 83 58.3596 83H59.3196C59.4663 83 59.5796 83.0467 59.6596 83.14C59.753 83.22 59.7996 83.3333 59.7996 83.48V96.52C59.7996 96.6533 59.753 96.7667 59.6596 96.86C59.5796 96.9533 59.473 97 59.3396 97H58.3796C58.233 97 58.1196 96.96 58.0396 96.88C57.973 96.8 57.9263 96.7467 57.8996 96.72L51.2796 86.62V96.54C51.2796 96.6733 51.233 96.7867 51.1396 96.88C51.0596 96.96 50.9463 97 50.7996 97H49.8396ZM66.8864 97.2C66.033 97.2 65.3064 97.0133 64.7064 96.64C64.1197 96.2533 63.673 95.72 63.3664 95.04C63.0597 94.36 62.9064 93.58 62.9064 92.7V87.06C62.9064 86.9267 62.9464 86.82 63.0264 86.74C63.1197 86.6467 63.233 86.6 63.3664 86.6H64.3664C64.4997 86.6 64.6064 86.6467 64.6864 86.74C64.7797 86.82 64.8264 86.9267 64.8264 87.06V92.6C64.8264 94.5867 65.693 95.58 67.4264 95.58C68.253 95.58 68.913 95.32 69.4064 94.8C69.913 94.2667 70.1664 93.5333 70.1664 92.6V87.06C70.1664 86.9267 70.2064 86.82 70.2864 86.74C70.3797 86.6467 70.493 86.6 70.6264 86.6H71.6064C71.753 86.6 71.8664 86.6467 71.9464 86.74C72.0264 86.82 72.0664 86.9267 72.0664 87.06V96.54C72.0664 96.6733 72.0264 96.7867 71.9464 96.88C71.8664 96.96 71.753 97 71.6064 97H70.6864C70.553 97 70.4397 96.96 70.3464 96.88C70.2664 96.7867 70.2264 96.6733 70.2264 96.54V95.66C69.8664 96.1267 69.4264 96.5 68.9064 96.78C68.3997 97.06 67.7264 97.2 66.8864 97.2ZM79.0976 97C78.351 97 77.7443 96.86 77.2776 96.58C76.811 96.2867 76.471 95.88 76.2576 95.36C76.0443 94.8267 75.9376 94.2 75.9376 93.48V88.2H74.3776C74.2443 88.2 74.131 88.16 74.0376 88.08C73.9576 87.9867 73.9176 87.8733 73.9176 87.74V87.06C73.9176 86.9267 73.9576 86.82 74.0376 86.74C74.131 86.6467 74.2443 86.6 74.3776 86.6H75.9376V83.26C75.9376 83.1267 75.9776 83.02 76.0576 82.94C76.151 82.8467 76.2643 82.8 76.3976 82.8H77.3376C77.471 82.8 77.5776 82.8467 77.6576 82.94C77.751 83.02 77.7976 83.1267 77.7976 83.26V86.6H80.2776C80.411 86.6 80.5176 86.6467 80.5976 86.74C80.691 86.82 80.7376 86.9267 80.7376 87.06V87.74C80.7376 87.8733 80.691 87.9867 80.5976 88.08C80.5176 88.16 80.411 88.2 80.2776 88.2H77.7976V93.34C77.7976 93.9667 77.9043 94.46 78.1176 94.82C78.331 95.18 78.711 95.36 79.2576 95.36H80.4776C80.611 95.36 80.7176 95.4067 80.7976 95.5C80.891 95.58 80.9376 95.6867 80.9376 95.82V96.54C80.9376 96.6733 80.891 96.7867 80.7976 96.88C80.7176 96.96 80.611 97 80.4776 97H79.0976ZM83.3101 97C83.1768 97 83.0635 96.96 82.9701 96.88C82.8901 96.7867 82.8501 96.6733 82.8501 96.54V87.08C82.8501 86.9467 82.8901 86.8333 82.9701 86.74C83.0635 86.6467 83.1768 86.6 83.3101 86.6H84.2301C84.3635 86.6 84.4768 86.6467 84.5701 86.74C84.6635 86.8333 84.7101 86.9467 84.7101 87.08V87.96C84.9768 87.5067 85.3435 87.1667 85.8101 86.94C86.2768 86.7133 86.8368 86.6 87.4901 86.6H88.2901C88.4235 86.6 88.5301 86.6467 88.6101 86.74C88.6901 86.82 88.7301 86.9267 88.7301 87.06V87.88C88.7301 88.0133 88.6901 88.12 88.6101 88.2C88.5301 88.28 88.4235 88.32 88.2901 88.32H87.0901C86.3701 88.32 85.8035 88.5333 85.3901 88.96C84.9768 89.3733 84.7701 89.94 84.7701 90.66V96.54C84.7701 96.6733 84.7235 96.7867 84.6301 96.88C84.5368 96.96 84.4235 97 84.2901 97H83.3101ZM90.9078 97C90.7744 97 90.6611 96.96 90.5678 96.88C90.4878 96.7867 90.4478 96.6733 90.4478 96.54V87.06C90.4478 86.9267 90.4878 86.82 90.5678 86.74C90.6611 86.6467 90.7744 86.6 90.9078 86.6H91.8678C92.0011 86.6 92.1078 86.6467 92.1878 86.74C92.2678 86.82 92.3078 86.9267 92.3078 87.06V96.54C92.3078 96.6733 92.2678 96.7867 92.1878 96.88C92.1078 96.96 92.0011 97 91.8678 97H90.9078ZM90.7478 84.66C90.6144 84.66 90.5011 84.62 90.4078 84.54C90.3278 84.4467 90.2878 84.3333 90.2878 84.2V83.12C90.2878 82.9867 90.3278 82.88 90.4078 82.8C90.5011 82.7067 90.6144 82.66 90.7478 82.66H92.0078C92.1411 82.66 92.2478 82.7067 92.3278 82.8C92.4211 82.88 92.4678 82.9867 92.4678 83.12V84.2C92.4678 84.3333 92.4211 84.4467 92.3278 84.54C92.2478 84.62 92.1411 84.66 92.0078 84.66H90.7478ZM99.5306 97.2C98.5839 97.2 97.7639 97.02 97.0706 96.66C96.3906 96.2867 95.8639 95.76 95.4906 95.08C95.1173 94.3867 94.9173 93.56 94.8906 92.6C94.8773 92.4 94.8706 92.1333 94.8706 91.8C94.8706 91.4667 94.8773 91.2 94.8906 91C94.9173 90.04 95.1173 89.22 95.4906 88.54C95.8639 87.8467 96.3906 87.32 97.0706 86.96C97.7639 86.5867 98.5839 86.4 99.5306 86.4C100.304 86.4 100.964 86.5067 101.511 86.72C102.071 86.9333 102.531 87.2067 102.891 87.54C103.251 87.8733 103.517 88.2333 103.691 88.62C103.877 89.0067 103.977 89.3733 103.991 89.72C104.004 89.8533 103.964 89.96 103.871 90.04C103.777 90.12 103.664 90.16 103.531 90.16H102.571C102.437 90.16 102.337 90.1333 102.271 90.08C102.204 90.0133 102.137 89.9067 102.071 89.76C101.831 89.1067 101.504 88.6467 101.091 88.38C100.677 88.1133 100.164 87.98 99.5506 87.98C98.7506 87.98 98.0973 88.2267 97.5906 88.72C97.0973 89.2133 96.8306 90.0067 96.7906 91.1C96.7773 91.58 96.7773 92.0467 96.7906 92.5C96.8306 93.6067 97.0973 94.4067 97.5906 94.9C98.0973 95.38 98.7506 95.62 99.5506 95.62C100.164 95.62 100.677 95.4867 101.091 95.22C101.504 94.9533 101.831 94.4933 102.071 93.84C102.137 93.6933 102.204 93.5933 102.271 93.54C102.337 93.4733 102.437 93.44 102.571 93.44H103.531C103.664 93.44 103.777 93.48 103.871 93.56C103.964 93.64 104.004 93.7467 103.991 93.88C103.977 94.16 103.917 94.4467 103.811 94.74C103.704 95.0333 103.531 95.3333 103.291 95.64C103.064 95.9333 102.777 96.2 102.431 96.44C102.084 96.6667 101.664 96.8533 101.171 97C100.691 97.1333 100.144 97.2 99.5306 97.2ZM106.826 97C106.692 97 106.579 96.96 106.486 96.88C106.406 96.7867 106.366 96.6733 106.366 96.54V87.06C106.366 86.9267 106.406 86.82 106.486 86.74C106.579 86.6467 106.692 86.6 106.826 86.6H107.786C107.919 86.6 108.026 86.6467 108.106 86.74C108.186 86.82 108.226 86.9267 108.226 87.06V96.54C108.226 96.6733 108.186 96.7867 108.106 96.88C108.026 96.96 107.919 97 107.786 97H106.826ZM106.666 84.66C106.532 84.66 106.419 84.62 106.326 84.54C106.246 84.4467 106.206 84.3333 106.206 84.2V83.12C106.206 82.9867 106.246 82.88 106.326 82.8C106.419 82.7067 106.532 82.66 106.666 82.66H107.926C108.059 82.66 108.166 82.7067 108.246 82.8C108.339 82.88 108.386 82.9867 108.386 83.12V84.2C108.386 84.3333 108.339 84.4467 108.246 84.54C108.166 84.62 108.059 84.66 107.926 84.66H106.666ZM115.509 97.2C114.495 97.2 113.649 97.0067 112.969 96.62C112.289 96.2333 111.769 95.7 111.409 95.02C111.049 94.3267 110.849 93.54 110.809 92.66C110.795 92.4333 110.789 92.1467 110.789 91.8C110.789 91.44 110.795 91.1533 110.809 90.94C110.849 90.0467 111.049 89.26 111.409 88.58C111.782 87.9 112.309 87.3667 112.989 86.98C113.669 86.5933 114.509 86.4 115.509 86.4C116.509 86.4 117.349 86.5933 118.029 86.98C118.709 87.3667 119.229 87.9 119.589 88.58C119.962 89.26 120.169 90.0467 120.209 90.94C120.222 91.1533 120.229 91.44 120.229 91.8C120.229 92.1467 120.222 92.4333 120.209 92.66C120.169 93.54 119.969 94.3267 119.609 95.02C119.249 95.7 118.729 96.2333 118.049 96.62C117.369 97.0067 116.522 97.2 115.509 97.2ZM115.509 95.66C116.335 95.66 116.995 95.4 117.489 94.88C117.982 94.3467 118.249 93.5733 118.289 92.56C118.302 92.36 118.309 92.1067 118.309 91.8C118.309 91.4933 118.302 91.24 118.289 91.04C118.249 90.0267 117.982 89.26 117.489 88.74C116.995 88.2067 116.335 87.94 115.509 87.94C114.682 87.94 114.015 88.2067 113.509 88.74C113.015 89.26 112.755 90.0267 112.729 91.04C112.715 91.24 112.709 91.4933 112.709 91.8C112.709 92.1067 112.715 92.36 112.729 92.56C112.755 93.5733 113.015 94.3467 113.509 94.88C114.015 95.4 114.682 95.66 115.509 95.66ZM123.193 97C123.06 97 122.946 96.96 122.853 96.88C122.773 96.7867 122.733 96.6733 122.733 96.54V87.06C122.733 86.9267 122.773 86.82 122.853 86.74C122.946 86.6467 123.06 86.6 123.193 86.6H124.133C124.266 86.6 124.373 86.6467 124.453 86.74C124.546 86.82 124.593 86.9267 124.593 87.06V87.94C124.94 87.4867 125.373 87.12 125.893 86.84C126.426 86.5467 127.106 86.4 127.933 86.4C128.8 86.4 129.533 86.5933 130.133 86.98C130.746 87.3533 131.206 87.88 131.513 88.56C131.82 89.2267 131.973 90.0067 131.973 90.9V96.54C131.973 96.6733 131.933 96.7867 131.853 96.88C131.773 96.96 131.666 97 131.533 97H130.533C130.4 97 130.286 96.96 130.193 96.88C130.113 96.7867 130.073 96.6733 130.073 96.54V91C130.073 90.0667 129.846 89.34 129.393 88.82C128.94 88.2867 128.273 88.02 127.393 88.02C126.566 88.02 125.9 88.2867 125.393 88.82C124.9 89.34 124.653 90.0667 124.653 91V96.54C124.653 96.6733 124.606 96.7867 124.513 96.88C124.433 96.96 124.326 97 124.193 97H123.193ZM137.762 97.2C137.095 97.2 136.489 97.0667 135.942 96.8C135.395 96.5333 134.955 96.1733 134.622 95.72C134.289 95.2667 134.122 94.7533 134.122 94.18C134.122 93.26 134.495 92.5267 135.242 91.98C135.989 91.4333 136.962 91.0733 138.162 90.9L141.142 90.48V89.9C141.142 89.26 140.955 88.76 140.582 88.4C140.222 88.04 139.629 87.86 138.802 87.86C138.202 87.86 137.715 87.98 137.342 88.22C136.982 88.46 136.729 88.7667 136.582 89.14C136.502 89.34 136.362 89.44 136.162 89.44H135.262C135.115 89.44 135.002 89.4 134.922 89.32C134.855 89.2267 134.822 89.12 134.822 89C134.822 88.8 134.895 88.5533 135.042 88.26C135.202 87.9667 135.442 87.68 135.762 87.4C136.082 87.12 136.489 86.8867 136.982 86.7C137.489 86.5 138.102 86.4 138.822 86.4C139.622 86.4 140.295 86.5067 140.842 86.72C141.389 86.92 141.815 87.1933 142.122 87.54C142.442 87.8867 142.669 88.28 142.802 88.72C142.949 89.16 143.022 89.6067 143.022 90.06V96.54C143.022 96.6733 142.975 96.7867 142.882 96.88C142.802 96.96 142.695 97 142.562 97H141.642C141.495 97 141.382 96.96 141.302 96.88C141.222 96.7867 141.182 96.6733 141.182 96.54V95.68C141.009 95.92 140.775 96.16 140.482 96.4C140.189 96.6267 139.822 96.82 139.382 96.98C138.942 97.1267 138.402 97.2 137.762 97.2ZM138.182 95.7C138.729 95.7 139.229 95.5867 139.682 95.36C140.135 95.12 140.489 94.7533 140.742 94.26C141.009 93.7667 141.142 93.1467 141.142 92.4V91.84L138.822 92.18C137.875 92.3133 137.162 92.54 136.682 92.86C136.202 93.1667 135.962 93.56 135.962 94.04C135.962 94.4133 136.069 94.7267 136.282 94.98C136.509 95.22 136.789 95.4 137.122 95.52C137.469 95.64 137.822 95.7 138.182 95.7ZM146.377 97C146.244 97 146.13 96.96 146.037 96.88C145.957 96.7867 145.917 96.6733 145.917 96.54V83.26C145.917 83.1267 145.957 83.02 146.037 82.94C146.13 82.8467 146.244 82.8 146.377 82.8H147.317C147.464 82.8 147.577 82.8467 147.657 82.94C147.737 83.02 147.777 83.1267 147.777 83.26V96.54C147.777 96.6733 147.737 96.7867 147.657 96.88C147.577 96.96 147.464 97 147.317 97H146.377Z" fill="black"/>
<path d="M61.4598 38C58.2652 38.9914 54.708 39.4713 51.7376 41.0556C49.2613 42.3762 48.2772 45.36 46.2376 47.2222C38.5979 54.1975 29.9885 57.1032 24.182 66.5556C16.0043 79.8681 15.9999 96.0377 25.2376 108.722C40.8262 130.127 72.3444 131.37 96.4598 134.778C111.593 136.916 129.292 137.445 144.404 134.778C182.237 128.101 189.263 74.667 170.904 46.4444C163.109 34.4611 141.736 32.0976 129.515 29.4444C113.148 25.8911 97.3216 24 80.682 24C74.8439 24 71.7132 24.2869 66.5709 27.4444C61.1707 30.7604 53.8218 34.3967 50.4598 40" stroke="#2723EB" stroke-width="3" stroke-linecap="round"/>
<path d="M84.4597 2C80.3954 15.9992 66.8553 28.7174 55.9042 37.6667C40.393 50.3424 16.7047 59.3837 14.2375 82C12.6035 96.9778 21.2787 108.107 31.3486 118C41.3547 127.83 52.5772 137.346 65.1264 143.778C84.9522 153.939 113.294 161.329 134.46 152C146.044 146.894 152.439 134.74 158.126 124.222C161.884 117.273 164.823 110.234 165.793 102.333C167.209 90.8 166.516 78.8041 166.46 67.2222C166.405 55.9149 168.825 39.1056 161.571 29.2222C149.095 12.2245 122.34 12.4541 103.571 11.7778C95.8573 11.4998 88.1791 11 80.4597 11" stroke="#F12430" stroke-width="3" stroke-linecap="round"/>
<path d="M147.46 14C132.106 11.6711 116.73 9.81263 101.238 8.66664C92.779 8.04095 82.6004 6.71922 74.1264 8.33331C68.0566 9.48948 62.479 14.1474 57.182 17.0555C45.7957 23.3068 36.9776 29.5173 29.682 40.5555C19.9517 55.2774 7.88831 83.7093 24.7931 97.4444C31.6579 103.022 39.3347 108.921 47.7931 111.778C66.8512 118.214 86.9063 124.334 106.626 128.278C123.119 131.576 142.213 127.662 155.793 117.556C171.394 105.946 177.324 85.318 179.404 66.9444C180.851 54.168 183.181 38.5383 170.904 30.8889C164.771 27.0674 158.597 23.2584 152.293 19.7222C150.715 18.8368 149.207 18.4946 148.46 17" stroke="#F5ED28" stroke-width="3" stroke-linecap="round"/>
<path d="M114.46 34C93.1462 31.9078 71.6578 31.5105 50.5155 35.6667C43.3448 37.0763 35.5685 40.5311 30.6822 46.2222C14.7232 64.8098 24.1168 89.073 34.3488 107.889C42.8183 123.464 57.0223 141.166 74.7933 146.778C89.6346 151.464 107.751 150.316 122.96 149.833C132.316 149.536 142.64 149.329 151.238 145C163.254 138.949 170.822 126.238 175.682 114.222C181.702 99.3375 182.227 80.4449 177.238 65.1667C165.82 30.1996 131.943 35 102.46 35" stroke="#33E64F" stroke-width="3" stroke-linecap="round"/>
<path d="M136.46 12C122.571 12 108.682 12 94.7931 12C79.824 12 58.0113 10.2832 44.7376 18.6666C39.1235 22.2124 35.0033 28.8433 30.7931 33.7778C26.4101 38.9149 21.7029 43.8194 17.5709 49.1666C1.21493 70.3332 -4.33832 103.109 11.1265 126C28.5717 151.823 55.1768 153.521 83.4598 158C95.0183 159.831 110.154 164.455 121.904 161.722C142.152 157.013 158.282 141.758 165.515 122.167C172.176 104.126 174.828 83.0664 175.349 64C175.809 47.1433 171.419 36.7271 158.904 26.2222C152.006 20.4316 145.296 15.209 136.46 13" stroke="#EF33DC" stroke-width="3" stroke-linecap="round"/>
</svg>
