<svg width="201" height="181" viewBox="0 0 201 181" fill="none" xmlns="http://www.w3.org/2000/svg">
<rect x="22.9734" y="19" width="150" height="150" fill="white"/>
<path d="M45.9058 74C45.7591 74 45.6458 73.96 45.5658 73.88C45.4858 73.7867 45.4458 73.6733 45.4458 73.54V60.46C45.4458 60.3267 45.4858 60.22 45.5658 60.14C45.6458 60.0467 45.7591 60 45.9058 60H46.9658C47.0991 60 47.2058 60.0467 47.2858 60.14C47.3791 60.22 47.4258 60.3267 47.4258 60.46V73.54C47.4258 73.6733 47.3791 73.7867 47.2858 73.88C47.2058 73.96 47.0991 74 46.9658 74H45.9058ZM51.1146 74C50.9812 74 50.8679 73.96 50.7746 73.88C50.6946 73.7867 50.6546 73.6733 50.6546 73.54V64.06C50.6546 63.9267 50.6946 63.82 50.7746 63.74C50.8679 63.6467 50.9812 63.6 51.1146 63.6H52.0546C52.1879 63.6 52.2946 63.6467 52.3746 63.74C52.4679 63.82 52.5146 63.9267 52.5146 64.06V64.94C52.8612 64.4867 53.2946 64.12 53.8146 63.84C54.3479 63.5467 55.0279 63.4 55.8546 63.4C56.7212 63.4 57.4546 63.5933 58.0546 63.98C58.6679 64.3533 59.1279 64.88 59.4346 65.56C59.7412 66.2267 59.8946 67.0067 59.8946 67.9V73.54C59.8946 73.6733 59.8546 73.7867 59.7746 73.88C59.6946 73.96 59.5879 74 59.4546 74H58.4546C58.3212 74 58.2079 73.96 58.1146 73.88C58.0346 73.7867 57.9946 73.6733 57.9946 73.54V68C57.9946 67.0667 57.7679 66.34 57.3146 65.82C56.8612 65.2867 56.1946 65.02 55.3146 65.02C54.4879 65.02 53.8212 65.2867 53.3146 65.82C52.8212 66.34 52.5746 67.0667 52.5746 68V73.54C52.5746 73.6733 52.5279 73.7867 52.4346 73.88C52.3546 73.96 52.2479 74 52.1146 74H51.1146ZM66.7067 74C65.9601 74 65.3534 73.86 64.8867 73.58C64.4201 73.2867 64.0801 72.88 63.8667 72.36C63.6534 71.8267 63.5467 71.2 63.5467 70.48V65.2H61.9867C61.8534 65.2 61.7401 65.16 61.6467 65.08C61.5667 64.9867 61.5267 64.8733 61.5267 64.74V64.06C61.5267 63.9267 61.5667 63.82 61.6467 63.74C61.7401 63.6467 61.8534 63.6 61.9867 63.6H63.5467V60.26C63.5467 60.1267 63.5867 60.02 63.6667 59.94C63.7601 59.8467 63.8734 59.8 64.0067 59.8H64.9467C65.0801 59.8 65.1867 59.8467 65.2667 59.94C65.3601 60.02 65.4067 60.1267 65.4067 60.26V63.6H67.8867C68.0201 63.6 68.1267 63.6467 68.2067 63.74C68.3001 63.82 68.3467 63.9267 68.3467 64.06V64.74C68.3467 64.8733 68.3001 64.9867 68.2067 65.08C68.1267 65.16 68.0201 65.2 67.8867 65.2H65.4067V70.34C65.4067 70.9667 65.5134 71.46 65.7267 71.82C65.9401 72.18 66.3201 72.36 66.8667 72.36H68.0867C68.2201 72.36 68.3267 72.4067 68.4067 72.5C68.5001 72.58 68.5467 72.6867 68.5467 72.82V73.54C68.5467 73.6733 68.5001 73.7867 68.4067 73.88C68.3267 73.96 68.2201 74 68.0867 74H66.7067ZM74.5992 74.2C73.2259 74.2 72.1326 73.78 71.3192 72.94C70.5059 72.0867 70.0592 70.9267 69.9792 69.46C69.9659 69.2867 69.9592 69.0667 69.9592 68.8C69.9592 68.52 69.9659 68.2933 69.9792 68.12C70.0326 67.1733 70.2526 66.3467 70.6392 65.64C71.0259 64.92 71.5526 64.3667 72.2192 63.98C72.8992 63.5933 73.6926 63.4 74.5992 63.4C75.6126 63.4 76.4592 63.6133 77.1392 64.04C77.8326 64.4667 78.3592 65.0733 78.7192 65.86C79.0792 66.6467 79.2592 67.5667 79.2592 68.62V68.96C79.2592 69.1067 79.2126 69.22 79.1192 69.3C79.0392 69.38 78.9326 69.42 78.7992 69.42H71.8792C71.8792 69.4333 71.8792 69.46 71.8792 69.5C71.8792 69.54 71.8792 69.5733 71.8792 69.6C71.9059 70.1467 72.0259 70.66 72.2392 71.14C72.4526 71.6067 72.7592 71.9867 73.1592 72.28C73.5592 72.5733 74.0392 72.72 74.5992 72.72C75.0792 72.72 75.4792 72.6467 75.7992 72.5C76.1192 72.3533 76.3792 72.1933 76.5792 72.02C76.7792 71.8333 76.9126 71.6933 76.9792 71.6C77.0992 71.4267 77.1926 71.3267 77.2592 71.3C77.3259 71.26 77.4326 71.24 77.5792 71.24H78.5392C78.6726 71.24 78.7792 71.28 78.8592 71.36C78.9526 71.4267 78.9926 71.5267 78.9792 71.66C78.9659 71.86 78.8592 72.1067 78.6592 72.4C78.4592 72.68 78.1726 72.96 77.7992 73.24C77.4259 73.52 76.9726 73.7533 76.4392 73.94C75.9059 74.1133 75.2926 74.2 74.5992 74.2ZM71.8792 68.04H77.3592V67.98C77.3592 67.38 77.2459 66.8467 77.0192 66.38C76.8059 65.9133 76.4926 65.5467 76.0792 65.28C75.6659 65 75.1726 64.86 74.5992 64.86C74.0259 64.86 73.5326 65 73.1192 65.28C72.7192 65.5467 72.4126 65.9133 72.1992 66.38C71.9859 66.8467 71.8792 67.38 71.8792 67.98V68.04ZM82.1307 74C81.9973 74 81.884 73.96 81.7907 73.88C81.7107 73.7867 81.6707 73.6733 81.6707 73.54V60.26C81.6707 60.1267 81.7107 60.02 81.7907 59.94C81.884 59.8467 81.9973 59.8 82.1307 59.8H83.0707C83.2173 59.8 83.3307 59.8467 83.4107 59.94C83.4907 60.02 83.5307 60.1267 83.5307 60.26V73.54C83.5307 73.6733 83.4907 73.7867 83.4107 73.88C83.3307 73.96 83.2173 74 83.0707 74H82.1307ZM87.1692 74C87.0359 74 86.9226 73.96 86.8292 73.88C86.7492 73.7867 86.7092 73.6733 86.7092 73.54V64.06C86.7092 63.9267 86.7492 63.82 86.8292 63.74C86.9226 63.6467 87.0359 63.6 87.1692 63.6H88.1292C88.2626 63.6 88.3692 63.6467 88.4492 63.74C88.5292 63.82 88.5692 63.9267 88.5692 64.06V73.54C88.5692 73.6733 88.5292 73.7867 88.4492 73.88C88.3692 73.96 88.2626 74 88.1292 74H87.1692ZM87.0092 61.66C86.8759 61.66 86.7626 61.62 86.6692 61.54C86.5892 61.4467 86.5492 61.3333 86.5492 61.2V60.12C86.5492 59.9867 86.5892 59.88 86.6692 59.8C86.7626 59.7067 86.8759 59.66 87.0092 59.66H88.2692C88.4026 59.66 88.5092 59.7067 88.5892 59.8C88.6826 59.88 88.7292 59.9867 88.7292 60.12V61.2C88.7292 61.3333 88.6826 61.4467 88.5892 61.54C88.5092 61.62 88.4026 61.66 88.2692 61.66H87.0092ZM95.813 78.4C94.9063 78.4 94.1597 78.28 93.573 78.04C92.9997 77.8 92.5463 77.5067 92.213 77.16C91.893 76.8267 91.6597 76.4867 91.513 76.14C91.3797 75.8067 91.3063 75.54 91.293 75.34C91.2797 75.2067 91.3197 75.0933 91.413 75C91.5197 74.9067 91.633 74.86 91.753 74.86H92.713C92.833 74.86 92.933 74.8867 93.013 74.94C93.093 74.9933 93.1597 75.1067 93.213 75.28C93.293 75.48 93.413 75.7 93.573 75.94C93.733 76.1933 93.9797 76.4067 94.313 76.58C94.6463 76.7667 95.113 76.86 95.713 76.86C96.3397 76.86 96.8663 76.7733 97.293 76.6C97.7197 76.44 98.0397 76.1467 98.253 75.72C98.4797 75.3067 98.593 74.7333 98.593 74V72.64C98.273 73.0533 97.853 73.4 97.333 73.68C96.813 73.9467 96.1597 74.08 95.373 74.08C94.6263 74.08 93.9863 73.9533 93.453 73.7C92.9197 73.4333 92.4797 73.08 92.133 72.64C91.7997 72.1867 91.5463 71.6733 91.373 71.1C91.213 70.5267 91.1197 69.9267 91.093 69.3C91.0797 68.9267 91.0797 68.56 91.093 68.2C91.1197 67.5733 91.213 66.9733 91.373 66.4C91.5463 65.8267 91.7997 65.3133 92.133 64.86C92.4797 64.4067 92.9197 64.0533 93.453 63.8C93.9863 63.5333 94.6263 63.4 95.373 63.4C96.173 63.4 96.833 63.5533 97.353 63.86C97.8863 64.1533 98.3197 64.5133 98.653 64.94V64.08C98.653 63.9467 98.693 63.8333 98.773 63.74C98.8663 63.6467 98.9797 63.6 99.113 63.6H100.033C100.166 63.6 100.28 63.6467 100.373 63.74C100.466 63.8333 100.513 63.9467 100.513 64.08V73.78C100.513 74.6733 100.36 75.4667 100.053 76.16C99.7597 76.8533 99.2663 77.4 98.573 77.8C97.893 78.2 96.973 78.4 95.813 78.4ZM95.773 72.48C96.4397 72.48 96.973 72.3267 97.373 72.02C97.7863 71.7133 98.0863 71.3267 98.273 70.86C98.473 70.3933 98.5797 69.92 98.593 69.44C98.6063 69.2533 98.613 69.0267 98.613 68.76C98.613 68.48 98.6063 68.2467 98.593 68.06C98.5797 67.58 98.473 67.1067 98.273 66.64C98.0863 66.1733 97.7863 65.7867 97.373 65.48C96.973 65.1733 96.4397 65.02 95.773 65.02C95.1063 65.02 94.573 65.1733 94.173 65.48C93.773 65.7733 93.4863 66.1667 93.313 66.66C93.1397 67.14 93.0397 67.66 93.013 68.22C92.9997 68.5667 92.9997 68.92 93.013 69.28C93.0397 69.84 93.1397 70.3667 93.313 70.86C93.4863 71.34 93.773 71.7333 94.173 72.04C94.573 72.3333 95.1063 72.48 95.773 72.48ZM107.627 74.2C106.253 74.2 105.16 73.78 104.347 72.94C103.533 72.0867 103.087 70.9267 103.007 69.46C102.993 69.2867 102.987 69.0667 102.987 68.8C102.987 68.52 102.993 68.2933 103.007 68.12C103.06 67.1733 103.28 66.3467 103.667 65.64C104.053 64.92 104.58 64.3667 105.247 63.98C105.927 63.5933 106.72 63.4 107.627 63.4C108.64 63.4 109.487 63.6133 110.167 64.04C110.86 64.4667 111.387 65.0733 111.747 65.86C112.107 66.6467 112.287 67.5667 112.287 68.62V68.96C112.287 69.1067 112.24 69.22 112.147 69.3C112.067 69.38 111.96 69.42 111.827 69.42H104.907C104.907 69.4333 104.907 69.46 104.907 69.5C104.907 69.54 104.907 69.5733 104.907 69.6C104.933 70.1467 105.053 70.66 105.267 71.14C105.48 71.6067 105.787 71.9867 106.187 72.28C106.587 72.5733 107.067 72.72 107.627 72.72C108.107 72.72 108.507 72.6467 108.827 72.5C109.147 72.3533 109.407 72.1933 109.607 72.02C109.807 71.8333 109.94 71.6933 110.007 71.6C110.127 71.4267 110.22 71.3267 110.287 71.3C110.353 71.26 110.46 71.24 110.607 71.24H111.567C111.7 71.24 111.807 71.28 111.887 71.36C111.98 71.4267 112.02 71.5267 112.007 71.66C111.993 71.86 111.887 72.1067 111.687 72.4C111.487 72.68 111.2 72.96 110.827 73.24C110.453 73.52 110 73.7533 109.467 73.94C108.933 74.1133 108.32 74.2 107.627 74.2ZM104.907 68.04H110.387V67.98C110.387 67.38 110.273 66.8467 110.047 66.38C109.833 65.9133 109.52 65.5467 109.107 65.28C108.693 65 108.2 64.86 107.627 64.86C107.053 64.86 106.56 65 106.147 65.28C105.747 65.5467 105.44 65.9133 105.227 66.38C105.013 66.8467 104.907 67.38 104.907 67.98V68.04ZM104.907 62.1C104.707 62.1 104.607 62.02 104.607 61.86C104.607 61.7533 104.68 61.6267 104.827 61.48L106.667 59.64C106.8 59.4933 106.913 59.4133 107.007 59.4C107.113 59.3733 107.22 59.36 107.327 59.36H107.927C108.047 59.36 108.153 59.3733 108.247 59.4C108.34 59.4133 108.453 59.4933 108.587 59.64L110.427 61.48C110.56 61.6267 110.627 61.7533 110.627 61.86C110.627 62.02 110.533 62.1 110.347 62.1H109.827C109.733 62.1 109.633 62.0867 109.527 62.06C109.42 62.0333 109.333 62 109.267 61.96L107.627 60.82L105.987 61.96C105.907 62 105.813 62.0333 105.707 62.06C105.613 62.0867 105.52 62.1 105.427 62.1H104.907ZM115.138 74C115.005 74 114.891 73.96 114.798 73.88C114.718 73.7867 114.678 73.6733 114.678 73.54V64.06C114.678 63.9267 114.718 63.82 114.798 63.74C114.891 63.6467 115.005 63.6 115.138 63.6H116.078C116.211 63.6 116.318 63.6467 116.398 63.74C116.491 63.82 116.538 63.9267 116.538 64.06V64.94C116.885 64.4867 117.318 64.12 117.838 63.84C118.371 63.5467 119.051 63.4 119.878 63.4C120.745 63.4 121.478 63.5933 122.078 63.98C122.691 64.3533 123.151 64.88 123.458 65.56C123.765 66.2267 123.918 67.0067 123.918 67.9V73.54C123.918 73.6733 123.878 73.7867 123.798 73.88C123.718 73.96 123.611 74 123.478 74H122.478C122.345 74 122.231 73.96 122.138 73.88C122.058 73.7867 122.018 73.6733 122.018 73.54V68C122.018 67.0667 121.791 66.34 121.338 65.82C120.885 65.2867 120.218 65.02 119.338 65.02C118.511 65.02 117.845 65.2867 117.338 65.82C116.845 66.34 116.598 67.0667 116.598 68V73.54C116.598 73.6733 116.551 73.7867 116.458 73.88C116.378 73.96 116.271 74 116.138 74H115.138ZM131.007 74.2C130.06 74.2 129.24 74.02 128.547 73.66C127.867 73.2867 127.34 72.76 126.967 72.08C126.594 71.3867 126.394 70.56 126.367 69.6C126.354 69.4 126.347 69.1333 126.347 68.8C126.347 68.4667 126.354 68.2 126.367 68C126.394 67.04 126.594 66.22 126.967 65.54C127.34 64.8467 127.867 64.32 128.547 63.96C129.24 63.5867 130.06 63.4 131.007 63.4C131.78 63.4 132.44 63.5067 132.987 63.72C133.547 63.9333 134.007 64.2067 134.367 64.54C134.727 64.8733 134.994 65.2333 135.167 65.62C135.354 66.0067 135.454 66.3733 135.467 66.72C135.48 66.8533 135.44 66.96 135.347 67.04C135.254 67.12 135.14 67.16 135.007 67.16H134.047C133.914 67.16 133.814 67.1333 133.747 67.08C133.68 67.0133 133.614 66.9067 133.547 66.76C133.307 66.1067 132.98 65.6467 132.567 65.38C132.154 65.1133 131.64 64.98 131.027 64.98C130.227 64.98 129.574 65.2267 129.067 65.72C128.574 66.2133 128.307 67.0067 128.267 68.1C128.254 68.58 128.254 69.0467 128.267 69.5C128.307 70.6067 128.574 71.4067 129.067 71.9C129.574 72.38 130.227 72.62 131.027 72.62C131.64 72.62 132.154 72.4867 132.567 72.22C132.98 71.9533 133.307 71.4933 133.547 70.84C133.614 70.6933 133.68 70.5933 133.747 70.54C133.814 70.4733 133.914 70.44 134.047 70.44H135.007C135.14 70.44 135.254 70.48 135.347 70.56C135.44 70.64 135.48 70.7467 135.467 70.88C135.454 71.16 135.394 71.4467 135.287 71.74C135.18 72.0333 135.007 72.3333 134.767 72.64C134.54 72.9333 134.254 73.2 133.907 73.44C133.56 73.6667 133.14 73.8533 132.647 74C132.167 74.1333 131.62 74.2 131.007 74.2ZM138.302 74C138.169 74 138.055 73.96 137.962 73.88C137.882 73.7867 137.842 73.6733 137.842 73.54V64.06C137.842 63.9267 137.882 63.82 137.962 63.74C138.055 63.6467 138.169 63.6 138.302 63.6H139.262C139.395 63.6 139.502 63.6467 139.582 63.74C139.662 63.82 139.702 63.9267 139.702 64.06V73.54C139.702 73.6733 139.662 73.7867 139.582 73.88C139.502 73.96 139.395 74 139.262 74H138.302ZM138.142 61.66C138.009 61.66 137.895 61.62 137.802 61.54C137.722 61.4467 137.682 61.3333 137.682 61.2V60.12C137.682 59.9867 137.722 59.88 137.802 59.8C137.895 59.7067 138.009 59.66 138.142 59.66H139.402C139.535 59.66 139.642 59.7067 139.722 59.8C139.815 59.88 139.862 59.9867 139.862 60.12V61.2C139.862 61.3333 139.815 61.4467 139.722 61.54C139.642 61.62 139.535 61.66 139.402 61.66H138.142ZM145.586 74.2C144.919 74.2 144.312 74.0667 143.766 73.8C143.219 73.5333 142.779 73.1733 142.446 72.72C142.112 72.2667 141.946 71.7533 141.946 71.18C141.946 70.26 142.319 69.5267 143.066 68.98C143.812 68.4333 144.786 68.0733 145.986 67.9L148.966 67.48V66.9C148.966 66.26 148.779 65.76 148.406 65.4C148.046 65.04 147.452 64.86 146.626 64.86C146.026 64.86 145.539 64.98 145.166 65.22C144.806 65.46 144.552 65.7667 144.406 66.14C144.326 66.34 144.186 66.44 143.986 66.44H143.086C142.939 66.44 142.826 66.4 142.746 66.32C142.679 66.2267 142.646 66.12 142.646 66C142.646 65.8 142.719 65.5533 142.866 65.26C143.026 64.9667 143.266 64.68 143.586 64.4C143.906 64.12 144.312 63.8867 144.806 63.7C145.312 63.5 145.926 63.4 146.646 63.4C147.446 63.4 148.119 63.5067 148.666 63.72C149.212 63.92 149.639 64.1933 149.946 64.54C150.266 64.8867 150.492 65.28 150.626 65.72C150.772 66.16 150.846 66.6067 150.846 67.06V73.54C150.846 73.6733 150.799 73.7867 150.706 73.88C150.626 73.96 150.519 74 150.386 74H149.466C149.319 74 149.206 73.96 149.126 73.88C149.046 73.7867 149.006 73.6733 149.006 73.54V72.68C148.832 72.92 148.599 73.16 148.306 73.4C148.012 73.6267 147.646 73.82 147.206 73.98C146.766 74.1267 146.226 74.2 145.586 74.2ZM146.006 72.7C146.552 72.7 147.052 72.5867 147.506 72.36C147.959 72.12 148.312 71.7533 148.566 71.26C148.832 70.7667 148.966 70.1467 148.966 69.4V68.84L146.646 69.18C145.699 69.3133 144.986 69.54 144.506 69.86C144.026 70.1667 143.786 70.56 143.786 71.04C143.786 71.4133 143.892 71.7267 144.106 71.98C144.332 72.22 144.612 72.4 144.946 72.52C145.292 72.64 145.646 72.7 146.006 72.7ZM65.1831 98.2C63.9564 98.2 62.9364 97.9733 62.1231 97.52C61.3231 97.0667 60.7164 96.4333 60.3031 95.62C59.8897 94.8067 59.6631 93.86 59.6231 92.78C59.6097 92.2333 59.6031 91.6467 59.6031 91.02C59.6031 90.3933 59.6097 89.7933 59.6231 89.22C59.6631 88.14 59.8897 87.1933 60.3031 86.38C60.7164 85.5667 61.3231 84.9333 62.1231 84.48C62.9364 84.0267 63.9564 83.8 65.1831 83.8C66.1031 83.8 66.9097 83.9267 67.6031 84.18C68.2964 84.4333 68.8697 84.7733 69.3231 85.2C69.7897 85.6267 70.1431 86.1067 70.3831 86.64C70.6231 87.16 70.7564 87.7 70.7831 88.26C70.7964 88.38 70.7564 88.48 70.6631 88.56C70.5831 88.64 70.4831 88.68 70.3631 88.68H69.2631C69.1431 88.68 69.0364 88.6467 68.9431 88.58C68.8631 88.5133 68.8031 88.3933 68.7631 88.22C68.5364 87.18 68.1097 86.4667 67.4831 86.08C66.8697 85.6933 66.0964 85.5 65.1631 85.5C64.0964 85.5 63.2497 85.8067 62.6231 86.42C61.9964 87.02 61.6564 87.9867 61.6031 89.32C61.5631 90.4133 61.5631 91.5333 61.6031 92.68C61.6564 94.0133 61.9964 94.9867 62.6231 95.6C63.2497 96.2 64.0964 96.5 65.1631 96.5C66.0964 96.5 66.8697 96.3067 67.4831 95.92C68.1097 95.5333 68.5364 94.82 68.7631 93.78C68.8031 93.6067 68.8631 93.4867 68.9431 93.42C69.0364 93.3533 69.1431 93.32 69.2631 93.32H70.3631C70.4831 93.32 70.5831 93.36 70.6631 93.44C70.7564 93.52 70.7964 93.62 70.7831 93.74C70.7564 94.3 70.6231 94.8467 70.3831 95.38C70.1431 95.9 69.7897 96.3733 69.3231 96.8C68.8697 97.2267 68.2964 97.5667 67.6031 97.82C66.9097 98.0733 66.1031 98.2 65.1831 98.2ZM77.4634 98.2C76.4501 98.2 75.6034 98.0067 74.9234 97.62C74.2434 97.2333 73.7234 96.7 73.3634 96.02C73.0034 95.3267 72.8034 94.54 72.7634 93.66C72.7501 93.4333 72.7434 93.1467 72.7434 92.8C72.7434 92.44 72.7501 92.1533 72.7634 91.94C72.8034 91.0467 73.0034 90.26 73.3634 89.58C73.7367 88.9 74.2634 88.3667 74.9434 87.98C75.6234 87.5933 76.4634 87.4 77.4634 87.4C78.4634 87.4 79.3034 87.5933 79.9834 87.98C80.6634 88.3667 81.1834 88.9 81.5434 89.58C81.9167 90.26 82.1234 91.0467 82.1634 91.94C82.1767 92.1533 82.1834 92.44 82.1834 92.8C82.1834 93.1467 82.1767 93.4333 82.1634 93.66C82.1234 94.54 81.9234 95.3267 81.5634 96.02C81.2034 96.7 80.6834 97.2333 80.0034 97.62C79.3234 98.0067 78.4767 98.2 77.4634 98.2ZM77.4634 96.66C78.2901 96.66 78.9501 96.4 79.4434 95.88C79.9367 95.3467 80.2034 94.5733 80.2434 93.56C80.2567 93.36 80.2634 93.1067 80.2634 92.8C80.2634 92.4933 80.2567 92.24 80.2434 92.04C80.2034 91.0267 79.9367 90.26 79.4434 89.74C78.9501 89.2067 78.2901 88.94 77.4634 88.94C76.6367 88.94 75.9701 89.2067 75.4634 89.74C74.9701 90.26 74.7101 91.0267 74.6834 92.04C74.6701 92.24 74.6634 92.4933 74.6634 92.8C74.6634 93.1067 74.6701 93.36 74.6834 93.56C74.7101 94.5733 74.9701 95.3467 75.4634 95.88C75.9701 96.4 76.6367 96.66 77.4634 96.66ZM85.1478 98C85.0144 98 84.9011 97.96 84.8078 97.88C84.7278 97.7867 84.6878 97.6733 84.6878 97.54V88.08C84.6878 87.9467 84.7278 87.8333 84.8078 87.74C84.9011 87.6467 85.0144 87.6 85.1478 87.6H86.0678C86.2011 87.6 86.3144 87.6467 86.4078 87.74C86.5011 87.8333 86.5478 87.9467 86.5478 88.08V88.96C86.8144 88.5067 87.1811 88.1667 87.6478 87.94C88.1144 87.7133 88.6744 87.6 89.3278 87.6H90.1278C90.2611 87.6 90.3678 87.6467 90.4478 87.74C90.5278 87.82 90.5678 87.9267 90.5678 88.06V88.88C90.5678 89.0133 90.5278 89.12 90.4478 89.2C90.3678 89.28 90.2611 89.32 90.1278 89.32H88.9278C88.2078 89.32 87.6411 89.5333 87.2278 89.96C86.8144 90.3733 86.6078 90.94 86.6078 91.66V97.54C86.6078 97.6733 86.5611 97.7867 86.4678 97.88C86.3744 97.96 86.2611 98 86.1278 98H85.1478ZM92.7654 101.8C92.6321 101.8 92.5188 101.753 92.4254 101.66C92.3454 101.58 92.3054 101.473 92.3054 101.34V88.06C92.3054 87.9267 92.3454 87.82 92.4254 87.74C92.5188 87.6467 92.6321 87.6 92.7654 87.6H93.6854C93.8188 87.6 93.9254 87.6467 94.0054 87.74C94.0988 87.82 94.1454 87.9267 94.1454 88.06V88.94C94.4654 88.5 94.8921 88.1333 95.4254 87.84C95.9588 87.5467 96.6254 87.4 97.4254 87.4C98.1721 87.4 98.8054 87.5267 99.3254 87.78C99.8588 88.0333 100.292 88.38 100.625 88.82C100.972 89.26 101.232 89.76 101.405 90.32C101.579 90.88 101.672 91.48 101.685 92.12C101.699 92.3333 101.705 92.56 101.705 92.8C101.705 93.04 101.699 93.2667 101.685 93.48C101.672 94.1067 101.579 94.7067 101.405 95.28C101.232 95.84 100.972 96.34 100.625 96.78C100.292 97.2067 99.8588 97.5533 99.3254 97.82C98.8054 98.0733 98.1721 98.2 97.4254 98.2C96.6521 98.2 95.9988 98.06 95.4654 97.78C94.9454 97.4867 94.5188 97.1267 94.1854 96.7V101.34C94.1854 101.473 94.1454 101.58 94.0654 101.66C93.9854 101.753 93.8721 101.8 93.7254 101.8H92.7654ZM97.0054 96.58C97.6988 96.58 98.2388 96.4333 98.6254 96.14C99.0254 95.8333 99.3121 95.44 99.4854 94.96C99.6588 94.4667 99.7588 93.94 99.7854 93.38C99.7988 92.9933 99.7988 92.6067 99.7854 92.22C99.7588 91.66 99.6588 91.14 99.4854 90.66C99.3121 90.1667 99.0254 89.7733 98.6254 89.48C98.2388 89.1733 97.6988 89.02 97.0054 89.02C96.3521 89.02 95.8188 89.1733 95.4054 89.48C95.0054 89.7867 94.7054 90.18 94.5054 90.66C94.3188 91.1267 94.2121 91.6067 94.1854 92.1C94.1721 92.3133 94.1654 92.5667 94.1654 92.86C94.1654 93.1533 94.1721 93.4133 94.1854 93.64C94.1988 94.1067 94.3054 94.5667 94.5054 95.02C94.7188 95.4733 95.0321 95.8467 95.4454 96.14C95.8588 96.4333 96.3788 96.58 97.0054 96.58ZM108.459 98.2C107.446 98.2 106.599 98.0067 105.919 97.62C105.239 97.2333 104.719 96.7 104.359 96.02C103.999 95.3267 103.799 94.54 103.759 93.66C103.746 93.4333 103.739 93.1467 103.739 92.8C103.739 92.44 103.746 92.1533 103.759 91.94C103.799 91.0467 103.999 90.26 104.359 89.58C104.733 88.9 105.259 88.3667 105.939 87.98C106.619 87.5933 107.459 87.4 108.459 87.4C109.459 87.4 110.299 87.5933 110.979 87.98C111.659 88.3667 112.179 88.9 112.539 89.58C112.913 90.26 113.119 91.0467 113.159 91.94C113.173 92.1533 113.179 92.44 113.179 92.8C113.179 93.1467 113.173 93.4333 113.159 93.66C113.119 94.54 112.919 95.3267 112.559 96.02C112.199 96.7 111.679 97.2333 110.999 97.62C110.319 98.0067 109.473 98.2 108.459 98.2ZM108.459 96.66C109.286 96.66 109.946 96.4 110.439 95.88C110.933 95.3467 111.199 94.5733 111.239 93.56C111.253 93.36 111.259 93.1067 111.259 92.8C111.259 92.4933 111.253 92.24 111.239 92.04C111.199 91.0267 110.933 90.26 110.439 89.74C109.946 89.2067 109.286 88.94 108.459 88.94C107.633 88.94 106.966 89.2067 106.459 89.74C105.966 90.26 105.706 91.0267 105.679 92.04C105.666 92.24 105.659 92.4933 105.659 92.8C105.659 93.1067 105.666 93.36 105.679 93.56C105.706 94.5733 105.966 95.3467 106.459 95.88C106.966 96.4 107.633 96.66 108.459 96.66ZM116.144 98C116.011 98 115.897 97.96 115.804 97.88C115.724 97.7867 115.684 97.6733 115.684 97.54V88.08C115.684 87.9467 115.724 87.8333 115.804 87.74C115.897 87.6467 116.011 87.6 116.144 87.6H117.064C117.197 87.6 117.311 87.6467 117.404 87.74C117.497 87.8333 117.544 87.9467 117.544 88.08V88.96C117.811 88.5067 118.177 88.1667 118.644 87.94C119.111 87.7133 119.671 87.6 120.324 87.6H121.124C121.257 87.6 121.364 87.6467 121.444 87.74C121.524 87.82 121.564 87.9267 121.564 88.06V88.88C121.564 89.0133 121.524 89.12 121.444 89.2C121.364 89.28 121.257 89.32 121.124 89.32H119.924C119.204 89.32 118.637 89.5333 118.224 89.96C117.811 90.3733 117.604 90.94 117.604 91.66V97.54C117.604 97.6733 117.557 97.7867 117.464 97.88C117.371 97.96 117.257 98 117.124 98H116.144ZM126.025 98.2C125.359 98.2 124.752 98.0667 124.205 97.8C123.659 97.5333 123.219 97.1733 122.885 96.72C122.552 96.2667 122.385 95.7533 122.385 95.18C122.385 94.26 122.759 93.5267 123.505 92.98C124.252 92.4333 125.225 92.0733 126.425 91.9L129.405 91.48V90.9C129.405 90.26 129.219 89.76 128.845 89.4C128.485 89.04 127.892 88.86 127.065 88.86C126.465 88.86 125.979 88.98 125.605 89.22C125.245 89.46 124.992 89.7667 124.845 90.14C124.765 90.34 124.625 90.44 124.425 90.44H123.525C123.379 90.44 123.265 90.4 123.185 90.32C123.119 90.2267 123.085 90.12 123.085 90C123.085 89.8 123.159 89.5533 123.305 89.26C123.465 88.9667 123.705 88.68 124.025 88.4C124.345 88.12 124.752 87.8867 125.245 87.7C125.752 87.5 126.365 87.4 127.085 87.4C127.885 87.4 128.559 87.5067 129.105 87.72C129.652 87.92 130.079 88.1933 130.385 88.54C130.705 88.8867 130.932 89.28 131.065 89.72C131.212 90.16 131.285 90.6067 131.285 91.06V97.54C131.285 97.6733 131.239 97.7867 131.145 97.88C131.065 97.96 130.959 98 130.825 98H129.905C129.759 98 129.645 97.96 129.565 97.88C129.485 97.7867 129.445 97.6733 129.445 97.54V96.68C129.272 96.92 129.039 97.16 128.745 97.4C128.452 97.6267 128.085 97.82 127.645 97.98C127.205 98.1267 126.665 98.2 126.025 98.2ZM126.445 96.7C126.992 96.7 127.492 96.5867 127.945 96.36C128.399 96.12 128.752 95.7533 129.005 95.26C129.272 94.7667 129.405 94.1467 129.405 93.4V92.84L127.085 93.18C126.139 93.3133 125.425 93.54 124.945 93.86C124.465 94.1667 124.225 94.56 124.225 95.04C124.225 95.4133 124.332 95.7267 124.545 95.98C124.772 96.22 125.052 96.4 125.385 96.52C125.732 96.64 126.085 96.7 126.445 96.7ZM134.64 98C134.507 98 134.394 97.96 134.3 97.88C134.22 97.7867 134.18 97.6733 134.18 97.54V84.26C134.18 84.1267 134.22 84.02 134.3 83.94C134.394 83.8467 134.507 83.8 134.64 83.8H135.58C135.727 83.8 135.84 83.8467 135.92 83.94C136 84.02 136.04 84.1267 136.04 84.26V97.54C136.04 97.6733 136 97.7867 135.92 97.88C135.84 97.96 135.727 98 135.58 98H134.64ZM50.7495 122.2C49.5228 122.2 48.5028 121.973 47.6895 121.52C46.8895 121.067 46.2828 120.433 45.8695 119.62C45.4561 118.807 45.2295 117.86 45.1895 116.78C45.1761 116.233 45.1695 115.647 45.1695 115.02C45.1695 114.393 45.1761 113.793 45.1895 113.22C45.2295 112.14 45.4561 111.193 45.8695 110.38C46.2828 109.567 46.8895 108.933 47.6895 108.48C48.5028 108.027 49.5228 107.8 50.7495 107.8C51.6695 107.8 52.4761 107.927 53.1695 108.18C53.8628 108.433 54.4361 108.773 54.8895 109.2C55.3561 109.627 55.7095 110.107 55.9495 110.64C56.1895 111.16 56.3228 111.7 56.3495 112.26C56.3628 112.38 56.3228 112.48 56.2295 112.56C56.1495 112.64 56.0495 112.68 55.9295 112.68H54.8295C54.7095 112.68 54.6028 112.647 54.5095 112.58C54.4295 112.513 54.3695 112.393 54.3295 112.22C54.1028 111.18 53.6761 110.467 53.0495 110.08C52.4361 109.693 51.6628 109.5 50.7295 109.5C49.6628 109.5 48.8161 109.807 48.1895 110.42C47.5628 111.02 47.2228 111.987 47.1695 113.32C47.1295 114.413 47.1295 115.533 47.1695 116.68C47.2228 118.013 47.5628 118.987 48.1895 119.6C48.8161 120.2 49.6628 120.5 50.7295 120.5C51.6628 120.5 52.4361 120.307 53.0495 119.92C53.6761 119.533 54.1028 118.82 54.3295 117.78C54.3695 117.607 54.4295 117.487 54.5095 117.42C54.6028 117.353 54.7095 117.32 54.8295 117.32H55.9295C56.0495 117.32 56.1495 117.36 56.2295 117.44C56.3228 117.52 56.3628 117.62 56.3495 117.74C56.3228 118.3 56.1895 118.847 55.9495 119.38C55.7095 119.9 55.3561 120.373 54.8895 120.8C54.4361 121.227 53.8628 121.567 53.1695 121.82C52.4761 122.073 51.6695 122.2 50.7495 122.2ZM59.2298 122C59.0965 122 58.9831 121.96 58.8898 121.88C58.8098 121.787 58.7698 121.673 58.7698 121.54V112.06C58.7698 111.927 58.8098 111.82 58.8898 111.74C58.9831 111.647 59.0965 111.6 59.2298 111.6H60.1898C60.3231 111.6 60.4298 111.647 60.5098 111.74C60.5898 111.82 60.6298 111.927 60.6298 112.06V121.54C60.6298 121.673 60.5898 121.787 60.5098 121.88C60.4298 121.96 60.3231 122 60.1898 122H59.2298ZM59.0698 109.66C58.9365 109.66 58.8231 109.62 58.7298 109.54C58.6498 109.447 58.6098 109.333 58.6098 109.2V108.12C58.6098 107.987 58.6498 107.88 58.7298 107.8C58.8231 107.707 58.9365 107.66 59.0698 107.66H60.3298C60.4631 107.66 60.5698 107.707 60.6498 107.8C60.7431 107.88 60.7898 107.987 60.7898 108.12V109.2C60.7898 109.333 60.7431 109.447 60.6498 109.54C60.5698 109.62 60.4631 109.66 60.3298 109.66H59.0698ZM64.2689 122C64.1355 122 64.0222 121.96 63.9289 121.88C63.8489 121.787 63.8089 121.673 63.8089 121.54V112.06C63.8089 111.927 63.8489 111.82 63.9289 111.74C64.0222 111.647 64.1355 111.6 64.2689 111.6H65.2089C65.3422 111.6 65.4489 111.647 65.5289 111.74C65.6222 111.82 65.6689 111.927 65.6689 112.06V112.94C66.0155 112.487 66.4489 112.12 66.9689 111.84C67.5022 111.547 68.1822 111.4 69.0089 111.4C69.8755 111.4 70.6089 111.593 71.2089 111.98C71.8222 112.353 72.2822 112.88 72.5889 113.56C72.8955 114.227 73.0489 115.007 73.0489 115.9V121.54C73.0489 121.673 73.0089 121.787 72.9289 121.88C72.8489 121.96 72.7422 122 72.6089 122H71.6089C71.4755 122 71.3622 121.96 71.2689 121.88C71.1889 121.787 71.1489 121.673 71.1489 121.54V116C71.1489 115.067 70.9222 114.34 70.4689 113.82C70.0155 113.287 69.3489 113.02 68.4689 113.02C67.6422 113.02 66.9755 113.287 66.4689 113.82C65.9755 114.34 65.7289 115.067 65.7289 116V121.54C65.7289 121.673 65.6822 121.787 65.5889 121.88C65.5089 121.96 65.4022 122 65.2689 122H64.2689ZM80.0778 122.2C78.7044 122.2 77.6111 121.78 76.7978 120.94C75.9844 120.087 75.5378 118.927 75.4578 117.46C75.4444 117.287 75.4378 117.067 75.4378 116.8C75.4378 116.52 75.4444 116.293 75.4578 116.12C75.5111 115.173 75.7311 114.347 76.1178 113.64C76.5044 112.92 77.0311 112.367 77.6978 111.98C78.3778 111.593 79.1711 111.4 80.0778 111.4C81.0911 111.4 81.9378 111.613 82.6178 112.04C83.3111 112.467 83.8378 113.073 84.1978 113.86C84.5578 114.647 84.7378 115.567 84.7378 116.62V116.96C84.7378 117.107 84.6911 117.22 84.5978 117.3C84.5178 117.38 84.4111 117.42 84.2778 117.42H77.3578C77.3578 117.433 77.3578 117.46 77.3578 117.5C77.3578 117.54 77.3578 117.573 77.3578 117.6C77.3844 118.147 77.5044 118.66 77.7178 119.14C77.9311 119.607 78.2378 119.987 78.6378 120.28C79.0378 120.573 79.5178 120.72 80.0778 120.72C80.5578 120.72 80.9578 120.647 81.2778 120.5C81.5978 120.353 81.8578 120.193 82.0578 120.02C82.2578 119.833 82.3911 119.693 82.4578 119.6C82.5778 119.427 82.6711 119.327 82.7378 119.3C82.8044 119.26 82.9111 119.24 83.0578 119.24H84.0178C84.1511 119.24 84.2578 119.28 84.3378 119.36C84.4311 119.427 84.4711 119.527 84.4578 119.66C84.4444 119.86 84.3378 120.107 84.1378 120.4C83.9378 120.68 83.6511 120.96 83.2778 121.24C82.9044 121.52 82.4511 121.753 81.9178 121.94C81.3844 122.113 80.7711 122.2 80.0778 122.2ZM77.3578 116.04H82.8378V115.98C82.8378 115.38 82.7244 114.847 82.4978 114.38C82.2844 113.913 81.9711 113.547 81.5578 113.28C81.1444 113 80.6511 112.86 80.0778 112.86C79.5044 112.86 79.0111 113 78.5978 113.28C78.1978 113.547 77.8911 113.913 77.6778 114.38C77.4644 114.847 77.3578 115.38 77.3578 115.98V116.04ZM90.7292 122.2C89.9825 122.2 89.3425 122.107 88.8092 121.92C88.2758 121.733 87.8425 121.507 87.5092 121.24C87.1758 120.973 86.9225 120.707 86.7492 120.44C86.5892 120.173 86.5025 119.96 86.4892 119.8C86.4758 119.653 86.5225 119.54 86.6292 119.46C86.7358 119.38 86.8425 119.34 86.9492 119.34H87.8292C87.9092 119.34 87.9692 119.353 88.0092 119.38C88.0625 119.393 88.1292 119.447 88.2092 119.54C88.3825 119.727 88.5758 119.913 88.7892 120.1C89.0025 120.287 89.2625 120.44 89.5692 120.56C89.8892 120.68 90.2825 120.74 90.7492 120.74C91.4292 120.74 91.9892 120.613 92.4292 120.36C92.8692 120.093 93.0892 119.707 93.0892 119.2C93.0892 118.867 92.9958 118.6 92.8092 118.4C92.6358 118.2 92.3158 118.02 91.8492 117.86C91.3958 117.7 90.7692 117.533 89.9692 117.36C89.1692 117.173 88.5358 116.947 88.0692 116.68C87.6025 116.4 87.2692 116.073 87.0692 115.7C86.8692 115.313 86.7692 114.88 86.7692 114.4C86.7692 113.907 86.9158 113.433 87.2092 112.98C87.5025 112.513 87.9292 112.133 88.4892 111.84C89.0625 111.547 89.7758 111.4 90.6292 111.4C91.3225 111.4 91.9158 111.487 92.4092 111.66C92.9025 111.833 93.3092 112.053 93.6292 112.32C93.9492 112.573 94.1892 112.827 94.3492 113.08C94.5092 113.333 94.5958 113.547 94.6092 113.72C94.6225 113.853 94.5825 113.967 94.4892 114.06C94.3958 114.14 94.2892 114.18 94.1692 114.18H93.3292C93.2358 114.18 93.1558 114.16 93.0892 114.12C93.0358 114.08 92.9825 114.033 92.9292 113.98C92.7958 113.807 92.6358 113.633 92.4492 113.46C92.2758 113.287 92.0425 113.147 91.7492 113.04C91.4692 112.92 91.0958 112.86 90.6292 112.86C89.9625 112.86 89.4625 113 89.1292 113.28C88.7958 113.56 88.6292 113.913 88.6292 114.34C88.6292 114.593 88.7025 114.82 88.8492 115.02C88.9958 115.22 89.2758 115.4 89.6892 115.56C90.1025 115.72 90.7158 115.893 91.5292 116.08C92.4092 116.253 93.1025 116.487 93.6092 116.78C94.1158 117.073 94.4758 117.413 94.6892 117.8C94.9025 118.187 95.0092 118.633 95.0092 119.14C95.0092 119.7 94.8425 120.213 94.5092 120.68C94.1892 121.147 93.7092 121.52 93.0692 121.8C92.4425 122.067 91.6625 122.2 90.7292 122.2ZM101.365 122C100.618 122 100.012 121.86 99.545 121.58C99.0783 121.287 98.7383 120.88 98.525 120.36C98.3116 119.827 98.205 119.2 98.205 118.48V113.2H96.645C96.5116 113.2 96.3983 113.16 96.305 113.08C96.225 112.987 96.185 112.873 96.185 112.74V112.06C96.185 111.927 96.225 111.82 96.305 111.74C96.3983 111.647 96.5116 111.6 96.645 111.6H98.205V108.26C98.205 108.127 98.245 108.02 98.325 107.94C98.4183 107.847 98.5316 107.8 98.665 107.8H99.605C99.7383 107.8 99.845 107.847 99.925 107.94C100.018 108.02 100.065 108.127 100.065 108.26V111.6H102.545C102.678 111.6 102.785 111.647 102.865 111.74C102.958 111.82 103.005 111.927 103.005 112.06V112.74C103.005 112.873 102.958 112.987 102.865 113.08C102.785 113.16 102.678 113.2 102.545 113.2H100.065V118.34C100.065 118.967 100.172 119.46 100.385 119.82C100.598 120.18 100.978 120.36 101.525 120.36H102.745C102.878 120.36 102.985 120.407 103.065 120.5C103.158 120.58 103.205 120.687 103.205 120.82V121.54C103.205 121.673 103.158 121.787 103.065 121.88C102.985 121.96 102.878 122 102.745 122H101.365ZM109.257 122.2C107.884 122.2 106.791 121.78 105.977 120.94C105.164 120.087 104.717 118.927 104.637 117.46C104.624 117.287 104.617 117.067 104.617 116.8C104.617 116.52 104.624 116.293 104.637 116.12C104.691 115.173 104.911 114.347 105.297 113.64C105.684 112.92 106.211 112.367 106.877 111.98C107.557 111.593 108.351 111.4 109.257 111.4C110.271 111.4 111.117 111.613 111.797 112.04C112.491 112.467 113.017 113.073 113.377 113.86C113.737 114.647 113.917 115.567 113.917 116.62V116.96C113.917 117.107 113.871 117.22 113.777 117.3C113.697 117.38 113.591 117.42 113.457 117.42H106.537C106.537 117.433 106.537 117.46 106.537 117.5C106.537 117.54 106.537 117.573 106.537 117.6C106.564 118.147 106.684 118.66 106.897 119.14C107.111 119.607 107.417 119.987 107.817 120.28C108.217 120.573 108.697 120.72 109.257 120.72C109.737 120.72 110.137 120.647 110.457 120.5C110.777 120.353 111.037 120.193 111.237 120.02C111.437 119.833 111.571 119.693 111.637 119.6C111.757 119.427 111.851 119.327 111.917 119.3C111.984 119.26 112.091 119.24 112.237 119.24H113.197C113.331 119.24 113.437 119.28 113.517 119.36C113.611 119.427 113.651 119.527 113.637 119.66C113.624 119.86 113.517 120.107 113.317 120.4C113.117 120.68 112.831 120.96 112.457 121.24C112.084 121.52 111.631 121.753 111.097 121.94C110.564 122.113 109.951 122.2 109.257 122.2ZM106.537 116.04H112.017V115.98C112.017 115.38 111.904 114.847 111.677 114.38C111.464 113.913 111.151 113.547 110.737 113.28C110.324 113 109.831 112.86 109.257 112.86C108.684 112.86 108.191 113 107.777 113.28C107.377 113.547 107.071 113.913 106.857 114.38C106.644 114.847 106.537 115.38 106.537 115.98V116.04ZM108.717 110.1C108.504 110.1 108.397 109.993 108.397 109.78C108.397 109.673 108.431 109.587 108.497 109.52L109.997 107.72C110.117 107.573 110.224 107.48 110.317 107.44C110.411 107.387 110.551 107.36 110.737 107.36H112.097C112.351 107.36 112.477 107.487 112.477 107.74C112.477 107.833 112.444 107.913 112.377 107.98L110.057 109.88C109.951 109.973 109.851 110.033 109.757 110.06C109.664 110.087 109.544 110.1 109.397 110.1H108.717ZM119.909 122.2C119.162 122.2 118.522 122.107 117.989 121.92C117.456 121.733 117.022 121.507 116.689 121.24C116.356 120.973 116.102 120.707 115.929 120.44C115.769 120.173 115.682 119.96 115.669 119.8C115.656 119.653 115.702 119.54 115.809 119.46C115.916 119.38 116.022 119.34 116.129 119.34H117.009C117.089 119.34 117.149 119.353 117.189 119.38C117.242 119.393 117.309 119.447 117.389 119.54C117.562 119.727 117.756 119.913 117.969 120.1C118.182 120.287 118.442 120.44 118.749 120.56C119.069 120.68 119.462 120.74 119.929 120.74C120.609 120.74 121.169 120.613 121.609 120.36C122.049 120.093 122.269 119.707 122.269 119.2C122.269 118.867 122.176 118.6 121.989 118.4C121.816 118.2 121.496 118.02 121.029 117.86C120.576 117.7 119.949 117.533 119.149 117.36C118.349 117.173 117.716 116.947 117.249 116.68C116.782 116.4 116.449 116.073 116.249 115.7C116.049 115.313 115.949 114.88 115.949 114.4C115.949 113.907 116.096 113.433 116.389 112.98C116.682 112.513 117.109 112.133 117.669 111.84C118.242 111.547 118.956 111.4 119.809 111.4C120.502 111.4 121.096 111.487 121.589 111.66C122.082 111.833 122.489 112.053 122.809 112.32C123.129 112.573 123.369 112.827 123.529 113.08C123.689 113.333 123.776 113.547 123.789 113.72C123.802 113.853 123.762 113.967 123.669 114.06C123.576 114.14 123.469 114.18 123.349 114.18H122.509C122.416 114.18 122.336 114.16 122.269 114.12C122.216 114.08 122.162 114.033 122.109 113.98C121.976 113.807 121.816 113.633 121.629 113.46C121.456 113.287 121.222 113.147 120.929 113.04C120.649 112.92 120.276 112.86 119.809 112.86C119.142 112.86 118.642 113 118.309 113.28C117.976 113.56 117.809 113.913 117.809 114.34C117.809 114.593 117.882 114.82 118.029 115.02C118.176 115.22 118.456 115.4 118.869 115.56C119.282 115.72 119.896 115.893 120.709 116.08C121.589 116.253 122.282 116.487 122.789 116.78C123.296 117.073 123.656 117.413 123.869 117.8C124.082 118.187 124.189 118.633 124.189 119.14C124.189 119.7 124.022 120.213 123.689 120.68C123.369 121.147 122.889 121.52 122.249 121.8C121.622 122.067 120.842 122.2 119.909 122.2ZM126.964 122C126.831 122 126.718 121.96 126.624 121.88C126.544 121.787 126.504 121.673 126.504 121.54V112.06C126.504 111.927 126.544 111.82 126.624 111.74C126.718 111.647 126.831 111.6 126.964 111.6H127.924C128.058 111.6 128.164 111.647 128.244 111.74C128.324 111.82 128.364 111.927 128.364 112.06V121.54C128.364 121.673 128.324 121.787 128.244 121.88C128.164 121.96 128.058 122 127.924 122H126.964ZM126.804 109.66C126.671 109.66 126.558 109.62 126.464 109.54C126.384 109.447 126.344 109.333 126.344 109.2V108.12C126.344 107.987 126.384 107.88 126.464 107.8C126.558 107.707 126.671 107.66 126.804 107.66H128.064C128.198 107.66 128.304 107.707 128.384 107.8C128.478 107.88 128.524 107.987 128.524 108.12V109.2C128.524 109.333 128.478 109.447 128.384 109.54C128.304 109.62 128.198 109.66 128.064 109.66H126.804ZM135.587 122.2C134.64 122.2 133.82 122.02 133.127 121.66C132.447 121.287 131.92 120.76 131.547 120.08C131.174 119.387 130.974 118.56 130.947 117.6C130.934 117.4 130.927 117.133 130.927 116.8C130.927 116.467 130.934 116.2 130.947 116C130.974 115.04 131.174 114.22 131.547 113.54C131.92 112.847 132.447 112.32 133.127 111.96C133.82 111.587 134.64 111.4 135.587 111.4C136.36 111.4 137.02 111.507 137.567 111.72C138.127 111.933 138.587 112.207 138.947 112.54C139.307 112.873 139.574 113.233 139.747 113.62C139.934 114.007 140.034 114.373 140.047 114.72C140.06 114.853 140.02 114.96 139.927 115.04C139.834 115.12 139.72 115.16 139.587 115.16H138.627C138.494 115.16 138.394 115.133 138.327 115.08C138.26 115.013 138.194 114.907 138.127 114.76C137.887 114.107 137.56 113.647 137.147 113.38C136.734 113.113 136.22 112.98 135.607 112.98C134.807 112.98 134.154 113.227 133.647 113.72C133.154 114.213 132.887 115.007 132.847 116.1C132.834 116.58 132.834 117.047 132.847 117.5C132.887 118.607 133.154 119.407 133.647 119.9C134.154 120.38 134.807 120.62 135.607 120.62C136.22 120.62 136.734 120.487 137.147 120.22C137.56 119.953 137.887 119.493 138.127 118.84C138.194 118.693 138.26 118.593 138.327 118.54C138.394 118.473 138.494 118.44 138.627 118.44H139.587C139.72 118.44 139.834 118.48 139.927 118.56C140.02 118.64 140.06 118.747 140.047 118.88C140.034 119.16 139.974 119.447 139.867 119.74C139.76 120.033 139.587 120.333 139.347 120.64C139.12 120.933 138.834 121.2 138.487 121.44C138.14 121.667 137.72 121.853 137.227 122C136.747 122.133 136.2 122.2 135.587 122.2ZM145.322 122.2C144.655 122.2 144.049 122.067 143.502 121.8C142.955 121.533 142.515 121.173 142.182 120.72C141.849 120.267 141.682 119.753 141.682 119.18C141.682 118.26 142.055 117.527 142.802 116.98C143.549 116.433 144.522 116.073 145.722 115.9L148.702 115.48V114.9C148.702 114.26 148.515 113.76 148.142 113.4C147.782 113.04 147.189 112.86 146.362 112.86C145.762 112.86 145.275 112.98 144.902 113.22C144.542 113.46 144.289 113.767 144.142 114.14C144.062 114.34 143.922 114.44 143.722 114.44H142.822C142.675 114.44 142.562 114.4 142.482 114.32C142.415 114.227 142.382 114.12 142.382 114C142.382 113.8 142.455 113.553 142.602 113.26C142.762 112.967 143.002 112.68 143.322 112.4C143.642 112.12 144.049 111.887 144.542 111.7C145.049 111.5 145.662 111.4 146.382 111.4C147.182 111.4 147.855 111.507 148.402 111.72C148.949 111.92 149.375 112.193 149.682 112.54C150.002 112.887 150.229 113.28 150.362 113.72C150.509 114.16 150.582 114.607 150.582 115.06V121.54C150.582 121.673 150.535 121.787 150.442 121.88C150.362 121.96 150.255 122 150.122 122H149.202C149.055 122 148.942 121.96 148.862 121.88C148.782 121.787 148.742 121.673 148.742 121.54V120.68C148.569 120.92 148.335 121.16 148.042 121.4C147.749 121.627 147.382 121.82 146.942 121.98C146.502 122.127 145.962 122.2 145.322 122.2ZM145.742 120.7C146.289 120.7 146.789 120.587 147.242 120.36C147.695 120.12 148.049 119.753 148.302 119.26C148.569 118.767 148.702 118.147 148.702 117.4V116.84L146.382 117.18C145.435 117.313 144.722 117.54 144.242 117.86C143.762 118.167 143.522 118.56 143.522 119.04C143.522 119.413 143.629 119.727 143.842 119.98C144.069 120.22 144.349 120.4 144.682 120.52C145.029 120.64 145.382 120.7 145.742 120.7Z" fill="black"/>
<path d="M114.973 32C85.379 35.5872 54.694 30.2198 26.6957 42.7222C16.6308 47.2166 4.81788 52.4782 2.80678 64.6667C-0.901561 87.1415 8.38586 119.226 26.3068 134.111C36.7578 142.791 54.9675 147.847 68.4734 149.444C90.5441 152.055 113.547 151.473 135.751 150.944C158.501 150.403 180.52 139.531 191.085 118.667C196.415 108.139 200.218 94.6945 198.862 82.7778C197.498 70.7803 187.44 63.6454 177.64 58.3333C162.471 50.111 145.131 43.9083 128.973 37.8889C124.345 36.1645 118.907 34 113.973 34" stroke="#2723EB" stroke-width="3" stroke-linecap="round"/>
<path d="M65.9734 2C38.6695 34.2682 7.63739 86.6071 32.9179 128.167C49.5202 155.46 84.2831 156.443 112.64 161C122.957 162.658 135.876 164.027 145.307 158.556C164.992 147.135 171.269 117.585 173.918 97.0556C175.648 83.6509 177.089 70.4174 172.807 57.3333C169.171 46.2242 164.945 40.9555 155.196 34.7778C133.479 21.0168 106.888 5.28278 80.3068 5C74.5307 4.93855 68.7499 5 62.9734 5" stroke="#F12430" stroke-width="3" stroke-linecap="round"/>
<path d="M137.974 11C120.631 14.4117 103.976 21.2264 86.9735 26C66.8017 31.6634 49.4416 35.6237 34.3069 51C21.9674 63.5364 18.0146 79.0677 14.5291 95.7778C11.6776 109.448 8.8677 123.653 8.64022 137.667C8.48361 147.314 10.3417 155.859 18.9735 161.333C29.1016 167.757 42.3686 169.647 53.8624 171.889C68.9036 174.823 84.6626 178.605 100.085 178.556C113.338 178.513 128.328 175.672 139.64 168.444C152.449 160.261 158.715 145.25 163.307 131.444C171.173 107.794 176.852 78.1149 166.085 54.4444C157.387 35.3235 144.349 23.0044 126.974 12" stroke="#F5ED28" stroke-width="3" stroke-linecap="round"/>
<path d="M133.973 16C95.2754 16 51.2856 18.6718 27.2511 53.7222C10.1809 78.6163 7.25851 112.459 24.1955 138C31.0424 148.325 40.7746 159.906 53.0844 163.778C68.0388 168.481 86.3644 167.536 101.807 166.778C113.034 166.227 123.603 163.602 134.196 159.944C143.457 156.746 154.228 153.492 160.362 145.278C172.101 129.56 179.119 107.866 183.807 89C186.465 78.3001 181.044 67.1013 177.084 57.3333C173.177 47.6939 168.774 37.6213 162.862 29C159.105 23.5208 153.536 23.2926 147.64 21.4444C141.462 19.5079 136.418 17.6444 129.973 17" stroke="#33E64F" stroke-width="3" stroke-linecap="round"/>
<path d="M121.974 43C102.377 42.6889 82.9733 40.2515 63.418 39.4444C43.4419 38.62 22.7913 46.298 14.918 66.2222C8.94787 81.3303 4.53455 105.171 10.9735 120.778C18.0938 138.035 35.5183 154.576 51.918 162.833C74.3045 174.105 102.436 174.768 127.085 173.667C142.395 172.982 159.299 170.738 172.585 162.5C200.922 144.928 184.125 104.554 175.307 80.4444C173.703 76.0596 167.593 54.1545 161.307 50.4444C156.654 47.6986 146.949 48.2354 141.696 47.5555C134.456 46.6186 127.275 45 119.974 45" stroke="#EF33DC" stroke-width="3" stroke-linecap="round"/>
</svg>
