<svg width="217" height="173" viewBox="0 0 217 173" fill="none" xmlns="http://www.w3.org/2000/svg">
<rect x="40.8145" width="150" height="150" fill="white"/>
<path d="M63.7469 71C63.6002 71 63.4869 70.96 63.4069 70.88C63.3269 70.7867 63.2869 70.6733 63.2869 70.54V57.46C63.2869 57.3267 63.3269 57.22 63.4069 57.14C63.4869 57.0467 63.6002 57 63.7469 57H64.8069C64.9402 57 65.0469 57.0467 65.1269 57.14C65.2202 57.22 65.2669 57.3267 65.2669 57.46V70.54C65.2669 70.6733 65.2202 70.7867 65.1269 70.88C65.0469 70.96 64.9402 71 64.8069 71H63.7469ZM68.9556 71C68.8223 71 68.709 70.96 68.6156 70.88C68.5356 70.7867 68.4956 70.6733 68.4956 70.54V61.06C68.4956 60.9267 68.5356 60.82 68.6156 60.74C68.709 60.6467 68.8223 60.6 68.9556 60.6H69.8956C70.029 60.6 70.1356 60.6467 70.2156 60.74C70.309 60.82 70.3556 60.9267 70.3556 61.06V61.94C70.7023 61.4867 71.1356 61.12 71.6556 60.84C72.189 60.5467 72.869 60.4 73.6956 60.4C74.5623 60.4 75.2956 60.5933 75.8956 60.98C76.509 61.3533 76.969 61.88 77.2756 62.56C77.5823 63.2267 77.7356 64.0067 77.7356 64.9V70.54C77.7356 70.6733 77.6956 70.7867 77.6156 70.88C77.5356 70.96 77.429 71 77.2956 71H76.2956C76.1623 71 76.049 70.96 75.9556 70.88C75.8756 70.7867 75.8356 70.6733 75.8356 70.54V65C75.8356 64.0667 75.609 63.34 75.1556 62.82C74.7023 62.2867 74.0356 62.02 73.1556 62.02C72.329 62.02 71.6623 62.2867 71.1556 62.82C70.6623 63.34 70.4156 64.0667 70.4156 65V70.54C70.4156 70.6733 70.369 70.7867 70.2756 70.88C70.1956 70.96 70.089 71 69.9556 71H68.9556ZM84.5478 71C83.8011 71 83.1945 70.86 82.7278 70.58C82.2611 70.2867 81.9211 69.88 81.7078 69.36C81.4945 68.8267 81.3878 68.2 81.3878 67.48V62.2H79.8278C79.6945 62.2 79.5811 62.16 79.4878 62.08C79.4078 61.9867 79.3678 61.8733 79.3678 61.74V61.06C79.3678 60.9267 79.4078 60.82 79.4878 60.74C79.5811 60.6467 79.6945 60.6 79.8278 60.6H81.3878V57.26C81.3878 57.1267 81.4278 57.02 81.5078 56.94C81.6011 56.8467 81.7145 56.8 81.8478 56.8H82.7878C82.9211 56.8 83.0278 56.8467 83.1078 56.94C83.2011 57.02 83.2478 57.1267 83.2478 57.26V60.6H85.7278C85.8611 60.6 85.9678 60.6467 86.0478 60.74C86.1411 60.82 86.1878 60.9267 86.1878 61.06V61.74C86.1878 61.8733 86.1411 61.9867 86.0478 62.08C85.9678 62.16 85.8611 62.2 85.7278 62.2H83.2478V67.34C83.2478 67.9667 83.3545 68.46 83.5678 68.82C83.7811 69.18 84.1611 69.36 84.7078 69.36H85.9278C86.0611 69.36 86.1678 69.4067 86.2478 69.5C86.3411 69.58 86.3878 69.6867 86.3878 69.82V70.54C86.3878 70.6733 86.3411 70.7867 86.2478 70.88C86.1678 70.96 86.0611 71 85.9278 71H84.5478ZM92.4403 71.2C91.067 71.2 89.9736 70.78 89.1603 69.94C88.347 69.0867 87.9003 67.9267 87.8203 66.46C87.807 66.2867 87.8003 66.0667 87.8003 65.8C87.8003 65.52 87.807 65.2933 87.8203 65.12C87.8736 64.1733 88.0936 63.3467 88.4803 62.64C88.867 61.92 89.3936 61.3667 90.0603 60.98C90.7403 60.5933 91.5336 60.4 92.4403 60.4C93.4536 60.4 94.3003 60.6133 94.9803 61.04C95.6736 61.4667 96.2003 62.0733 96.5603 62.86C96.9203 63.6467 97.1003 64.5667 97.1003 65.62V65.96C97.1003 66.1067 97.0536 66.22 96.9603 66.3C96.8803 66.38 96.7736 66.42 96.6403 66.42H89.7203C89.7203 66.4333 89.7203 66.46 89.7203 66.5C89.7203 66.54 89.7203 66.5733 89.7203 66.6C89.747 67.1467 89.867 67.66 90.0803 68.14C90.2936 68.6067 90.6003 68.9867 91.0003 69.28C91.4003 69.5733 91.8803 69.72 92.4403 69.72C92.9203 69.72 93.3203 69.6467 93.6403 69.5C93.9603 69.3533 94.2203 69.1933 94.4203 69.02C94.6203 68.8333 94.7536 68.6933 94.8203 68.6C94.9403 68.4267 95.0336 68.3267 95.1003 68.3C95.167 68.26 95.2736 68.24 95.4203 68.24H96.3803C96.5136 68.24 96.6203 68.28 96.7003 68.36C96.7936 68.4267 96.8336 68.5267 96.8203 68.66C96.807 68.86 96.7003 69.1067 96.5003 69.4C96.3003 69.68 96.0136 69.96 95.6403 70.24C95.267 70.52 94.8136 70.7533 94.2803 70.94C93.747 71.1133 93.1336 71.2 92.4403 71.2ZM89.7203 65.04H95.2003V64.98C95.2003 64.38 95.087 63.8467 94.8603 63.38C94.647 62.9133 94.3336 62.5467 93.9203 62.28C93.507 62 93.0136 61.86 92.4403 61.86C91.867 61.86 91.3736 62 90.9603 62.28C90.5603 62.5467 90.2536 62.9133 90.0403 63.38C89.827 63.8467 89.7203 64.38 89.7203 64.98V65.04ZM99.9717 71C99.8384 71 99.7251 70.96 99.6317 70.88C99.5517 70.7867 99.5117 70.6733 99.5117 70.54V57.26C99.5117 57.1267 99.5517 57.02 99.6317 56.94C99.7251 56.8467 99.8384 56.8 99.9717 56.8H100.912C101.058 56.8 101.172 56.8467 101.252 56.94C101.332 57.02 101.372 57.1267 101.372 57.26V70.54C101.372 70.6733 101.332 70.7867 101.252 70.88C101.172 70.96 101.058 71 100.912 71H99.9717ZM105.01 71C104.877 71 104.764 70.96 104.67 70.88C104.59 70.7867 104.55 70.6733 104.55 70.54V61.06C104.55 60.9267 104.59 60.82 104.67 60.74C104.764 60.6467 104.877 60.6 105.01 60.6H105.97C106.104 60.6 106.21 60.6467 106.29 60.74C106.37 60.82 106.41 60.9267 106.41 61.06V70.54C106.41 70.6733 106.37 70.7867 106.29 70.88C106.21 70.96 106.104 71 105.97 71H105.01ZM104.85 58.66C104.717 58.66 104.604 58.62 104.51 58.54C104.43 58.4467 104.39 58.3333 104.39 58.2V57.12C104.39 56.9867 104.43 56.88 104.51 56.8C104.604 56.7067 104.717 56.66 104.85 56.66H106.11C106.244 56.66 106.35 56.7067 106.43 56.8C106.524 56.88 106.57 56.9867 106.57 57.12V58.2C106.57 58.3333 106.524 58.4467 106.43 58.54C106.35 58.62 106.244 58.66 106.11 58.66H104.85ZM113.654 75.4C112.747 75.4 112.001 75.28 111.414 75.04C110.841 74.8 110.387 74.5067 110.054 74.16C109.734 73.8267 109.501 73.4867 109.354 73.14C109.221 72.8067 109.147 72.54 109.134 72.34C109.121 72.2067 109.161 72.0933 109.254 72C109.361 71.9067 109.474 71.86 109.594 71.86H110.554C110.674 71.86 110.774 71.8867 110.854 71.94C110.934 71.9933 111.001 72.1067 111.054 72.28C111.134 72.48 111.254 72.7 111.414 72.94C111.574 73.1933 111.821 73.4067 112.154 73.58C112.487 73.7667 112.954 73.86 113.554 73.86C114.181 73.86 114.707 73.7733 115.134 73.6C115.561 73.44 115.881 73.1467 116.094 72.72C116.321 72.3067 116.434 71.7333 116.434 71V69.64C116.114 70.0533 115.694 70.4 115.174 70.68C114.654 70.9467 114.001 71.08 113.214 71.08C112.467 71.08 111.827 70.9533 111.294 70.7C110.761 70.4333 110.321 70.08 109.974 69.64C109.641 69.1867 109.387 68.6733 109.214 68.1C109.054 67.5267 108.961 66.9267 108.934 66.3C108.921 65.9267 108.921 65.56 108.934 65.2C108.961 64.5733 109.054 63.9733 109.214 63.4C109.387 62.8267 109.641 62.3133 109.974 61.86C110.321 61.4067 110.761 61.0533 111.294 60.8C111.827 60.5333 112.467 60.4 113.214 60.4C114.014 60.4 114.674 60.5533 115.194 60.86C115.727 61.1533 116.161 61.5133 116.494 61.94V61.08C116.494 60.9467 116.534 60.8333 116.614 60.74C116.707 60.6467 116.821 60.6 116.954 60.6H117.874C118.007 60.6 118.121 60.6467 118.214 60.74C118.307 60.8333 118.354 60.9467 118.354 61.08V70.78C118.354 71.6733 118.201 72.4667 117.894 73.16C117.601 73.8533 117.107 74.4 116.414 74.8C115.734 75.2 114.814 75.4 113.654 75.4ZM113.614 69.48C114.281 69.48 114.814 69.3267 115.214 69.02C115.627 68.7133 115.927 68.3267 116.114 67.86C116.314 67.3933 116.421 66.92 116.434 66.44C116.447 66.2533 116.454 66.0267 116.454 65.76C116.454 65.48 116.447 65.2467 116.434 65.06C116.421 64.58 116.314 64.1067 116.114 63.64C115.927 63.1733 115.627 62.7867 115.214 62.48C114.814 62.1733 114.281 62.02 113.614 62.02C112.947 62.02 112.414 62.1733 112.014 62.48C111.614 62.7733 111.327 63.1667 111.154 63.66C110.981 64.14 110.881 64.66 110.854 65.22C110.841 65.5667 110.841 65.92 110.854 66.28C110.881 66.84 110.981 67.3667 111.154 67.86C111.327 68.34 111.614 68.7333 112.014 69.04C112.414 69.3333 112.947 69.48 113.614 69.48ZM125.468 71.2C124.094 71.2 123.001 70.78 122.188 69.94C121.374 69.0867 120.928 67.9267 120.848 66.46C120.834 66.2867 120.828 66.0667 120.828 65.8C120.828 65.52 120.834 65.2933 120.848 65.12C120.901 64.1733 121.121 63.3467 121.508 62.64C121.894 61.92 122.421 61.3667 123.088 60.98C123.768 60.5933 124.561 60.4 125.468 60.4C126.481 60.4 127.328 60.6133 128.008 61.04C128.701 61.4667 129.228 62.0733 129.588 62.86C129.948 63.6467 130.128 64.5667 130.128 65.62V65.96C130.128 66.1067 130.081 66.22 129.988 66.3C129.908 66.38 129.801 66.42 129.668 66.42H122.748C122.748 66.4333 122.748 66.46 122.748 66.5C122.748 66.54 122.748 66.5733 122.748 66.6C122.774 67.1467 122.894 67.66 123.108 68.14C123.321 68.6067 123.628 68.9867 124.028 69.28C124.428 69.5733 124.908 69.72 125.468 69.72C125.948 69.72 126.348 69.6467 126.668 69.5C126.988 69.3533 127.248 69.1933 127.448 69.02C127.648 68.8333 127.781 68.6933 127.848 68.6C127.968 68.4267 128.061 68.3267 128.128 68.3C128.194 68.26 128.301 68.24 128.448 68.24H129.408C129.541 68.24 129.648 68.28 129.728 68.36C129.821 68.4267 129.861 68.5267 129.848 68.66C129.834 68.86 129.728 69.1067 129.528 69.4C129.328 69.68 129.041 69.96 128.668 70.24C128.294 70.52 127.841 70.7533 127.308 70.94C126.774 71.1133 126.161 71.2 125.468 71.2ZM122.748 65.04H128.228V64.98C128.228 64.38 128.114 63.8467 127.888 63.38C127.674 62.9133 127.361 62.5467 126.948 62.28C126.534 62 126.041 61.86 125.468 61.86C124.894 61.86 124.401 62 123.988 62.28C123.588 62.5467 123.281 62.9133 123.068 63.38C122.854 63.8467 122.748 64.38 122.748 64.98V65.04ZM122.748 59.1C122.548 59.1 122.448 59.02 122.448 58.86C122.448 58.7533 122.521 58.6267 122.668 58.48L124.508 56.64C124.641 56.4933 124.754 56.4133 124.848 56.4C124.954 56.3733 125.061 56.36 125.168 56.36H125.768C125.888 56.36 125.994 56.3733 126.088 56.4C126.181 56.4133 126.294 56.4933 126.428 56.64L128.268 58.48C128.401 58.6267 128.468 58.7533 128.468 58.86C128.468 59.02 128.374 59.1 128.188 59.1H127.668C127.574 59.1 127.474 59.0867 127.368 59.06C127.261 59.0333 127.174 59 127.108 58.96L125.468 57.82L123.828 58.96C123.748 59 123.654 59.0333 123.548 59.06C123.454 59.0867 123.361 59.1 123.268 59.1H122.748ZM132.979 71C132.846 71 132.732 70.96 132.639 70.88C132.559 70.7867 132.519 70.6733 132.519 70.54V61.06C132.519 60.9267 132.559 60.82 132.639 60.74C132.732 60.6467 132.846 60.6 132.979 60.6H133.919C134.052 60.6 134.159 60.6467 134.239 60.74C134.332 60.82 134.379 60.9267 134.379 61.06V61.94C134.726 61.4867 135.159 61.12 135.679 60.84C136.212 60.5467 136.892 60.4 137.719 60.4C138.586 60.4 139.319 60.5933 139.919 60.98C140.532 61.3533 140.992 61.88 141.299 62.56C141.606 63.2267 141.759 64.0067 141.759 64.9V70.54C141.759 70.6733 141.719 70.7867 141.639 70.88C141.559 70.96 141.452 71 141.319 71H140.319C140.186 71 140.072 70.96 139.979 70.88C139.899 70.7867 139.859 70.6733 139.859 70.54V65C139.859 64.0667 139.632 63.34 139.179 62.82C138.726 62.2867 138.059 62.02 137.179 62.02C136.352 62.02 135.686 62.2867 135.179 62.82C134.686 63.34 134.439 64.0667 134.439 65V70.54C134.439 70.6733 134.392 70.7867 134.299 70.88C134.219 70.96 134.112 71 133.979 71H132.979ZM148.848 71.2C147.901 71.2 147.081 71.02 146.388 70.66C145.708 70.2867 145.181 69.76 144.808 69.08C144.435 68.3867 144.235 67.56 144.208 66.6C144.195 66.4 144.188 66.1333 144.188 65.8C144.188 65.4667 144.195 65.2 144.208 65C144.235 64.04 144.435 63.22 144.808 62.54C145.181 61.8467 145.708 61.32 146.388 60.96C147.081 60.5867 147.901 60.4 148.848 60.4C149.621 60.4 150.281 60.5067 150.828 60.72C151.388 60.9333 151.848 61.2067 152.208 61.54C152.568 61.8733 152.835 62.2333 153.008 62.62C153.195 63.0067 153.295 63.3733 153.308 63.72C153.321 63.8533 153.281 63.96 153.188 64.04C153.095 64.12 152.981 64.16 152.848 64.16H151.888C151.755 64.16 151.655 64.1333 151.588 64.08C151.521 64.0133 151.455 63.9067 151.388 63.76C151.148 63.1067 150.821 62.6467 150.408 62.38C149.995 62.1133 149.481 61.98 148.868 61.98C148.068 61.98 147.415 62.2267 146.908 62.72C146.415 63.2133 146.148 64.0067 146.108 65.1C146.095 65.58 146.095 66.0467 146.108 66.5C146.148 67.6067 146.415 68.4067 146.908 68.9C147.415 69.38 148.068 69.62 148.868 69.62C149.481 69.62 149.995 69.4867 150.408 69.22C150.821 68.9533 151.148 68.4933 151.388 67.84C151.455 67.6933 151.521 67.5933 151.588 67.54C151.655 67.4733 151.755 67.44 151.888 67.44H152.848C152.981 67.44 153.095 67.48 153.188 67.56C153.281 67.64 153.321 67.7467 153.308 67.88C153.295 68.16 153.235 68.4467 153.128 68.74C153.021 69.0333 152.848 69.3333 152.608 69.64C152.381 69.9333 152.095 70.2 151.748 70.44C151.401 70.6667 150.981 70.8533 150.488 71C150.008 71.1333 149.461 71.2 148.848 71.2ZM156.143 71C156.01 71 155.896 70.96 155.803 70.88C155.723 70.7867 155.683 70.6733 155.683 70.54V61.06C155.683 60.9267 155.723 60.82 155.803 60.74C155.896 60.6467 156.01 60.6 156.143 60.6H157.103C157.236 60.6 157.343 60.6467 157.423 60.74C157.503 60.82 157.543 60.9267 157.543 61.06V70.54C157.543 70.6733 157.503 70.7867 157.423 70.88C157.343 70.96 157.236 71 157.103 71H156.143ZM155.983 58.66C155.85 58.66 155.736 58.62 155.643 58.54C155.563 58.4467 155.523 58.3333 155.523 58.2V57.12C155.523 56.9867 155.563 56.88 155.643 56.8C155.736 56.7067 155.85 56.66 155.983 56.66H157.243C157.376 56.66 157.483 56.7067 157.563 56.8C157.656 56.88 157.703 56.9867 157.703 57.12V58.2C157.703 58.3333 157.656 58.4467 157.563 58.54C157.483 58.62 157.376 58.66 157.243 58.66H155.983ZM163.427 71.2C162.76 71.2 162.154 71.0667 161.607 70.8C161.06 70.5333 160.62 70.1733 160.287 69.72C159.954 69.2667 159.787 68.7533 159.787 68.18C159.787 67.26 160.16 66.5267 160.907 65.98C161.654 65.4333 162.627 65.0733 163.827 64.9L166.807 64.48V63.9C166.807 63.26 166.62 62.76 166.247 62.4C165.887 62.04 165.294 61.86 164.467 61.86C163.867 61.86 163.38 61.98 163.007 62.22C162.647 62.46 162.394 62.7667 162.247 63.14C162.167 63.34 162.027 63.44 161.827 63.44H160.927C160.78 63.44 160.667 63.4 160.587 63.32C160.52 63.2267 160.487 63.12 160.487 63C160.487 62.8 160.56 62.5533 160.707 62.26C160.867 61.9667 161.107 61.68 161.427 61.4C161.747 61.12 162.154 60.8867 162.647 60.7C163.154 60.5 163.767 60.4 164.487 60.4C165.287 60.4 165.96 60.5067 166.507 60.72C167.054 60.92 167.48 61.1933 167.787 61.54C168.107 61.8867 168.334 62.28 168.467 62.72C168.614 63.16 168.687 63.6067 168.687 64.06V70.54C168.687 70.6733 168.64 70.7867 168.547 70.88C168.467 70.96 168.36 71 168.227 71H167.307C167.16 71 167.047 70.96 166.967 70.88C166.887 70.7867 166.847 70.6733 166.847 70.54V69.68C166.674 69.92 166.44 70.16 166.147 70.4C165.854 70.6267 165.487 70.82 165.047 70.98C164.607 71.1267 164.067 71.2 163.427 71.2ZM163.847 69.7C164.394 69.7 164.894 69.5867 165.347 69.36C165.8 69.12 166.154 68.7533 166.407 68.26C166.674 67.7667 166.807 67.1467 166.807 66.4V65.84L164.487 66.18C163.54 66.3133 162.827 66.54 162.347 66.86C161.867 67.1667 161.627 67.56 161.627 68.04C161.627 68.4133 161.734 68.7267 161.947 68.98C162.174 69.22 162.454 69.4 162.787 69.52C163.134 69.64 163.487 69.7 163.847 69.7ZM67.5359 95C67.3893 95 67.2759 94.96 67.1959 94.88C67.1159 94.7867 67.0759 94.6733 67.0759 94.54V81.48C67.0759 81.3333 67.1159 81.22 67.1959 81.14C67.2759 81.0467 67.3893 81 67.5359 81H75.7959C75.9426 81 76.0559 81.0467 76.1359 81.14C76.2159 81.22 76.2559 81.3333 76.2559 81.48V82.24C76.2559 82.3867 76.2159 82.5 76.1359 82.58C76.0559 82.66 75.9426 82.7 75.7959 82.7H68.9959V87.08H75.3559C75.5026 87.08 75.6159 87.1267 75.6959 87.22C75.7759 87.3 75.8159 87.4133 75.8159 87.56V88.3C75.8159 88.4333 75.7759 88.5467 75.6959 88.64C75.6159 88.72 75.5026 88.76 75.3559 88.76H68.9959V93.3H75.9559C76.1026 93.3 76.2159 93.34 76.2959 93.42C76.3759 93.5 76.4159 93.6133 76.4159 93.76V94.54C76.4159 94.6733 76.3759 94.7867 76.2959 94.88C76.2159 94.96 76.1026 95 75.9559 95H67.5359ZM78.4648 95C78.3582 95 78.2582 94.96 78.1648 94.88C78.0848 94.8 78.0448 94.7 78.0448 94.58C78.0448 94.54 78.0515 94.4933 78.0648 94.44C78.0915 94.3733 78.1315 94.3 78.1848 94.22L81.6648 89.68L78.4048 85.38C78.3515 85.3 78.3115 85.2333 78.2848 85.18C78.2715 85.1267 78.2648 85.0733 78.2648 85.02C78.2648 84.9 78.3048 84.8 78.3848 84.72C78.4648 84.64 78.5648 84.6 78.6848 84.6H79.7048C79.8515 84.6 79.9582 84.64 80.0248 84.72C80.1048 84.7867 80.1715 84.8533 80.2248 84.92L82.8848 88.38L85.5448 84.94C85.5982 84.8733 85.6582 84.8 85.7248 84.72C85.8048 84.64 85.9182 84.6 86.0648 84.6H87.0448C87.1648 84.6 87.2648 84.64 87.3448 84.72C87.4248 84.8 87.4648 84.9 87.4648 85.02C87.4648 85.0733 87.4515 85.1267 87.4248 85.18C87.4115 85.2333 87.3782 85.3 87.3248 85.38L84.0248 89.72L87.5048 94.22C87.5582 94.3 87.5915 94.3667 87.6048 94.42C87.6315 94.4733 87.6448 94.5267 87.6448 94.58C87.6448 94.7 87.6048 94.8 87.5248 94.88C87.4448 94.96 87.3448 95 87.2248 95H86.1648C86.0315 95 85.9248 94.9667 85.8448 94.9C85.7648 94.8333 85.6982 94.7667 85.6448 94.7L82.8248 91.04L80.0048 94.7C79.9515 94.7533 79.8848 94.82 79.8048 94.9C79.7382 94.9667 79.6315 95 79.4848 95H78.4648ZM90.1861 95C90.0528 95 89.9394 94.96 89.8461 94.88C89.7661 94.7867 89.7261 94.6733 89.7261 94.54V85.06C89.7261 84.9267 89.7661 84.82 89.8461 84.74C89.9394 84.6467 90.0528 84.6 90.1861 84.6H91.1461C91.2794 84.6 91.3861 84.6467 91.4661 84.74C91.5461 84.82 91.5861 84.9267 91.5861 85.06V94.54C91.5861 94.6733 91.5461 94.7867 91.4661 94.88C91.3861 94.96 91.2794 95 91.1461 95H90.1861ZM90.0261 82.66C89.8928 82.66 89.7794 82.62 89.6861 82.54C89.6061 82.4467 89.5661 82.3333 89.5661 82.2V81.12C89.5661 80.9867 89.6061 80.88 89.6861 80.8C89.7794 80.7067 89.8928 80.66 90.0261 80.66H91.2861C91.4194 80.66 91.5261 80.7067 91.6061 80.8C91.6994 80.88 91.7461 80.9867 91.7461 81.12V82.2C91.7461 82.3333 91.6994 82.4467 91.6061 82.54C91.5261 82.62 91.4194 82.66 91.2861 82.66H90.0261ZM98.287 95.2C97.5404 95.2 96.9004 95.1067 96.367 94.92C95.8337 94.7333 95.4004 94.5067 95.067 94.24C94.7337 93.9733 94.4804 93.7067 94.307 93.44C94.147 93.1733 94.0604 92.96 94.047 92.8C94.0337 92.6533 94.0804 92.54 94.187 92.46C94.2937 92.38 94.4004 92.34 94.507 92.34H95.387C95.467 92.34 95.527 92.3533 95.567 92.38C95.6204 92.3933 95.687 92.4467 95.767 92.54C95.9404 92.7267 96.1337 92.9133 96.347 93.1C96.5604 93.2867 96.8204 93.44 97.127 93.56C97.447 93.68 97.8404 93.74 98.307 93.74C98.987 93.74 99.547 93.6133 99.987 93.36C100.427 93.0933 100.647 92.7067 100.647 92.2C100.647 91.8667 100.554 91.6 100.367 91.4C100.194 91.2 99.8737 91.02 99.407 90.86C98.9537 90.7 98.327 90.5333 97.527 90.36C96.727 90.1733 96.0937 89.9467 95.627 89.68C95.1604 89.4 94.827 89.0733 94.627 88.7C94.427 88.3133 94.327 87.88 94.327 87.4C94.327 86.9067 94.4737 86.4333 94.767 85.98C95.0604 85.5133 95.487 85.1333 96.047 84.84C96.6204 84.5467 97.3337 84.4 98.187 84.4C98.8804 84.4 99.4737 84.4867 99.967 84.66C100.46 84.8333 100.867 85.0533 101.187 85.32C101.507 85.5733 101.747 85.8267 101.907 86.08C102.067 86.3333 102.154 86.5467 102.167 86.72C102.18 86.8533 102.14 86.9667 102.047 87.06C101.954 87.14 101.847 87.18 101.727 87.18H100.887C100.794 87.18 100.714 87.16 100.647 87.12C100.594 87.08 100.54 87.0333 100.487 86.98C100.354 86.8067 100.194 86.6333 100.007 86.46C99.8337 86.2867 99.6004 86.1467 99.307 86.04C99.027 85.92 98.6537 85.86 98.187 85.86C97.5204 85.86 97.0204 86 96.687 86.28C96.3537 86.56 96.187 86.9133 96.187 87.34C96.187 87.5933 96.2604 87.82 96.407 88.02C96.5537 88.22 96.8337 88.4 97.247 88.56C97.6604 88.72 98.2737 88.8933 99.087 89.08C99.967 89.2533 100.66 89.4867 101.167 89.78C101.674 90.0733 102.034 90.4133 102.247 90.8C102.46 91.1867 102.567 91.6333 102.567 92.14C102.567 92.7 102.4 93.2133 102.067 93.68C101.747 94.1467 101.267 94.52 100.627 94.8C100 95.0667 99.2204 95.2 98.287 95.2ZM108.923 95C108.176 95 107.569 94.86 107.103 94.58C106.636 94.2867 106.296 93.88 106.083 93.36C105.869 92.8267 105.763 92.2 105.763 91.48V86.2H104.203C104.069 86.2 103.956 86.16 103.863 86.08C103.783 85.9867 103.743 85.8733 103.743 85.74V85.06C103.743 84.9267 103.783 84.82 103.863 84.74C103.956 84.6467 104.069 84.6 104.203 84.6H105.763V81.26C105.763 81.1267 105.803 81.02 105.883 80.94C105.976 80.8467 106.089 80.8 106.223 80.8H107.163C107.296 80.8 107.403 80.8467 107.483 80.94C107.576 81.02 107.623 81.1267 107.623 81.26V84.6H110.103C110.236 84.6 110.343 84.6467 110.423 84.74C110.516 84.82 110.563 84.9267 110.563 85.06V85.74C110.563 85.8733 110.516 85.9867 110.423 86.08C110.343 86.16 110.236 86.2 110.103 86.2H107.623V91.34C107.623 91.9667 107.729 92.46 107.943 92.82C108.156 93.18 108.536 93.36 109.083 93.36H110.303C110.436 93.36 110.543 93.4067 110.623 93.5C110.716 93.58 110.763 93.6867 110.763 93.82V94.54C110.763 94.6733 110.716 94.7867 110.623 94.88C110.543 94.96 110.436 95 110.303 95H108.923ZM116.815 95.2C115.442 95.2 114.349 94.78 113.535 93.94C112.722 93.0867 112.275 91.9267 112.195 90.46C112.182 90.2867 112.175 90.0667 112.175 89.8C112.175 89.52 112.182 89.2933 112.195 89.12C112.249 88.1733 112.469 87.3467 112.855 86.64C113.242 85.92 113.769 85.3667 114.435 84.98C115.115 84.5933 115.909 84.4 116.815 84.4C117.829 84.4 118.675 84.6133 119.355 85.04C120.049 85.4667 120.575 86.0733 120.935 86.86C121.295 87.6467 121.475 88.5667 121.475 89.62V89.96C121.475 90.1067 121.429 90.22 121.335 90.3C121.255 90.38 121.149 90.42 121.015 90.42H114.095C114.095 90.4333 114.095 90.46 114.095 90.5C114.095 90.54 114.095 90.5733 114.095 90.6C114.122 91.1467 114.242 91.66 114.455 92.14C114.669 92.6067 114.975 92.9867 115.375 93.28C115.775 93.5733 116.255 93.72 116.815 93.72C117.295 93.72 117.695 93.6467 118.015 93.5C118.335 93.3533 118.595 93.1933 118.795 93.02C118.995 92.8333 119.129 92.6933 119.195 92.6C119.315 92.4267 119.409 92.3267 119.475 92.3C119.542 92.26 119.649 92.24 119.795 92.24H120.755C120.889 92.24 120.995 92.28 121.075 92.36C121.169 92.4267 121.209 92.5267 121.195 92.66C121.182 92.86 121.075 93.1067 120.875 93.4C120.675 93.68 120.389 93.96 120.015 94.24C119.642 94.52 119.189 94.7533 118.655 94.94C118.122 95.1133 117.509 95.2 116.815 95.2ZM114.095 89.04H119.575V88.98C119.575 88.38 119.462 87.8467 119.235 87.38C119.022 86.9133 118.709 86.5467 118.295 86.28C117.882 86 117.389 85.86 116.815 85.86C116.242 85.86 115.749 86 115.335 86.28C114.935 86.5467 114.629 86.9133 114.415 87.38C114.202 87.8467 114.095 88.38 114.095 88.98V89.04ZM124.327 95C124.193 95 124.08 94.96 123.987 94.88C123.907 94.7867 123.867 94.6733 123.867 94.54V85.06C123.867 84.9267 123.907 84.82 123.987 84.74C124.08 84.6467 124.193 84.6 124.327 84.6H125.267C125.4 84.6 125.507 84.6467 125.587 84.74C125.68 84.82 125.727 84.9267 125.727 85.06V85.94C126.073 85.4867 126.507 85.12 127.027 84.84C127.56 84.5467 128.24 84.4 129.067 84.4C129.933 84.4 130.667 84.5933 131.267 84.98C131.88 85.3533 132.34 85.88 132.647 86.56C132.953 87.2267 133.107 88.0067 133.107 88.9V94.54C133.107 94.6733 133.067 94.7867 132.987 94.88C132.907 94.96 132.8 95 132.667 95H131.667C131.533 95 131.42 94.96 131.327 94.88C131.247 94.7867 131.207 94.6733 131.207 94.54V89C131.207 88.0667 130.98 87.34 130.527 86.82C130.073 86.2867 129.407 86.02 128.527 86.02C127.7 86.02 127.033 86.2867 126.527 86.82C126.033 87.34 125.787 88.0667 125.787 89V94.54C125.787 94.6733 125.74 94.7867 125.647 94.88C125.567 94.96 125.46 95 125.327 95H124.327ZM140.196 95.2C139.249 95.2 138.429 95.02 137.736 94.66C137.056 94.2867 136.529 93.76 136.156 93.08C135.782 92.3867 135.582 91.56 135.556 90.6C135.542 90.4 135.536 90.1333 135.536 89.8C135.536 89.4667 135.542 89.2 135.556 89C135.582 88.04 135.782 87.22 136.156 86.54C136.529 85.8467 137.056 85.32 137.736 84.96C138.429 84.5867 139.249 84.4 140.196 84.4C140.969 84.4 141.629 84.5067 142.176 84.72C142.736 84.9333 143.196 85.2067 143.556 85.54C143.916 85.8733 144.182 86.2333 144.356 86.62C144.542 87.0067 144.642 87.3733 144.656 87.72C144.669 87.8533 144.629 87.96 144.536 88.04C144.442 88.12 144.329 88.16 144.196 88.16H143.236C143.102 88.16 143.002 88.1333 142.936 88.08C142.869 88.0133 142.802 87.9067 142.736 87.76C142.496 87.1067 142.169 86.6467 141.756 86.38C141.342 86.1133 140.829 85.98 140.216 85.98C139.416 85.98 138.762 86.2267 138.256 86.72C137.762 87.2133 137.496 88.0067 137.456 89.1C137.442 89.58 137.442 90.0467 137.456 90.5C137.496 91.6067 137.762 92.4067 138.256 92.9C138.762 93.38 139.416 93.62 140.216 93.62C140.829 93.62 141.342 93.4867 141.756 93.22C142.169 92.9533 142.496 92.4933 142.736 91.84C142.802 91.6933 142.869 91.5933 142.936 91.54C143.002 91.4733 143.102 91.44 143.236 91.44H144.196C144.329 91.44 144.442 91.48 144.536 91.56C144.629 91.64 144.669 91.7467 144.656 91.88C144.642 92.16 144.582 92.4467 144.476 92.74C144.369 93.0333 144.196 93.3333 143.956 93.64C143.729 93.9333 143.442 94.2 143.096 94.44C142.749 94.6667 142.329 94.8533 141.836 95C141.356 95.1333 140.809 95.2 140.196 95.2ZM147.491 95C147.357 95 147.244 94.96 147.151 94.88C147.071 94.7867 147.031 94.6733 147.031 94.54V85.06C147.031 84.9267 147.071 84.82 147.151 84.74C147.244 84.6467 147.357 84.6 147.491 84.6H148.451C148.584 84.6 148.691 84.6467 148.771 84.74C148.851 84.82 148.891 84.9267 148.891 85.06V94.54C148.891 94.6733 148.851 94.7867 148.771 94.88C148.691 94.96 148.584 95 148.451 95H147.491ZM147.331 82.66C147.197 82.66 147.084 82.62 146.991 82.54C146.911 82.4467 146.871 82.3333 146.871 82.2V81.12C146.871 80.9867 146.911 80.88 146.991 80.8C147.084 80.7067 147.197 80.66 147.331 80.66H148.591C148.724 80.66 148.831 80.7067 148.911 80.8C149.004 80.88 149.051 80.9867 149.051 81.12V82.2C149.051 82.3333 149.004 82.4467 148.911 82.54C148.831 82.62 148.724 82.66 148.591 82.66H147.331ZM154.775 95.2C154.108 95.2 153.501 95.0667 152.955 94.8C152.408 94.5333 151.968 94.1733 151.635 93.72C151.301 93.2667 151.135 92.7533 151.135 92.18C151.135 91.26 151.508 90.5267 152.255 89.98C153.001 89.4333 153.975 89.0733 155.175 88.9L158.155 88.48V87.9C158.155 87.26 157.968 86.76 157.595 86.4C157.235 86.04 156.641 85.86 155.815 85.86C155.215 85.86 154.728 85.98 154.355 86.22C153.995 86.46 153.741 86.7667 153.595 87.14C153.515 87.34 153.375 87.44 153.175 87.44H152.275C152.128 87.44 152.015 87.4 151.935 87.32C151.868 87.2267 151.835 87.12 151.835 87C151.835 86.8 151.908 86.5533 152.055 86.26C152.215 85.9667 152.455 85.68 152.775 85.4C153.095 85.12 153.501 84.8867 153.995 84.7C154.501 84.5 155.115 84.4 155.835 84.4C156.635 84.4 157.308 84.5067 157.855 84.72C158.401 84.92 158.828 85.1933 159.135 85.54C159.455 85.8867 159.681 86.28 159.815 86.72C159.961 87.16 160.035 87.6067 160.035 88.06V94.54C160.035 94.6733 159.988 94.7867 159.895 94.88C159.815 94.96 159.708 95 159.575 95H158.655C158.508 95 158.395 94.96 158.315 94.88C158.235 94.7867 158.195 94.6733 158.195 94.54V93.68C158.021 93.92 157.788 94.16 157.495 94.4C157.201 94.6267 156.835 94.82 156.395 94.98C155.955 95.1267 155.415 95.2 154.775 95.2ZM155.195 93.7C155.741 93.7 156.241 93.5867 156.695 93.36C157.148 93.12 157.501 92.7533 157.755 92.26C158.021 91.7667 158.155 91.1467 158.155 90.4V89.84L155.835 90.18C154.888 90.3133 154.175 90.54 153.695 90.86C153.215 91.1667 152.975 91.56 152.975 92.04C152.975 92.4133 153.081 92.7267 153.295 92.98C153.521 93.22 153.801 93.4 154.135 93.52C154.481 93.64 154.835 93.7 155.195 93.7ZM163.39 95C163.256 95 163.143 94.96 163.05 94.88C162.97 94.7867 162.93 94.6733 162.93 94.54V81.26C162.93 81.1267 162.97 81.02 163.05 80.94C163.143 80.8467 163.256 80.8 163.39 80.8H164.33C164.476 80.8 164.59 80.8467 164.67 80.94C164.75 81.02 164.79 81.1267 164.79 81.26V94.54C164.79 94.6733 164.75 94.7867 164.67 94.88C164.59 94.96 164.476 95 164.33 95H163.39Z" fill="black"/>
<path d="M101.815 15C95.188 18.3133 89.7382 24.4162 83.7035 28.6667C72.5525 36.5209 60.4097 42.8472 48.8146 50C41.1769 54.7116 37.8042 58.0263 34.9257 66.8889C30.2486 81.2896 32.0359 91.3463 43.9813 101.389C54.6132 110.327 67.3701 115.41 80.4813 119.444C91.8874 122.954 103.342 126.716 115.37 127C127.962 127.297 141.794 128.251 152.592 120.889C159.15 116.417 167.195 111.682 172.481 105.667C177.783 99.634 181.093 89.7875 183.759 82.5556C191.019 62.8669 196.036 42.5328 177.37 28.6667C172.718 25.2106 167.179 23.5614 161.592 22.3889C150.238 20.0059 138.84 17.3788 127.204 17.0556C118.749 16.8207 110.272 17 101.815 17" stroke="#2723EB" stroke-width="3" stroke-linecap="round"/>
<path d="M144.815 4C146.527 11.7068 133.05 15.4415 127.481 16.6667C108.741 20.7896 88.836 14.9378 70.1479 18.7778C20.5326 28.9727 16.5064 108.202 57.0368 131.222C80.355 144.467 105.892 147.249 131.759 150.944C153.145 154 181.592 157.69 199.648 143.222C213.451 132.162 215.772 117.388 214.37 100.111C212.286 74.4268 205.185 36.5597 182.148 20.5556C172.099 13.5743 155.06 9.22453 142.815 8" stroke="#F12430" stroke-width="3" stroke-linecap="round"/>
<path d="M108.815 4C107.524 19.4848 85.6329 22.6297 74.0368 25.3333C58.4248 28.9733 38.9728 28.9198 24.7035 37C12.0133 44.186 4.95509 57.7661 2.81458 71.7222C-1.67256 100.978 12.6415 134.211 39.259 148.444C57.7902 158.353 80.5132 157 100.87 157C133.403 157 165.719 128.239 178.481 99.5556C182.79 89.8719 189.316 77.1753 189.815 66.4444C190.122 59.8189 186.996 55.1762 182.703 50.3333C172.435 38.7472 158.978 28.9605 145.759 21.0556C134.484 14.3131 121.625 10.562 108.815 8" stroke="#F5ED28" stroke-width="3" stroke-linecap="round"/>
<path d="M190.815 57C163.548 28.9313 121.211 19.5844 83.4813 26.4444C75.5242 27.8912 67.7634 30.9064 60.3702 34.1111C44.3227 41.0671 37.4716 49.9282 38.0369 69C38.7259 92.2467 46.168 117.874 61.4257 135.833C70.0323 145.964 83.2256 148.734 95.2591 152.5C106.676 156.073 114.929 159.788 126.87 157.167C147.179 152.709 164.154 139.432 173.926 121C182.204 105.384 183.14 89.4375 186.259 72.5555C187.844 63.9805 187.601 56.6523 186.815 48" stroke="#33E64F" stroke-width="3" stroke-linecap="round"/>
<path d="M171.815 19C122.605 19 53.6469 13.0375 26.8146 64.5555C14.5291 88.1437 10.148 125.617 33.4257 143.556C46.4605 153.601 63.0959 159.638 78.4813 164.889C94.1247 170.228 107.081 172.473 123.481 170.167C137.876 168.142 151.361 164.684 164.092 157.5C178.336 149.462 185.494 136.361 191.37 121.444C199.379 101.114 198.486 82.0521 193.259 61.4444C190.141 49.1517 184.803 38.6759 178.037 28C175.598 24.1516 175.027 24 170.815 24" stroke="#EF33DC" stroke-width="3" stroke-linecap="round"/>
</svg>
