<svg width="192" height="167" viewBox="0 0 192 167" fill="none" xmlns="http://www.w3.org/2000/svg">
<rect x="18.0459" width="150" height="150" fill="white"/>
<path d="M40.9783 66C40.8317 66 40.7183 65.96 40.6383 65.88C40.5583 65.7867 40.5183 65.6733 40.5183 65.54V52.46C40.5183 52.3267 40.5583 52.22 40.6383 52.14C40.7183 52.0467 40.8317 52 40.9783 52H42.0383C42.1717 52 42.2783 52.0467 42.3583 52.14C42.4517 52.22 42.4983 52.3267 42.4983 52.46V65.54C42.4983 65.6733 42.4517 65.7867 42.3583 65.88C42.2783 65.96 42.1717 66 42.0383 66H40.9783ZM46.1871 66C46.0537 66 45.9404 65.96 45.8471 65.88C45.7671 65.7867 45.7271 65.6733 45.7271 65.54V56.06C45.7271 55.9267 45.7671 55.82 45.8471 55.74C45.9404 55.6467 46.0537 55.6 46.1871 55.6H47.1271C47.2604 55.6 47.3671 55.6467 47.4471 55.74C47.5404 55.82 47.5871 55.9267 47.5871 56.06V56.94C47.9337 56.4867 48.3671 56.12 48.8871 55.84C49.4204 55.5467 50.1004 55.4 50.9271 55.4C51.7937 55.4 52.5271 55.5933 53.1271 55.98C53.7404 56.3533 54.2004 56.88 54.5071 57.56C54.8137 58.2267 54.9671 59.0067 54.9671 59.9V65.54C54.9671 65.6733 54.9271 65.7867 54.8471 65.88C54.7671 65.96 54.6604 66 54.5271 66H53.5271C53.3937 66 53.2804 65.96 53.1871 65.88C53.1071 65.7867 53.0671 65.6733 53.0671 65.54V60C53.0671 59.0667 52.8404 58.34 52.3871 57.82C51.9337 57.2867 51.2671 57.02 50.3871 57.02C49.5604 57.02 48.8937 57.2867 48.3871 57.82C47.8937 58.34 47.6471 59.0667 47.6471 60V65.54C47.6471 65.6733 47.6004 65.7867 47.5071 65.88C47.4271 65.96 47.3204 66 47.1871 66H46.1871ZM61.7793 66C61.0326 66 60.4259 65.86 59.9593 65.58C59.4926 65.2867 59.1526 64.88 58.9393 64.36C58.7259 63.8267 58.6193 63.2 58.6193 62.48V57.2H57.0593C56.9259 57.2 56.8126 57.16 56.7193 57.08C56.6393 56.9867 56.5993 56.8733 56.5993 56.74V56.06C56.5993 55.9267 56.6393 55.82 56.7193 55.74C56.8126 55.6467 56.9259 55.6 57.0593 55.6H58.6193V52.26C58.6193 52.1267 58.6593 52.02 58.7393 51.94C58.8326 51.8467 58.9459 51.8 59.0793 51.8H60.0193C60.1526 51.8 60.2593 51.8467 60.3393 51.94C60.4326 52.02 60.4793 52.1267 60.4793 52.26V55.6H62.9593C63.0926 55.6 63.1993 55.6467 63.2793 55.74C63.3726 55.82 63.4193 55.9267 63.4193 56.06V56.74C63.4193 56.8733 63.3726 56.9867 63.2793 57.08C63.1993 57.16 63.0926 57.2 62.9593 57.2H60.4793V62.34C60.4793 62.9667 60.5859 63.46 60.7993 63.82C61.0126 64.18 61.3926 64.36 61.9393 64.36H63.1593C63.2926 64.36 63.3993 64.4067 63.4793 64.5C63.5726 64.58 63.6193 64.6867 63.6193 64.82V65.54C63.6193 65.6733 63.5726 65.7867 63.4793 65.88C63.3993 65.96 63.2926 66 63.1593 66H61.7793ZM69.6718 66.2C68.2984 66.2 67.2051 65.78 66.3918 64.94C65.5784 64.0867 65.1318 62.9267 65.0518 61.46C65.0384 61.2867 65.0318 61.0667 65.0318 60.8C65.0318 60.52 65.0384 60.2933 65.0518 60.12C65.1051 59.1733 65.3251 58.3467 65.7118 57.64C66.0984 56.92 66.6251 56.3667 67.2918 55.98C67.9718 55.5933 68.7651 55.4 69.6718 55.4C70.6851 55.4 71.5318 55.6133 72.2118 56.04C72.9051 56.4667 73.4318 57.0733 73.7918 57.86C74.1518 58.6467 74.3318 59.5667 74.3318 60.62V60.96C74.3318 61.1067 74.2851 61.22 74.1918 61.3C74.1118 61.38 74.0051 61.42 73.8718 61.42H66.9518C66.9518 61.4333 66.9518 61.46 66.9518 61.5C66.9518 61.54 66.9518 61.5733 66.9518 61.6C66.9784 62.1467 67.0984 62.66 67.3118 63.14C67.5251 63.6067 67.8318 63.9867 68.2318 64.28C68.6318 64.5733 69.1118 64.72 69.6718 64.72C70.1518 64.72 70.5518 64.6467 70.8718 64.5C71.1918 64.3533 71.4518 64.1933 71.6518 64.02C71.8518 63.8333 71.9851 63.6933 72.0518 63.6C72.1718 63.4267 72.2651 63.3267 72.3318 63.3C72.3984 63.26 72.5051 63.24 72.6518 63.24H73.6118C73.7451 63.24 73.8518 63.28 73.9318 63.36C74.0251 63.4267 74.0651 63.5267 74.0518 63.66C74.0384 63.86 73.9318 64.1067 73.7318 64.4C73.5318 64.68 73.2451 64.96 72.8718 65.24C72.4984 65.52 72.0451 65.7533 71.5118 65.94C70.9784 66.1133 70.3651 66.2 69.6718 66.2ZM66.9518 60.04H72.4318V59.98C72.4318 59.38 72.3184 58.8467 72.0918 58.38C71.8784 57.9133 71.5651 57.5467 71.1518 57.28C70.7384 57 70.2451 56.86 69.6718 56.86C69.0984 56.86 68.6051 57 68.1918 57.28C67.7918 57.5467 67.4851 57.9133 67.2718 58.38C67.0584 58.8467 66.9518 59.38 66.9518 59.98V60.04ZM77.2032 66C77.0698 66 76.9565 65.96 76.8632 65.88C76.7832 65.7867 76.7432 65.6733 76.7432 65.54V52.26C76.7432 52.1267 76.7832 52.02 76.8632 51.94C76.9565 51.8467 77.0698 51.8 77.2032 51.8H78.1432C78.2898 51.8 78.4032 51.8467 78.4832 51.94C78.5632 52.02 78.6032 52.1267 78.6032 52.26V65.54C78.6032 65.6733 78.5632 65.7867 78.4832 65.88C78.4032 65.96 78.2898 66 78.1432 66H77.2032ZM82.2418 66C82.1084 66 81.9951 65.96 81.9018 65.88C81.8218 65.7867 81.7818 65.6733 81.7818 65.54V56.06C81.7818 55.9267 81.8218 55.82 81.9018 55.74C81.9951 55.6467 82.1084 55.6 82.2418 55.6H83.2018C83.3351 55.6 83.4418 55.6467 83.5218 55.74C83.6018 55.82 83.6418 55.9267 83.6418 56.06V65.54C83.6418 65.6733 83.6018 65.7867 83.5218 65.88C83.4418 65.96 83.3351 66 83.2018 66H82.2418ZM82.0818 53.66C81.9484 53.66 81.8351 53.62 81.7418 53.54C81.6618 53.4467 81.6218 53.3333 81.6218 53.2V52.12C81.6218 51.9867 81.6618 51.88 81.7418 51.8C81.8351 51.7067 81.9484 51.66 82.0818 51.66H83.3418C83.4751 51.66 83.5818 51.7067 83.6618 51.8C83.7551 51.88 83.8018 51.9867 83.8018 52.12V53.2C83.8018 53.3333 83.7551 53.4467 83.6618 53.54C83.5818 53.62 83.4751 53.66 83.3418 53.66H82.0818ZM90.8855 70.4C89.9788 70.4 89.2322 70.28 88.6455 70.04C88.0722 69.8 87.6188 69.5067 87.2855 69.16C86.9655 68.8267 86.7322 68.4867 86.5855 68.14C86.4522 67.8067 86.3788 67.54 86.3655 67.34C86.3522 67.2067 86.3922 67.0933 86.4855 67C86.5922 66.9067 86.7055 66.86 86.8255 66.86H87.7855C87.9055 66.86 88.0055 66.8867 88.0855 66.94C88.1655 66.9933 88.2322 67.1067 88.2855 67.28C88.3655 67.48 88.4855 67.7 88.6455 67.94C88.8055 68.1933 89.0522 68.4067 89.3855 68.58C89.7188 68.7667 90.1855 68.86 90.7855 68.86C91.4122 68.86 91.9388 68.7733 92.3655 68.6C92.7922 68.44 93.1122 68.1467 93.3255 67.72C93.5522 67.3067 93.6655 66.7333 93.6655 66V64.64C93.3455 65.0533 92.9255 65.4 92.4055 65.68C91.8855 65.9467 91.2322 66.08 90.4455 66.08C89.6988 66.08 89.0588 65.9533 88.5255 65.7C87.9922 65.4333 87.5522 65.08 87.2055 64.64C86.8722 64.1867 86.6188 63.6733 86.4455 63.1C86.2855 62.5267 86.1922 61.9267 86.1655 61.3C86.1522 60.9267 86.1522 60.56 86.1655 60.2C86.1922 59.5733 86.2855 58.9733 86.4455 58.4C86.6188 57.8267 86.8722 57.3133 87.2055 56.86C87.5522 56.4067 87.9922 56.0533 88.5255 55.8C89.0588 55.5333 89.6988 55.4 90.4455 55.4C91.2455 55.4 91.9055 55.5533 92.4255 55.86C92.9588 56.1533 93.3922 56.5133 93.7255 56.94V56.08C93.7255 55.9467 93.7655 55.8333 93.8455 55.74C93.9388 55.6467 94.0522 55.6 94.1855 55.6H95.1055C95.2388 55.6 95.3522 55.6467 95.4455 55.74C95.5388 55.8333 95.5855 55.9467 95.5855 56.08V65.78C95.5855 66.6733 95.4322 67.4667 95.1255 68.16C94.8322 68.8533 94.3388 69.4 93.6455 69.8C92.9655 70.2 92.0455 70.4 90.8855 70.4ZM90.8455 64.48C91.5122 64.48 92.0455 64.3267 92.4455 64.02C92.8588 63.7133 93.1588 63.3267 93.3455 62.86C93.5455 62.3933 93.6522 61.92 93.6655 61.44C93.6788 61.2533 93.6855 61.0267 93.6855 60.76C93.6855 60.48 93.6788 60.2467 93.6655 60.06C93.6522 59.58 93.5455 59.1067 93.3455 58.64C93.1588 58.1733 92.8588 57.7867 92.4455 57.48C92.0455 57.1733 91.5122 57.02 90.8455 57.02C90.1788 57.02 89.6455 57.1733 89.2455 57.48C88.8455 57.7733 88.5588 58.1667 88.3855 58.66C88.2122 59.14 88.1122 59.66 88.0855 60.22C88.0722 60.5667 88.0722 60.92 88.0855 61.28C88.1122 61.84 88.2122 62.3667 88.3855 62.86C88.5588 63.34 88.8455 63.7333 89.2455 64.04C89.6455 64.3333 90.1788 64.48 90.8455 64.48ZM102.699 66.2C101.326 66.2 100.232 65.78 99.4191 64.94C98.6058 64.0867 98.1591 62.9267 98.0791 61.46C98.0658 61.2867 98.0591 61.0667 98.0591 60.8C98.0591 60.52 98.0658 60.2933 98.0791 60.12C98.1324 59.1733 98.3524 58.3467 98.7391 57.64C99.1258 56.92 99.6524 56.3667 100.319 55.98C100.999 55.5933 101.792 55.4 102.699 55.4C103.712 55.4 104.559 55.6133 105.239 56.04C105.932 56.4667 106.459 57.0733 106.819 57.86C107.179 58.6467 107.359 59.5667 107.359 60.62V60.96C107.359 61.1067 107.312 61.22 107.219 61.3C107.139 61.38 107.032 61.42 106.899 61.42H99.9791C99.9791 61.4333 99.9791 61.46 99.9791 61.5C99.9791 61.54 99.9791 61.5733 99.9791 61.6C100.006 62.1467 100.126 62.66 100.339 63.14C100.552 63.6067 100.859 63.9867 101.259 64.28C101.659 64.5733 102.139 64.72 102.699 64.72C103.179 64.72 103.579 64.6467 103.899 64.5C104.219 64.3533 104.479 64.1933 104.679 64.02C104.879 63.8333 105.012 63.6933 105.079 63.6C105.199 63.4267 105.292 63.3267 105.359 63.3C105.426 63.26 105.532 63.24 105.679 63.24H106.639C106.772 63.24 106.879 63.28 106.959 63.36C107.052 63.4267 107.092 63.5267 107.079 63.66C107.066 63.86 106.959 64.1067 106.759 64.4C106.559 64.68 106.272 64.96 105.899 65.24C105.526 65.52 105.072 65.7533 104.539 65.94C104.006 66.1133 103.392 66.2 102.699 66.2ZM99.9791 60.04H105.459V59.98C105.459 59.38 105.346 58.8467 105.119 58.38C104.906 57.9133 104.592 57.5467 104.179 57.28C103.766 57 103.272 56.86 102.699 56.86C102.126 56.86 101.632 57 101.219 57.28C100.819 57.5467 100.512 57.9133 100.299 58.38C100.086 58.8467 99.9791 59.38 99.9791 59.98V60.04ZM99.9791 54.1C99.7791 54.1 99.6791 54.02 99.6791 53.86C99.6791 53.7533 99.7524 53.6267 99.8991 53.48L101.739 51.64C101.872 51.4933 101.986 51.4133 102.079 51.4C102.186 51.3733 102.292 51.36 102.399 51.36H102.999C103.119 51.36 103.226 51.3733 103.319 51.4C103.412 51.4133 103.526 51.4933 103.659 51.64L105.499 53.48C105.632 53.6267 105.699 53.7533 105.699 53.86C105.699 54.02 105.606 54.1 105.419 54.1H104.899C104.806 54.1 104.706 54.0867 104.599 54.06C104.492 54.0333 104.406 54 104.339 53.96L102.699 52.82L101.059 53.96C100.979 54 100.886 54.0333 100.779 54.06C100.686 54.0867 100.592 54.1 100.499 54.1H99.9791ZM110.211 66C110.077 66 109.964 65.96 109.871 65.88C109.791 65.7867 109.751 65.6733 109.751 65.54V56.06C109.751 55.9267 109.791 55.82 109.871 55.74C109.964 55.6467 110.077 55.6 110.211 55.6H111.151C111.284 55.6 111.391 55.6467 111.471 55.74C111.564 55.82 111.611 55.9267 111.611 56.06V56.94C111.957 56.4867 112.391 56.12 112.911 55.84C113.444 55.5467 114.124 55.4 114.951 55.4C115.817 55.4 116.551 55.5933 117.151 55.98C117.764 56.3533 118.224 56.88 118.531 57.56C118.837 58.2267 118.991 59.0067 118.991 59.9V65.54C118.991 65.6733 118.951 65.7867 118.871 65.88C118.791 65.96 118.684 66 118.551 66H117.551C117.417 66 117.304 65.96 117.211 65.88C117.131 65.7867 117.091 65.6733 117.091 65.54V60C117.091 59.0667 116.864 58.34 116.411 57.82C115.957 57.2867 115.291 57.02 114.411 57.02C113.584 57.02 112.917 57.2867 112.411 57.82C111.917 58.34 111.671 59.0667 111.671 60V65.54C111.671 65.6733 111.624 65.7867 111.531 65.88C111.451 65.96 111.344 66 111.211 66H110.211ZM126.079 66.2C125.133 66.2 124.313 66.02 123.619 65.66C122.939 65.2867 122.413 64.76 122.039 64.08C121.666 63.3867 121.466 62.56 121.439 61.6C121.426 61.4 121.419 61.1333 121.419 60.8C121.419 60.4667 121.426 60.2 121.439 60C121.466 59.04 121.666 58.22 122.039 57.54C122.413 56.8467 122.939 56.32 123.619 55.96C124.313 55.5867 125.133 55.4 126.079 55.4C126.853 55.4 127.513 55.5067 128.059 55.72C128.619 55.9333 129.079 56.2067 129.439 56.54C129.799 56.8733 130.066 57.2333 130.239 57.62C130.426 58.0067 130.526 58.3733 130.539 58.72C130.553 58.8533 130.513 58.96 130.419 59.04C130.326 59.12 130.213 59.16 130.079 59.16H129.119C128.986 59.16 128.886 59.1333 128.819 59.08C128.753 59.0133 128.686 58.9067 128.619 58.76C128.379 58.1067 128.053 57.6467 127.639 57.38C127.226 57.1133 126.713 56.98 126.099 56.98C125.299 56.98 124.646 57.2267 124.139 57.72C123.646 58.2133 123.379 59.0067 123.339 60.1C123.326 60.58 123.326 61.0467 123.339 61.5C123.379 62.6067 123.646 63.4067 124.139 63.9C124.646 64.38 125.299 64.62 126.099 64.62C126.713 64.62 127.226 64.4867 127.639 64.22C128.053 63.9533 128.379 63.4933 128.619 62.84C128.686 62.6933 128.753 62.5933 128.819 62.54C128.886 62.4733 128.986 62.44 129.119 62.44H130.079C130.213 62.44 130.326 62.48 130.419 62.56C130.513 62.64 130.553 62.7467 130.539 62.88C130.526 63.16 130.466 63.4467 130.359 63.74C130.253 64.0333 130.079 64.3333 129.839 64.64C129.613 64.9333 129.326 65.2 128.979 65.44C128.633 65.6667 128.213 65.8533 127.719 66C127.239 66.1333 126.693 66.2 126.079 66.2ZM133.375 66C133.241 66 133.128 65.96 133.035 65.88C132.955 65.7867 132.915 65.6733 132.915 65.54V56.06C132.915 55.9267 132.955 55.82 133.035 55.74C133.128 55.6467 133.241 55.6 133.375 55.6H134.335C134.468 55.6 134.575 55.6467 134.655 55.74C134.735 55.82 134.775 55.9267 134.775 56.06V65.54C134.775 65.6733 134.735 65.7867 134.655 65.88C134.575 65.96 134.468 66 134.335 66H133.375ZM133.215 53.66C133.081 53.66 132.968 53.62 132.875 53.54C132.795 53.4467 132.755 53.3333 132.755 53.2V52.12C132.755 51.9867 132.795 51.88 132.875 51.8C132.968 51.7067 133.081 51.66 133.215 51.66H134.475C134.608 51.66 134.715 51.7067 134.795 51.8C134.888 51.88 134.935 51.9867 134.935 52.12V53.2C134.935 53.3333 134.888 53.4467 134.795 53.54C134.715 53.62 134.608 53.66 134.475 53.66H133.215ZM140.658 66.2C139.992 66.2 139.385 66.0667 138.838 65.8C138.292 65.5333 137.852 65.1733 137.518 64.72C137.185 64.2667 137.018 63.7533 137.018 63.18C137.018 62.26 137.392 61.5267 138.138 60.98C138.885 60.4333 139.858 60.0733 141.058 59.9L144.038 59.48V58.9C144.038 58.26 143.852 57.76 143.478 57.4C143.118 57.04 142.525 56.86 141.698 56.86C141.098 56.86 140.612 56.98 140.238 57.22C139.878 57.46 139.625 57.7667 139.478 58.14C139.398 58.34 139.258 58.44 139.058 58.44H138.158C138.012 58.44 137.898 58.4 137.818 58.32C137.752 58.2267 137.718 58.12 137.718 58C137.718 57.8 137.792 57.5533 137.938 57.26C138.098 56.9667 138.338 56.68 138.658 56.4C138.978 56.12 139.385 55.8867 139.878 55.7C140.385 55.5 140.998 55.4 141.718 55.4C142.518 55.4 143.192 55.5067 143.738 55.72C144.285 55.92 144.712 56.1933 145.018 56.54C145.338 56.8867 145.565 57.28 145.698 57.72C145.845 58.16 145.918 58.6067 145.918 59.06V65.54C145.918 65.6733 145.872 65.7867 145.778 65.88C145.698 65.96 145.592 66 145.458 66H144.538C144.392 66 144.278 65.96 144.198 65.88C144.118 65.7867 144.078 65.6733 144.078 65.54V64.68C143.905 64.92 143.672 65.16 143.378 65.4C143.085 65.6267 142.718 65.82 142.278 65.98C141.838 66.1267 141.298 66.2 140.658 66.2ZM141.078 64.7C141.625 64.7 142.125 64.5867 142.578 64.36C143.032 64.12 143.385 63.7533 143.638 63.26C143.905 62.7667 144.038 62.1467 144.038 61.4V60.84L141.718 61.18C140.772 61.3133 140.058 61.54 139.578 61.86C139.098 62.1667 138.858 62.56 138.858 63.04C138.858 63.4133 138.965 63.7267 139.178 63.98C139.405 64.22 139.685 64.4 140.018 64.52C140.365 64.64 140.718 64.7 141.078 64.7ZM44.0936 90C43.9469 90 43.8336 89.96 43.7536 89.88C43.6736 89.7867 43.6336 89.6733 43.6336 89.54V76.46C43.6336 76.3267 43.6736 76.22 43.7536 76.14C43.8336 76.0467 43.9469 76 44.0936 76H45.1536C45.2869 76 45.3936 76.0467 45.4736 76.14C45.5536 76.22 45.5936 76.3267 45.5936 76.46V88.26H52.2536C52.4002 88.26 52.5136 88.3067 52.5936 88.4C52.6736 88.48 52.7136 88.5933 52.7136 88.74V89.54C52.7136 89.6733 52.6736 89.7867 52.5936 89.88C52.5136 89.96 52.4002 90 52.2536 90H44.0936ZM55.1031 90C54.9698 90 54.8564 89.96 54.7631 89.88C54.6831 89.7867 54.6431 89.6733 54.6431 89.54V80.06C54.6431 79.9267 54.6831 79.82 54.7631 79.74C54.8564 79.6467 54.9698 79.6 55.1031 79.6H56.0631C56.1964 79.6 56.3031 79.6467 56.3831 79.74C56.4631 79.82 56.5031 79.9267 56.5031 80.06V89.54C56.5031 89.6733 56.4631 89.7867 56.3831 89.88C56.3031 89.96 56.1964 90 56.0631 90H55.1031ZM54.9431 77.66C54.8098 77.66 54.6964 77.62 54.6031 77.54C54.5231 77.4467 54.4831 77.3333 54.4831 77.2V76.12C54.4831 75.9867 54.5231 75.88 54.6031 75.8C54.6964 75.7067 54.8098 75.66 54.9431 75.66H56.2031C56.3364 75.66 56.4431 75.7067 56.5231 75.8C56.6164 75.88 56.6631 75.9867 56.6631 76.12V77.2C56.6631 77.3333 56.6164 77.4467 56.5231 77.54C56.4431 77.62 56.3364 77.66 56.2031 77.66H54.9431ZM60.1421 90C60.0088 90 59.8955 89.96 59.8021 89.88C59.7221 89.7867 59.6821 89.6733 59.6821 89.54V80.06C59.6821 79.9267 59.7221 79.82 59.8021 79.74C59.8955 79.6467 60.0088 79.6 60.1421 79.6H61.0821C61.2155 79.6 61.3221 79.6467 61.4021 79.74C61.4955 79.82 61.5421 79.9267 61.5421 80.06V80.94C61.8888 80.4867 62.3221 80.12 62.8421 79.84C63.3755 79.5467 64.0555 79.4 64.8821 79.4C65.7488 79.4 66.4821 79.5933 67.0821 79.98C67.6955 80.3533 68.1555 80.88 68.4621 81.56C68.7688 82.2267 68.9221 83.0067 68.9221 83.9V89.54C68.9221 89.6733 68.8821 89.7867 68.8021 89.88C68.7221 89.96 68.6155 90 68.4821 90H67.4821C67.3488 90 67.2355 89.96 67.1421 89.88C67.0621 89.7867 67.0221 89.6733 67.0221 89.54V84C67.0221 83.0667 66.7955 82.34 66.3421 81.82C65.8888 81.2867 65.2221 81.02 64.3421 81.02C63.5155 81.02 62.8488 81.2867 62.3421 81.82C61.8488 82.34 61.6021 83.0667 61.6021 84V89.54C61.6021 89.6733 61.5555 89.7867 61.4621 89.88C61.3821 89.96 61.2755 90 61.1421 90H60.1421ZM76.0711 94.4C75.1644 94.4 74.4177 94.28 73.8311 94.04C73.2577 93.8 72.8044 93.5067 72.4711 93.16C72.1511 92.8267 71.9177 92.4867 71.7711 92.14C71.6377 91.8067 71.5644 91.54 71.5511 91.34C71.5377 91.2067 71.5777 91.0933 71.6711 91C71.7777 90.9067 71.8911 90.86 72.0111 90.86H72.9711C73.0911 90.86 73.1911 90.8867 73.2711 90.94C73.3511 90.9933 73.4177 91.1067 73.4711 91.28C73.5511 91.48 73.6711 91.7 73.8311 91.94C73.9911 92.1933 74.2377 92.4067 74.5711 92.58C74.9044 92.7667 75.3711 92.86 75.9711 92.86C76.5977 92.86 77.1244 92.7733 77.5511 92.6C77.9777 92.44 78.2977 92.1467 78.5111 91.72C78.7377 91.3067 78.8511 90.7333 78.8511 90V88.64C78.5311 89.0533 78.1111 89.4 77.5911 89.68C77.0711 89.9467 76.4177 90.08 75.6311 90.08C74.8844 90.08 74.2444 89.9533 73.7111 89.7C73.1777 89.4333 72.7377 89.08 72.3911 88.64C72.0577 88.1867 71.8044 87.6733 71.6311 87.1C71.4711 86.5267 71.3777 85.9267 71.3511 85.3C71.3377 84.9267 71.3377 84.56 71.3511 84.2C71.3777 83.5733 71.4711 82.9733 71.6311 82.4C71.8044 81.8267 72.0577 81.3133 72.3911 80.86C72.7377 80.4067 73.1777 80.0533 73.7111 79.8C74.2444 79.5333 74.8844 79.4 75.6311 79.4C76.4311 79.4 77.0911 79.5533 77.6111 79.86C78.1444 80.1533 78.5777 80.5133 78.9111 80.94V80.08C78.9111 79.9467 78.9511 79.8333 79.0311 79.74C79.1244 79.6467 79.2377 79.6 79.3711 79.6H80.2911C80.4244 79.6 80.5377 79.6467 80.6311 79.74C80.7244 79.8333 80.7711 79.9467 80.7711 80.08V89.78C80.7711 90.6733 80.6177 91.4667 80.3111 92.16C80.0177 92.8533 79.5244 93.4 78.8311 93.8C78.1511 94.2 77.2311 94.4 76.0711 94.4ZM76.0311 88.48C76.6977 88.48 77.2311 88.3267 77.6311 88.02C78.0444 87.7133 78.3444 87.3267 78.5311 86.86C78.7311 86.3933 78.8377 85.92 78.8511 85.44C78.8644 85.2533 78.8711 85.0267 78.8711 84.76C78.8711 84.48 78.8644 84.2467 78.8511 84.06C78.8377 83.58 78.7311 83.1067 78.5311 82.64C78.3444 82.1733 78.0444 81.7867 77.6311 81.48C77.2311 81.1733 76.6977 81.02 76.0311 81.02C75.3644 81.02 74.8311 81.1733 74.4311 81.48C74.0311 81.7733 73.7444 82.1667 73.5711 82.66C73.3977 83.14 73.2977 83.66 73.2711 84.22C73.2577 84.5667 73.2577 84.92 73.2711 85.28C73.2977 85.84 73.3977 86.3667 73.5711 86.86C73.7444 87.34 74.0311 87.7333 74.4311 88.04C74.8311 88.3333 75.3644 88.48 76.0311 88.48ZM87.6246 90.2C86.7713 90.2 86.0446 90.0133 85.4446 89.64C84.858 89.2533 84.4113 88.72 84.1046 88.04C83.798 87.36 83.6446 86.58 83.6446 85.7V80.06C83.6446 79.9267 83.6846 79.82 83.7646 79.74C83.858 79.6467 83.9713 79.6 84.1046 79.6H85.1046C85.238 79.6 85.3446 79.6467 85.4246 79.74C85.518 79.82 85.5646 79.9267 85.5646 80.06V85.6C85.5646 87.5867 86.4313 88.58 88.1646 88.58C88.9913 88.58 89.6513 88.32 90.1446 87.8C90.6513 87.2667 90.9046 86.5333 90.9046 85.6V80.06C90.9046 79.9267 90.9446 79.82 91.0246 79.74C91.118 79.6467 91.2313 79.6 91.3646 79.6H92.3446C92.4913 79.6 92.6046 79.6467 92.6846 79.74C92.7646 79.82 92.8046 79.9267 92.8046 80.06V89.54C92.8046 89.6733 92.7646 89.7867 92.6846 89.88C92.6046 89.96 92.4913 90 92.3446 90H91.4246C91.2913 90 91.178 89.96 91.0846 89.88C91.0046 89.7867 90.9646 89.6733 90.9646 89.54V88.66C90.6046 89.1267 90.1646 89.5 89.6446 89.78C89.138 90.06 88.4646 90.2 87.6246 90.2ZM87.6646 78.1C87.4513 78.1 87.3446 77.9933 87.3446 77.78C87.3446 77.6733 87.378 77.5867 87.4446 77.52L88.9446 75.72C89.0646 75.5733 89.1713 75.48 89.2646 75.44C89.358 75.3867 89.498 75.36 89.6846 75.36H91.0446C91.298 75.36 91.4246 75.4867 91.4246 75.74C91.4246 75.8333 91.3913 75.9133 91.3246 75.98L89.0046 77.88C88.898 77.9733 88.798 78.0333 88.7046 78.06C88.6113 78.0867 88.4913 78.1 88.3446 78.1H87.6646ZM96.2359 90C96.1026 90 95.9892 89.96 95.8959 89.88C95.8159 89.7867 95.7759 89.6733 95.7759 89.54V80.06C95.7759 79.9267 95.8159 79.82 95.8959 79.74C95.9892 79.6467 96.1026 79.6 96.2359 79.6H97.1959C97.3292 79.6 97.4359 79.6467 97.5159 79.74C97.5959 79.82 97.6359 79.9267 97.6359 80.06V89.54C97.6359 89.6733 97.5959 89.7867 97.5159 89.88C97.4359 89.96 97.3292 90 97.1959 90H96.2359ZM96.0759 77.66C95.9426 77.66 95.8292 77.62 95.7359 77.54C95.6559 77.4467 95.6159 77.3333 95.6159 77.2V76.12C95.6159 75.9867 95.6559 75.88 95.7359 75.8C95.8292 75.7067 95.9426 75.66 96.0759 75.66H97.3359C97.4692 75.66 97.5759 75.7067 97.6559 75.8C97.7492 75.88 97.7959 75.9867 97.7959 76.12V77.2C97.7959 77.3333 97.7492 77.4467 97.6559 77.54C97.5759 77.62 97.4692 77.66 97.3359 77.66H96.0759ZM104.337 90.2C103.59 90.2 102.95 90.1067 102.417 89.92C101.884 89.7333 101.45 89.5067 101.117 89.24C100.784 88.9733 100.53 88.7067 100.357 88.44C100.197 88.1733 100.11 87.96 100.097 87.8C100.084 87.6533 100.13 87.54 100.237 87.46C100.344 87.38 100.45 87.34 100.557 87.34H101.437C101.517 87.34 101.577 87.3533 101.617 87.38C101.67 87.3933 101.737 87.4467 101.817 87.54C101.99 87.7267 102.184 87.9133 102.397 88.1C102.61 88.2867 102.87 88.44 103.177 88.56C103.497 88.68 103.89 88.74 104.357 88.74C105.037 88.74 105.597 88.6133 106.037 88.36C106.477 88.0933 106.697 87.7067 106.697 87.2C106.697 86.8667 106.604 86.6 106.417 86.4C106.244 86.2 105.924 86.02 105.457 85.86C105.004 85.7 104.377 85.5333 103.577 85.36C102.777 85.1733 102.144 84.9467 101.677 84.68C101.21 84.4 100.877 84.0733 100.677 83.7C100.477 83.3133 100.377 82.88 100.377 82.4C100.377 81.9067 100.524 81.4333 100.817 80.98C101.11 80.5133 101.537 80.1333 102.097 79.84C102.67 79.5467 103.384 79.4 104.237 79.4C104.93 79.4 105.524 79.4867 106.017 79.66C106.51 79.8333 106.917 80.0533 107.237 80.32C107.557 80.5733 107.797 80.8267 107.957 81.08C108.117 81.3333 108.204 81.5467 108.217 81.72C108.23 81.8533 108.19 81.9667 108.097 82.06C108.004 82.14 107.897 82.18 107.777 82.18H106.937C106.844 82.18 106.764 82.16 106.697 82.12C106.644 82.08 106.59 82.0333 106.537 81.98C106.404 81.8067 106.244 81.6333 106.057 81.46C105.884 81.2867 105.65 81.1467 105.357 81.04C105.077 80.92 104.704 80.86 104.237 80.86C103.57 80.86 103.07 81 102.737 81.28C102.404 81.56 102.237 81.9133 102.237 82.34C102.237 82.5933 102.31 82.82 102.457 83.02C102.604 83.22 102.884 83.4 103.297 83.56C103.71 83.72 104.324 83.8933 105.137 84.08C106.017 84.2533 106.71 84.4867 107.217 84.78C107.724 85.0733 108.084 85.4133 108.297 85.8C108.51 86.1867 108.617 86.6333 108.617 87.14C108.617 87.7 108.45 88.2133 108.117 88.68C107.797 89.1467 107.317 89.52 106.677 89.8C106.05 90.0667 105.27 90.2 104.337 90.2ZM114.973 90C114.226 90 113.619 89.86 113.153 89.58C112.686 89.2867 112.346 88.88 112.133 88.36C111.919 87.8267 111.813 87.2 111.813 86.48V81.2H110.253C110.119 81.2 110.006 81.16 109.913 81.08C109.833 80.9867 109.793 80.8733 109.793 80.74V80.06C109.793 79.9267 109.833 79.82 109.913 79.74C110.006 79.6467 110.119 79.6 110.253 79.6H111.813V76.26C111.813 76.1267 111.853 76.02 111.933 75.94C112.026 75.8467 112.139 75.8 112.273 75.8H113.213C113.346 75.8 113.453 75.8467 113.533 75.94C113.626 76.02 113.673 76.1267 113.673 76.26V79.6H116.153C116.286 79.6 116.393 79.6467 116.473 79.74C116.566 79.82 116.613 79.9267 116.613 80.06V80.74C116.613 80.8733 116.566 80.9867 116.473 81.08C116.393 81.16 116.286 81.2 116.153 81.2H113.673V86.34C113.673 86.9667 113.779 87.46 113.993 87.82C114.206 88.18 114.586 88.36 115.133 88.36H116.353C116.486 88.36 116.593 88.4067 116.673 88.5C116.766 88.58 116.813 88.6867 116.813 88.82V89.54C116.813 89.6733 116.766 89.7867 116.673 89.88C116.593 89.96 116.486 90 116.353 90H114.973ZM119.185 90C119.052 90 118.938 89.96 118.845 89.88C118.765 89.7867 118.725 89.6733 118.725 89.54V80.06C118.725 79.9267 118.765 79.82 118.845 79.74C118.938 79.6467 119.052 79.6 119.185 79.6H120.145C120.278 79.6 120.385 79.6467 120.465 79.74C120.545 79.82 120.585 79.9267 120.585 80.06V89.54C120.585 89.6733 120.545 89.7867 120.465 89.88C120.385 89.96 120.278 90 120.145 90H119.185ZM119.025 77.66C118.892 77.66 118.778 77.62 118.685 77.54C118.605 77.4467 118.565 77.3333 118.565 77.2V76.12C118.565 75.9867 118.605 75.88 118.685 75.8C118.778 75.7067 118.892 75.66 119.025 75.66H120.285C120.418 75.66 120.525 75.7067 120.605 75.8C120.698 75.88 120.745 75.9867 120.745 76.12V77.2C120.745 77.3333 120.698 77.4467 120.605 77.54C120.525 77.62 120.418 77.66 120.285 77.66H119.025ZM127.808 90.2C126.861 90.2 126.041 90.02 125.348 89.66C124.668 89.2867 124.141 88.76 123.768 88.08C123.395 87.3867 123.195 86.56 123.168 85.6C123.155 85.4 123.148 85.1333 123.148 84.8C123.148 84.4667 123.155 84.2 123.168 84C123.195 83.04 123.395 82.22 123.768 81.54C124.141 80.8467 124.668 80.32 125.348 79.96C126.041 79.5867 126.861 79.4 127.808 79.4C128.581 79.4 129.241 79.5067 129.788 79.72C130.348 79.9333 130.808 80.2067 131.168 80.54C131.528 80.8733 131.795 81.2333 131.968 81.62C132.155 82.0067 132.255 82.3733 132.268 82.72C132.281 82.8533 132.241 82.96 132.148 83.04C132.055 83.12 131.941 83.16 131.808 83.16H130.848C130.715 83.16 130.615 83.1333 130.548 83.08C130.481 83.0133 130.415 82.9067 130.348 82.76C130.108 82.1067 129.781 81.6467 129.368 81.38C128.955 81.1133 128.441 80.98 127.828 80.98C127.028 80.98 126.375 81.2267 125.868 81.72C125.375 82.2133 125.108 83.0067 125.068 84.1C125.055 84.58 125.055 85.0467 125.068 85.5C125.108 86.6067 125.375 87.4067 125.868 87.9C126.375 88.38 127.028 88.62 127.828 88.62C128.441 88.62 128.955 88.4867 129.368 88.22C129.781 87.9533 130.108 87.4933 130.348 86.84C130.415 86.6933 130.481 86.5933 130.548 86.54C130.615 86.4733 130.715 86.44 130.848 86.44H131.808C131.941 86.44 132.055 86.48 132.148 86.56C132.241 86.64 132.281 86.7467 132.268 86.88C132.255 87.16 132.195 87.4467 132.088 87.74C131.981 88.0333 131.808 88.3333 131.568 88.64C131.341 88.9333 131.055 89.2 130.708 89.44C130.361 89.6667 129.941 89.8533 129.448 90C128.968 90.1333 128.421 90.2 127.808 90.2ZM137.543 90.2C136.876 90.2 136.27 90.0667 135.723 89.8C135.176 89.5333 134.736 89.1733 134.403 88.72C134.07 88.2667 133.903 87.7533 133.903 87.18C133.903 86.26 134.276 85.5267 135.023 84.98C135.77 84.4333 136.743 84.0733 137.943 83.9L140.923 83.48V82.9C140.923 82.26 140.736 81.76 140.363 81.4C140.003 81.04 139.41 80.86 138.583 80.86C137.983 80.86 137.496 80.98 137.123 81.22C136.763 81.46 136.51 81.7667 136.363 82.14C136.283 82.34 136.143 82.44 135.943 82.44H135.043C134.896 82.44 134.783 82.4 134.703 82.32C134.636 82.2267 134.603 82.12 134.603 82C134.603 81.8 134.676 81.5533 134.823 81.26C134.983 80.9667 135.223 80.68 135.543 80.4C135.863 80.12 136.27 79.8867 136.763 79.7C137.27 79.5 137.883 79.4 138.603 79.4C139.403 79.4 140.076 79.5067 140.623 79.72C141.17 79.92 141.596 80.1933 141.903 80.54C142.223 80.8867 142.45 81.28 142.583 81.72C142.73 82.16 142.803 82.6067 142.803 83.06V89.54C142.803 89.6733 142.756 89.7867 142.663 89.88C142.583 89.96 142.476 90 142.343 90H141.423C141.276 90 141.163 89.96 141.083 89.88C141.003 89.7867 140.963 89.6733 140.963 89.54V88.68C140.79 88.92 140.556 89.16 140.263 89.4C139.97 89.6267 139.603 89.82 139.163 89.98C138.723 90.1267 138.183 90.2 137.543 90.2ZM137.963 88.7C138.51 88.7 139.01 88.5867 139.463 88.36C139.916 88.12 140.27 87.7533 140.523 87.26C140.79 86.7667 140.923 86.1467 140.923 85.4V84.84L138.603 85.18C137.656 85.3133 136.943 85.54 136.463 85.86C135.983 86.1667 135.743 86.56 135.743 87.04C135.743 87.4133 135.85 87.7267 136.063 87.98C136.29 88.22 136.57 88.4 136.903 88.52C137.25 88.64 137.603 88.7 137.963 88.7Z" fill="black"/>
<path d="M61.0458 18C54.0442 21.1387 48.541 28.4869 42.9347 33.5556C35.8888 39.9259 27.8073 44.1284 20.1569 49.6111C7.99877 58.3245 14.3531 77.2094 18.8236 88.5556C25.4421 105.353 38.5534 113.512 53.0458 122.778C71.7833 134.757 90.1995 139 112.213 139C127.988 139 142.871 140.282 157.324 133.056C170.433 126.501 181.416 117.087 186.213 102.833C190.135 91.1776 190.139 77.9369 190.046 65.7778C189.962 54.8616 188.254 48.0892 178.49 42.4445C160.192 31.8656 137.988 26.4658 117.101 25C103.796 24.0663 90.2506 23.8069 77.2681 20.4445C74.0209 19.6035 70.3432 17.3298 67.0458 17C64.2503 16.7205 64.0458 17.4347 64.0458 20" stroke="#2723EB" stroke-width="3" stroke-linecap="round"/>
<path d="M12.8792 50.8333C19.8131 -4.23066 96.0094 15.937 132.046 21C134.089 22.2259 134.823 23.2887 136.101 25.3889C137.585 27.827 141.116 29.5331 143.268 31.3333C153.196 39.6386 167.598 50.7161 169.157 64.5556C170.184 73.673 165.115 84.2727 161.268 92.1111C153.315 108.315 141.172 123.247 124.824 131.556C116.018 136.031 105.663 135.178 96.1014 134.944C77.5182 134.491 52.7809 134.465 38.2681 121.611C28.2878 112.771 17.7697 100.027 13.9347 87C10.6937 75.9909 11.4658 62.0573 12.8792 50.8333Z" stroke="#F12430" stroke-width="3" stroke-linecap="round"/>
<path d="M107.046 152C118.94 149.621 128.267 139.739 135.046 130.333C146.237 114.805 158.189 92.2333 158.046 72.3333C157.955 59.6485 147.266 49.8639 138.546 42.2778C125.778 31.1707 111.465 22.4492 95.0458 18C67.523 10.5422 38.3915 15.7939 24.7124 43C14.5914 63.1295 10.3066 92.2753 19.3791 113.444C29.5192 137.105 56.1994 146.686 79.268 152.944C82.1209 153.718 103.046 158.969 103.046 152" stroke="#F5ED28" stroke-width="3" stroke-linecap="round"/>
<path d="M119.046 9C92.2993 9 64.1864 9.08695 37.8236 13.6667C5.65856 19.2544 6.77135 55.3486 7.04587 81.2222C7.26049 101.45 12.972 123.455 28.9348 137.111C50.9677 155.96 82.5607 165.288 111.435 162.5C122 161.48 132.393 157.466 141.046 151.333C151.825 143.694 156.28 131.494 159.99 119.278C167.092 95.8981 166.539 69.1246 164.824 44.8889C163.761 29.8735 153.533 24.6814 140.935 19C133.534 15.6623 124.476 10 116.046 10" stroke="#33E64F" stroke-width="3" stroke-linecap="round"/>
<path d="M119.046 25C113.661 26.7948 106.906 25.963 101.379 26C89.6368 26.0785 77.8757 26.1508 66.1569 27C44.2117 28.5902 24.5291 41.8266 12.8236 60.5556C6.43501 70.7773 2.59052 82.5494 2.0458 94.6111C1.07005 116.217 15.8247 129.931 33.0458 140.667C47.9486 149.957 64.8698 152.536 81.268 157.778C102.368 164.523 125.743 170.585 145.879 158C168.631 143.78 170.365 118.015 166.379 93.6667C161.538 64.092 140.387 39.2274 116.046 23" stroke="#EF33DC" stroke-width="3" stroke-linecap="round"/>
</svg>
