<svg width="185" height="184" viewBox="0 0 185 184" fill="none" xmlns="http://www.w3.org/2000/svg">
<rect x="14.5786" width="150" height="150" fill="white"/>
<path d="M37.511 73C37.3644 73 37.251 72.96 37.171 72.88C37.091 72.7867 37.051 72.6733 37.051 72.54V59.46C37.051 59.3267 37.091 59.22 37.171 59.14C37.251 59.0467 37.3644 59 37.511 59H38.571C38.7044 59 38.811 59.0467 38.891 59.14C38.9844 59.22 39.031 59.3267 39.031 59.46V72.54C39.031 72.6733 38.9844 72.7867 38.891 72.88C38.811 72.96 38.7044 73 38.571 73H37.511ZM42.7198 73C42.5865 73 42.4731 72.96 42.3798 72.88C42.2998 72.7867 42.2598 72.6733 42.2598 72.54V63.06C42.2598 62.9267 42.2998 62.82 42.3798 62.74C42.4731 62.6467 42.5865 62.6 42.7198 62.6H43.6598C43.7931 62.6 43.8998 62.6467 43.9798 62.74C44.0731 62.82 44.1198 62.9267 44.1198 63.06V63.94C44.4665 63.4867 44.8998 63.12 45.4198 62.84C45.9531 62.5467 46.6331 62.4 47.4598 62.4C48.3265 62.4 49.0598 62.5933 49.6598 62.98C50.2731 63.3533 50.7331 63.88 51.0398 64.56C51.3465 65.2267 51.4998 66.0067 51.4998 66.9V72.54C51.4998 72.6733 51.4598 72.7867 51.3798 72.88C51.2998 72.96 51.1931 73 51.0598 73H50.0598C49.9265 73 49.8131 72.96 49.7198 72.88C49.6398 72.7867 49.5998 72.6733 49.5998 72.54V67C49.5998 66.0667 49.3731 65.34 48.9198 64.82C48.4665 64.2867 47.7998 64.02 46.9198 64.02C46.0931 64.02 45.4265 64.2867 44.9198 64.82C44.4265 65.34 44.1798 66.0667 44.1798 67V72.54C44.1798 72.6733 44.1331 72.7867 44.0398 72.88C43.9598 72.96 43.8531 73 43.7198 73H42.7198ZM58.312 73C57.5653 73 56.9586 72.86 56.492 72.58C56.0253 72.2867 55.6853 71.88 55.472 71.36C55.2586 70.8267 55.152 70.2 55.152 69.48V64.2H53.592C53.4586 64.2 53.3453 64.16 53.252 64.08C53.172 63.9867 53.132 63.8733 53.132 63.74V63.06C53.132 62.9267 53.172 62.82 53.252 62.74C53.3453 62.6467 53.4586 62.6 53.592 62.6H55.152V59.26C55.152 59.1267 55.192 59.02 55.272 58.94C55.3653 58.8467 55.4786 58.8 55.612 58.8H56.552C56.6853 58.8 56.792 58.8467 56.872 58.94C56.9653 59.02 57.012 59.1267 57.012 59.26V62.6H59.492C59.6253 62.6 59.732 62.6467 59.812 62.74C59.9053 62.82 59.952 62.9267 59.952 63.06V63.74C59.952 63.8733 59.9053 63.9867 59.812 64.08C59.732 64.16 59.6253 64.2 59.492 64.2H57.012V69.34C57.012 69.9667 57.1186 70.46 57.332 70.82C57.5453 71.18 57.9253 71.36 58.472 71.36H59.692C59.8253 71.36 59.932 71.4067 60.012 71.5C60.1053 71.58 60.152 71.6867 60.152 71.82V72.54C60.152 72.6733 60.1053 72.7867 60.012 72.88C59.932 72.96 59.8253 73 59.692 73H58.312ZM66.2045 73.2C64.8311 73.2 63.7378 72.78 62.9245 71.94C62.1111 71.0867 61.6645 69.9267 61.5845 68.46C61.5711 68.2867 61.5645 68.0667 61.5645 67.8C61.5645 67.52 61.5711 67.2933 61.5845 67.12C61.6378 66.1733 61.8578 65.3467 62.2445 64.64C62.6311 63.92 63.1578 63.3667 63.8245 62.98C64.5045 62.5933 65.2978 62.4 66.2045 62.4C67.2178 62.4 68.0645 62.6133 68.7445 63.04C69.4378 63.4667 69.9645 64.0733 70.3245 64.86C70.6845 65.6467 70.8645 66.5667 70.8645 67.62V67.96C70.8645 68.1067 70.8178 68.22 70.7245 68.3C70.6445 68.38 70.5378 68.42 70.4045 68.42H63.4845C63.4845 68.4333 63.4845 68.46 63.4845 68.5C63.4845 68.54 63.4845 68.5733 63.4845 68.6C63.5111 69.1467 63.6311 69.66 63.8445 70.14C64.0578 70.6067 64.3645 70.9867 64.7645 71.28C65.1645 71.5733 65.6445 71.72 66.2045 71.72C66.6845 71.72 67.0845 71.6467 67.4045 71.5C67.7245 71.3533 67.9845 71.1933 68.1845 71.02C68.3845 70.8333 68.5178 70.6933 68.5845 70.6C68.7045 70.4267 68.7978 70.3267 68.8645 70.3C68.9311 70.26 69.0378 70.24 69.1845 70.24H70.1445C70.2778 70.24 70.3845 70.28 70.4645 70.36C70.5578 70.4267 70.5978 70.5267 70.5845 70.66C70.5711 70.86 70.4645 71.1067 70.2645 71.4C70.0645 71.68 69.7778 71.96 69.4045 72.24C69.0311 72.52 68.5778 72.7533 68.0445 72.94C67.5111 73.1133 66.8978 73.2 66.2045 73.2ZM63.4845 67.04H68.9645V66.98C68.9645 66.38 68.8511 65.8467 68.6245 65.38C68.4111 64.9133 68.0978 64.5467 67.6845 64.28C67.2711 64 66.7778 63.86 66.2045 63.86C65.6311 63.86 65.1378 64 64.7245 64.28C64.3245 64.5467 64.0178 64.9133 63.8045 65.38C63.5911 65.8467 63.4845 66.38 63.4845 66.98V67.04ZM73.7359 73C73.6025 73 73.4892 72.96 73.3959 72.88C73.3159 72.7867 73.2759 72.6733 73.2759 72.54V59.26C73.2759 59.1267 73.3159 59.02 73.3959 58.94C73.4892 58.8467 73.6025 58.8 73.7359 58.8H74.6759C74.8225 58.8 74.9359 58.8467 75.0159 58.94C75.0959 59.02 75.1359 59.1267 75.1359 59.26V72.54C75.1359 72.6733 75.0959 72.7867 75.0159 72.88C74.9359 72.96 74.8225 73 74.6759 73H73.7359ZM78.7745 73C78.6411 73 78.5278 72.96 78.4345 72.88C78.3545 72.7867 78.3145 72.6733 78.3145 72.54V63.06C78.3145 62.9267 78.3545 62.82 78.4345 62.74C78.5278 62.6467 78.6411 62.6 78.7745 62.6H79.7345C79.8678 62.6 79.9745 62.6467 80.0545 62.74C80.1345 62.82 80.1745 62.9267 80.1745 63.06V72.54C80.1745 72.6733 80.1345 72.7867 80.0545 72.88C79.9745 72.96 79.8678 73 79.7345 73H78.7745ZM78.6145 60.66C78.4811 60.66 78.3678 60.62 78.2745 60.54C78.1945 60.4467 78.1545 60.3333 78.1545 60.2V59.12C78.1545 58.9867 78.1945 58.88 78.2745 58.8C78.3678 58.7067 78.4811 58.66 78.6145 58.66H79.8745C80.0078 58.66 80.1145 58.7067 80.1945 58.8C80.2878 58.88 80.3345 58.9867 80.3345 59.12V60.2C80.3345 60.3333 80.2878 60.4467 80.1945 60.54C80.1145 60.62 80.0078 60.66 79.8745 60.66H78.6145ZM87.4182 77.4C86.5116 77.4 85.7649 77.28 85.1782 77.04C84.6049 76.8 84.1516 76.5067 83.8182 76.16C83.4982 75.8267 83.2649 75.4867 83.1182 75.14C82.9849 74.8067 82.9116 74.54 82.8982 74.34C82.8849 74.2067 82.9249 74.0933 83.0182 74C83.1249 73.9067 83.2382 73.86 83.3582 73.86H84.3182C84.4382 73.86 84.5382 73.8867 84.6182 73.94C84.6982 73.9933 84.7649 74.1067 84.8182 74.28C84.8982 74.48 85.0182 74.7 85.1782 74.94C85.3382 75.1933 85.5849 75.4067 85.9182 75.58C86.2516 75.7667 86.7182 75.86 87.3182 75.86C87.9449 75.86 88.4716 75.7733 88.8982 75.6C89.3249 75.44 89.6449 75.1467 89.8582 74.72C90.0849 74.3067 90.1982 73.7333 90.1982 73V71.64C89.8782 72.0533 89.4582 72.4 88.9382 72.68C88.4182 72.9467 87.7649 73.08 86.9782 73.08C86.2316 73.08 85.5916 72.9533 85.0582 72.7C84.5249 72.4333 84.0849 72.08 83.7382 71.64C83.4049 71.1867 83.1516 70.6733 82.9782 70.1C82.8182 69.5267 82.7249 68.9267 82.6982 68.3C82.6849 67.9267 82.6849 67.56 82.6982 67.2C82.7249 66.5733 82.8182 65.9733 82.9782 65.4C83.1516 64.8267 83.4049 64.3133 83.7382 63.86C84.0849 63.4067 84.5249 63.0533 85.0582 62.8C85.5916 62.5333 86.2316 62.4 86.9782 62.4C87.7782 62.4 88.4382 62.5533 88.9582 62.86C89.4916 63.1533 89.9249 63.5133 90.2582 63.94V63.08C90.2582 62.9467 90.2982 62.8333 90.3782 62.74C90.4716 62.6467 90.5849 62.6 90.7182 62.6H91.6382C91.7716 62.6 91.8849 62.6467 91.9782 62.74C92.0716 62.8333 92.1182 62.9467 92.1182 63.08V72.78C92.1182 73.6733 91.9649 74.4667 91.6582 75.16C91.3649 75.8533 90.8716 76.4 90.1782 76.8C89.4982 77.2 88.5782 77.4 87.4182 77.4ZM87.3782 71.48C88.0449 71.48 88.5782 71.3267 88.9782 71.02C89.3916 70.7133 89.6916 70.3267 89.8782 69.86C90.0782 69.3933 90.1849 68.92 90.1982 68.44C90.2116 68.2533 90.2182 68.0267 90.2182 67.76C90.2182 67.48 90.2116 67.2467 90.1982 67.06C90.1849 66.58 90.0782 66.1067 89.8782 65.64C89.6916 65.1733 89.3916 64.7867 88.9782 64.48C88.5782 64.1733 88.0449 64.02 87.3782 64.02C86.7116 64.02 86.1782 64.1733 85.7782 64.48C85.3782 64.7733 85.0916 65.1667 84.9182 65.66C84.7449 66.14 84.6449 66.66 84.6182 67.22C84.6049 67.5667 84.6049 67.92 84.6182 68.28C84.6449 68.84 84.7449 69.3667 84.9182 69.86C85.0916 70.34 85.3782 70.7333 85.7782 71.04C86.1782 71.3333 86.7116 71.48 87.3782 71.48ZM99.2318 73.2C97.8585 73.2 96.7651 72.78 95.9518 71.94C95.1385 71.0867 94.6918 69.9267 94.6118 68.46C94.5985 68.2867 94.5918 68.0667 94.5918 67.8C94.5918 67.52 94.5985 67.2933 94.6118 67.12C94.6651 66.1733 94.8851 65.3467 95.2718 64.64C95.6585 63.92 96.1851 63.3667 96.8518 62.98C97.5318 62.5933 98.3252 62.4 99.2318 62.4C100.245 62.4 101.092 62.6133 101.772 63.04C102.465 63.4667 102.992 64.0733 103.352 64.86C103.712 65.6467 103.892 66.5667 103.892 67.62V67.96C103.892 68.1067 103.845 68.22 103.752 68.3C103.672 68.38 103.565 68.42 103.432 68.42H96.5118C96.5118 68.4333 96.5118 68.46 96.5118 68.5C96.5118 68.54 96.5118 68.5733 96.5118 68.6C96.5385 69.1467 96.6585 69.66 96.8718 70.14C97.0851 70.6067 97.3918 70.9867 97.7918 71.28C98.1918 71.5733 98.6718 71.72 99.2318 71.72C99.7118 71.72 100.112 71.6467 100.432 71.5C100.752 71.3533 101.012 71.1933 101.212 71.02C101.412 70.8333 101.545 70.6933 101.612 70.6C101.732 70.4267 101.825 70.3267 101.892 70.3C101.958 70.26 102.065 70.24 102.212 70.24H103.172C103.305 70.24 103.412 70.28 103.492 70.36C103.585 70.4267 103.625 70.5267 103.612 70.66C103.598 70.86 103.492 71.1067 103.292 71.4C103.092 71.68 102.805 71.96 102.432 72.24C102.058 72.52 101.605 72.7533 101.072 72.94C100.538 73.1133 99.9251 73.2 99.2318 73.2ZM96.5118 67.04H101.992V66.98C101.992 66.38 101.878 65.8467 101.652 65.38C101.438 64.9133 101.125 64.5467 100.712 64.28C100.298 64 99.8051 63.86 99.2318 63.86C98.6585 63.86 98.1651 64 97.7518 64.28C97.3518 64.5467 97.0451 64.9133 96.8318 65.38C96.6185 65.8467 96.5118 66.38 96.5118 66.98V67.04ZM96.5118 61.1C96.3118 61.1 96.2118 61.02 96.2118 60.86C96.2118 60.7533 96.2851 60.6267 96.4318 60.48L98.2718 58.64C98.4052 58.4933 98.5185 58.4133 98.6118 58.4C98.7185 58.3733 98.8251 58.36 98.9318 58.36H99.5318C99.6518 58.36 99.7585 58.3733 99.8518 58.4C99.9451 58.4133 100.058 58.4933 100.192 58.64L102.032 60.48C102.165 60.6267 102.232 60.7533 102.232 60.86C102.232 61.02 102.138 61.1 101.952 61.1H101.432C101.338 61.1 101.238 61.0867 101.132 61.06C101.025 61.0333 100.938 61 100.872 60.96L99.2318 59.82L97.5918 60.96C97.5118 61 97.4185 61.0333 97.3118 61.06C97.2185 61.0867 97.1251 61.1 97.0318 61.1H96.5118ZM106.743 73C106.61 73 106.497 72.96 106.403 72.88C106.323 72.7867 106.283 72.6733 106.283 72.54V63.06C106.283 62.9267 106.323 62.82 106.403 62.74C106.497 62.6467 106.61 62.6 106.743 62.6H107.683C107.817 62.6 107.923 62.6467 108.003 62.74C108.097 62.82 108.143 62.9267 108.143 63.06V63.94C108.49 63.4867 108.923 63.12 109.443 62.84C109.977 62.5467 110.657 62.4 111.483 62.4C112.35 62.4 113.083 62.5933 113.683 62.98C114.297 63.3533 114.757 63.88 115.063 64.56C115.37 65.2267 115.523 66.0067 115.523 66.9V72.54C115.523 72.6733 115.483 72.7867 115.403 72.88C115.323 72.96 115.217 73 115.083 73H114.083C113.95 73 113.837 72.96 113.743 72.88C113.663 72.7867 113.623 72.6733 113.623 72.54V67C113.623 66.0667 113.397 65.34 112.943 64.82C112.49 64.2867 111.823 64.02 110.943 64.02C110.117 64.02 109.45 64.2867 108.943 64.82C108.45 65.34 108.203 66.0667 108.203 67V72.54C108.203 72.6733 108.157 72.7867 108.063 72.88C107.983 72.96 107.877 73 107.743 73H106.743ZM122.612 73.2C121.665 73.2 120.845 73.02 120.152 72.66C119.472 72.2867 118.945 71.76 118.572 71.08C118.199 70.3867 117.999 69.56 117.972 68.6C117.959 68.4 117.952 68.1333 117.952 67.8C117.952 67.4667 117.959 67.2 117.972 67C117.999 66.04 118.199 65.22 118.572 64.54C118.945 63.8467 119.472 63.32 120.152 62.96C120.845 62.5867 121.665 62.4 122.612 62.4C123.385 62.4 124.045 62.5067 124.592 62.72C125.152 62.9333 125.612 63.2067 125.972 63.54C126.332 63.8733 126.599 64.2333 126.772 64.62C126.959 65.0067 127.059 65.3733 127.072 65.72C127.085 65.8533 127.045 65.96 126.952 66.04C126.859 66.12 126.745 66.16 126.612 66.16H125.652C125.519 66.16 125.419 66.1333 125.352 66.08C125.285 66.0133 125.219 65.9067 125.152 65.76C124.912 65.1067 124.585 64.6467 124.172 64.38C123.759 64.1133 123.245 63.98 122.632 63.98C121.832 63.98 121.179 64.2267 120.672 64.72C120.179 65.2133 119.912 66.0067 119.872 67.1C119.859 67.58 119.859 68.0467 119.872 68.5C119.912 69.6067 120.179 70.4067 120.672 70.9C121.179 71.38 121.832 71.62 122.632 71.62C123.245 71.62 123.759 71.4867 124.172 71.22C124.585 70.9533 124.912 70.4933 125.152 69.84C125.219 69.6933 125.285 69.5933 125.352 69.54C125.419 69.4733 125.519 69.44 125.652 69.44H126.612C126.745 69.44 126.859 69.48 126.952 69.56C127.045 69.64 127.085 69.7467 127.072 69.88C127.059 70.16 126.999 70.4467 126.892 70.74C126.785 71.0333 126.612 71.3333 126.372 71.64C126.145 71.9333 125.859 72.2 125.512 72.44C125.165 72.6667 124.745 72.8533 124.252 73C123.772 73.1333 123.225 73.2 122.612 73.2ZM129.907 73C129.774 73 129.661 72.96 129.567 72.88C129.487 72.7867 129.447 72.6733 129.447 72.54V63.06C129.447 62.9267 129.487 62.82 129.567 62.74C129.661 62.6467 129.774 62.6 129.907 62.6H130.867C131.001 62.6 131.107 62.6467 131.187 62.74C131.267 62.82 131.307 62.9267 131.307 63.06V72.54C131.307 72.6733 131.267 72.7867 131.187 72.88C131.107 72.96 131.001 73 130.867 73H129.907ZM129.747 60.66C129.614 60.66 129.501 60.62 129.407 60.54C129.327 60.4467 129.287 60.3333 129.287 60.2V59.12C129.287 58.9867 129.327 58.88 129.407 58.8C129.501 58.7067 129.614 58.66 129.747 58.66H131.007C131.141 58.66 131.247 58.7067 131.327 58.8C131.421 58.88 131.467 58.9867 131.467 59.12V60.2C131.467 60.3333 131.421 60.4467 131.327 60.54C131.247 60.62 131.141 60.66 131.007 60.66H129.747ZM137.191 73.2C136.524 73.2 135.918 73.0667 135.371 72.8C134.824 72.5333 134.384 72.1733 134.051 71.72C133.718 71.2667 133.551 70.7533 133.551 70.18C133.551 69.26 133.924 68.5267 134.671 67.98C135.418 67.4333 136.391 67.0733 137.591 66.9L140.571 66.48V65.9C140.571 65.26 140.384 64.76 140.011 64.4C139.651 64.04 139.058 63.86 138.231 63.86C137.631 63.86 137.144 63.98 136.771 64.22C136.411 64.46 136.158 64.7667 136.011 65.14C135.931 65.34 135.791 65.44 135.591 65.44H134.691C134.544 65.44 134.431 65.4 134.351 65.32C134.284 65.2267 134.251 65.12 134.251 65C134.251 64.8 134.324 64.5533 134.471 64.26C134.631 63.9667 134.871 63.68 135.191 63.4C135.511 63.12 135.918 62.8867 136.411 62.7C136.918 62.5 137.531 62.4 138.251 62.4C139.051 62.4 139.724 62.5067 140.271 62.72C140.818 62.92 141.244 63.1933 141.551 63.54C141.871 63.8867 142.098 64.28 142.231 64.72C142.378 65.16 142.451 65.6067 142.451 66.06V72.54C142.451 72.6733 142.404 72.7867 142.311 72.88C142.231 72.96 142.124 73 141.991 73H141.071C140.924 73 140.811 72.96 140.731 72.88C140.651 72.7867 140.611 72.6733 140.611 72.54V71.68C140.438 71.92 140.204 72.16 139.911 72.4C139.618 72.6267 139.251 72.82 138.811 72.98C138.371 73.1267 137.831 73.2 137.191 73.2ZM137.611 71.7C138.158 71.7 138.658 71.5867 139.111 71.36C139.564 71.12 139.918 70.7533 140.171 70.26C140.438 69.7667 140.571 69.1467 140.571 68.4V67.84L138.251 68.18C137.304 68.3133 136.591 68.54 136.111 68.86C135.631 69.1667 135.391 69.56 135.391 70.04C135.391 70.4133 135.498 70.7267 135.711 70.98C135.938 71.22 136.218 71.4 136.551 71.52C136.898 71.64 137.251 71.7 137.611 71.7ZM40.6849 97C40.5382 97 40.4249 96.96 40.3449 96.88C40.2649 96.7867 40.2249 96.6733 40.2249 96.54V83.48C40.2249 83.3333 40.2649 83.22 40.3449 83.14C40.4249 83.0467 40.5382 83 40.6849 83H41.6049C41.7649 83 41.8849 83.04 41.9649 83.12C42.0449 83.1867 42.0915 83.24 42.1049 83.28L48.7449 93.48V83.48C48.7449 83.3333 48.7849 83.22 48.8649 83.14C48.9449 83.0467 49.0582 83 49.2049 83H50.1649C50.3115 83 50.4249 83.0467 50.5049 83.14C50.5982 83.22 50.6449 83.3333 50.6449 83.48V96.52C50.6449 96.6533 50.5982 96.7667 50.5049 96.86C50.4249 96.9533 50.3182 97 50.1849 97H49.2249C49.0782 97 48.9649 96.96 48.8849 96.88C48.8182 96.8 48.7715 96.7467 48.7449 96.72L42.1249 86.62V96.54C42.1249 96.6733 42.0782 96.7867 41.9849 96.88C41.9049 96.96 41.7915 97 41.6449 97H40.6849ZM56.7516 97.2C56.0849 97.2 55.4782 97.0667 54.9316 96.8C54.3849 96.5333 53.9449 96.1733 53.6116 95.72C53.2782 95.2667 53.1116 94.7533 53.1116 94.18C53.1116 93.26 53.4849 92.5267 54.2316 91.98C54.9782 91.4333 55.9516 91.0733 57.1516 90.9L60.1316 90.48V89.9C60.1316 89.26 59.9449 88.76 59.5716 88.4C59.2116 88.04 58.6182 87.86 57.7916 87.86C57.1916 87.86 56.7049 87.98 56.3316 88.22C55.9716 88.46 55.7182 88.7667 55.5716 89.14C55.4916 89.34 55.3516 89.44 55.1516 89.44H54.2516C54.1049 89.44 53.9916 89.4 53.9116 89.32C53.8449 89.2267 53.8116 89.12 53.8116 89C53.8116 88.8 53.8849 88.5533 54.0316 88.26C54.1916 87.9667 54.4316 87.68 54.7516 87.4C55.0716 87.12 55.4782 86.8867 55.9716 86.7C56.4782 86.5 57.0916 86.4 57.8116 86.4C58.6116 86.4 59.2849 86.5067 59.8316 86.72C60.3782 86.92 60.8049 87.1933 61.1116 87.54C61.4316 87.8867 61.6582 88.28 61.7916 88.72C61.9382 89.16 62.0116 89.6067 62.0116 90.06V96.54C62.0116 96.6733 61.9649 96.7867 61.8716 96.88C61.7916 96.96 61.6849 97 61.5516 97H60.6316C60.4849 97 60.3716 96.96 60.2916 96.88C60.2116 96.7867 60.1716 96.6733 60.1716 96.54V95.68C59.9982 95.92 59.7649 96.16 59.4716 96.4C59.1782 96.6267 58.8116 96.82 58.3716 96.98C57.9316 97.1267 57.3916 97.2 56.7516 97.2ZM57.1716 95.7C57.7182 95.7 58.2182 95.5867 58.6716 95.36C59.1249 95.12 59.4782 94.7533 59.7316 94.26C59.9982 93.7667 60.1316 93.1467 60.1316 92.4V91.84L57.8116 92.18C56.8649 92.3133 56.1516 92.54 55.6716 92.86C55.1916 93.1667 54.9516 93.56 54.9516 94.04C54.9516 94.4133 55.0582 94.7267 55.2716 94.98C55.4982 95.22 55.7782 95.4 56.1116 95.52C56.4582 95.64 56.8116 95.7 57.1716 95.7ZM68.8491 97C68.1024 97 67.4957 96.86 67.0291 96.58C66.5624 96.2867 66.2224 95.88 66.0091 95.36C65.7957 94.8267 65.6891 94.2 65.6891 93.48V88.2H64.1291C63.9957 88.2 63.8824 88.16 63.7891 88.08C63.7091 87.9867 63.6691 87.8733 63.6691 87.74V87.06C63.6691 86.9267 63.7091 86.82 63.7891 86.74C63.8824 86.6467 63.9957 86.6 64.1291 86.6H65.6891V83.26C65.6891 83.1267 65.7291 83.02 65.8091 82.94C65.9024 82.8467 66.0157 82.8 66.1491 82.8H67.0891C67.2224 82.8 67.3291 82.8467 67.4091 82.94C67.5024 83.02 67.5491 83.1267 67.5491 83.26V86.6H70.0291C70.1624 86.6 70.2691 86.6467 70.3491 86.74C70.4424 86.82 70.4891 86.9267 70.4891 87.06V87.74C70.4891 87.8733 70.4424 87.9867 70.3491 88.08C70.2691 88.16 70.1624 88.2 70.0291 88.2H67.5491V93.34C67.5491 93.9667 67.6557 94.46 67.8691 94.82C68.0824 95.18 68.4624 95.36 69.0091 95.36H70.2291C70.3624 95.36 70.4691 95.4067 70.5491 95.5C70.6424 95.58 70.6891 95.6867 70.6891 95.82V96.54C70.6891 96.6733 70.6424 96.7867 70.5491 96.88C70.4691 96.96 70.3624 97 70.2291 97H68.8491ZM76.4816 97.2C75.6282 97.2 74.9016 97.0133 74.3016 96.64C73.7149 96.2533 73.2682 95.72 72.9616 95.04C72.6549 94.36 72.5016 93.58 72.5016 92.7V87.06C72.5016 86.9267 72.5416 86.82 72.6216 86.74C72.7149 86.6467 72.8282 86.6 72.9616 86.6H73.9616C74.0949 86.6 74.2016 86.6467 74.2816 86.74C74.3749 86.82 74.4216 86.9267 74.4216 87.06V92.6C74.4216 94.5867 75.2882 95.58 77.0216 95.58C77.8482 95.58 78.5082 95.32 79.0016 94.8C79.5082 94.2667 79.7616 93.5333 79.7616 92.6V87.06C79.7616 86.9267 79.8016 86.82 79.8816 86.74C79.9749 86.6467 80.0882 86.6 80.2216 86.6H81.2016C81.3482 86.6 81.4616 86.6467 81.5416 86.74C81.6216 86.82 81.6616 86.9267 81.6616 87.06V96.54C81.6616 96.6733 81.6216 96.7867 81.5416 96.88C81.4616 96.96 81.3482 97 81.2016 97H80.2816C80.1482 97 80.0349 96.96 79.9416 96.88C79.8616 96.7867 79.8216 96.6733 79.8216 96.54V95.66C79.4616 96.1267 79.0216 96.5 78.5016 96.78C77.9949 97.06 77.3216 97.2 76.4816 97.2ZM85.0928 97C84.9595 97 84.8462 96.96 84.7528 96.88C84.6728 96.7867 84.6328 96.6733 84.6328 96.54V87.08C84.6328 86.9467 84.6728 86.8333 84.7528 86.74C84.8462 86.6467 84.9595 86.6 85.0928 86.6H86.0128C86.1462 86.6 86.2595 86.6467 86.3528 86.74C86.4462 86.8333 86.4928 86.9467 86.4928 87.08V87.96C86.7595 87.5067 87.1262 87.1667 87.5928 86.94C88.0595 86.7133 88.6195 86.6 89.2728 86.6H90.0728C90.2062 86.6 90.3128 86.6467 90.3928 86.74C90.4728 86.82 90.5128 86.9267 90.5128 87.06V87.88C90.5128 88.0133 90.4728 88.12 90.3928 88.2C90.3128 88.28 90.2062 88.32 90.0728 88.32H88.8728C88.1528 88.32 87.5862 88.5333 87.1728 88.96C86.7595 89.3733 86.5528 89.94 86.5528 90.66V96.54C86.5528 96.6733 86.5062 96.7867 86.4128 96.88C86.3195 96.96 86.2062 97 86.0728 97H85.0928ZM94.9742 97.2C94.3076 97.2 93.7009 97.0667 93.1542 96.8C92.6076 96.5333 92.1676 96.1733 91.8342 95.72C91.5009 95.2667 91.3342 94.7533 91.3342 94.18C91.3342 93.26 91.7076 92.5267 92.4542 91.98C93.2009 91.4333 94.1742 91.0733 95.3742 90.9L98.3542 90.48V89.9C98.3542 89.26 98.1676 88.76 97.7942 88.4C97.4342 88.04 96.8409 87.86 96.0142 87.86C95.4142 87.86 94.9276 87.98 94.5542 88.22C94.1942 88.46 93.9409 88.7667 93.7942 89.14C93.7142 89.34 93.5742 89.44 93.3742 89.44H92.4742C92.3276 89.44 92.2142 89.4 92.1342 89.32C92.0676 89.2267 92.0342 89.12 92.0342 89C92.0342 88.8 92.1076 88.5533 92.2542 88.26C92.4142 87.9667 92.6542 87.68 92.9742 87.4C93.2942 87.12 93.7009 86.8867 94.1942 86.7C94.7009 86.5 95.3142 86.4 96.0342 86.4C96.8342 86.4 97.5076 86.5067 98.0542 86.72C98.6009 86.92 99.0276 87.1933 99.3342 87.54C99.6542 87.8867 99.8809 88.28 100.014 88.72C100.161 89.16 100.234 89.6067 100.234 90.06V96.54C100.234 96.6733 100.188 96.7867 100.094 96.88C100.014 96.96 99.9076 97 99.7742 97H98.8542C98.7076 97 98.5942 96.96 98.5142 96.88C98.4342 96.7867 98.3942 96.6733 98.3942 96.54V95.68C98.2209 95.92 97.9876 96.16 97.6942 96.4C97.4009 96.6267 97.0342 96.82 96.5942 96.98C96.1542 97.1267 95.6142 97.2 94.9742 97.2ZM95.3942 95.7C95.9409 95.7 96.4409 95.5867 96.8942 95.36C97.3476 95.12 97.7009 94.7533 97.9542 94.26C98.2209 93.7667 98.3542 93.1467 98.3542 92.4V91.84L96.0342 92.18C95.0876 92.3133 94.3742 92.54 93.8942 92.86C93.4142 93.1667 93.1742 93.56 93.1742 94.04C93.1742 94.4133 93.2809 94.7267 93.4942 94.98C93.7209 95.22 94.0009 95.4 94.3342 95.52C94.6809 95.64 95.0342 95.7 95.3942 95.7ZM103.589 97C103.456 97 103.343 96.96 103.249 96.88C103.169 96.7867 103.129 96.6733 103.129 96.54V83.26C103.129 83.1267 103.169 83.02 103.249 82.94C103.343 82.8467 103.456 82.8 103.589 82.8H104.529C104.676 82.8 104.789 82.8467 104.869 82.94C104.949 83.02 104.989 83.1267 104.989 83.26V96.54C104.989 96.6733 104.949 96.7867 104.869 96.88C104.789 96.96 104.676 97 104.529 97H103.589ZM108.628 97C108.495 97 108.381 96.96 108.288 96.88C108.208 96.7867 108.168 96.6733 108.168 96.54V87.06C108.168 86.9267 108.208 86.82 108.288 86.74C108.381 86.6467 108.495 86.6 108.628 86.6H109.588C109.721 86.6 109.828 86.6467 109.908 86.74C109.988 86.82 110.028 86.9267 110.028 87.06V96.54C110.028 96.6733 109.988 96.7867 109.908 96.88C109.828 96.96 109.721 97 109.588 97H108.628ZM108.468 84.66C108.335 84.66 108.221 84.62 108.128 84.54C108.048 84.4467 108.008 84.3333 108.008 84.2V83.12C108.008 82.9867 108.048 82.88 108.128 82.8C108.221 82.7067 108.335 82.66 108.468 82.66H109.728C109.861 82.66 109.968 82.7067 110.048 82.8C110.141 82.88 110.188 82.9867 110.188 83.12V84.2C110.188 84.3333 110.141 84.4467 110.048 84.54C109.968 84.62 109.861 84.66 109.728 84.66H108.468ZM116.729 97.2C115.982 97.2 115.342 97.1067 114.809 96.92C114.276 96.7333 113.842 96.5067 113.509 96.24C113.176 95.9733 112.922 95.7067 112.749 95.44C112.589 95.1733 112.502 94.96 112.489 94.8C112.476 94.6533 112.522 94.54 112.629 94.46C112.736 94.38 112.842 94.34 112.949 94.34H113.829C113.909 94.34 113.969 94.3533 114.009 94.38C114.062 94.3933 114.129 94.4467 114.209 94.54C114.382 94.7267 114.576 94.9133 114.789 95.1C115.002 95.2867 115.262 95.44 115.569 95.56C115.889 95.68 116.282 95.74 116.749 95.74C117.429 95.74 117.989 95.6133 118.429 95.36C118.869 95.0933 119.089 94.7067 119.089 94.2C119.089 93.8667 118.996 93.6 118.809 93.4C118.636 93.2 118.316 93.02 117.849 92.86C117.396 92.7 116.769 92.5333 115.969 92.36C115.169 92.1733 114.536 91.9467 114.069 91.68C113.602 91.4 113.269 91.0733 113.069 90.7C112.869 90.3133 112.769 89.88 112.769 89.4C112.769 88.9067 112.916 88.4333 113.209 87.98C113.502 87.5133 113.929 87.1333 114.489 86.84C115.062 86.5467 115.776 86.4 116.629 86.4C117.322 86.4 117.916 86.4867 118.409 86.66C118.902 86.8333 119.309 87.0533 119.629 87.32C119.949 87.5733 120.189 87.8267 120.349 88.08C120.509 88.3333 120.596 88.5467 120.609 88.72C120.622 88.8533 120.582 88.9667 120.489 89.06C120.396 89.14 120.289 89.18 120.169 89.18H119.329C119.236 89.18 119.156 89.16 119.089 89.12C119.036 89.08 118.982 89.0333 118.929 88.98C118.796 88.8067 118.636 88.6333 118.449 88.46C118.276 88.2867 118.042 88.1467 117.749 88.04C117.469 87.92 117.096 87.86 116.629 87.86C115.962 87.86 115.462 88 115.129 88.28C114.796 88.56 114.629 88.9133 114.629 89.34C114.629 89.5933 114.702 89.82 114.849 90.02C114.996 90.22 115.276 90.4 115.689 90.56C116.102 90.72 116.716 90.8933 117.529 91.08C118.409 91.2533 119.102 91.4867 119.609 91.78C120.116 92.0733 120.476 92.4133 120.689 92.8C120.902 93.1867 121.009 93.6333 121.009 94.14C121.009 94.7 120.842 95.2133 120.509 95.68C120.189 96.1467 119.709 96.52 119.069 96.8C118.442 97.0667 117.662 97.2 116.729 97.2ZM127.365 97C126.618 97 126.011 96.86 125.545 96.58C125.078 96.2867 124.738 95.88 124.525 95.36C124.311 94.8267 124.205 94.2 124.205 93.48V88.2H122.645C122.511 88.2 122.398 88.16 122.305 88.08C122.225 87.9867 122.185 87.8733 122.185 87.74V87.06C122.185 86.9267 122.225 86.82 122.305 86.74C122.398 86.6467 122.511 86.6 122.645 86.6H124.205V83.26C124.205 83.1267 124.245 83.02 124.325 82.94C124.418 82.8467 124.531 82.8 124.665 82.8H125.605C125.738 82.8 125.845 82.8467 125.925 82.94C126.018 83.02 126.065 83.1267 126.065 83.26V86.6H128.545C128.678 86.6 128.785 86.6467 128.865 86.74C128.958 86.82 129.005 86.9267 129.005 87.06V87.74C129.005 87.8733 128.958 87.9867 128.865 88.08C128.785 88.16 128.678 88.2 128.545 88.2H126.065V93.34C126.065 93.9667 126.171 94.46 126.385 94.82C126.598 95.18 126.978 95.36 127.525 95.36H128.745C128.878 95.36 128.985 95.4067 129.065 95.5C129.158 95.58 129.205 95.6867 129.205 95.82V96.54C129.205 96.6733 129.158 96.7867 129.065 96.88C128.985 96.96 128.878 97 128.745 97H127.365ZM134.017 97.2C133.351 97.2 132.744 97.0667 132.197 96.8C131.651 96.5333 131.211 96.1733 130.877 95.72C130.544 95.2667 130.377 94.7533 130.377 94.18C130.377 93.26 130.751 92.5267 131.497 91.98C132.244 91.4333 133.217 91.0733 134.417 90.9L137.397 90.48V89.9C137.397 89.26 137.211 88.76 136.837 88.4C136.477 88.04 135.884 87.86 135.057 87.86C134.457 87.86 133.971 87.98 133.597 88.22C133.237 88.46 132.984 88.7667 132.837 89.14C132.757 89.34 132.617 89.44 132.417 89.44H131.517C131.371 89.44 131.257 89.4 131.177 89.32C131.111 89.2267 131.077 89.12 131.077 89C131.077 88.8 131.151 88.5533 131.297 88.26C131.457 87.9667 131.697 87.68 132.017 87.4C132.337 87.12 132.744 86.8867 133.237 86.7C133.744 86.5 134.357 86.4 135.077 86.4C135.877 86.4 136.551 86.5067 137.097 86.72C137.644 86.92 138.071 87.1933 138.377 87.54C138.697 87.8867 138.924 88.28 139.057 88.72C139.204 89.16 139.277 89.6067 139.277 90.06V96.54C139.277 96.6733 139.231 96.7867 139.137 96.88C139.057 96.96 138.951 97 138.817 97H137.897C137.751 97 137.637 96.96 137.557 96.88C137.477 96.7867 137.437 96.6733 137.437 96.54V95.68C137.264 95.92 137.031 96.16 136.737 96.4C136.444 96.6267 136.077 96.82 135.637 96.98C135.197 97.1267 134.657 97.2 134.017 97.2ZM134.437 95.7C134.984 95.7 135.484 95.5867 135.937 95.36C136.391 95.12 136.744 94.7533 136.997 94.26C137.264 93.7667 137.397 93.1467 137.397 92.4V91.84L135.077 92.18C134.131 92.3133 133.417 92.54 132.937 92.86C132.457 93.1667 132.217 93.56 132.217 94.04C132.217 94.4133 132.324 94.7267 132.537 94.98C132.764 95.22 133.044 95.4 133.377 95.52C133.724 95.64 134.077 95.7 134.437 95.7Z" fill="black"/>
<path d="M175.579 44C155.723 34.5948 137.29 28.1557 121.134 12C113.219 4.08515 80.8852 -0.318975 70.8008 5.1111C65.9492 7.7235 62.4085 15.6995 58.8008 19.7778C51.1971 28.3732 43.2318 33.4772 32.3563 37.5555C24.957 40.3303 17.6241 43.3922 10.1341 45.8889C3.17129 48.2098 3.55998 62.7015 2.46744 69.1111C-2.74464 99.6887 36.8742 117.874 59.3563 128C92.7709 143.049 125.364 164.347 163.912 153.333C202.076 142.429 173.709 102.805 167.912 80.7778C164.598 68.1864 167.389 60.5673 171.579 48" stroke="#2723EB" stroke-width="3" stroke-linecap="round"/>
<path d="M164.579 21C150.945 24.0558 138.053 29.047 124.023 30C108.564 31.05 93.0616 30.8888 77.5786 31C59.7211 31.1282 34.4252 28.0101 18.1342 37.5C9.28256 42.6563 10.3667 53.2938 10.0786 62.1667C9.71692 73.3073 8.82069 84.7771 10.0786 95.8889C11.6373 109.657 16.741 123.363 23.8564 135.222C33.1718 150.748 47.1497 154.685 64.3564 156.333C73.9736 157.255 84.7317 157.88 94.3564 156.556C105.64 155.003 116.771 148.099 126.579 142.778C145.617 132.448 161.999 110.085 165.301 88.3889C167.623 73.1315 167.554 56.0562 165.856 40.7778C164.945 32.5768 163.366 23.8936 155.579 20" stroke="#F12430" stroke-width="3" stroke-linecap="round"/>
<path d="M155.578 50C147.078 41.1849 142.523 29.7457 133.078 21.3889C111.201 2.03101 76.9809 -7.07542 55.0229 17.0555C44.3698 28.7629 39.977 43.5225 36.5785 58.5555C33.5844 71.7993 30.578 85.5033 28.634 98.9444C26.8105 111.552 26.0814 124.697 33.8007 135.778C40.9565 146.05 53.3292 151.879 64.5229 156.333C78.6685 161.962 93.1457 165.04 108.356 162.667C120.746 160.734 133.335 157.163 143.023 148.778C152.564 140.52 158.37 128.44 162.801 116.889C169.394 99.7003 168.501 84.389 163.69 67C161.238 58.1396 160.225 55.2031 153.578 49" stroke="#F5ED28" stroke-width="3" stroke-linecap="round"/>
<path d="M143.579 18C120.295 11.7912 95.0199 10.2235 71.023 12.4445C49.5719 14.4298 32.4698 23.6166 21.1341 42.5556C10.6568 60.0602 7.3342 80.3912 11.2452 100.222C18.0798 134.878 33.2672 182.82 76.4674 182C95.6877 181.635 118.148 176.195 132.579 162.889C146.37 150.172 149.714 130.86 150.356 113C150.777 101.309 150.579 89.5848 150.579 77.8889C150.579 68.8594 151.424 59.2875 149.912 50.3333C149.202 46.1293 146.623 42.4387 145.023 38.5556C142.641 32.7742 140.628 26.8923 138.579 21" stroke="#33E64F" stroke-width="3" stroke-linecap="round"/>
<path d="M113.579 23C89.4507 24.885 62.127 33.0917 41.3563 45.8889C33.137 50.9529 24.956 57.7613 20.9118 66.7778C12.8084 84.8444 18.1207 106.215 24.6896 123.778C34.8446 150.929 52.3732 172.241 82.8007 173.556C96.1525 174.132 108.917 171.755 121.134 166.333C130.915 161.993 143.953 156.109 150.19 146.889C154.189 140.977 155.183 133.736 156.079 126.833C157.433 116.399 158.901 105.918 159.912 95.4444C160.748 86.7813 161.328 77.3958 159.912 68.7778C157.423 53.6349 147.97 44.8874 135.023 37.8889C126.673 33.3753 119.455 26 109.579 26" stroke="#EF33DC" stroke-width="3" stroke-linecap="round"/>
</svg>
