<svg width="203" height="194" viewBox="0 0 203 194" fill="none" xmlns="http://www.w3.org/2000/svg">
<rect x="23.5503" y="6" width="150" height="150" fill="white"/>
<path d="M44.4827 71C44.336 71 44.2227 70.96 44.1427 70.88C44.0627 70.7867 44.0227 70.6733 44.0227 70.54V57.46C44.0227 57.3267 44.0627 57.22 44.1427 57.14C44.2227 57.0467 44.336 57 44.4827 57H45.5427C45.676 57 45.7827 57.0467 45.8627 57.14C45.956 57.22 46.0027 57.3267 46.0027 57.46V70.54C46.0027 70.6733 45.956 70.7867 45.8627 70.88C45.7827 70.96 45.676 71 45.5427 71H44.4827ZM49.6915 71C49.5581 71 49.4448 70.96 49.3515 70.88C49.2715 70.7867 49.2315 70.6733 49.2315 70.54V61.06C49.2315 60.9267 49.2715 60.82 49.3515 60.74C49.4448 60.6467 49.5581 60.6 49.6915 60.6H50.6315C50.7648 60.6 50.8715 60.6467 50.9515 60.74C51.0448 60.82 51.0915 60.9267 51.0915 61.06V61.94C51.4381 61.4867 51.8715 61.12 52.3915 60.84C52.9248 60.5467 53.6048 60.4 54.4315 60.4C55.2981 60.4 56.0315 60.5933 56.6315 60.98C57.2448 61.3533 57.7048 61.88 58.0115 62.56C58.3181 63.2267 58.4715 64.0067 58.4715 64.9V70.54C58.4715 70.6733 58.4315 70.7867 58.3515 70.88C58.2715 70.96 58.1648 71 58.0315 71H57.0315C56.8981 71 56.7848 70.96 56.6915 70.88C56.6115 70.7867 56.5715 70.6733 56.5715 70.54V65C56.5715 64.0667 56.3448 63.34 55.8915 62.82C55.4381 62.2867 54.7715 62.02 53.8915 62.02C53.0648 62.02 52.3981 62.2867 51.8915 62.82C51.3981 63.34 51.1515 64.0667 51.1515 65V70.54C51.1515 70.6733 51.1048 70.7867 51.0115 70.88C50.9315 70.96 50.8248 71 50.6915 71H49.6915ZM65.2837 71C64.537 71 63.9303 70.86 63.4637 70.58C62.997 70.2867 62.657 69.88 62.4437 69.36C62.2303 68.8267 62.1237 68.2 62.1237 67.48V62.2H60.5637C60.4303 62.2 60.317 62.16 60.2237 62.08C60.1437 61.9867 60.1037 61.8733 60.1037 61.74V61.06C60.1037 60.9267 60.1437 60.82 60.2237 60.74C60.317 60.6467 60.4303 60.6 60.5637 60.6H62.1237V57.26C62.1237 57.1267 62.1637 57.02 62.2437 56.94C62.337 56.8467 62.4503 56.8 62.5837 56.8H63.5237C63.657 56.8 63.7637 56.8467 63.8437 56.94C63.937 57.02 63.9837 57.1267 63.9837 57.26V60.6H66.4637C66.597 60.6 66.7037 60.6467 66.7837 60.74C66.877 60.82 66.9237 60.9267 66.9237 61.06V61.74C66.9237 61.8733 66.877 61.9867 66.7837 62.08C66.7037 62.16 66.597 62.2 66.4637 62.2H63.9837V67.34C63.9837 67.9667 64.0903 68.46 64.3037 68.82C64.517 69.18 64.897 69.36 65.4437 69.36H66.6637C66.797 69.36 66.9037 69.4067 66.9837 69.5C67.077 69.58 67.1237 69.6867 67.1237 69.82V70.54C67.1237 70.6733 67.077 70.7867 66.9837 70.88C66.9037 70.96 66.797 71 66.6637 71H65.2837ZM73.1762 71.2C71.8028 71.2 70.7095 70.78 69.8962 69.94C69.0828 69.0867 68.6362 67.9267 68.5562 66.46C68.5428 66.2867 68.5362 66.0667 68.5362 65.8C68.5362 65.52 68.5428 65.2933 68.5562 65.12C68.6095 64.1733 68.8295 63.3467 69.2162 62.64C69.6028 61.92 70.1295 61.3667 70.7962 60.98C71.4762 60.5933 72.2695 60.4 73.1762 60.4C74.1895 60.4 75.0362 60.6133 75.7162 61.04C76.4095 61.4667 76.9362 62.0733 77.2962 62.86C77.6562 63.6467 77.8362 64.5667 77.8362 65.62V65.96C77.8362 66.1067 77.7895 66.22 77.6962 66.3C77.6162 66.38 77.5095 66.42 77.3762 66.42H70.4562C70.4562 66.4333 70.4562 66.46 70.4562 66.5C70.4562 66.54 70.4562 66.5733 70.4562 66.6C70.4828 67.1467 70.6028 67.66 70.8162 68.14C71.0295 68.6067 71.3362 68.9867 71.7362 69.28C72.1362 69.5733 72.6162 69.72 73.1762 69.72C73.6562 69.72 74.0562 69.6467 74.3762 69.5C74.6962 69.3533 74.9562 69.1933 75.1562 69.02C75.3562 68.8333 75.4895 68.6933 75.5562 68.6C75.6762 68.4267 75.7695 68.3267 75.8362 68.3C75.9028 68.26 76.0095 68.24 76.1562 68.24H77.1162C77.2495 68.24 77.3562 68.28 77.4362 68.36C77.5295 68.4267 77.5695 68.5267 77.5562 68.66C77.5428 68.86 77.4362 69.1067 77.2362 69.4C77.0362 69.68 76.7495 69.96 76.3762 70.24C76.0028 70.52 75.5495 70.7533 75.0162 70.94C74.4828 71.1133 73.8695 71.2 73.1762 71.2ZM70.4562 65.04H75.9362V64.98C75.9362 64.38 75.8228 63.8467 75.5962 63.38C75.3828 62.9133 75.0695 62.5467 74.6562 62.28C74.2428 62 73.7495 61.86 73.1762 61.86C72.6028 61.86 72.1095 62 71.6962 62.28C71.2962 62.5467 70.9895 62.9133 70.7762 63.38C70.5628 63.8467 70.4562 64.38 70.4562 64.98V65.04ZM80.7076 71C80.5742 71 80.4609 70.96 80.3676 70.88C80.2876 70.7867 80.2476 70.6733 80.2476 70.54V57.26C80.2476 57.1267 80.2876 57.02 80.3676 56.94C80.4609 56.8467 80.5742 56.8 80.7076 56.8H81.6476C81.7942 56.8 81.9076 56.8467 81.9876 56.94C82.0676 57.02 82.1076 57.1267 82.1076 57.26V70.54C82.1076 70.6733 82.0676 70.7867 81.9876 70.88C81.9076 70.96 81.7942 71 81.6476 71H80.7076ZM85.7462 71C85.6128 71 85.4995 70.96 85.4062 70.88C85.3262 70.7867 85.2862 70.6733 85.2862 70.54V61.06C85.2862 60.9267 85.3262 60.82 85.4062 60.74C85.4995 60.6467 85.6128 60.6 85.7462 60.6H86.7062C86.8395 60.6 86.9462 60.6467 87.0262 60.74C87.1062 60.82 87.1462 60.9267 87.1462 61.06V70.54C87.1462 70.6733 87.1062 70.7867 87.0262 70.88C86.9462 70.96 86.8395 71 86.7062 71H85.7462ZM85.5862 58.66C85.4528 58.66 85.3395 58.62 85.2462 58.54C85.1662 58.4467 85.1262 58.3333 85.1262 58.2V57.12C85.1262 56.9867 85.1662 56.88 85.2462 56.8C85.3395 56.7067 85.4528 56.66 85.5862 56.66H86.8462C86.9795 56.66 87.0862 56.7067 87.1662 56.8C87.2595 56.88 87.3062 56.9867 87.3062 57.12V58.2C87.3062 58.3333 87.2595 58.4467 87.1662 58.54C87.0862 58.62 86.9795 58.66 86.8462 58.66H85.5862ZM94.3899 75.4C93.4832 75.4 92.7366 75.28 92.1499 75.04C91.5766 74.8 91.1232 74.5067 90.7899 74.16C90.4699 73.8267 90.2366 73.4867 90.0899 73.14C89.9566 72.8067 89.8832 72.54 89.8699 72.34C89.8566 72.2067 89.8966 72.0933 89.9899 72C90.0966 71.9067 90.2099 71.86 90.3299 71.86H91.2899C91.4099 71.86 91.5099 71.8867 91.5899 71.94C91.6699 71.9933 91.7366 72.1067 91.7899 72.28C91.8699 72.48 91.9899 72.7 92.1499 72.94C92.3099 73.1933 92.5566 73.4067 92.8899 73.58C93.2232 73.7667 93.6899 73.86 94.2899 73.86C94.9166 73.86 95.4432 73.7733 95.8699 73.6C96.2966 73.44 96.6166 73.1467 96.8299 72.72C97.0566 72.3067 97.1699 71.7333 97.1699 71V69.64C96.8499 70.0533 96.4299 70.4 95.9099 70.68C95.3899 70.9467 94.7366 71.08 93.9499 71.08C93.2032 71.08 92.5632 70.9533 92.0299 70.7C91.4966 70.4333 91.0566 70.08 90.7099 69.64C90.3766 69.1867 90.1232 68.6733 89.9499 68.1C89.7899 67.5267 89.6966 66.9267 89.6699 66.3C89.6566 65.9267 89.6566 65.56 89.6699 65.2C89.6966 64.5733 89.7899 63.9733 89.9499 63.4C90.1232 62.8267 90.3766 62.3133 90.7099 61.86C91.0566 61.4067 91.4966 61.0533 92.0299 60.8C92.5632 60.5333 93.2032 60.4 93.9499 60.4C94.7499 60.4 95.4099 60.5533 95.9299 60.86C96.4632 61.1533 96.8966 61.5133 97.2299 61.94V61.08C97.2299 60.9467 97.2699 60.8333 97.3499 60.74C97.4432 60.6467 97.5566 60.6 97.6899 60.6H98.6099C98.7432 60.6 98.8566 60.6467 98.9499 60.74C99.0432 60.8333 99.0899 60.9467 99.0899 61.08V70.78C99.0899 71.6733 98.9366 72.4667 98.6299 73.16C98.3366 73.8533 97.8432 74.4 97.1499 74.8C96.4699 75.2 95.5499 75.4 94.3899 75.4ZM94.3499 69.48C95.0166 69.48 95.5499 69.3267 95.9499 69.02C96.3632 68.7133 96.6632 68.3267 96.8499 67.86C97.0499 67.3933 97.1566 66.92 97.1699 66.44C97.1832 66.2533 97.1899 66.0267 97.1899 65.76C97.1899 65.48 97.1832 65.2467 97.1699 65.06C97.1566 64.58 97.0499 64.1067 96.8499 63.64C96.6632 63.1733 96.3632 62.7867 95.9499 62.48C95.5499 62.1733 95.0166 62.02 94.3499 62.02C93.6832 62.02 93.1499 62.1733 92.7499 62.48C92.3499 62.7733 92.0632 63.1667 91.8899 63.66C91.7166 64.14 91.6166 64.66 91.5899 65.22C91.5766 65.5667 91.5766 65.92 91.5899 66.28C91.6166 66.84 91.7166 67.3667 91.8899 67.86C92.0632 68.34 92.3499 68.7333 92.7499 69.04C93.1499 69.3333 93.6832 69.48 94.3499 69.48ZM106.203 71.2C104.83 71.2 103.737 70.78 102.923 69.94C102.11 69.0867 101.663 67.9267 101.583 66.46C101.57 66.2867 101.563 66.0667 101.563 65.8C101.563 65.52 101.57 65.2933 101.583 65.12C101.637 64.1733 101.857 63.3467 102.243 62.64C102.63 61.92 103.157 61.3667 103.823 60.98C104.503 60.5933 105.297 60.4 106.203 60.4C107.217 60.4 108.063 60.6133 108.743 61.04C109.437 61.4667 109.963 62.0733 110.323 62.86C110.683 63.6467 110.863 64.5667 110.863 65.62V65.96C110.863 66.1067 110.817 66.22 110.723 66.3C110.643 66.38 110.537 66.42 110.403 66.42H103.483C103.483 66.4333 103.483 66.46 103.483 66.5C103.483 66.54 103.483 66.5733 103.483 66.6C103.51 67.1467 103.63 67.66 103.843 68.14C104.057 68.6067 104.363 68.9867 104.763 69.28C105.163 69.5733 105.643 69.72 106.203 69.72C106.683 69.72 107.083 69.6467 107.403 69.5C107.723 69.3533 107.983 69.1933 108.183 69.02C108.383 68.8333 108.517 68.6933 108.583 68.6C108.703 68.4267 108.797 68.3267 108.863 68.3C108.93 68.26 109.037 68.24 109.183 68.24H110.143C110.277 68.24 110.383 68.28 110.463 68.36C110.557 68.4267 110.597 68.5267 110.583 68.66C110.57 68.86 110.463 69.1067 110.263 69.4C110.063 69.68 109.777 69.96 109.403 70.24C109.03 70.52 108.577 70.7533 108.043 70.94C107.51 71.1133 106.897 71.2 106.203 71.2ZM103.483 65.04H108.963V64.98C108.963 64.38 108.85 63.8467 108.623 63.38C108.41 62.9133 108.097 62.5467 107.683 62.28C107.27 62 106.777 61.86 106.203 61.86C105.63 61.86 105.137 62 104.723 62.28C104.323 62.5467 104.017 62.9133 103.803 63.38C103.59 63.8467 103.483 64.38 103.483 64.98V65.04ZM103.483 59.1C103.283 59.1 103.183 59.02 103.183 58.86C103.183 58.7533 103.257 58.6267 103.403 58.48L105.243 56.64C105.377 56.4933 105.49 56.4133 105.583 56.4C105.69 56.3733 105.797 56.36 105.903 56.36H106.503C106.623 56.36 106.73 56.3733 106.823 56.4C106.917 56.4133 107.03 56.4933 107.163 56.64L109.003 58.48C109.137 58.6267 109.203 58.7533 109.203 58.86C109.203 59.02 109.11 59.1 108.923 59.1H108.403C108.31 59.1 108.21 59.0867 108.103 59.06C107.997 59.0333 107.91 59 107.843 58.96L106.203 57.82L104.563 58.96C104.483 59 104.39 59.0333 104.283 59.06C104.19 59.0867 104.097 59.1 104.003 59.1H103.483ZM113.715 71C113.582 71 113.468 70.96 113.375 70.88C113.295 70.7867 113.255 70.6733 113.255 70.54V61.06C113.255 60.9267 113.295 60.82 113.375 60.74C113.468 60.6467 113.582 60.6 113.715 60.6H114.655C114.788 60.6 114.895 60.6467 114.975 60.74C115.068 60.82 115.115 60.9267 115.115 61.06V61.94C115.462 61.4867 115.895 61.12 116.415 60.84C116.948 60.5467 117.628 60.4 118.455 60.4C119.322 60.4 120.055 60.5933 120.655 60.98C121.268 61.3533 121.728 61.88 122.035 62.56C122.342 63.2267 122.495 64.0067 122.495 64.9V70.54C122.495 70.6733 122.455 70.7867 122.375 70.88C122.295 70.96 122.188 71 122.055 71H121.055C120.922 71 120.808 70.96 120.715 70.88C120.635 70.7867 120.595 70.6733 120.595 70.54V65C120.595 64.0667 120.368 63.34 119.915 62.82C119.462 62.2867 118.795 62.02 117.915 62.02C117.088 62.02 116.422 62.2867 115.915 62.82C115.422 63.34 115.175 64.0667 115.175 65V70.54C115.175 70.6733 115.128 70.7867 115.035 70.88C114.955 70.96 114.848 71 114.715 71H113.715ZM129.584 71.2C128.637 71.2 127.817 71.02 127.124 70.66C126.444 70.2867 125.917 69.76 125.544 69.08C125.17 68.3867 124.97 67.56 124.944 66.6C124.93 66.4 124.924 66.1333 124.924 65.8C124.924 65.4667 124.93 65.2 124.944 65C124.97 64.04 125.17 63.22 125.544 62.54C125.917 61.8467 126.444 61.32 127.124 60.96C127.817 60.5867 128.637 60.4 129.584 60.4C130.357 60.4 131.017 60.5067 131.564 60.72C132.124 60.9333 132.584 61.2067 132.944 61.54C133.304 61.8733 133.57 62.2333 133.744 62.62C133.93 63.0067 134.03 63.3733 134.044 63.72C134.057 63.8533 134.017 63.96 133.924 64.04C133.83 64.12 133.717 64.16 133.584 64.16H132.624C132.49 64.16 132.39 64.1333 132.324 64.08C132.257 64.0133 132.19 63.9067 132.124 63.76C131.884 63.1067 131.557 62.6467 131.144 62.38C130.73 62.1133 130.217 61.98 129.604 61.98C128.804 61.98 128.15 62.2267 127.644 62.72C127.15 63.2133 126.884 64.0067 126.844 65.1C126.83 65.58 126.83 66.0467 126.844 66.5C126.884 67.6067 127.15 68.4067 127.644 68.9C128.15 69.38 128.804 69.62 129.604 69.62C130.217 69.62 130.73 69.4867 131.144 69.22C131.557 68.9533 131.884 68.4933 132.124 67.84C132.19 67.6933 132.257 67.5933 132.324 67.54C132.39 67.4733 132.49 67.44 132.624 67.44H133.584C133.717 67.44 133.83 67.48 133.924 67.56C134.017 67.64 134.057 67.7467 134.044 67.88C134.03 68.16 133.97 68.4467 133.864 68.74C133.757 69.0333 133.584 69.3333 133.344 69.64C133.117 69.9333 132.83 70.2 132.484 70.44C132.137 70.6667 131.717 70.8533 131.224 71C130.744 71.1333 130.197 71.2 129.584 71.2ZM136.879 71C136.746 71 136.632 70.96 136.539 70.88C136.459 70.7867 136.419 70.6733 136.419 70.54V61.06C136.419 60.9267 136.459 60.82 136.539 60.74C136.632 60.6467 136.746 60.6 136.879 60.6H137.839C137.972 60.6 138.079 60.6467 138.159 60.74C138.239 60.82 138.279 60.9267 138.279 61.06V70.54C138.279 70.6733 138.239 70.7867 138.159 70.88C138.079 70.96 137.972 71 137.839 71H136.879ZM136.719 58.66C136.586 58.66 136.472 58.62 136.379 58.54C136.299 58.4467 136.259 58.3333 136.259 58.2V57.12C136.259 56.9867 136.299 56.88 136.379 56.8C136.472 56.7067 136.586 56.66 136.719 56.66H137.979C138.112 56.66 138.219 56.7067 138.299 56.8C138.392 56.88 138.439 56.9867 138.439 57.12V58.2C138.439 58.3333 138.392 58.4467 138.299 58.54C138.219 58.62 138.112 58.66 137.979 58.66H136.719ZM144.163 71.2C143.496 71.2 142.889 71.0667 142.343 70.8C141.796 70.5333 141.356 70.1733 141.023 69.72C140.689 69.2667 140.523 68.7533 140.523 68.18C140.523 67.26 140.896 66.5267 141.643 65.98C142.389 65.4333 143.363 65.0733 144.563 64.9L147.543 64.48V63.9C147.543 63.26 147.356 62.76 146.983 62.4C146.623 62.04 146.029 61.86 145.203 61.86C144.603 61.86 144.116 61.98 143.743 62.22C143.383 62.46 143.129 62.7667 142.983 63.14C142.903 63.34 142.763 63.44 142.563 63.44H141.663C141.516 63.44 141.403 63.4 141.323 63.32C141.256 63.2267 141.223 63.12 141.223 63C141.223 62.8 141.296 62.5533 141.443 62.26C141.603 61.9667 141.843 61.68 142.163 61.4C142.483 61.12 142.889 60.8867 143.383 60.7C143.889 60.5 144.503 60.4 145.223 60.4C146.023 60.4 146.696 60.5067 147.243 60.72C147.789 60.92 148.216 61.1933 148.523 61.54C148.843 61.8867 149.069 62.28 149.203 62.72C149.349 63.16 149.423 63.6067 149.423 64.06V70.54C149.423 70.6733 149.376 70.7867 149.283 70.88C149.203 70.96 149.096 71 148.963 71H148.043C147.896 71 147.783 70.96 147.703 70.88C147.623 70.7867 147.583 70.6733 147.583 70.54V69.68C147.409 69.92 147.176 70.16 146.883 70.4C146.589 70.6267 146.223 70.82 145.783 70.98C145.343 71.1267 144.803 71.2 144.163 71.2ZM144.583 69.7C145.129 69.7 145.629 69.5867 146.083 69.36C146.536 69.12 146.889 68.7533 147.143 68.26C147.409 67.7667 147.543 67.1467 147.543 66.4V65.84L145.223 66.18C144.276 66.3133 143.563 66.54 143.083 66.86C142.603 67.1667 142.363 67.56 142.363 68.04C142.363 68.4133 142.469 68.7267 142.683 68.98C142.909 69.22 143.189 69.4 143.523 69.52C143.869 69.64 144.223 69.7 144.583 69.7ZM68.0374 95C67.8907 95 67.7774 94.96 67.6974 94.88C67.6174 94.7867 67.5774 94.6733 67.5774 94.54V81.46C67.5774 81.3267 67.6174 81.22 67.6974 81.14C67.7774 81.0467 67.8907 81 68.0374 81H69.0974C69.2307 81 69.3374 81.0467 69.4174 81.14C69.4974 81.22 69.5374 81.3267 69.5374 81.46V93.26H76.1974C76.3441 93.26 76.4574 93.3067 76.5374 93.4C76.6174 93.48 76.6574 93.5933 76.6574 93.74V94.54C76.6574 94.6733 76.6174 94.7867 76.5374 94.88C76.4574 94.96 76.3441 95 76.1974 95H68.0374ZM82.6321 95.2C81.6188 95.2 80.7721 95.0067 80.0921 94.62C79.4121 94.2333 78.8921 93.7 78.5321 93.02C78.1721 92.3267 77.9721 91.54 77.9321 90.66C77.9188 90.4333 77.9121 90.1467 77.9121 89.8C77.9121 89.44 77.9188 89.1533 77.9321 88.94C77.9721 88.0467 78.1721 87.26 78.5321 86.58C78.9054 85.9 79.4321 85.3667 80.1121 84.98C80.7921 84.5933 81.6321 84.4 82.6321 84.4C83.6321 84.4 84.4721 84.5933 85.1521 84.98C85.8321 85.3667 86.3521 85.9 86.7121 86.58C87.0854 87.26 87.2921 88.0467 87.3321 88.94C87.3454 89.1533 87.3521 89.44 87.3521 89.8C87.3521 90.1467 87.3454 90.4333 87.3321 90.66C87.2921 91.54 87.0921 92.3267 86.7321 93.02C86.3721 93.7 85.8521 94.2333 85.1721 94.62C84.4921 95.0067 83.6454 95.2 82.6321 95.2ZM82.6321 93.66C83.4588 93.66 84.1188 93.4 84.6121 92.88C85.1054 92.3467 85.3721 91.5733 85.4121 90.56C85.4254 90.36 85.4321 90.1067 85.4321 89.8C85.4321 89.4933 85.4254 89.24 85.4121 89.04C85.3721 88.0267 85.1054 87.26 84.6121 86.74C84.1188 86.2067 83.4588 85.94 82.6321 85.94C81.8054 85.94 81.1388 86.2067 80.6321 86.74C80.1388 87.26 79.8788 88.0267 79.8521 89.04C79.8388 89.24 79.8321 89.4933 79.8321 89.8C79.8321 90.1067 79.8388 90.36 79.8521 90.56C79.8788 91.5733 80.1388 92.3467 80.6321 92.88C81.1388 93.4 81.8054 93.66 82.6321 93.66ZM82.0721 83.1C81.8588 83.1 81.7521 82.9933 81.7521 82.78C81.7521 82.6733 81.7854 82.5867 81.8521 82.52L83.3521 80.72C83.4721 80.5733 83.5788 80.48 83.6721 80.44C83.7654 80.3867 83.9054 80.36 84.0921 80.36H85.4521C85.7054 80.36 85.8321 80.4867 85.8321 80.74C85.8321 80.8333 85.7988 80.9133 85.7321 80.98L83.4121 82.88C83.3054 82.9733 83.2054 83.0333 83.1121 83.06C83.0188 83.0867 82.8988 83.1 82.7521 83.1H82.0721ZM94.1165 99.4C93.2098 99.4 92.4631 99.28 91.8765 99.04C91.3031 98.8 90.8498 98.5067 90.5165 98.16C90.1965 97.8267 89.9631 97.4867 89.8165 97.14C89.6831 96.8067 89.6098 96.54 89.5965 96.34C89.5831 96.2067 89.6231 96.0933 89.7165 96C89.8231 95.9067 89.9365 95.86 90.0565 95.86H91.0165C91.1365 95.86 91.2365 95.8867 91.3165 95.94C91.3965 95.9933 91.4631 96.1067 91.5165 96.28C91.5965 96.48 91.7165 96.7 91.8765 96.94C92.0365 97.1933 92.2831 97.4067 92.6165 97.58C92.9498 97.7667 93.4165 97.86 94.0165 97.86C94.6431 97.86 95.1698 97.7733 95.5965 97.6C96.0231 97.44 96.3431 97.1467 96.5565 96.72C96.7831 96.3067 96.8965 95.7333 96.8965 95V93.64C96.5765 94.0533 96.1565 94.4 95.6365 94.68C95.1165 94.9467 94.4631 95.08 93.6765 95.08C92.9298 95.08 92.2898 94.9533 91.7565 94.7C91.2231 94.4333 90.7831 94.08 90.4365 93.64C90.1031 93.1867 89.8498 92.6733 89.6765 92.1C89.5165 91.5267 89.4231 90.9267 89.3965 90.3C89.3831 89.9267 89.3831 89.56 89.3965 89.2C89.4231 88.5733 89.5165 87.9733 89.6765 87.4C89.8498 86.8267 90.1031 86.3133 90.4365 85.86C90.7831 85.4067 91.2231 85.0533 91.7565 84.8C92.2898 84.5333 92.9298 84.4 93.6765 84.4C94.4765 84.4 95.1365 84.5533 95.6565 84.86C96.1898 85.1533 96.6231 85.5133 96.9565 85.94V85.08C96.9565 84.9467 96.9965 84.8333 97.0765 84.74C97.1698 84.6467 97.2831 84.6 97.4165 84.6H98.3365C98.4698 84.6 98.5831 84.6467 98.6765 84.74C98.7698 84.8333 98.8165 84.9467 98.8165 85.08V94.78C98.8165 95.6733 98.6631 96.4667 98.3565 97.16C98.0631 97.8533 97.5698 98.4 96.8765 98.8C96.1965 99.2 95.2765 99.4 94.1165 99.4ZM94.0765 93.48C94.7431 93.48 95.2765 93.3267 95.6765 93.02C96.0898 92.7133 96.3898 92.3267 96.5765 91.86C96.7765 91.3933 96.8831 90.92 96.8965 90.44C96.9098 90.2533 96.9165 90.0267 96.9165 89.76C96.9165 89.48 96.9098 89.2467 96.8965 89.06C96.8831 88.58 96.7765 88.1067 96.5765 87.64C96.3898 87.1733 96.0898 86.7867 95.6765 86.48C95.2765 86.1733 94.7431 86.02 94.0765 86.02C93.4098 86.02 92.8765 86.1733 92.4765 86.48C92.0765 86.7733 91.7898 87.1667 91.6165 87.66C91.4431 88.14 91.3431 88.66 91.3165 89.22C91.3031 89.5667 91.3031 89.92 91.3165 90.28C91.3431 90.84 91.4431 91.3667 91.6165 91.86C91.7898 92.34 92.0765 92.7333 92.4765 93.04C92.8765 93.3333 93.4098 93.48 94.0765 93.48ZM102.25 95C102.117 95 102.003 94.96 101.91 94.88C101.83 94.7867 101.79 94.6733 101.79 94.54V85.06C101.79 84.9267 101.83 84.82 101.91 84.74C102.003 84.6467 102.117 84.6 102.25 84.6H103.21C103.343 84.6 103.45 84.6467 103.53 84.74C103.61 84.82 103.65 84.9267 103.65 85.06V94.54C103.65 94.6733 103.61 94.7867 103.53 94.88C103.45 94.96 103.343 95 103.21 95H102.25ZM102.09 82.66C101.957 82.66 101.843 82.62 101.75 82.54C101.67 82.4467 101.63 82.3333 101.63 82.2V81.12C101.63 80.9867 101.67 80.88 101.75 80.8C101.843 80.7067 101.957 80.66 102.09 80.66H103.35C103.483 80.66 103.59 80.7067 103.67 80.8C103.763 80.88 103.81 80.9867 103.81 81.12V82.2C103.81 82.3333 103.763 82.4467 103.67 82.54C103.59 82.62 103.483 82.66 103.35 82.66H102.09ZM110.873 95.2C109.926 95.2 109.106 95.02 108.413 94.66C107.733 94.2867 107.206 93.76 106.833 93.08C106.46 92.3867 106.26 91.56 106.233 90.6C106.22 90.4 106.213 90.1333 106.213 89.8C106.213 89.4667 106.22 89.2 106.233 89C106.26 88.04 106.46 87.22 106.833 86.54C107.206 85.8467 107.733 85.32 108.413 84.96C109.106 84.5867 109.926 84.4 110.873 84.4C111.646 84.4 112.306 84.5067 112.853 84.72C113.413 84.9333 113.873 85.2067 114.233 85.54C114.593 85.8733 114.86 86.2333 115.033 86.62C115.22 87.0067 115.32 87.3733 115.333 87.72C115.346 87.8533 115.306 87.96 115.213 88.04C115.12 88.12 115.006 88.16 114.873 88.16H113.913C113.78 88.16 113.68 88.1333 113.613 88.08C113.546 88.0133 113.48 87.9067 113.413 87.76C113.173 87.1067 112.846 86.6467 112.433 86.38C112.02 86.1133 111.506 85.98 110.893 85.98C110.093 85.98 109.44 86.2267 108.933 86.72C108.44 87.2133 108.173 88.0067 108.133 89.1C108.12 89.58 108.12 90.0467 108.133 90.5C108.173 91.6067 108.44 92.4067 108.933 92.9C109.44 93.38 110.093 93.62 110.893 93.62C111.506 93.62 112.02 93.4867 112.433 93.22C112.846 92.9533 113.173 92.4933 113.413 91.84C113.48 91.6933 113.546 91.5933 113.613 91.54C113.68 91.4733 113.78 91.44 113.913 91.44H114.873C115.006 91.44 115.12 91.48 115.213 91.56C115.306 91.64 115.346 91.7467 115.333 91.88C115.32 92.16 115.26 92.4467 115.153 92.74C115.046 93.0333 114.873 93.3333 114.633 93.64C114.406 93.9333 114.12 94.2 113.773 94.44C113.426 94.6667 113.006 94.8533 112.513 95C112.033 95.1333 111.486 95.2 110.873 95.2ZM120.608 95.2C119.941 95.2 119.335 95.0667 118.788 94.8C118.241 94.5333 117.801 94.1733 117.468 93.72C117.135 93.2667 116.968 92.7533 116.968 92.18C116.968 91.26 117.341 90.5267 118.088 89.98C118.835 89.4333 119.808 89.0733 121.008 88.9L123.988 88.48V87.9C123.988 87.26 123.801 86.76 123.428 86.4C123.068 86.04 122.475 85.86 121.648 85.86C121.048 85.86 120.561 85.98 120.188 86.22C119.828 86.46 119.575 86.7667 119.428 87.14C119.348 87.34 119.208 87.44 119.008 87.44H118.108C117.961 87.44 117.848 87.4 117.768 87.32C117.701 87.2267 117.668 87.12 117.668 87C117.668 86.8 117.741 86.5533 117.888 86.26C118.048 85.9667 118.288 85.68 118.608 85.4C118.928 85.12 119.335 84.8867 119.828 84.7C120.335 84.5 120.948 84.4 121.668 84.4C122.468 84.4 123.141 84.5067 123.688 84.72C124.235 84.92 124.661 85.1933 124.968 85.54C125.288 85.8867 125.515 86.28 125.648 86.72C125.795 87.16 125.868 87.6067 125.868 88.06V94.54C125.868 94.6733 125.821 94.7867 125.728 94.88C125.648 94.96 125.541 95 125.408 95H124.488C124.341 95 124.228 94.96 124.148 94.88C124.068 94.7867 124.028 94.6733 124.028 94.54V93.68C123.855 93.92 123.621 94.16 123.328 94.4C123.035 94.6267 122.668 94.82 122.228 94.98C121.788 95.1267 121.248 95.2 120.608 95.2ZM121.028 93.7C121.575 93.7 122.075 93.5867 122.528 93.36C122.981 93.12 123.335 92.7533 123.588 92.26C123.855 91.7667 123.988 91.1467 123.988 90.4V89.84L121.668 90.18C120.721 90.3133 120.008 90.54 119.528 90.86C119.048 91.1667 118.808 91.56 118.808 92.04C118.808 92.4133 118.915 92.7267 119.128 92.98C119.355 93.22 119.635 93.4 119.968 93.52C120.315 93.64 120.668 93.7 121.028 93.7ZM44.1019 119C43.9685 119 43.8552 118.96 43.7619 118.88C43.6819 118.787 43.6419 118.673 43.6419 118.54V105.48C43.6419 105.333 43.6819 105.22 43.7619 105.14C43.8552 105.047 43.9685 105 44.1019 105H45.1019C45.2619 105 45.3819 105.04 45.4619 105.12C45.5419 105.2 45.5885 105.267 45.6019 105.32L49.8419 113.4L54.1019 105.32C54.1285 105.267 54.1752 105.2 54.2419 105.12C54.3219 105.04 54.4419 105 54.6019 105H55.5819C55.7285 105 55.8419 105.047 55.9219 105.14C56.0152 105.22 56.0619 105.333 56.0619 105.48V118.54C56.0619 118.673 56.0152 118.787 55.9219 118.88C55.8419 118.96 55.7285 119 55.5819 119H54.6019C54.4685 119 54.3552 118.96 54.2619 118.88C54.1819 118.787 54.1419 118.673 54.1419 118.54V108.7L50.8019 115.22C50.7485 115.353 50.6685 115.46 50.5619 115.54C50.4552 115.607 50.3219 115.64 50.1619 115.64H49.5419C49.3685 115.64 49.2285 115.607 49.1219 115.54C49.0285 115.46 48.9485 115.353 48.8819 115.22L45.5419 108.7V118.54C45.5419 118.673 45.4952 118.787 45.4019 118.88C45.3219 118.96 45.2152 119 45.0819 119H44.1019ZM62.1608 119.2C61.4941 119.2 60.8874 119.067 60.3408 118.8C59.7941 118.533 59.3541 118.173 59.0208 117.72C58.6874 117.267 58.5208 116.753 58.5208 116.18C58.5208 115.26 58.8941 114.527 59.6408 113.98C60.3874 113.433 61.3608 113.073 62.5608 112.9L65.5408 112.48V111.9C65.5408 111.26 65.3541 110.76 64.9808 110.4C64.6208 110.04 64.0274 109.86 63.2008 109.86C62.6008 109.86 62.1141 109.98 61.7408 110.22C61.3808 110.46 61.1274 110.767 60.9808 111.14C60.9008 111.34 60.7608 111.44 60.5608 111.44H59.6608C59.5141 111.44 59.4008 111.4 59.3208 111.32C59.2541 111.227 59.2208 111.12 59.2208 111C59.2208 110.8 59.2941 110.553 59.4408 110.26C59.6008 109.967 59.8408 109.68 60.1608 109.4C60.4808 109.12 60.8874 108.887 61.3808 108.7C61.8874 108.5 62.5008 108.4 63.2208 108.4C64.0208 108.4 64.6941 108.507 65.2408 108.72C65.7874 108.92 66.2141 109.193 66.5208 109.54C66.8408 109.887 67.0674 110.28 67.2008 110.72C67.3474 111.16 67.4208 111.607 67.4208 112.06V118.54C67.4208 118.673 67.3741 118.787 67.2808 118.88C67.2008 118.96 67.0941 119 66.9608 119H66.0408C65.8941 119 65.7808 118.96 65.7008 118.88C65.6208 118.787 65.5808 118.673 65.5808 118.54V117.68C65.4074 117.92 65.1741 118.16 64.8808 118.4C64.5874 118.627 64.2208 118.82 63.7808 118.98C63.3408 119.127 62.8008 119.2 62.1608 119.2ZM62.5808 117.7C63.1274 117.7 63.6274 117.587 64.0808 117.36C64.5341 117.12 64.8874 116.753 65.1408 116.26C65.4074 115.767 65.5408 115.147 65.5408 114.4V113.84L63.2208 114.18C62.2741 114.313 61.5608 114.54 61.0808 114.86C60.6008 115.167 60.3608 115.56 60.3608 116.04C60.3608 116.413 60.4674 116.727 60.6808 116.98C60.9074 117.22 61.1874 117.4 61.5208 117.52C61.8674 117.64 62.2208 117.7 62.5808 117.7ZM74.2583 119C73.5116 119 72.9049 118.86 72.4383 118.58C71.9716 118.287 71.6316 117.88 71.4183 117.36C71.2049 116.827 71.0983 116.2 71.0983 115.48V110.2H69.5383C69.4049 110.2 69.2916 110.16 69.1983 110.08C69.1183 109.987 69.0783 109.873 69.0783 109.74V109.06C69.0783 108.927 69.1183 108.82 69.1983 108.74C69.2916 108.647 69.4049 108.6 69.5383 108.6H71.0983V105.26C71.0983 105.127 71.1383 105.02 71.2183 104.94C71.3116 104.847 71.4249 104.8 71.5583 104.8H72.4983C72.6316 104.8 72.7383 104.847 72.8183 104.94C72.9116 105.02 72.9583 105.127 72.9583 105.26V108.6H75.4383C75.5716 108.6 75.6783 108.647 75.7583 108.74C75.8516 108.82 75.8983 108.927 75.8983 109.06V109.74C75.8983 109.873 75.8516 109.987 75.7583 110.08C75.6783 110.16 75.5716 110.2 75.4383 110.2H72.9583V115.34C72.9583 115.967 73.0649 116.46 73.2783 116.82C73.4916 117.18 73.8716 117.36 74.4183 117.36H75.6383C75.7716 117.36 75.8783 117.407 75.9583 117.5C76.0516 117.58 76.0983 117.687 76.0983 117.82V118.54C76.0983 118.673 76.0516 118.787 75.9583 118.88C75.8783 118.96 75.7716 119 75.6383 119H74.2583ZM82.1508 119.2C80.7774 119.2 79.6841 118.78 78.8708 117.94C78.0574 117.087 77.6108 115.927 77.5308 114.46C77.5174 114.287 77.5108 114.067 77.5108 113.8C77.5108 113.52 77.5174 113.293 77.5308 113.12C77.5841 112.173 77.8041 111.347 78.1908 110.64C78.5774 109.92 79.1041 109.367 79.7708 108.98C80.4508 108.593 81.2441 108.4 82.1508 108.4C83.1641 108.4 84.0108 108.613 84.6908 109.04C85.3841 109.467 85.9108 110.073 86.2708 110.86C86.6308 111.647 86.8108 112.567 86.8108 113.62V113.96C86.8108 114.107 86.7641 114.22 86.6708 114.3C86.5908 114.38 86.4841 114.42 86.3508 114.42H79.4308C79.4308 114.433 79.4308 114.46 79.4308 114.5C79.4308 114.54 79.4308 114.573 79.4308 114.6C79.4574 115.147 79.5774 115.66 79.7908 116.14C80.0041 116.607 80.3108 116.987 80.7108 117.28C81.1108 117.573 81.5908 117.72 82.1508 117.72C82.6308 117.72 83.0308 117.647 83.3508 117.5C83.6708 117.353 83.9308 117.193 84.1308 117.02C84.3308 116.833 84.4641 116.693 84.5308 116.6C84.6508 116.427 84.7441 116.327 84.8108 116.3C84.8774 116.26 84.9841 116.24 85.1308 116.24H86.0908C86.2241 116.24 86.3308 116.28 86.4108 116.36C86.5041 116.427 86.5441 116.527 86.5308 116.66C86.5174 116.86 86.4108 117.107 86.2108 117.4C86.0108 117.68 85.7241 117.96 85.3508 118.24C84.9774 118.52 84.5241 118.753 83.9908 118.94C83.4574 119.113 82.8441 119.2 82.1508 119.2ZM79.4308 113.04H84.9108V112.98C84.9108 112.38 84.7974 111.847 84.5708 111.38C84.3574 110.913 84.0441 110.547 83.6308 110.28C83.2174 110 82.7241 109.86 82.1508 109.86C81.5774 109.86 81.0841 110 80.6708 110.28C80.2708 110.547 79.9641 110.913 79.7508 111.38C79.5374 111.847 79.4308 112.38 79.4308 112.98V113.04ZM89.6622 119C89.5288 119 89.4155 118.96 89.3222 118.88C89.2422 118.787 89.2022 118.673 89.2022 118.54V109.06C89.2022 108.927 89.2422 108.82 89.3222 108.74C89.4155 108.647 89.5288 108.6 89.6622 108.6H90.5622C90.6955 108.6 90.8022 108.647 90.8822 108.74C90.9755 108.82 91.0222 108.927 91.0222 109.06V109.76C91.3288 109.347 91.7155 109.02 92.1822 108.78C92.6488 108.527 93.2088 108.4 93.8622 108.4C95.3688 108.387 96.4355 109 97.0622 110.24C97.3688 109.68 97.8155 109.233 98.4022 108.9C98.9888 108.567 99.6555 108.4 100.402 108.4C101.096 108.4 101.722 108.56 102.282 108.88C102.856 109.2 103.302 109.687 103.622 110.34C103.956 110.98 104.122 111.787 104.122 112.76V118.54C104.122 118.673 104.076 118.787 103.982 118.88C103.902 118.96 103.796 119 103.662 119H102.722C102.589 119 102.476 118.96 102.382 118.88C102.302 118.787 102.262 118.673 102.262 118.54V112.94C102.262 112.193 102.156 111.607 101.942 111.18C101.729 110.753 101.442 110.453 101.082 110.28C100.722 110.107 100.329 110.02 99.9022 110.02C99.5555 110.02 99.2022 110.107 98.8422 110.28C98.4822 110.453 98.1822 110.753 97.9422 111.18C97.7155 111.607 97.6022 112.193 97.6022 112.94V118.54C97.6022 118.673 97.5555 118.787 97.4622 118.88C97.3822 118.96 97.2755 119 97.1422 119H96.2022C96.0688 119 95.9555 118.96 95.8622 118.88C95.7822 118.787 95.7422 118.673 95.7422 118.54V112.94C95.7422 112.193 95.6288 111.607 95.4022 111.18C95.1755 110.753 94.8822 110.453 94.5222 110.28C94.1622 110.107 93.7822 110.02 93.3822 110.02C93.0355 110.02 92.6822 110.107 92.3222 110.28C91.9622 110.453 91.6622 110.753 91.4222 111.18C91.1955 111.607 91.0822 112.187 91.0822 112.92V118.54C91.0822 118.673 91.0355 118.787 90.9422 118.88C90.8622 118.96 90.7555 119 90.6222 119H89.6622ZM109.876 119.2C109.209 119.2 108.602 119.067 108.056 118.8C107.509 118.533 107.069 118.173 106.736 117.72C106.402 117.267 106.236 116.753 106.236 116.18C106.236 115.26 106.609 114.527 107.356 113.98C108.102 113.433 109.076 113.073 110.276 112.9L113.256 112.48V111.9C113.256 111.26 113.069 110.76 112.696 110.4C112.336 110.04 111.742 109.86 110.916 109.86C110.316 109.86 109.829 109.98 109.456 110.22C109.096 110.46 108.842 110.767 108.696 111.14C108.616 111.34 108.476 111.44 108.276 111.44H107.376C107.229 111.44 107.116 111.4 107.036 111.32C106.969 111.227 106.936 111.12 106.936 111C106.936 110.8 107.009 110.553 107.156 110.26C107.316 109.967 107.556 109.68 107.876 109.4C108.196 109.12 108.602 108.887 109.096 108.7C109.602 108.5 110.216 108.4 110.936 108.4C111.736 108.4 112.409 108.507 112.956 108.72C113.502 108.92 113.929 109.193 114.236 109.54C114.556 109.887 114.782 110.28 114.916 110.72C115.062 111.16 115.136 111.607 115.136 112.06V118.54C115.136 118.673 115.089 118.787 114.996 118.88C114.916 118.96 114.809 119 114.676 119H113.756C113.609 119 113.496 118.96 113.416 118.88C113.336 118.787 113.296 118.673 113.296 118.54V117.68C113.122 117.92 112.889 118.16 112.596 118.4C112.302 118.627 111.936 118.82 111.496 118.98C111.056 119.127 110.516 119.2 109.876 119.2ZM110.296 117.7C110.842 117.7 111.342 117.587 111.796 117.36C112.249 117.12 112.602 116.753 112.856 116.26C113.122 115.767 113.256 115.147 113.256 114.4V113.84L110.936 114.18C109.989 114.313 109.276 114.54 108.796 114.86C108.316 115.167 108.076 115.56 108.076 116.04C108.076 116.413 108.182 116.727 108.396 116.98C108.622 117.22 108.902 117.4 109.236 117.52C109.582 117.64 109.936 117.7 110.296 117.7ZM110.416 107.1C110.202 107.1 110.096 106.993 110.096 106.78C110.096 106.673 110.129 106.587 110.196 106.52L111.696 104.72C111.816 104.573 111.922 104.48 112.016 104.44C112.109 104.387 112.249 104.36 112.436 104.36H113.796C114.049 104.36 114.176 104.487 114.176 104.74C114.176 104.833 114.142 104.913 114.076 104.98L111.756 106.88C111.649 106.973 111.549 107.033 111.456 107.06C111.362 107.087 111.242 107.1 111.096 107.1H110.416ZM121.973 119C121.226 119 120.62 118.86 120.153 118.58C119.686 118.287 119.346 117.88 119.133 117.36C118.92 116.827 118.813 116.2 118.813 115.48V110.2H117.253C117.12 110.2 117.006 110.16 116.913 110.08C116.833 109.987 116.793 109.873 116.793 109.74V109.06C116.793 108.927 116.833 108.82 116.913 108.74C117.006 108.647 117.12 108.6 117.253 108.6H118.813V105.26C118.813 105.127 118.853 105.02 118.933 104.94C119.026 104.847 119.14 104.8 119.273 104.8H120.213C120.346 104.8 120.453 104.847 120.533 104.94C120.626 105.02 120.673 105.127 120.673 105.26V108.6H123.153C123.286 108.6 123.393 108.647 123.473 108.74C123.566 108.82 123.613 108.927 123.613 109.06V109.74C123.613 109.873 123.566 109.987 123.473 110.08C123.393 110.16 123.286 110.2 123.153 110.2H120.673V115.34C120.673 115.967 120.78 116.46 120.993 116.82C121.206 117.18 121.586 117.36 122.133 117.36H123.353C123.486 117.36 123.593 117.407 123.673 117.5C123.766 117.58 123.813 117.687 123.813 117.82V118.54C123.813 118.673 123.766 118.787 123.673 118.88C123.593 118.96 123.486 119 123.353 119H121.973ZM126.186 119C126.052 119 125.939 118.96 125.846 118.88C125.766 118.787 125.726 118.673 125.726 118.54V109.06C125.726 108.927 125.766 108.82 125.846 108.74C125.939 108.647 126.052 108.6 126.186 108.6H127.146C127.279 108.6 127.386 108.647 127.466 108.74C127.546 108.82 127.586 108.927 127.586 109.06V118.54C127.586 118.673 127.546 118.787 127.466 118.88C127.386 118.96 127.279 119 127.146 119H126.186ZM126.026 106.66C125.892 106.66 125.779 106.62 125.686 106.54C125.606 106.447 125.566 106.333 125.566 106.2V105.12C125.566 104.987 125.606 104.88 125.686 104.8C125.779 104.707 125.892 104.66 126.026 104.66H127.286C127.419 104.66 127.526 104.707 127.606 104.8C127.699 104.88 127.746 104.987 127.746 105.12V106.2C127.746 106.333 127.699 106.447 127.606 106.54C127.526 106.62 127.419 106.66 127.286 106.66H126.026ZM134.808 119.2C133.862 119.2 133.042 119.02 132.348 118.66C131.668 118.287 131.142 117.76 130.768 117.08C130.395 116.387 130.195 115.56 130.168 114.6C130.155 114.4 130.148 114.133 130.148 113.8C130.148 113.467 130.155 113.2 130.168 113C130.195 112.04 130.395 111.22 130.768 110.54C131.142 109.847 131.668 109.32 132.348 108.96C133.042 108.587 133.862 108.4 134.808 108.4C135.582 108.4 136.242 108.507 136.788 108.72C137.348 108.933 137.808 109.207 138.168 109.54C138.528 109.873 138.795 110.233 138.968 110.62C139.155 111.007 139.255 111.373 139.268 111.72C139.282 111.853 139.242 111.96 139.148 112.04C139.055 112.12 138.942 112.16 138.808 112.16H137.848C137.715 112.16 137.615 112.133 137.548 112.08C137.482 112.013 137.415 111.907 137.348 111.76C137.108 111.107 136.782 110.647 136.368 110.38C135.955 110.113 135.442 109.98 134.828 109.98C134.028 109.98 133.375 110.227 132.868 110.72C132.375 111.213 132.108 112.007 132.068 113.1C132.055 113.58 132.055 114.047 132.068 114.5C132.108 115.607 132.375 116.407 132.868 116.9C133.375 117.38 134.028 117.62 134.828 117.62C135.442 117.62 135.955 117.487 136.368 117.22C136.782 116.953 137.108 116.493 137.348 115.84C137.415 115.693 137.482 115.593 137.548 115.54C137.615 115.473 137.715 115.44 137.848 115.44H138.808C138.942 115.44 139.055 115.48 139.148 115.56C139.242 115.64 139.282 115.747 139.268 115.88C139.255 116.16 139.195 116.447 139.088 116.74C138.982 117.033 138.808 117.333 138.568 117.64C138.342 117.933 138.055 118.2 137.708 118.44C137.362 118.667 136.942 118.853 136.448 119C135.968 119.133 135.422 119.2 134.808 119.2ZM144.544 119.2C143.877 119.2 143.27 119.067 142.724 118.8C142.177 118.533 141.737 118.173 141.404 117.72C141.07 117.267 140.904 116.753 140.904 116.18C140.904 115.26 141.277 114.527 142.024 113.98C142.77 113.433 143.744 113.073 144.944 112.9L147.924 112.48V111.9C147.924 111.26 147.737 110.76 147.364 110.4C147.004 110.04 146.41 109.86 145.584 109.86C144.984 109.86 144.497 109.98 144.124 110.22C143.764 110.46 143.51 110.767 143.364 111.14C143.284 111.34 143.144 111.44 142.944 111.44H142.044C141.897 111.44 141.784 111.4 141.704 111.32C141.637 111.227 141.604 111.12 141.604 111C141.604 110.8 141.677 110.553 141.824 110.26C141.984 109.967 142.224 109.68 142.544 109.4C142.864 109.12 143.27 108.887 143.764 108.7C144.27 108.5 144.884 108.4 145.604 108.4C146.404 108.4 147.077 108.507 147.624 108.72C148.17 108.92 148.597 109.193 148.904 109.54C149.224 109.887 149.45 110.28 149.584 110.72C149.73 111.16 149.804 111.607 149.804 112.06V118.54C149.804 118.673 149.757 118.787 149.664 118.88C149.584 118.96 149.477 119 149.344 119H148.424C148.277 119 148.164 118.96 148.084 118.88C148.004 118.787 147.964 118.673 147.964 118.54V117.68C147.79 117.92 147.557 118.16 147.264 118.4C146.97 118.627 146.604 118.82 146.164 118.98C145.724 119.127 145.184 119.2 144.544 119.2ZM144.964 117.7C145.51 117.7 146.01 117.587 146.464 117.36C146.917 117.12 147.27 116.753 147.524 116.26C147.79 115.767 147.924 115.147 147.924 114.4V113.84L145.604 114.18C144.657 114.313 143.944 114.54 143.464 114.86C142.984 115.167 142.744 115.56 142.744 116.04C142.744 116.413 142.85 116.727 143.064 116.98C143.29 117.22 143.57 117.4 143.904 117.52C144.25 117.64 144.604 117.7 144.964 117.7Z" fill="black"/>
<path d="M94.5503 2C85.3742 22.6463 60.6227 24.1422 44.217 35.5C35.472 41.5542 16.4739 46.1515 12.7726 57.6667C6.66366 76.6721 15.1323 96.8725 27.1614 111.111C33.7587 118.92 39.9796 127.27 49.3281 131.944C65.4419 140.001 84.0397 144.059 101.106 149.778C120.6 156.31 153.579 165.833 170.439 149.833C190.541 130.757 193.185 98.7278 187.328 73.2222C181.984 49.9474 171.829 26.585 148.495 16.7778C132.154 9.91005 111.907 9.33512 94.5503 8" stroke="#2723EB" stroke-width="3" stroke-linecap="round"/>
<path d="M184.55 37C156.855 31.1694 130.063 22.6218 102.661 15.6667C88.9902 12.1966 75.4261 9.6256 61.3837 8.16666C51.276 7.11651 43.4449 6.79668 37.1059 16.1111C33.191 21.8635 31.1127 29.2233 29.4392 35.7778C25.407 51.5706 22.005 68.3294 21.4392 84.6667C20.9602 98.4986 25.6402 112.074 29.7726 125.111C33.4469 136.703 39.242 148.886 48.2726 157.278C57.3633 165.726 70.619 168.374 82.5503 169.889C100.637 172.186 118.705 169.011 135.161 161.056C149.697 154.028 162.853 143.851 171.773 130.222C178.507 119.931 180.869 108.357 183.606 96.6111C187.243 81.0007 191.55 65.9836 191.55 49.7778C191.55 44.0993 185.104 42.5179 180.55 41" stroke="#F12430" stroke-width="3" stroke-linecap="round"/>
<path d="M200.55 81C182.282 70.8034 167.569 54.4895 150.995 41.8889C131.425 27.0103 110.32 18.9401 86.6615 12.8889C68.1408 8.15181 42.8156 2.93695 28.5504 19.7778C1.12688 52.1528 -7.21276 97.9394 19.9949 133.333C29.201 145.309 44.4273 159.613 59.4393 164.222C68.4207 166.98 77.9794 168.54 87.2171 170.111C93.9994 171.265 101.546 172.75 108.439 171.333C130.934 166.709 156.673 148.535 169.217 129.333C180.839 111.543 183.501 87.6522 180.55 67" stroke="#F5ED28" stroke-width="3" stroke-linecap="round"/>
<path d="M198.55 79C195.405 59.1871 183.247 37.4103 165.661 27.2222C136.012 10.0451 95.7208 7.23611 62.7725 13.7778C35.1632 19.2594 18.9251 44.5786 15.4391 71.3333C12.1207 96.8024 14.0007 128.439 30.7725 149.111C48.0895 170.455 77.8507 180.723 104.55 182.333C118.95 183.202 134.112 182.272 145.995 173.111C158.496 163.473 167.195 148.64 173.217 134.333C184.25 108.12 186.55 78.1844 186.55 50" stroke="#33E64F" stroke-width="3" stroke-linecap="round"/>
<path d="M137.55 45C133.904 46.9449 128.182 46 124.273 46C112.847 46 101.421 46 89.9949 46C64.1361 46 37.0601 40.9776 16.6616 60.1111C6.32192 69.8095 0.154156 80.5324 2.49489 94.8889C7.01979 122.642 21.7135 150.263 40.2171 171.222C58.2523 191.651 84.8408 193.233 110.217 191.722C143.428 189.745 167.854 173.813 175.606 140.056C180.349 119.4 177.88 96.6387 167.662 78.1667C162.039 68.0027 155.754 58.5608 149.55 48.7778C145.774 42.8226 142.854 43 136.55 43" stroke="#EF33DC" stroke-width="3" stroke-linecap="round"/>
</svg>
