<svg width="193" height="175" viewBox="0 0 193 175" fill="none" xmlns="http://www.w3.org/2000/svg">
<rect x="25.4768" width="150" height="150" fill="white"/>
<path d="M48.4092 73C48.2626 73 48.1492 72.96 48.0692 72.88C47.9892 72.7867 47.9492 72.6733 47.9492 72.54V59.46C47.9492 59.3267 47.9892 59.22 48.0692 59.14C48.1492 59.0467 48.2626 59 48.4092 59H49.4692C49.6026 59 49.7092 59.0467 49.7892 59.14C49.8826 59.22 49.9292 59.3267 49.9292 59.46V72.54C49.9292 72.6733 49.8826 72.7867 49.7892 72.88C49.7092 72.96 49.6026 73 49.4692 73H48.4092ZM53.618 73C53.4846 73 53.3713 72.96 53.278 72.88C53.198 72.7867 53.158 72.6733 53.158 72.54V63.06C53.158 62.9267 53.198 62.82 53.278 62.74C53.3713 62.6467 53.4846 62.6 53.618 62.6H54.558C54.6913 62.6 54.798 62.6467 54.878 62.74C54.9713 62.82 55.018 62.9267 55.018 63.06V63.94C55.3646 63.4867 55.798 63.12 56.318 62.84C56.8513 62.5467 57.5313 62.4 58.358 62.4C59.2246 62.4 59.958 62.5933 60.558 62.98C61.1713 63.3533 61.6313 63.88 61.938 64.56C62.2446 65.2267 62.398 66.0067 62.398 66.9V72.54C62.398 72.6733 62.358 72.7867 62.278 72.88C62.198 72.96 62.0913 73 61.958 73H60.958C60.8246 73 60.7113 72.96 60.618 72.88C60.538 72.7867 60.498 72.6733 60.498 72.54V67C60.498 66.0667 60.2713 65.34 59.818 64.82C59.3646 64.2867 58.698 64.02 57.818 64.02C56.9913 64.02 56.3246 64.2867 55.818 64.82C55.3246 65.34 55.078 66.0667 55.078 67V72.54C55.078 72.6733 55.0313 72.7867 54.938 72.88C54.858 72.96 54.7513 73 54.618 73H53.618ZM69.2102 73C68.4635 73 67.8568 72.86 67.3902 72.58C66.9235 72.2867 66.5835 71.88 66.3702 71.36C66.1568 70.8267 66.0502 70.2 66.0502 69.48V64.2H64.4902C64.3568 64.2 64.2435 64.16 64.1502 64.08C64.0702 63.9867 64.0302 63.8733 64.0302 63.74V63.06C64.0302 62.9267 64.0702 62.82 64.1502 62.74C64.2435 62.6467 64.3568 62.6 64.4902 62.6H66.0502V59.26C66.0502 59.1267 66.0902 59.02 66.1702 58.94C66.2635 58.8467 66.3768 58.8 66.5102 58.8H67.4502C67.5835 58.8 67.6902 58.8467 67.7702 58.94C67.8635 59.02 67.9102 59.1267 67.9102 59.26V62.6H70.3902C70.5235 62.6 70.6302 62.6467 70.7102 62.74C70.8035 62.82 70.8502 62.9267 70.8502 63.06V63.74C70.8502 63.8733 70.8035 63.9867 70.7102 64.08C70.6302 64.16 70.5235 64.2 70.3902 64.2H67.9102V69.34C67.9102 69.9667 68.0168 70.46 68.2302 70.82C68.4435 71.18 68.8235 71.36 69.3702 71.36H70.5902C70.7235 71.36 70.8302 71.4067 70.9102 71.5C71.0035 71.58 71.0502 71.6867 71.0502 71.82V72.54C71.0502 72.6733 71.0035 72.7867 70.9102 72.88C70.8302 72.96 70.7235 73 70.5902 73H69.2102ZM77.1027 73.2C75.7293 73.2 74.636 72.78 73.8227 71.94C73.0093 71.0867 72.5627 69.9267 72.4827 68.46C72.4693 68.2867 72.4627 68.0667 72.4627 67.8C72.4627 67.52 72.4693 67.2933 72.4827 67.12C72.536 66.1733 72.756 65.3467 73.1427 64.64C73.5293 63.92 74.056 63.3667 74.7227 62.98C75.4027 62.5933 76.196 62.4 77.1027 62.4C78.116 62.4 78.9627 62.6133 79.6427 63.04C80.336 63.4667 80.8627 64.0733 81.2227 64.86C81.5827 65.6467 81.7627 66.5667 81.7627 67.62V67.96C81.7627 68.1067 81.716 68.22 81.6227 68.3C81.5427 68.38 81.436 68.42 81.3027 68.42H74.3827C74.3827 68.4333 74.3827 68.46 74.3827 68.5C74.3827 68.54 74.3827 68.5733 74.3827 68.6C74.4093 69.1467 74.5293 69.66 74.7427 70.14C74.956 70.6067 75.2627 70.9867 75.6627 71.28C76.0627 71.5733 76.5427 71.72 77.1027 71.72C77.5827 71.72 77.9827 71.6467 78.3027 71.5C78.6227 71.3533 78.8827 71.1933 79.0827 71.02C79.2827 70.8333 79.416 70.6933 79.4827 70.6C79.6027 70.4267 79.696 70.3267 79.7627 70.3C79.8293 70.26 79.936 70.24 80.0827 70.24H81.0427C81.176 70.24 81.2827 70.28 81.3627 70.36C81.456 70.4267 81.496 70.5267 81.4827 70.66C81.4693 70.86 81.3627 71.1067 81.1627 71.4C80.9627 71.68 80.676 71.96 80.3027 72.24C79.9293 72.52 79.476 72.7533 78.9427 72.94C78.4093 73.1133 77.796 73.2 77.1027 73.2ZM74.3827 67.04H79.8627V66.98C79.8627 66.38 79.7493 65.8467 79.5227 65.38C79.3093 64.9133 78.996 64.5467 78.5827 64.28C78.1693 64 77.676 63.86 77.1027 63.86C76.5293 63.86 76.036 64 75.6227 64.28C75.2227 64.5467 74.916 64.9133 74.7027 65.38C74.4893 65.8467 74.3827 66.38 74.3827 66.98V67.04ZM84.6341 73C84.5007 73 84.3874 72.96 84.2941 72.88C84.2141 72.7867 84.1741 72.6733 84.1741 72.54V59.26C84.1741 59.1267 84.2141 59.02 84.2941 58.94C84.3874 58.8467 84.5007 58.8 84.6341 58.8H85.5741C85.7207 58.8 85.8341 58.8467 85.9141 58.94C85.9941 59.02 86.0341 59.1267 86.0341 59.26V72.54C86.0341 72.6733 85.9941 72.7867 85.9141 72.88C85.8341 72.96 85.7207 73 85.5741 73H84.6341ZM89.6727 73C89.5393 73 89.426 72.96 89.3327 72.88C89.2527 72.7867 89.2127 72.6733 89.2127 72.54V63.06C89.2127 62.9267 89.2527 62.82 89.3327 62.74C89.426 62.6467 89.5393 62.6 89.6727 62.6H90.6327C90.766 62.6 90.8727 62.6467 90.9527 62.74C91.0327 62.82 91.0727 62.9267 91.0727 63.06V72.54C91.0727 72.6733 91.0327 72.7867 90.9527 72.88C90.8727 72.96 90.766 73 90.6327 73H89.6727ZM89.5127 60.66C89.3793 60.66 89.266 60.62 89.1727 60.54C89.0927 60.4467 89.0527 60.3333 89.0527 60.2V59.12C89.0527 58.9867 89.0927 58.88 89.1727 58.8C89.266 58.7067 89.3793 58.66 89.5127 58.66H90.7727C90.906 58.66 91.0127 58.7067 91.0927 58.8C91.186 58.88 91.2327 58.9867 91.2327 59.12V60.2C91.2327 60.3333 91.186 60.4467 91.0927 60.54C91.0127 60.62 90.906 60.66 90.7727 60.66H89.5127ZM98.3164 77.4C97.4097 77.4 96.6631 77.28 96.0764 77.04C95.5031 76.8 95.0497 76.5067 94.7164 76.16C94.3964 75.8267 94.1631 75.4867 94.0164 75.14C93.8831 74.8067 93.8097 74.54 93.7964 74.34C93.7831 74.2067 93.8231 74.0933 93.9164 74C94.0231 73.9067 94.1364 73.86 94.2564 73.86H95.2164C95.3364 73.86 95.4364 73.8867 95.5164 73.94C95.5964 73.9933 95.6631 74.1067 95.7164 74.28C95.7964 74.48 95.9164 74.7 96.0764 74.94C96.2364 75.1933 96.4831 75.4067 96.8164 75.58C97.1497 75.7667 97.6164 75.86 98.2164 75.86C98.8431 75.86 99.3697 75.7733 99.7964 75.6C100.223 75.44 100.543 75.1467 100.756 74.72C100.983 74.3067 101.096 73.7333 101.096 73V71.64C100.776 72.0533 100.356 72.4 99.8364 72.68C99.3164 72.9467 98.6631 73.08 97.8764 73.08C97.1297 73.08 96.4897 72.9533 95.9564 72.7C95.4231 72.4333 94.9831 72.08 94.6364 71.64C94.3031 71.1867 94.0497 70.6733 93.8764 70.1C93.7164 69.5267 93.6231 68.9267 93.5964 68.3C93.5831 67.9267 93.5831 67.56 93.5964 67.2C93.6231 66.5733 93.7164 65.9733 93.8764 65.4C94.0497 64.8267 94.3031 64.3133 94.6364 63.86C94.9831 63.4067 95.4231 63.0533 95.9564 62.8C96.4897 62.5333 97.1297 62.4 97.8764 62.4C98.6764 62.4 99.3364 62.5533 99.8564 62.86C100.39 63.1533 100.823 63.5133 101.156 63.94V63.08C101.156 62.9467 101.196 62.8333 101.276 62.74C101.37 62.6467 101.483 62.6 101.616 62.6H102.536C102.67 62.6 102.783 62.6467 102.876 62.74C102.97 62.8333 103.016 62.9467 103.016 63.08V72.78C103.016 73.6733 102.863 74.4667 102.556 75.16C102.263 75.8533 101.77 76.4 101.076 76.8C100.396 77.2 99.4764 77.4 98.3164 77.4ZM98.2764 71.48C98.9431 71.48 99.4764 71.3267 99.8764 71.02C100.29 70.7133 100.59 70.3267 100.776 69.86C100.976 69.3933 101.083 68.92 101.096 68.44C101.11 68.2533 101.116 68.0267 101.116 67.76C101.116 67.48 101.11 67.2467 101.096 67.06C101.083 66.58 100.976 66.1067 100.776 65.64C100.59 65.1733 100.29 64.7867 99.8764 64.48C99.4764 64.1733 98.9431 64.02 98.2764 64.02C97.6097 64.02 97.0764 64.1733 96.6764 64.48C96.2764 64.7733 95.9897 65.1667 95.8164 65.66C95.6431 66.14 95.5431 66.66 95.5164 67.22C95.5031 67.5667 95.5031 67.92 95.5164 68.28C95.5431 68.84 95.6431 69.3667 95.8164 69.86C95.9897 70.34 96.2764 70.7333 96.6764 71.04C97.0764 71.3333 97.6097 71.48 98.2764 71.48ZM110.13 73.2C108.757 73.2 107.663 72.78 106.85 71.94C106.037 71.0867 105.59 69.9267 105.51 68.46C105.497 68.2867 105.49 68.0667 105.49 67.8C105.49 67.52 105.497 67.2933 105.51 67.12C105.563 66.1733 105.783 65.3467 106.17 64.64C106.557 63.92 107.083 63.3667 107.75 62.98C108.43 62.5933 109.223 62.4 110.13 62.4C111.143 62.4 111.99 62.6133 112.67 63.04C113.363 63.4667 113.89 64.0733 114.25 64.86C114.61 65.6467 114.79 66.5667 114.79 67.62V67.96C114.79 68.1067 114.743 68.22 114.65 68.3C114.57 68.38 114.463 68.42 114.33 68.42H107.41C107.41 68.4333 107.41 68.46 107.41 68.5C107.41 68.54 107.41 68.5733 107.41 68.6C107.437 69.1467 107.557 69.66 107.77 70.14C107.983 70.6067 108.29 70.9867 108.69 71.28C109.09 71.5733 109.57 71.72 110.13 71.72C110.61 71.72 111.01 71.6467 111.33 71.5C111.65 71.3533 111.91 71.1933 112.11 71.02C112.31 70.8333 112.443 70.6933 112.51 70.6C112.63 70.4267 112.723 70.3267 112.79 70.3C112.857 70.26 112.963 70.24 113.11 70.24H114.07C114.203 70.24 114.31 70.28 114.39 70.36C114.483 70.4267 114.523 70.5267 114.51 70.66C114.497 70.86 114.39 71.1067 114.19 71.4C113.99 71.68 113.703 71.96 113.33 72.24C112.957 72.52 112.503 72.7533 111.97 72.94C111.437 73.1133 110.823 73.2 110.13 73.2ZM107.41 67.04H112.89V66.98C112.89 66.38 112.777 65.8467 112.55 65.38C112.337 64.9133 112.023 64.5467 111.61 64.28C111.197 64 110.703 63.86 110.13 63.86C109.557 63.86 109.063 64 108.65 64.28C108.25 64.5467 107.943 64.9133 107.73 65.38C107.517 65.8467 107.41 66.38 107.41 66.98V67.04ZM107.41 61.1C107.21 61.1 107.11 61.02 107.11 60.86C107.11 60.7533 107.183 60.6267 107.33 60.48L109.17 58.64C109.303 58.4933 109.417 58.4133 109.51 58.4C109.617 58.3733 109.723 58.36 109.83 58.36H110.43C110.55 58.36 110.657 58.3733 110.75 58.4C110.843 58.4133 110.957 58.4933 111.09 58.64L112.93 60.48C113.063 60.6267 113.13 60.7533 113.13 60.86C113.13 61.02 113.037 61.1 112.85 61.1H112.33C112.237 61.1 112.137 61.0867 112.03 61.06C111.923 61.0333 111.837 61 111.77 60.96L110.13 59.82L108.49 60.96C108.41 61 108.317 61.0333 108.21 61.06C108.117 61.0867 108.023 61.1 107.93 61.1H107.41ZM117.641 73C117.508 73 117.395 72.96 117.301 72.88C117.221 72.7867 117.181 72.6733 117.181 72.54V63.06C117.181 62.9267 117.221 62.82 117.301 62.74C117.395 62.6467 117.508 62.6 117.641 62.6H118.581C118.715 62.6 118.821 62.6467 118.901 62.74C118.995 62.82 119.041 62.9267 119.041 63.06V63.94C119.388 63.4867 119.821 63.12 120.341 62.84C120.875 62.5467 121.555 62.4 122.381 62.4C123.248 62.4 123.981 62.5933 124.581 62.98C125.195 63.3533 125.655 63.88 125.961 64.56C126.268 65.2267 126.421 66.0067 126.421 66.9V72.54C126.421 72.6733 126.381 72.7867 126.301 72.88C126.221 72.96 126.115 73 125.981 73H124.981C124.848 73 124.735 72.96 124.641 72.88C124.561 72.7867 124.521 72.6733 124.521 72.54V67C124.521 66.0667 124.295 65.34 123.841 64.82C123.388 64.2867 122.721 64.02 121.841 64.02C121.015 64.02 120.348 64.2867 119.841 64.82C119.348 65.34 119.101 66.0667 119.101 67V72.54C119.101 72.6733 119.055 72.7867 118.961 72.88C118.881 72.96 118.775 73 118.641 73H117.641ZM133.51 73.2C132.564 73.2 131.744 73.02 131.05 72.66C130.37 72.2867 129.844 71.76 129.47 71.08C129.097 70.3867 128.897 69.56 128.87 68.6C128.857 68.4 128.85 68.1333 128.85 67.8C128.85 67.4667 128.857 67.2 128.87 67C128.897 66.04 129.097 65.22 129.47 64.54C129.844 63.8467 130.37 63.32 131.05 62.96C131.744 62.5867 132.564 62.4 133.51 62.4C134.284 62.4 134.944 62.5067 135.49 62.72C136.05 62.9333 136.51 63.2067 136.87 63.54C137.23 63.8733 137.497 64.2333 137.67 64.62C137.857 65.0067 137.957 65.3733 137.97 65.72C137.984 65.8533 137.944 65.96 137.85 66.04C137.757 66.12 137.644 66.16 137.51 66.16H136.55C136.417 66.16 136.317 66.1333 136.25 66.08C136.184 66.0133 136.117 65.9067 136.05 65.76C135.81 65.1067 135.484 64.6467 135.07 64.38C134.657 64.1133 134.144 63.98 133.53 63.98C132.73 63.98 132.077 64.2267 131.57 64.72C131.077 65.2133 130.81 66.0067 130.77 67.1C130.757 67.58 130.757 68.0467 130.77 68.5C130.81 69.6067 131.077 70.4067 131.57 70.9C132.077 71.38 132.73 71.62 133.53 71.62C134.144 71.62 134.657 71.4867 135.07 71.22C135.484 70.9533 135.81 70.4933 136.05 69.84C136.117 69.6933 136.184 69.5933 136.25 69.54C136.317 69.4733 136.417 69.44 136.55 69.44H137.51C137.644 69.44 137.757 69.48 137.85 69.56C137.944 69.64 137.984 69.7467 137.97 69.88C137.957 70.16 137.897 70.4467 137.79 70.74C137.684 71.0333 137.51 71.3333 137.27 71.64C137.044 71.9333 136.757 72.2 136.41 72.44C136.064 72.6667 135.644 72.8533 135.15 73C134.67 73.1333 134.124 73.2 133.51 73.2ZM140.805 73C140.672 73 140.559 72.96 140.465 72.88C140.385 72.7867 140.345 72.6733 140.345 72.54V63.06C140.345 62.9267 140.385 62.82 140.465 62.74C140.559 62.6467 140.672 62.6 140.805 62.6H141.765C141.899 62.6 142.005 62.6467 142.085 62.74C142.165 62.82 142.205 62.9267 142.205 63.06V72.54C142.205 72.6733 142.165 72.7867 142.085 72.88C142.005 72.96 141.899 73 141.765 73H140.805ZM140.645 60.66C140.512 60.66 140.399 60.62 140.305 60.54C140.225 60.4467 140.185 60.3333 140.185 60.2V59.12C140.185 58.9867 140.225 58.88 140.305 58.8C140.399 58.7067 140.512 58.66 140.645 58.66H141.905C142.039 58.66 142.145 58.7067 142.225 58.8C142.319 58.88 142.365 58.9867 142.365 59.12V60.2C142.365 60.3333 142.319 60.4467 142.225 60.54C142.145 60.62 142.039 60.66 141.905 60.66H140.645ZM148.089 73.2C147.423 73.2 146.816 73.0667 146.269 72.8C145.723 72.5333 145.283 72.1733 144.949 71.72C144.616 71.2667 144.449 70.7533 144.449 70.18C144.449 69.26 144.823 68.5267 145.569 67.98C146.316 67.4333 147.289 67.0733 148.489 66.9L151.469 66.48V65.9C151.469 65.26 151.283 64.76 150.909 64.4C150.549 64.04 149.956 63.86 149.129 63.86C148.529 63.86 148.043 63.98 147.669 64.22C147.309 64.46 147.056 64.7667 146.909 65.14C146.829 65.34 146.689 65.44 146.489 65.44H145.589C145.443 65.44 145.329 65.4 145.249 65.32C145.183 65.2267 145.149 65.12 145.149 65C145.149 64.8 145.223 64.5533 145.369 64.26C145.529 63.9667 145.769 63.68 146.089 63.4C146.409 63.12 146.816 62.8867 147.309 62.7C147.816 62.5 148.429 62.4 149.149 62.4C149.949 62.4 150.623 62.5067 151.169 62.72C151.716 62.92 152.143 63.1933 152.449 63.54C152.769 63.8867 152.996 64.28 153.129 64.72C153.276 65.16 153.349 65.6067 153.349 66.06V72.54C153.349 72.6733 153.303 72.7867 153.209 72.88C153.129 72.96 153.023 73 152.889 73H151.969C151.823 73 151.709 72.96 151.629 72.88C151.549 72.7867 151.509 72.6733 151.509 72.54V71.68C151.336 71.92 151.103 72.16 150.809 72.4C150.516 72.6267 150.149 72.82 149.709 72.98C149.269 73.1267 148.729 73.2 148.089 73.2ZM148.509 71.7C149.056 71.7 149.556 71.5867 150.009 71.36C150.463 71.12 150.816 70.7533 151.069 70.26C151.336 69.7667 151.469 69.1467 151.469 68.4V67.84L149.149 68.18C148.203 68.3133 147.489 68.54 147.009 68.86C146.529 69.1667 146.289 69.56 146.289 70.04C146.289 70.4133 146.396 70.7267 146.609 70.98C146.836 71.22 147.116 71.4 147.449 71.52C147.796 71.64 148.149 71.7 148.509 71.7ZM67.7159 97C67.5825 97 67.4692 96.96 67.3759 96.88C67.2959 96.7867 67.2559 96.6733 67.2559 96.54V83.48C67.2559 83.3333 67.2959 83.22 67.3759 83.14C67.4692 83.0467 67.5825 83 67.7159 83H68.7159C68.8759 83 68.9959 83.04 69.0759 83.12C69.1559 83.2 69.2025 83.2667 69.2159 83.32L73.4559 91.4L77.7159 83.32C77.7425 83.2667 77.7892 83.2 77.8559 83.12C77.9359 83.04 78.0559 83 78.2159 83H79.1959C79.3425 83 79.4559 83.0467 79.5359 83.14C79.6292 83.22 79.6759 83.3333 79.6759 83.48V96.54C79.6759 96.6733 79.6292 96.7867 79.5359 96.88C79.4559 96.96 79.3425 97 79.1959 97H78.2159C78.0825 97 77.9692 96.96 77.8759 96.88C77.7959 96.7867 77.7559 96.6733 77.7559 96.54V86.7L74.4159 93.22C74.3625 93.3533 74.2825 93.46 74.1759 93.54C74.0692 93.6067 73.9359 93.64 73.7759 93.64H73.1559C72.9825 93.64 72.8425 93.6067 72.7359 93.54C72.6425 93.46 72.5625 93.3533 72.4959 93.22L69.1559 86.7V96.54C69.1559 96.6733 69.1092 96.7867 69.0159 96.88C68.9359 96.96 68.8292 97 68.6959 97H67.7159ZM86.7548 97.2C85.9014 97.2 85.1748 97.0133 84.5748 96.64C83.9881 96.2533 83.5414 95.72 83.2348 95.04C82.9281 94.36 82.7748 93.58 82.7748 92.7V87.06C82.7748 86.9267 82.8148 86.82 82.8948 86.74C82.9881 86.6467 83.1014 86.6 83.2348 86.6H84.2348C84.3681 86.6 84.4748 86.6467 84.5548 86.74C84.6481 86.82 84.6948 86.9267 84.6948 87.06V92.6C84.6948 94.5867 85.5614 95.58 87.2948 95.58C88.1214 95.58 88.7814 95.32 89.2748 94.8C89.7814 94.2667 90.0348 93.5333 90.0348 92.6V87.06C90.0348 86.9267 90.0748 86.82 90.1548 86.74C90.2481 86.6467 90.3614 86.6 90.4948 86.6H91.4748C91.6214 86.6 91.7348 86.6467 91.8148 86.74C91.8948 86.82 91.9348 86.9267 91.9348 87.06V96.54C91.9348 96.6733 91.8948 96.7867 91.8148 96.88C91.7348 96.96 91.6214 97 91.4748 97H90.5548C90.4214 97 90.3081 96.96 90.2148 96.88C90.1348 96.7867 90.0948 96.6733 90.0948 96.54V95.66C89.7348 96.1267 89.2948 96.5 88.7748 96.78C88.2681 97.06 87.5948 97.2 86.7548 97.2ZM98.506 97.2C97.7594 97.2 97.1194 97.1067 96.586 96.92C96.0527 96.7333 95.6194 96.5067 95.286 96.24C94.9527 95.9733 94.6994 95.7067 94.526 95.44C94.366 95.1733 94.2794 94.96 94.266 94.8C94.2527 94.6533 94.2994 94.54 94.406 94.46C94.5127 94.38 94.6194 94.34 94.726 94.34H95.606C95.686 94.34 95.746 94.3533 95.786 94.38C95.8394 94.3933 95.906 94.4467 95.986 94.54C96.1594 94.7267 96.3527 94.9133 96.566 95.1C96.7794 95.2867 97.0394 95.44 97.346 95.56C97.666 95.68 98.0594 95.74 98.526 95.74C99.206 95.74 99.766 95.6133 100.206 95.36C100.646 95.0933 100.866 94.7067 100.866 94.2C100.866 93.8667 100.773 93.6 100.586 93.4C100.413 93.2 100.093 93.02 99.626 92.86C99.1727 92.7 98.546 92.5333 97.746 92.36C96.946 92.1733 96.3127 91.9467 95.846 91.68C95.3794 91.4 95.046 91.0733 94.846 90.7C94.646 90.3133 94.546 89.88 94.546 89.4C94.546 88.9067 94.6927 88.4333 94.986 87.98C95.2794 87.5133 95.706 87.1333 96.266 86.84C96.8394 86.5467 97.5527 86.4 98.406 86.4C99.0994 86.4 99.6927 86.4867 100.186 86.66C100.679 86.8333 101.086 87.0533 101.406 87.32C101.726 87.5733 101.966 87.8267 102.126 88.08C102.286 88.3333 102.373 88.5467 102.386 88.72C102.399 88.8533 102.359 88.9667 102.266 89.06C102.173 89.14 102.066 89.18 101.946 89.18H101.106C101.013 89.18 100.933 89.16 100.866 89.12C100.813 89.08 100.759 89.0333 100.706 88.98C100.573 88.8067 100.413 88.6333 100.226 88.46C100.053 88.2867 99.8194 88.1467 99.526 88.04C99.246 87.92 98.8727 87.86 98.406 87.86C97.7394 87.86 97.2394 88 96.906 88.28C96.5727 88.56 96.406 88.9133 96.406 89.34C96.406 89.5933 96.4794 89.82 96.626 90.02C96.7727 90.22 97.0527 90.4 97.466 90.56C97.8794 90.72 98.4927 90.8933 99.306 91.08C100.186 91.2533 100.879 91.4867 101.386 91.78C101.893 92.0733 102.253 92.4133 102.466 92.8C102.679 93.1867 102.786 93.6333 102.786 94.14C102.786 94.7 102.619 95.2133 102.286 95.68C101.966 96.1467 101.486 96.52 100.846 96.8C100.219 97.0667 99.4394 97.2 98.506 97.2ZM105.561 97C105.428 97 105.315 96.96 105.221 96.88C105.141 96.7867 105.101 96.6733 105.101 96.54V87.06C105.101 86.9267 105.141 86.82 105.221 86.74C105.315 86.6467 105.428 86.6 105.561 86.6H106.521C106.655 86.6 106.761 86.6467 106.841 86.74C106.921 86.82 106.961 86.9267 106.961 87.06V96.54C106.961 96.6733 106.921 96.7867 106.841 96.88C106.761 96.96 106.655 97 106.521 97H105.561ZM105.401 84.66C105.268 84.66 105.155 84.62 105.061 84.54C104.981 84.4467 104.941 84.3333 104.941 84.2V83.12C104.941 82.9867 104.981 82.88 105.061 82.8C105.155 82.7067 105.268 82.66 105.401 82.66H106.661C106.795 82.66 106.901 82.7067 106.981 82.8C107.075 82.88 107.121 82.9867 107.121 83.12V84.2C107.121 84.3333 107.075 84.4467 106.981 84.54C106.901 84.62 106.795 84.66 106.661 84.66H105.401ZM114.184 97.2C113.237 97.2 112.417 97.02 111.724 96.66C111.044 96.2867 110.517 95.76 110.144 95.08C109.771 94.3867 109.571 93.56 109.544 92.6C109.531 92.4 109.524 92.1333 109.524 91.8C109.524 91.4667 109.531 91.2 109.544 91C109.571 90.04 109.771 89.22 110.144 88.54C110.517 87.8467 111.044 87.32 111.724 86.96C112.417 86.5867 113.237 86.4 114.184 86.4C114.957 86.4 115.617 86.5067 116.164 86.72C116.724 86.9333 117.184 87.2067 117.544 87.54C117.904 87.8733 118.171 88.2333 118.344 88.62C118.531 89.0067 118.631 89.3733 118.644 89.72C118.657 89.8533 118.617 89.96 118.524 90.04C118.431 90.12 118.317 90.16 118.184 90.16H117.224C117.091 90.16 116.991 90.1333 116.924 90.08C116.857 90.0133 116.791 89.9067 116.724 89.76C116.484 89.1067 116.157 88.6467 115.744 88.38C115.331 88.1133 114.817 87.98 114.204 87.98C113.404 87.98 112.751 88.2267 112.244 88.72C111.751 89.2133 111.484 90.0067 111.444 91.1C111.431 91.58 111.431 92.0467 111.444 92.5C111.484 93.6067 111.751 94.4067 112.244 94.9C112.751 95.38 113.404 95.62 114.204 95.62C114.817 95.62 115.331 95.4867 115.744 95.22C116.157 94.9533 116.484 94.4933 116.724 93.84C116.791 93.6933 116.857 93.5933 116.924 93.54C116.991 93.4733 117.091 93.44 117.224 93.44H118.184C118.317 93.44 118.431 93.48 118.524 93.56C118.617 93.64 118.657 93.7467 118.644 93.88C118.631 94.16 118.571 94.4467 118.464 94.74C118.357 95.0333 118.184 95.3333 117.944 95.64C117.717 95.9333 117.431 96.2 117.084 96.44C116.737 96.6667 116.317 96.8533 115.824 97C115.344 97.1333 114.797 97.2 114.184 97.2ZM123.919 97.2C123.253 97.2 122.646 97.0667 122.099 96.8C121.553 96.5333 121.113 96.1733 120.779 95.72C120.446 95.2667 120.279 94.7533 120.279 94.18C120.279 93.26 120.653 92.5267 121.399 91.98C122.146 91.4333 123.119 91.0733 124.319 90.9L127.299 90.48V89.9C127.299 89.26 127.113 88.76 126.739 88.4C126.379 88.04 125.786 87.86 124.959 87.86C124.359 87.86 123.873 87.98 123.499 88.22C123.139 88.46 122.886 88.7667 122.739 89.14C122.659 89.34 122.519 89.44 122.319 89.44H121.419C121.273 89.44 121.159 89.4 121.079 89.32C121.013 89.2267 120.979 89.12 120.979 89C120.979 88.8 121.053 88.5533 121.199 88.26C121.359 87.9667 121.599 87.68 121.919 87.4C122.239 87.12 122.646 86.8867 123.139 86.7C123.646 86.5 124.259 86.4 124.979 86.4C125.779 86.4 126.453 86.5067 126.999 86.72C127.546 86.92 127.973 87.1933 128.279 87.54C128.599 87.8867 128.826 88.28 128.959 88.72C129.106 89.16 129.179 89.6067 129.179 90.06V96.54C129.179 96.6733 129.133 96.7867 129.039 96.88C128.959 96.96 128.853 97 128.719 97H127.799C127.653 97 127.539 96.96 127.459 96.88C127.379 96.7867 127.339 96.6733 127.339 96.54V95.68C127.166 95.92 126.933 96.16 126.639 96.4C126.346 96.6267 125.979 96.82 125.539 96.98C125.099 97.1267 124.559 97.2 123.919 97.2ZM124.339 95.7C124.886 95.7 125.386 95.5867 125.839 95.36C126.293 95.12 126.646 94.7533 126.899 94.26C127.166 93.7667 127.299 93.1467 127.299 92.4V91.84L124.979 92.18C124.033 92.3133 123.319 92.54 122.839 92.86C122.359 93.1667 122.119 93.56 122.119 94.04C122.119 94.4133 122.226 94.7267 122.439 94.98C122.666 95.22 122.946 95.4 123.279 95.52C123.626 95.64 123.979 95.7 124.339 95.7ZM132.534 97C132.401 97 132.288 96.96 132.194 96.88C132.114 96.7867 132.074 96.6733 132.074 96.54V83.26C132.074 83.1267 132.114 83.02 132.194 82.94C132.288 82.8467 132.401 82.8 132.534 82.8H133.474C133.621 82.8 133.734 82.8467 133.814 82.94C133.894 83.02 133.934 83.1267 133.934 83.26V96.54C133.934 96.6733 133.894 96.7867 133.814 96.88C133.734 96.96 133.621 97 133.474 97H132.534Z" fill="black"/>
<path d="M101.477 14C77.6902 15.2975 48.6102 6.3446 27.0879 20.1111C12.916 29.176 6.22089 45.8091 8.7546 62.3333C10.931 76.5272 25.358 84.6647 33.699 95.3889C41.3476 105.223 47.0723 117.251 56.9213 125.167C73.5356 138.52 93.3382 146.296 114.643 146.5C123.51 146.585 132.402 146.189 140.366 141.889C145.528 139.101 150.063 135.079 155.143 132.111C164.291 126.766 176.943 123.259 182.755 113.722C190.407 101.164 190.547 80.1046 186.81 66.1111C182.324 49.3127 171.742 41.6584 155.921 37.7778C142.224 34.418 125.075 34.1222 114.255 24.2222C110.578 20.8583 106.638 17.7741 102.477 15" stroke="#2723EB" stroke-width="3" stroke-linecap="round"/>
<path d="M174.477 15C167.293 25.3451 150.36 27.6222 138.81 28.5556C107.616 31.0763 77.7315 21.0327 46.9212 19.0556C37.0005 18.4189 26.8825 17.5884 16.9212 18C7.18633 18.4023 4.14904 29.0971 2.58789 37.4444C-0.358362 53.1979 8.39913 66.7928 14.8657 80.4444C23.5266 98.7286 33.3467 115.348 45.3657 131.667C61.5988 153.707 79.3137 169.29 107.588 164.222C136.475 159.044 151.183 136.443 158.921 110.222C165.057 89.4305 167.996 67.405 171.421 46C172.831 37.1916 174.213 30.2102 171.477 22" stroke="#F12430" stroke-width="3" stroke-linecap="round"/>
<path d="M191.477 101C188.555 96.1299 183.918 92.1719 180.588 87.5556C173.798 78.1436 169.026 67.698 161.643 58.6667C151.349 46.0721 140.414 33.7635 128.088 23.1111C120.555 16.6015 112.513 10.2819 102.588 8.33335C84.9424 4.86919 61.5686 -2.08194 44.699 7.50001C16.0202 23.7896 9.40078 62.1399 5.36568 91.8889C1.02411 123.897 8.50141 165.03 45.9212 171.444C66.2637 174.932 92.014 172.535 111.477 165.111C144.531 152.503 165.021 110.278 171.477 78" stroke="#F5ED28" stroke-width="3" stroke-linecap="round"/>
<path d="M166.477 92C166.477 78.1955 164.802 65.205 159.366 52.3333C149.041 27.8855 118.45 22.9286 94.6991 20.6667C70.5174 18.3636 48.7023 26.2533 31.3102 43.1667C8.59553 65.2562 9.41973 102.767 28.6991 127.111C46.8725 150.059 81.3828 163.122 109.921 165.556C117.491 166.201 127.538 167.378 134.81 164.444C144.936 160.36 150.35 147.501 153.088 137.833C157.847 121.028 161.073 104.022 164.477 87" stroke="#33E64F" stroke-width="3" stroke-linecap="round"/>
<path d="M132.477 25C92.8858 25 28.2659 23.4162 16.5879 73C12.9884 88.2832 15.0892 100.295 27.3657 111.444C48.1574 130.327 75.7586 141.812 102.921 147.556C112.365 149.552 125.087 152.116 134.477 148.111C148.712 142.039 157.042 124.952 162.255 111.333C167.363 97.988 172.551 82.6842 170.81 68.2222C168.986 53.0694 163.291 45.3866 151.81 35.8889C145.555 30.7143 139.375 28.3163 131.477 27" stroke="#EF33DC" stroke-width="3" stroke-linecap="round"/>
</svg>
