<svg width="196" height="168" viewBox="0 0 196 168" fill="none" xmlns="http://www.w3.org/2000/svg">
<rect x="18.6348" y="3.22253" width="150" height="150" fill="white"/>
<path d="M41.5672 67.2225C41.4205 67.2225 41.3072 67.1825 41.2272 67.1025C41.1472 67.0092 41.1072 66.8959 41.1072 66.7625V53.6825C41.1072 53.5492 41.1472 53.4425 41.2272 53.3625C41.3072 53.2692 41.4205 53.2225 41.5672 53.2225H42.6272C42.7605 53.2225 42.8672 53.2692 42.9472 53.3625C43.0405 53.4425 43.0872 53.5492 43.0872 53.6825V66.7625C43.0872 66.8959 43.0405 67.0092 42.9472 67.1025C42.8672 67.1825 42.7605 67.2225 42.6272 67.2225H41.5672ZM46.7759 67.2225C46.6426 67.2225 46.5293 67.1825 46.4359 67.1025C46.3559 67.0092 46.3159 66.8959 46.3159 66.7625V57.2825C46.3159 57.1492 46.3559 57.0425 46.4359 56.9625C46.5293 56.8692 46.6426 56.8225 46.7759 56.8225H47.7159C47.8493 56.8225 47.9559 56.8692 48.0359 56.9625C48.1293 57.0425 48.1759 57.1492 48.1759 57.2825V58.1625C48.5226 57.7092 48.9559 57.3425 49.4759 57.0625C50.0093 56.7692 50.6893 56.6225 51.5159 56.6225C52.3826 56.6225 53.1159 56.8159 53.7159 57.2025C54.3293 57.5759 54.7893 58.1025 55.0959 58.7825C55.4026 59.4492 55.5559 60.2292 55.5559 61.1225V66.7625C55.5559 66.8959 55.5159 67.0092 55.4359 67.1025C55.3559 67.1825 55.2493 67.2225 55.1159 67.2225H54.1159C53.9826 67.2225 53.8693 67.1825 53.7759 67.1025C53.6959 67.0092 53.6559 66.8959 53.6559 66.7625V61.2225C53.6559 60.2892 53.4293 59.5625 52.9759 59.0425C52.5226 58.5092 51.8559 58.2425 50.9759 58.2425C50.1493 58.2425 49.4826 58.5092 48.9759 59.0425C48.4826 59.5625 48.2359 60.2892 48.2359 61.2225V66.7625C48.2359 66.8959 48.1893 67.0092 48.0959 67.1025C48.0159 67.1825 47.9093 67.2225 47.7759 67.2225H46.7759ZM62.3681 67.2225C61.6215 67.2225 61.0148 67.0825 60.5481 66.8025C60.0815 66.5092 59.7415 66.1025 59.5281 65.5825C59.3148 65.0492 59.2081 64.4225 59.2081 63.7025V58.4225H57.6481C57.5148 58.4225 57.4015 58.3825 57.3081 58.3025C57.2281 58.2092 57.1881 58.0959 57.1881 57.9625V57.2825C57.1881 57.1492 57.2281 57.0425 57.3081 56.9625C57.4015 56.8692 57.5148 56.8225 57.6481 56.8225H59.2081V53.4825C59.2081 53.3492 59.2481 53.2425 59.3281 53.1625C59.4215 53.0692 59.5348 53.0225 59.6681 53.0225H60.6081C60.7415 53.0225 60.8481 53.0692 60.9281 53.1625C61.0215 53.2425 61.0681 53.3492 61.0681 53.4825V56.8225H63.5481C63.6815 56.8225 63.7881 56.8692 63.8681 56.9625C63.9615 57.0425 64.0081 57.1492 64.0081 57.2825V57.9625C64.0081 58.0959 63.9615 58.2092 63.8681 58.3025C63.7881 58.3825 63.6815 58.4225 63.5481 58.4225H61.0681V63.5625C61.0681 64.1892 61.1748 64.6825 61.3881 65.0425C61.6015 65.4025 61.9815 65.5825 62.5281 65.5825H63.7481C63.8815 65.5825 63.9881 65.6292 64.0681 65.7225C64.1615 65.8025 64.2081 65.9092 64.2081 66.0425V66.7625C64.2081 66.8959 64.1615 67.0092 64.0681 67.1025C63.9881 67.1825 63.8815 67.2225 63.7481 67.2225H62.3681ZM70.2606 67.4225C68.8873 67.4225 67.794 67.0025 66.9806 66.1625C66.1673 65.3092 65.7206 64.1492 65.6406 62.6825C65.6273 62.5092 65.6206 62.2892 65.6206 62.0225C65.6206 61.7425 65.6273 61.5159 65.6406 61.3425C65.694 60.3959 65.914 59.5692 66.3006 58.8625C66.6873 58.1425 67.214 57.5892 67.8806 57.2025C68.5606 56.8159 69.354 56.6225 70.2606 56.6225C71.274 56.6225 72.1206 56.8359 72.8006 57.2625C73.494 57.6892 74.0206 58.2959 74.3806 59.0825C74.7406 59.8692 74.9206 60.7892 74.9206 61.8425V62.1825C74.9206 62.3292 74.874 62.4425 74.7806 62.5225C74.7006 62.6025 74.594 62.6425 74.4606 62.6425H67.5406C67.5406 62.6559 67.5406 62.6825 67.5406 62.7225C67.5406 62.7625 67.5406 62.7959 67.5406 62.8225C67.5673 63.3692 67.6873 63.8825 67.9006 64.3625C68.114 64.8292 68.4206 65.2092 68.8206 65.5025C69.2206 65.7959 69.7006 65.9425 70.2606 65.9425C70.7406 65.9425 71.1406 65.8692 71.4606 65.7225C71.7806 65.5759 72.0406 65.4159 72.2406 65.2425C72.4406 65.0559 72.574 64.9159 72.6406 64.8225C72.7606 64.6492 72.854 64.5492 72.9206 64.5225C72.9873 64.4825 73.094 64.4625 73.2406 64.4625H74.2006C74.334 64.4625 74.4406 64.5025 74.5206 64.5825C74.614 64.6492 74.654 64.7492 74.6406 64.8825C74.6273 65.0825 74.5206 65.3292 74.3206 65.6225C74.1206 65.9025 73.834 66.1825 73.4606 66.4625C73.0873 66.7425 72.634 66.9759 72.1006 67.1625C71.5673 67.3359 70.954 67.4225 70.2606 67.4225ZM67.5406 61.2625H73.0206V61.2025C73.0206 60.6025 72.9073 60.0692 72.6806 59.6025C72.4673 59.1359 72.154 58.7692 71.7406 58.5025C71.3273 58.2225 70.834 58.0825 70.2606 58.0825C69.6873 58.0825 69.194 58.2225 68.7806 58.5025C68.3806 58.7692 68.074 59.1359 67.8606 59.6025C67.6473 60.0692 67.5406 60.6025 67.5406 61.2025V61.2625ZM77.792 67.2225C77.6587 67.2225 77.5454 67.1825 77.452 67.1025C77.372 67.0092 77.332 66.8959 77.332 66.7625V53.4825C77.332 53.3492 77.372 53.2425 77.452 53.1625C77.5454 53.0692 77.6587 53.0225 77.792 53.0225H78.732C78.8787 53.0225 78.992 53.0692 79.072 53.1625C79.152 53.2425 79.192 53.3492 79.192 53.4825V66.7625C79.192 66.8959 79.152 67.0092 79.072 67.1025C78.992 67.1825 78.8787 67.2225 78.732 67.2225H77.792ZM82.8306 67.2225C82.6973 67.2225 82.584 67.1825 82.4906 67.1025C82.4106 67.0092 82.3706 66.8959 82.3706 66.7625V57.2825C82.3706 57.1492 82.4106 57.0425 82.4906 56.9625C82.584 56.8692 82.6973 56.8225 82.8306 56.8225H83.7906C83.924 56.8225 84.0306 56.8692 84.1106 56.9625C84.1906 57.0425 84.2306 57.1492 84.2306 57.2825V66.7625C84.2306 66.8959 84.1906 67.0092 84.1106 67.1025C84.0306 67.1825 83.924 67.2225 83.7906 67.2225H82.8306ZM82.6706 54.8825C82.5373 54.8825 82.424 54.8425 82.3306 54.7625C82.2506 54.6692 82.2106 54.5559 82.2106 54.4225V53.3425C82.2106 53.2092 82.2506 53.1025 82.3306 53.0225C82.424 52.9292 82.5373 52.8825 82.6706 52.8825H83.9306C84.064 52.8825 84.1706 52.9292 84.2506 53.0225C84.344 53.1025 84.3906 53.2092 84.3906 53.3425V54.4225C84.3906 54.5559 84.344 54.6692 84.2506 54.7625C84.1706 54.8425 84.064 54.8825 83.9306 54.8825H82.6706ZM91.4744 71.6225C90.5677 71.6225 89.821 71.5025 89.2344 71.2625C88.661 71.0225 88.2077 70.7292 87.8744 70.3825C87.5544 70.0492 87.321 69.7092 87.1744 69.3625C87.041 69.0292 86.9677 68.7625 86.9544 68.5625C86.941 68.4292 86.981 68.3159 87.0744 68.2225C87.181 68.1292 87.2944 68.0825 87.4144 68.0825H88.3744C88.4944 68.0825 88.5944 68.1092 88.6744 68.1625C88.7544 68.2159 88.821 68.3292 88.8744 68.5025C88.9544 68.7025 89.0744 68.9225 89.2344 69.1625C89.3944 69.4159 89.641 69.6292 89.9744 69.8025C90.3077 69.9892 90.7744 70.0825 91.3744 70.0825C92.001 70.0825 92.5277 69.9959 92.9544 69.8225C93.381 69.6625 93.701 69.3692 93.9144 68.9425C94.141 68.5292 94.2544 67.9559 94.2544 67.2225V65.8625C93.9344 66.2759 93.5144 66.6225 92.9944 66.9025C92.4744 67.1692 91.821 67.3025 91.0344 67.3025C90.2877 67.3025 89.6477 67.1759 89.1144 66.9225C88.581 66.6559 88.141 66.3025 87.7944 65.8625C87.461 65.4092 87.2077 64.8959 87.0344 64.3225C86.8744 63.7492 86.781 63.1492 86.7544 62.5225C86.741 62.1492 86.741 61.7825 86.7544 61.4225C86.781 60.7959 86.8744 60.1959 87.0344 59.6225C87.2077 59.0492 87.461 58.5359 87.7944 58.0825C88.141 57.6292 88.581 57.2759 89.1144 57.0225C89.6477 56.7559 90.2877 56.6225 91.0344 56.6225C91.8344 56.6225 92.4944 56.7759 93.0144 57.0825C93.5477 57.3759 93.981 57.7359 94.3144 58.1625V57.3025C94.3144 57.1692 94.3544 57.0559 94.4344 56.9625C94.5277 56.8692 94.641 56.8225 94.7744 56.8225H95.6944C95.8277 56.8225 95.941 56.8692 96.0344 56.9625C96.1277 57.0559 96.1744 57.1692 96.1744 57.3025V67.0025C96.1744 67.8959 96.021 68.6892 95.7144 69.3825C95.421 70.0759 94.9277 70.6225 94.2344 71.0225C93.5544 71.4225 92.6344 71.6225 91.4744 71.6225ZM91.4344 65.7025C92.101 65.7025 92.6344 65.5492 93.0344 65.2425C93.4477 64.9359 93.7477 64.5492 93.9344 64.0825C94.1344 63.6159 94.241 63.1425 94.2544 62.6625C94.2677 62.4759 94.2744 62.2492 94.2744 61.9825C94.2744 61.7025 94.2677 61.4692 94.2544 61.2825C94.241 60.8025 94.1344 60.3292 93.9344 59.8625C93.7477 59.3959 93.4477 59.0092 93.0344 58.7025C92.6344 58.3959 92.101 58.2425 91.4344 58.2425C90.7677 58.2425 90.2344 58.3959 89.8344 58.7025C89.4344 58.9959 89.1477 59.3892 88.9744 59.8825C88.801 60.3625 88.701 60.8825 88.6744 61.4425C88.661 61.7892 88.661 62.1425 88.6744 62.5025C88.701 63.0625 88.801 63.5892 88.9744 64.0825C89.1477 64.5625 89.4344 64.9559 89.8344 65.2625C90.2344 65.5559 90.7677 65.7025 91.4344 65.7025ZM103.288 67.4225C101.915 67.4225 100.821 67.0025 100.008 66.1625C99.1946 65.3092 98.748 64.1492 98.668 62.6825C98.6546 62.5092 98.648 62.2892 98.648 62.0225C98.648 61.7425 98.6546 61.5159 98.668 61.3425C98.7213 60.3959 98.9413 59.5692 99.328 58.8625C99.7146 58.1425 100.241 57.5892 100.908 57.2025C101.588 56.8159 102.381 56.6225 103.288 56.6225C104.301 56.6225 105.148 56.8359 105.828 57.2625C106.521 57.6892 107.048 58.2959 107.408 59.0825C107.768 59.8692 107.948 60.7892 107.948 61.8425V62.1825C107.948 62.3292 107.901 62.4425 107.808 62.5225C107.728 62.6025 107.621 62.6425 107.488 62.6425H100.568C100.568 62.6559 100.568 62.6825 100.568 62.7225C100.568 62.7625 100.568 62.7959 100.568 62.8225C100.595 63.3692 100.715 63.8825 100.928 64.3625C101.141 64.8292 101.448 65.2092 101.848 65.5025C102.248 65.7959 102.728 65.9425 103.288 65.9425C103.768 65.9425 104.168 65.8692 104.488 65.7225C104.808 65.5759 105.068 65.4159 105.268 65.2425C105.468 65.0559 105.601 64.9159 105.668 64.8225C105.788 64.6492 105.881 64.5492 105.948 64.5225C106.015 64.4825 106.121 64.4625 106.268 64.4625H107.228C107.361 64.4625 107.468 64.5025 107.548 64.5825C107.641 64.6492 107.681 64.7492 107.668 64.8825C107.655 65.0825 107.548 65.3292 107.348 65.6225C107.148 65.9025 106.861 66.1825 106.488 66.4625C106.115 66.7425 105.661 66.9759 105.128 67.1625C104.595 67.3359 103.981 67.4225 103.288 67.4225ZM100.568 61.2625H106.048V61.2025C106.048 60.6025 105.935 60.0692 105.708 59.6025C105.495 59.1359 105.181 58.7692 104.768 58.5025C104.355 58.2225 103.861 58.0825 103.288 58.0825C102.715 58.0825 102.221 58.2225 101.808 58.5025C101.408 58.7692 101.101 59.1359 100.888 59.6025C100.675 60.0692 100.568 60.6025 100.568 61.2025V61.2625ZM100.568 55.3225C100.368 55.3225 100.268 55.2425 100.268 55.0825C100.268 54.9759 100.341 54.8492 100.488 54.7025L102.328 52.8625C102.461 52.7159 102.575 52.6359 102.668 52.6225C102.775 52.5959 102.881 52.5825 102.988 52.5825H103.588C103.708 52.5825 103.815 52.5959 103.908 52.6225C104.001 52.6359 104.115 52.7159 104.248 52.8625L106.088 54.7025C106.221 54.8492 106.288 54.9759 106.288 55.0825C106.288 55.2425 106.195 55.3225 106.008 55.3225H105.488C105.395 55.3225 105.295 55.3092 105.188 55.2825C105.081 55.2559 104.995 55.2225 104.928 55.1825L103.288 54.0425L101.648 55.1825C101.568 55.2225 101.475 55.2559 101.368 55.2825C101.275 55.3092 101.181 55.3225 101.088 55.3225H100.568ZM110.799 67.2225C110.666 67.2225 110.553 67.1825 110.459 67.1025C110.379 67.0092 110.339 66.8959 110.339 66.7625V57.2825C110.339 57.1492 110.379 57.0425 110.459 56.9625C110.553 56.8692 110.666 56.8225 110.799 56.8225H111.739C111.873 56.8225 111.979 56.8692 112.059 56.9625C112.153 57.0425 112.199 57.1492 112.199 57.2825V58.1625C112.546 57.7092 112.979 57.3425 113.499 57.0625C114.033 56.7692 114.713 56.6225 115.539 56.6225C116.406 56.6225 117.139 56.8159 117.739 57.2025C118.353 57.5759 118.813 58.1025 119.119 58.7825C119.426 59.4492 119.579 60.2292 119.579 61.1225V66.7625C119.579 66.8959 119.539 67.0092 119.459 67.1025C119.379 67.1825 119.273 67.2225 119.139 67.2225H118.139C118.006 67.2225 117.893 67.1825 117.799 67.1025C117.719 67.0092 117.679 66.8959 117.679 66.7625V61.2225C117.679 60.2892 117.453 59.5625 116.999 59.0425C116.546 58.5092 115.879 58.2425 114.999 58.2425C114.173 58.2425 113.506 58.5092 112.999 59.0425C112.506 59.5625 112.259 60.2892 112.259 61.2225V66.7625C112.259 66.8959 112.213 67.0092 112.119 67.1025C112.039 67.1825 111.933 67.2225 111.799 67.2225H110.799ZM126.668 67.4225C125.722 67.4225 124.902 67.2425 124.208 66.8825C123.528 66.5092 123.002 65.9825 122.628 65.3025C122.255 64.6092 122.055 63.7825 122.028 62.8225C122.015 62.6225 122.008 62.3559 122.008 62.0225C122.008 61.6892 122.015 61.4225 122.028 61.2225C122.055 60.2625 122.255 59.4425 122.628 58.7625C123.002 58.0692 123.528 57.5425 124.208 57.1825C124.902 56.8092 125.722 56.6225 126.668 56.6225C127.442 56.6225 128.102 56.7292 128.648 56.9425C129.208 57.1559 129.668 57.4292 130.028 57.7625C130.388 58.0959 130.655 58.4559 130.828 58.8425C131.015 59.2292 131.115 59.5959 131.128 59.9425C131.142 60.0759 131.102 60.1825 131.008 60.2625C130.915 60.3425 130.802 60.3825 130.668 60.3825H129.708C129.575 60.3825 129.475 60.3559 129.408 60.3025C129.342 60.2359 129.275 60.1292 129.208 59.9825C128.968 59.3292 128.642 58.8692 128.228 58.6025C127.815 58.3359 127.302 58.2025 126.688 58.2025C125.888 58.2025 125.235 58.4492 124.728 58.9425C124.235 59.4359 123.968 60.2292 123.928 61.3225C123.915 61.8025 123.915 62.2692 123.928 62.7225C123.968 63.8292 124.235 64.6292 124.728 65.1225C125.235 65.6025 125.888 65.8425 126.688 65.8425C127.302 65.8425 127.815 65.7092 128.228 65.4425C128.642 65.1759 128.968 64.7159 129.208 64.0625C129.275 63.9159 129.342 63.8159 129.408 63.7625C129.475 63.6959 129.575 63.6625 129.708 63.6625H130.668C130.802 63.6625 130.915 63.7025 131.008 63.7825C131.102 63.8625 131.142 63.9692 131.128 64.1025C131.115 64.3825 131.055 64.6692 130.948 64.9625C130.842 65.2559 130.668 65.5559 130.428 65.8625C130.202 66.1559 129.915 66.4225 129.568 66.6625C129.222 66.8892 128.802 67.0759 128.308 67.2225C127.828 67.3559 127.282 67.4225 126.668 67.4225ZM133.963 67.2225C133.83 67.2225 133.717 67.1825 133.623 67.1025C133.543 67.0092 133.503 66.8959 133.503 66.7625V57.2825C133.503 57.1492 133.543 57.0425 133.623 56.9625C133.717 56.8692 133.83 56.8225 133.963 56.8225H134.923C135.057 56.8225 135.163 56.8692 135.243 56.9625C135.323 57.0425 135.363 57.1492 135.363 57.2825V66.7625C135.363 66.8959 135.323 67.0092 135.243 67.1025C135.163 67.1825 135.057 67.2225 134.923 67.2225H133.963ZM133.803 54.8825C133.67 54.8825 133.557 54.8425 133.463 54.7625C133.383 54.6692 133.343 54.5559 133.343 54.4225V53.3425C133.343 53.2092 133.383 53.1025 133.463 53.0225C133.557 52.9292 133.67 52.8825 133.803 52.8825H135.063C135.197 52.8825 135.303 52.9292 135.383 53.0225C135.477 53.1025 135.523 53.2092 135.523 53.3425V54.4225C135.523 54.5559 135.477 54.6692 135.383 54.7625C135.303 54.8425 135.197 54.8825 135.063 54.8825H133.803ZM141.247 67.4225C140.581 67.4225 139.974 67.2892 139.427 67.0225C138.881 66.7559 138.441 66.3959 138.107 65.9425C137.774 65.4892 137.607 64.9759 137.607 64.4025C137.607 63.4825 137.981 62.7492 138.727 62.2025C139.474 61.6559 140.447 61.2959 141.647 61.1225L144.627 60.7025V60.1225C144.627 59.4825 144.441 58.9825 144.067 58.6225C143.707 58.2625 143.114 58.0825 142.287 58.0825C141.687 58.0825 141.201 58.2025 140.827 58.4425C140.467 58.6825 140.214 58.9892 140.067 59.3625C139.987 59.5625 139.847 59.6625 139.647 59.6625H138.747C138.601 59.6625 138.487 59.6225 138.407 59.5425C138.341 59.4492 138.307 59.3425 138.307 59.2225C138.307 59.0225 138.381 58.7759 138.527 58.4825C138.687 58.1892 138.927 57.9025 139.247 57.6225C139.567 57.3425 139.974 57.1092 140.467 56.9225C140.974 56.7225 141.587 56.6225 142.307 56.6225C143.107 56.6225 143.781 56.7292 144.327 56.9425C144.874 57.1425 145.301 57.4159 145.607 57.7625C145.927 58.1092 146.154 58.5025 146.287 58.9425C146.434 59.3825 146.507 59.8292 146.507 60.2825V66.7625C146.507 66.8959 146.461 67.0092 146.367 67.1025C146.287 67.1825 146.181 67.2225 146.047 67.2225H145.127C144.981 67.2225 144.867 67.1825 144.787 67.1025C144.707 67.0092 144.667 66.8959 144.667 66.7625V65.9025C144.494 66.1425 144.261 66.3825 143.967 66.6225C143.674 66.8492 143.307 67.0425 142.867 67.2025C142.427 67.3492 141.887 67.4225 141.247 67.4225ZM141.667 65.9225C142.214 65.9225 142.714 65.8092 143.167 65.5825C143.621 65.3425 143.974 64.9759 144.227 64.4825C144.494 63.9892 144.627 63.3692 144.627 62.6225V62.0625L142.307 62.4025C141.361 62.5359 140.647 62.7625 140.167 63.0825C139.687 63.3892 139.447 63.7825 139.447 64.2625C139.447 64.6359 139.554 64.9492 139.767 65.2025C139.994 65.4425 140.274 65.6225 140.607 65.7425C140.954 65.8625 141.307 65.9225 141.667 65.9225ZM38.5203 91.2225C38.3736 91.2225 38.2603 91.1825 38.1803 91.1025C38.1003 91.0092 38.0603 90.8959 38.0603 90.7625V77.6825C38.0603 77.5492 38.1003 77.4425 38.1803 77.3625C38.2603 77.2692 38.3736 77.2225 38.5203 77.2225H39.5803C39.7136 77.2225 39.8203 77.2692 39.9003 77.3625C39.9936 77.4425 40.0403 77.5492 40.0403 77.6825V90.7625C40.0403 90.8959 39.9936 91.0092 39.9003 91.1025C39.8203 91.1825 39.7136 91.2225 39.5803 91.2225H38.5203ZM43.7291 91.2225C43.5957 91.2225 43.4824 91.1825 43.3891 91.1025C43.3091 91.0092 43.2691 90.8959 43.2691 90.7625V81.2825C43.2691 81.1492 43.3091 81.0425 43.3891 80.9625C43.4824 80.8692 43.5957 80.8225 43.7291 80.8225H44.6691C44.8024 80.8225 44.9091 80.8692 44.9891 80.9625C45.0824 81.0425 45.1291 81.1492 45.1291 81.2825V82.1625C45.4757 81.7092 45.9091 81.3425 46.4291 81.0625C46.9624 80.7692 47.6424 80.6225 48.4691 80.6225C49.3357 80.6225 50.0691 80.8159 50.6691 81.2025C51.2824 81.5759 51.7424 82.1025 52.0491 82.7825C52.3557 83.4492 52.5091 84.2292 52.5091 85.1225V90.7625C52.5091 90.8959 52.4691 91.0092 52.3891 91.1025C52.3091 91.1825 52.2024 91.2225 52.0691 91.2225H51.0691C50.9357 91.2225 50.8224 91.1825 50.7291 91.1025C50.6491 91.0092 50.6091 90.8959 50.6091 90.7625V85.2225C50.6091 84.2892 50.3824 83.5625 49.9291 83.0425C49.4757 82.5092 48.8091 82.2425 47.9291 82.2425C47.1024 82.2425 46.4357 82.5092 45.9291 83.0425C45.4357 83.5625 45.1891 84.2892 45.1891 85.2225V90.7625C45.1891 90.8959 45.1424 91.0092 45.0491 91.1025C44.9691 91.1825 44.8624 91.2225 44.7291 91.2225H43.7291ZM59.3213 91.2225C58.5746 91.2225 57.9679 91.0825 57.5013 90.8025C57.0346 90.5092 56.6946 90.1025 56.4813 89.5825C56.2679 89.0492 56.1613 88.4225 56.1613 87.7025V82.4225H54.6013C54.4679 82.4225 54.3546 82.3825 54.2613 82.3025C54.1813 82.2092 54.1413 82.0959 54.1413 81.9625V81.2825C54.1413 81.1492 54.1813 81.0425 54.2613 80.9625C54.3546 80.8692 54.4679 80.8225 54.6013 80.8225H56.1613V77.4825C56.1613 77.3492 56.2013 77.2425 56.2812 77.1625C56.3746 77.0692 56.4879 77.0225 56.6213 77.0225H57.5613C57.6946 77.0225 57.8013 77.0692 57.8813 77.1625C57.9746 77.2425 58.0213 77.3492 58.0213 77.4825V80.8225H60.5013C60.6346 80.8225 60.7413 80.8692 60.8213 80.9625C60.9146 81.0425 60.9613 81.1492 60.9613 81.2825V81.9625C60.9613 82.0959 60.9146 82.2092 60.8213 82.3025C60.7413 82.3825 60.6346 82.4225 60.5013 82.4225H58.0213V87.5625C58.0213 88.1892 58.1279 88.6825 58.3413 89.0425C58.5546 89.4025 58.9346 89.5825 59.4813 89.5825H60.7013C60.8346 89.5825 60.9413 89.6292 61.0213 89.7225C61.1146 89.8025 61.1613 89.9092 61.1613 90.0425V90.7625C61.1613 90.8959 61.1146 91.0092 61.0213 91.1025C60.9413 91.1825 60.8346 91.2225 60.7013 91.2225H59.3213ZM63.5338 91.2225C63.4004 91.2225 63.2871 91.1825 63.1938 91.1025C63.1138 91.0092 63.0738 90.8959 63.0738 90.7625V81.3025C63.0738 81.1692 63.1138 81.0559 63.1938 80.9625C63.2871 80.8692 63.4004 80.8225 63.5338 80.8225H64.4538C64.5871 80.8225 64.7004 80.8692 64.7938 80.9625C64.8871 81.0559 64.9338 81.1692 64.9338 81.3025V82.1825C65.2004 81.7292 65.5671 81.3892 66.0338 81.1625C66.5004 80.9359 67.0604 80.8225 67.7138 80.8225H68.5138C68.6471 80.8225 68.7538 80.8692 68.8338 80.9625C68.9138 81.0425 68.9538 81.1492 68.9538 81.2825V82.1025C68.9538 82.2359 68.9138 82.3425 68.8338 82.4225C68.7538 82.5025 68.6471 82.5425 68.5138 82.5425H67.3138C66.5938 82.5425 66.0271 82.7559 65.6138 83.1825C65.2004 83.5959 64.9938 84.1625 64.9938 84.8825V90.7625C64.9938 90.8959 64.9471 91.0092 64.8538 91.1025C64.7604 91.1825 64.6471 91.2225 64.5138 91.2225H63.5338ZM73.4152 91.4225C72.7485 91.4225 72.1418 91.2892 71.5952 91.0225C71.0485 90.7559 70.6085 90.3959 70.2752 89.9425C69.9418 89.4892 69.7752 88.9759 69.7752 88.4025C69.7752 87.4825 70.1485 86.7492 70.8952 86.2025C71.6418 85.6559 72.6152 85.2959 73.8152 85.1225L76.7952 84.7025V84.1225C76.7952 83.4825 76.6085 82.9825 76.2352 82.6225C75.8752 82.2625 75.2818 82.0825 74.4552 82.0825C73.8552 82.0825 73.3685 82.2025 72.9952 82.4425C72.6352 82.6825 72.3818 82.9892 72.2352 83.3625C72.1552 83.5625 72.0152 83.6625 71.8152 83.6625H70.9152C70.7685 83.6625 70.6552 83.6225 70.5752 83.5425C70.5085 83.4492 70.4752 83.3425 70.4752 83.2225C70.4752 83.0225 70.5485 82.7759 70.6952 82.4825C70.8552 82.1892 71.0952 81.9025 71.4152 81.6225C71.7352 81.3425 72.1418 81.1092 72.6352 80.9225C73.1418 80.7225 73.7552 80.6225 74.4752 80.6225C75.2752 80.6225 75.9485 80.7292 76.4952 80.9425C77.0418 81.1425 77.4685 81.4159 77.7752 81.7625C78.0952 82.1092 78.3218 82.5025 78.4552 82.9425C78.6018 83.3825 78.6752 83.8292 78.6752 84.2825V90.7625C78.6752 90.8959 78.6285 91.0092 78.5352 91.1025C78.4552 91.1825 78.3485 91.2225 78.2152 91.2225H77.2952C77.1485 91.2225 77.0352 91.1825 76.9552 91.1025C76.8752 91.0092 76.8352 90.8959 76.8352 90.7625V89.9025C76.6618 90.1425 76.4285 90.3825 76.1352 90.6225C75.8418 90.8492 75.4752 91.0425 75.0352 91.2025C74.5952 91.3492 74.0552 91.4225 73.4152 91.4225ZM73.8352 89.9225C74.3818 89.9225 74.8818 89.8092 75.3352 89.5825C75.7885 89.3425 76.1418 88.9759 76.3952 88.4825C76.6618 87.9892 76.7952 87.3692 76.7952 86.6225V86.0625L74.4752 86.4025C73.5285 86.5359 72.8152 86.7625 72.3352 87.0825C71.8552 87.3892 71.6152 87.7825 71.6152 88.2625C71.6152 88.6359 71.7218 88.9492 71.9352 89.2025C72.1618 89.4425 72.4418 89.6225 72.7752 89.7425C73.1218 89.8625 73.4752 89.9225 73.8352 89.9225ZM82.0303 95.0225C81.897 95.0225 81.7836 94.9759 81.6903 94.8825C81.6103 94.8025 81.5703 94.6959 81.5703 94.5625V81.2825C81.5703 81.1492 81.6103 81.0425 81.6903 80.9625C81.7836 80.8692 81.897 80.8225 82.0303 80.8225H82.9503C83.0836 80.8225 83.1903 80.8692 83.2703 80.9625C83.3636 81.0425 83.4103 81.1492 83.4103 81.2825V82.1625C83.7303 81.7225 84.157 81.3559 84.6903 81.0625C85.2236 80.7692 85.8903 80.6225 86.6903 80.6225C87.437 80.6225 88.0703 80.7492 88.5903 81.0025C89.1236 81.2559 89.557 81.6025 89.8903 82.0425C90.237 82.4825 90.497 82.9825 90.6703 83.5425C90.8436 84.1025 90.937 84.7025 90.9503 85.3425C90.9636 85.5559 90.9703 85.7825 90.9703 86.0225C90.9703 86.2625 90.9636 86.4892 90.9503 86.7025C90.937 87.3292 90.8436 87.9292 90.6703 88.5025C90.497 89.0625 90.237 89.5625 89.8903 90.0025C89.557 90.4292 89.1236 90.7759 88.5903 91.0425C88.0703 91.2959 87.437 91.4225 86.6903 91.4225C85.917 91.4225 85.2636 91.2825 84.7303 91.0025C84.2103 90.7092 83.7836 90.3492 83.4503 89.9225V94.5625C83.4503 94.6959 83.4103 94.8025 83.3303 94.8825C83.2503 94.9759 83.137 95.0225 82.9903 95.0225H82.0303ZM86.2703 89.8025C86.9636 89.8025 87.5036 89.6559 87.8903 89.3625C88.2903 89.0559 88.577 88.6625 88.7503 88.1825C88.9236 87.6892 89.0236 87.1625 89.0503 86.6025C89.0636 86.2159 89.0636 85.8292 89.0503 85.4425C89.0236 84.8825 88.9236 84.3625 88.7503 83.8825C88.577 83.3892 88.2903 82.9959 87.8903 82.7025C87.5036 82.3959 86.9636 82.2425 86.2703 82.2425C85.617 82.2425 85.0836 82.3959 84.6703 82.7025C84.2703 83.0092 83.9703 83.4025 83.7703 83.8825C83.5836 84.3492 83.477 84.8292 83.4503 85.3225C83.437 85.5359 83.4303 85.7892 83.4303 86.0825C83.4303 86.3759 83.437 86.6359 83.4503 86.8625C83.4636 87.3292 83.5703 87.7892 83.7703 88.2425C83.9836 88.6959 84.297 89.0692 84.7103 89.3625C85.1236 89.6559 85.6436 89.8025 86.2703 89.8025ZM97.6044 91.4225C96.231 91.4225 95.1377 91.0025 94.3244 90.1625C93.511 89.3092 93.0644 88.1492 92.9844 86.6825C92.971 86.5092 92.9644 86.2892 92.9644 86.0225C92.9644 85.7425 92.971 85.5159 92.9844 85.3425C93.0377 84.3959 93.2577 83.5692 93.6444 82.8625C94.031 82.1425 94.5577 81.5892 95.2244 81.2025C95.9044 80.8159 96.6977 80.6225 97.6044 80.6225C98.6177 80.6225 99.4644 80.8359 100.144 81.2625C100.838 81.6892 101.364 82.2959 101.724 83.0825C102.084 83.8692 102.264 84.7892 102.264 85.8425V86.1825C102.264 86.3292 102.218 86.4425 102.124 86.5225C102.044 86.6025 101.938 86.6425 101.804 86.6425H94.8844C94.8844 86.6559 94.8844 86.6825 94.8844 86.7225C94.8844 86.7625 94.8844 86.7959 94.8844 86.8225C94.911 87.3692 95.031 87.8825 95.2444 88.3625C95.4577 88.8292 95.7644 89.2092 96.1644 89.5025C96.5644 89.7959 97.0444 89.9425 97.6044 89.9425C98.0844 89.9425 98.4844 89.8692 98.8044 89.7225C99.1244 89.5759 99.3844 89.4159 99.5844 89.2425C99.7844 89.0559 99.9177 88.9159 99.9844 88.8225C100.104 88.6492 100.198 88.5492 100.264 88.5225C100.331 88.4825 100.438 88.4625 100.584 88.4625H101.544C101.678 88.4625 101.784 88.5025 101.864 88.5825C101.958 88.6492 101.998 88.7492 101.984 88.8825C101.971 89.0825 101.864 89.3292 101.664 89.6225C101.464 89.9025 101.178 90.1825 100.804 90.4625C100.431 90.7425 99.9777 90.9759 99.4444 91.1625C98.911 91.3359 98.2977 91.4225 97.6044 91.4225ZM94.8844 85.2625H100.364V85.2025C100.364 84.6025 100.251 84.0692 100.024 83.6025C99.811 83.1359 99.4977 82.7692 99.0844 82.5025C98.671 82.2225 98.1777 82.0825 97.6044 82.0825C97.031 82.0825 96.5377 82.2225 96.1244 82.5025C95.7244 82.7692 95.4177 83.1359 95.2044 83.6025C94.991 84.0692 94.8844 84.6025 94.8844 85.2025V85.2625ZM108.256 91.4225C107.509 91.4225 106.869 91.3292 106.336 91.1425C105.802 90.9559 105.369 90.7292 105.036 90.4625C104.702 90.1959 104.449 89.9292 104.276 89.6625C104.116 89.3959 104.029 89.1825 104.016 89.0225C104.002 88.8759 104.049 88.7625 104.156 88.6825C104.262 88.6025 104.369 88.5625 104.476 88.5625H105.356C105.436 88.5625 105.496 88.5759 105.536 88.6025C105.589 88.6159 105.656 88.6692 105.736 88.7625C105.909 88.9492 106.102 89.1359 106.316 89.3225C106.529 89.5092 106.789 89.6625 107.096 89.7825C107.416 89.9025 107.809 89.9625 108.276 89.9625C108.956 89.9625 109.516 89.8359 109.956 89.5825C110.396 89.3159 110.616 88.9292 110.616 88.4225C110.616 88.0892 110.522 87.8225 110.336 87.6225C110.162 87.4225 109.842 87.2425 109.376 87.0825C108.922 86.9225 108.296 86.7559 107.496 86.5825C106.696 86.3959 106.062 86.1692 105.596 85.9025C105.129 85.6225 104.796 85.2959 104.596 84.9225C104.396 84.5359 104.296 84.1025 104.296 83.6225C104.296 83.1292 104.442 82.6559 104.736 82.2025C105.029 81.7359 105.456 81.3559 106.016 81.0625C106.589 80.7692 107.302 80.6225 108.156 80.6225C108.849 80.6225 109.442 80.7092 109.936 80.8825C110.429 81.0559 110.836 81.2759 111.156 81.5425C111.476 81.7959 111.716 82.0492 111.876 82.3025C112.036 82.5559 112.122 82.7692 112.136 82.9425C112.149 83.0759 112.109 83.1892 112.016 83.2825C111.922 83.3625 111.816 83.4025 111.696 83.4025H110.856C110.762 83.4025 110.682 83.3825 110.616 83.3425C110.562 83.3025 110.509 83.2559 110.456 83.2025C110.322 83.0292 110.162 82.8559 109.976 82.6825C109.802 82.5092 109.569 82.3692 109.276 82.2625C108.996 82.1425 108.622 82.0825 108.156 82.0825C107.489 82.0825 106.989 82.2225 106.656 82.5025C106.322 82.7825 106.156 83.1359 106.156 83.5625C106.156 83.8159 106.229 84.0425 106.376 84.2425C106.522 84.4425 106.802 84.6225 107.216 84.7825C107.629 84.9425 108.242 85.1159 109.056 85.3025C109.936 85.4759 110.629 85.7092 111.136 86.0025C111.642 86.2959 112.002 86.6359 112.216 87.0225C112.429 87.4092 112.536 87.8559 112.536 88.3625C112.536 88.9225 112.369 89.4359 112.036 89.9025C111.716 90.3692 111.236 90.7425 110.596 91.0225C109.969 91.2892 109.189 91.4225 108.256 91.4225ZM118.451 91.4225C117.704 91.4225 117.064 91.3292 116.531 91.1425C115.998 90.9559 115.564 90.7292 115.231 90.4625C114.898 90.1959 114.644 89.9292 114.471 89.6625C114.311 89.3959 114.224 89.1825 114.211 89.0225C114.198 88.8759 114.244 88.7625 114.351 88.6825C114.458 88.6025 114.564 88.5625 114.671 88.5625H115.551C115.631 88.5625 115.691 88.5759 115.731 88.6025C115.784 88.6159 115.851 88.6692 115.931 88.7625C116.104 88.9492 116.298 89.1359 116.511 89.3225C116.724 89.5092 116.984 89.6625 117.291 89.7825C117.611 89.9025 118.004 89.9625 118.471 89.9625C119.151 89.9625 119.711 89.8359 120.151 89.5825C120.591 89.3159 120.811 88.9292 120.811 88.4225C120.811 88.0892 120.718 87.8225 120.531 87.6225C120.358 87.4225 120.038 87.2425 119.571 87.0825C119.118 86.9225 118.491 86.7559 117.691 86.5825C116.891 86.3959 116.258 86.1692 115.791 85.9025C115.324 85.6225 114.991 85.2959 114.791 84.9225C114.591 84.5359 114.491 84.1025 114.491 83.6225C114.491 83.1292 114.638 82.6559 114.931 82.2025C115.224 81.7359 115.651 81.3559 116.211 81.0625C116.784 80.7692 117.498 80.6225 118.351 80.6225C119.044 80.6225 119.638 80.7092 120.131 80.8825C120.624 81.0559 121.031 81.2759 121.351 81.5425C121.671 81.7959 121.911 82.0492 122.071 82.3025C122.231 82.5559 122.318 82.7692 122.331 82.9425C122.344 83.0759 122.304 83.1892 122.211 83.2825C122.118 83.3625 122.011 83.4025 121.891 83.4025H121.051C120.958 83.4025 120.878 83.3825 120.811 83.3425C120.758 83.3025 120.704 83.2559 120.651 83.2025C120.518 83.0292 120.358 82.8559 120.171 82.6825C119.998 82.5092 119.764 82.3692 119.471 82.2625C119.191 82.1425 118.818 82.0825 118.351 82.0825C117.684 82.0825 117.184 82.2225 116.851 82.5025C116.518 82.7825 116.351 83.1359 116.351 83.5625C116.351 83.8159 116.424 84.0425 116.571 84.2425C116.718 84.4425 116.998 84.6225 117.411 84.7825C117.824 84.9425 118.438 85.1159 119.251 85.3025C120.131 85.4759 120.824 85.7092 121.331 86.0025C121.838 86.2959 122.198 86.6359 122.411 87.0225C122.624 87.4092 122.731 87.8559 122.731 88.3625C122.731 88.9225 122.564 89.4359 122.231 89.9025C121.911 90.3692 121.431 90.7425 120.791 91.0225C120.164 91.2892 119.384 91.4225 118.451 91.4225ZM129.306 91.4225C128.293 91.4225 127.446 91.2292 126.766 90.8425C126.086 90.4559 125.566 89.9225 125.206 89.2425C124.846 88.5492 124.646 87.7625 124.606 86.8825C124.593 86.6559 124.586 86.3692 124.586 86.0225C124.586 85.6625 124.593 85.3759 124.606 85.1625C124.646 84.2692 124.846 83.4825 125.206 82.8025C125.58 82.1225 126.106 81.5892 126.786 81.2025C127.466 80.8159 128.306 80.6225 129.306 80.6225C130.306 80.6225 131.146 80.8159 131.826 81.2025C132.506 81.5892 133.026 82.1225 133.386 82.8025C133.76 83.4825 133.966 84.2692 134.006 85.1625C134.02 85.3759 134.026 85.6625 134.026 86.0225C134.026 86.3692 134.02 86.6559 134.006 86.8825C133.966 87.7625 133.766 88.5492 133.406 89.2425C133.046 89.9225 132.526 90.4559 131.846 90.8425C131.166 91.2292 130.32 91.4225 129.306 91.4225ZM129.306 89.8825C130.133 89.8825 130.793 89.6225 131.286 89.1025C131.78 88.5692 132.046 87.7959 132.086 86.7825C132.1 86.5825 132.106 86.3292 132.106 86.0225C132.106 85.7159 132.1 85.4625 132.086 85.2625C132.046 84.2492 131.78 83.4825 131.286 82.9625C130.793 82.4292 130.133 82.1625 129.306 82.1625C128.48 82.1625 127.813 82.4292 127.306 82.9625C126.813 83.4825 126.553 84.2492 126.526 85.2625C126.513 85.4625 126.506 85.7159 126.506 86.0225C126.506 86.3292 126.513 86.5825 126.526 86.7825C126.553 87.7959 126.813 88.5692 127.306 89.1025C127.813 89.6225 128.48 89.8825 129.306 89.8825ZM139.431 91.4225C138.764 91.4225 138.157 91.2892 137.611 91.0225C137.064 90.7559 136.624 90.3959 136.291 89.9425C135.957 89.4892 135.791 88.9759 135.791 88.4025C135.791 87.4825 136.164 86.7492 136.911 86.2025C137.657 85.6559 138.631 85.2959 139.831 85.1225L142.811 84.7025V84.1225C142.811 83.4825 142.624 82.9825 142.251 82.6225C141.891 82.2625 141.297 82.0825 140.471 82.0825C139.871 82.0825 139.384 82.2025 139.011 82.4425C138.651 82.6825 138.397 82.9892 138.251 83.3625C138.171 83.5625 138.031 83.6625 137.831 83.6625H136.931C136.784 83.6625 136.671 83.6225 136.591 83.5425C136.524 83.4492 136.491 83.3425 136.491 83.2225C136.491 83.0225 136.564 82.7759 136.711 82.4825C136.871 82.1892 137.111 81.9025 137.431 81.6225C137.751 81.3425 138.157 81.1092 138.651 80.9225C139.157 80.7225 139.771 80.6225 140.491 80.6225C141.291 80.6225 141.964 80.7292 142.511 80.9425C143.057 81.1425 143.484 81.4159 143.791 81.7625C144.111 82.1092 144.337 82.5025 144.471 82.9425C144.617 83.3825 144.691 83.8292 144.691 84.2825V90.7625C144.691 90.8959 144.644 91.0092 144.551 91.1025C144.471 91.1825 144.364 91.2225 144.231 91.2225H143.311C143.164 91.2225 143.051 91.1825 142.971 91.1025C142.891 91.0092 142.851 90.8959 142.851 90.7625V89.9025C142.677 90.1425 142.444 90.3825 142.151 90.6225C141.857 90.8492 141.491 91.0425 141.051 91.2025C140.611 91.3492 140.071 91.4225 139.431 91.4225ZM139.851 89.9225C140.397 89.9225 140.897 89.8092 141.351 89.5825C141.804 89.3425 142.157 88.9759 142.411 88.4825C142.677 87.9892 142.811 87.3692 142.811 86.6225V86.0625L140.491 86.4025C139.544 86.5359 138.831 86.7625 138.351 87.0825C137.871 87.3892 137.631 87.7825 137.631 88.2625C137.631 88.6359 137.737 88.9492 137.951 89.2025C138.177 89.4425 138.457 89.6225 138.791 89.7425C139.137 89.8625 139.491 89.9225 139.851 89.9225ZM148.046 91.2225C147.913 91.2225 147.799 91.1825 147.706 91.1025C147.626 91.0092 147.586 90.8959 147.586 90.7625V77.4825C147.586 77.3492 147.626 77.2425 147.706 77.1625C147.799 77.0692 147.913 77.0225 148.046 77.0225H148.986C149.133 77.0225 149.246 77.0692 149.326 77.1625C149.406 77.2425 149.446 77.3492 149.446 77.4825V90.7625C149.446 90.8959 149.406 91.0092 149.326 91.1025C149.246 91.1825 149.133 91.2225 148.986 91.2225H148.046Z" fill="black"/>
<path d="M92.6348 17.2225C77.3663 17.2225 62.3509 16.9595 47.1904 19.0003C32.7898 20.9389 7.14045 25.6419 3.13482 43.4448C0.111412 56.8821 3.71782 73.0978 7.07926 86.1114C10.5365 99.4959 18.4094 113.746 30.5237 121.223C48.1148 132.08 66.6696 130.223 86.5793 130.223C105.844 130.223 124.743 131.4 143.913 132.167C157.346 132.704 174.874 131.564 183.857 120.223C201.37 98.1128 194.233 75.5158 181.746 53.0003C173.993 39.021 164.67 28.2609 148.69 24.4448C140.075 22.3873 131.99 21.3834 123.135 20.7225C112.265 19.9114 101.455 20.575 90.6348 19.2225" stroke="#2723EB" stroke-width="3" stroke-linecap="round"/>
<path d="M112.635 5.22256C95.6779 8.49496 79.0371 18.3857 63.8571 26.2226C54.1331 31.2426 44.7423 36.8467 35.4126 42.5559C28.3422 46.8826 20.5232 51.6395 16.3015 59.0559C6.26705 76.684 8.35926 106.059 24.1349 119.556C35.7316 129.478 51.3233 133.477 65.746 137.223C85.9403 142.466 107.802 148.738 128.857 145.556C153.845 141.78 169.896 119.616 172.746 96.0003C174.462 81.7815 173.915 66.957 173.524 52.667C173.077 36.3476 166.93 25.7551 154.302 15.3337C144.184 6.98451 133.96 6.77225 122.246 3.22256C118.768 2.16851 113.816 1.10158 110.635 3.22256" stroke="#F12430" stroke-width="3" stroke-linecap="round"/>
<path d="M143.635 48.2225C122.323 38.1511 101.427 25.6801 78.857 18.6114C51.2006 9.94979 23.8284 32.1967 15.7459 58.2225C7.84827 83.6528 21.3747 103.305 38.4125 120.445C56.1628 138.302 74.6134 146.32 99.5237 148.334C118.849 149.896 138.061 149.27 155.301 139.445C175.799 127.763 183.159 108.844 182.079 85.8892C181 62.9606 160.098 51.4543 141.635 42.2225" stroke="#F5ED28" stroke-width="3" stroke-linecap="round"/>
<path d="M129.635 11.2225C111.907 11.2225 93.9922 10.4021 76.3015 11.5559C49.5892 13.298 25.1052 29.78 16.246 55.5003C6.07199 85.0376 16.5817 122.741 33.0237 148.167C51.7395 177.109 95.8122 166.211 121.524 153.278C133.719 147.144 146.393 138.282 153.19 126C157.938 117.422 159.833 106.214 161.413 96.667C164.784 76.2881 164.129 57.1319 153.19 39.1114C148.828 31.9242 143.185 25.7211 138.19 19.0003C136.677 16.9637 135.693 15.5014 135.635 13.0003C135.566 10.0274 135.755 9.22253 132.635 9.22253" stroke="#33E64F" stroke-width="3" stroke-linecap="round"/>
<path d="M144.635 40.2226C113.434 33.9823 83.4311 27.9176 51.3014 29.3892C35.3041 30.1219 16.4253 43.5004 10.6348 58.5559C3.90487 76.0536 4.75941 96.5077 14.857 112.278C27.9447 132.719 45.0521 155.134 69.7459 160.778C89.3637 165.262 112.242 164.34 132.19 162.945C141.676 162.281 153.97 160.862 159.468 151.834C168.876 136.386 167.453 113.238 167.635 95.7781C167.791 80.787 170.532 62.0311 158.079 51.2226C154.036 47.7132 148.036 45.6242 144.635 42.2226" stroke="#EF33DC" stroke-width="3" stroke-linecap="round"/>
</svg>
