<svg width="208" height="190" viewBox="0 0 208 190" fill="none" xmlns="http://www.w3.org/2000/svg">
<rect x="33.4512" y="16.6187" width="150" height="150" fill="white"/>
<path d="M51.3836 69.6187C51.2369 69.6187 51.1236 69.5787 51.0436 69.4987C50.9636 69.4054 50.9236 69.292 50.9236 69.1587V56.0787C50.9236 55.9454 50.9636 55.8387 51.0436 55.7587C51.1236 55.6654 51.2369 55.6187 51.3836 55.6187H52.4436C52.5769 55.6187 52.6836 55.6654 52.7636 55.7587C52.8569 55.8387 52.9036 55.9454 52.9036 56.0787V69.1587C52.9036 69.292 52.8569 69.4054 52.7636 69.4987C52.6836 69.5787 52.5769 69.6187 52.4436 69.6187H51.3836ZM56.5923 69.6187C56.459 69.6187 56.3457 69.5787 56.2523 69.4987C56.1723 69.4054 56.1323 69.292 56.1323 69.1587V59.6787C56.1323 59.5454 56.1723 59.4387 56.2523 59.3587C56.3457 59.2654 56.459 59.2187 56.5923 59.2187H57.5323C57.6657 59.2187 57.7723 59.2654 57.8523 59.3587C57.9457 59.4387 57.9923 59.5454 57.9923 59.6787V60.5587C58.339 60.1054 58.7723 59.7387 59.2923 59.4587C59.8257 59.1654 60.5057 59.0187 61.3323 59.0187C62.199 59.0187 62.9323 59.212 63.5323 59.5987C64.1457 59.972 64.6057 60.4987 64.9123 61.1787C65.219 61.8454 65.3723 62.6254 65.3723 63.5187V69.1587C65.3723 69.292 65.3323 69.4054 65.2523 69.4987C65.1723 69.5787 65.0657 69.6187 64.9323 69.6187H63.9323C63.799 69.6187 63.6857 69.5787 63.5923 69.4987C63.5123 69.4054 63.4723 69.292 63.4723 69.1587V63.6187C63.4723 62.6854 63.2457 61.9587 62.7923 61.4387C62.339 60.9054 61.6723 60.6387 60.7923 60.6387C59.9657 60.6387 59.299 60.9054 58.7923 61.4387C58.299 61.9587 58.0523 62.6854 58.0523 63.6187V69.1587C58.0523 69.292 58.0057 69.4054 57.9123 69.4987C57.8323 69.5787 57.7257 69.6187 57.5923 69.6187H56.5923ZM72.1845 69.6187C71.4379 69.6187 70.8312 69.4787 70.3645 69.1987C69.8979 68.9054 69.5579 68.4987 69.3445 67.9787C69.1312 67.4454 69.0245 66.8187 69.0245 66.0987V60.8187H67.4645C67.3312 60.8187 67.2179 60.7787 67.1245 60.6987C67.0445 60.6054 67.0045 60.492 67.0045 60.3587V59.6787C67.0045 59.5454 67.0445 59.4387 67.1245 59.3587C67.2179 59.2654 67.3312 59.2187 67.4645 59.2187H69.0245V55.8787C69.0245 55.7454 69.0645 55.6387 69.1445 55.5587C69.2379 55.4654 69.3512 55.4187 69.4845 55.4187H70.4245C70.5579 55.4187 70.6645 55.4654 70.7445 55.5587C70.8379 55.6387 70.8845 55.7454 70.8845 55.8787V59.2187H73.3645C73.4979 59.2187 73.6045 59.2654 73.6845 59.3587C73.7779 59.4387 73.8245 59.5454 73.8245 59.6787V60.3587C73.8245 60.492 73.7779 60.6054 73.6845 60.6987C73.6045 60.7787 73.4979 60.8187 73.3645 60.8187H70.8845V65.9587C70.8845 66.5854 70.9912 67.0787 71.2045 67.4387C71.4179 67.7987 71.7979 67.9787 72.3445 67.9787H73.5645C73.6979 67.9787 73.8045 68.0254 73.8845 68.1187C73.9779 68.1987 74.0245 68.3054 74.0245 68.4387V69.1587C74.0245 69.292 73.9779 69.4054 73.8845 69.4987C73.8045 69.5787 73.6979 69.6187 73.5645 69.6187H72.1845ZM80.077 69.8187C78.7037 69.8187 77.6104 69.3987 76.797 68.5587C75.9837 67.7054 75.537 66.5454 75.457 65.0787C75.4437 64.9054 75.437 64.6854 75.437 64.4187C75.437 64.1387 75.4437 63.912 75.457 63.7387C75.5104 62.792 75.7304 61.9654 76.117 61.2587C76.5037 60.5387 77.0304 59.9854 77.697 59.5987C78.377 59.212 79.1704 59.0187 80.077 59.0187C81.0904 59.0187 81.937 59.232 82.617 59.6587C83.3104 60.0854 83.837 60.692 84.197 61.4787C84.557 62.2654 84.737 63.1854 84.737 64.2387V64.5787C84.737 64.7254 84.6904 64.8387 84.597 64.9187C84.517 64.9987 84.4104 65.0387 84.277 65.0387H77.357C77.357 65.052 77.357 65.0787 77.357 65.1187C77.357 65.1587 77.357 65.192 77.357 65.2187C77.3837 65.7654 77.5037 66.2787 77.717 66.7587C77.9304 67.2254 78.237 67.6054 78.637 67.8987C79.037 68.192 79.517 68.3387 80.077 68.3387C80.557 68.3387 80.957 68.2654 81.277 68.1187C81.597 67.972 81.857 67.812 82.057 67.6387C82.257 67.452 82.3904 67.312 82.457 67.2187C82.577 67.0454 82.6704 66.9454 82.737 66.9187C82.8037 66.8787 82.9104 66.8587 83.057 66.8587H84.017C84.1504 66.8587 84.257 66.8987 84.337 66.9787C84.4304 67.0454 84.4704 67.1454 84.457 67.2787C84.4437 67.4787 84.337 67.7254 84.137 68.0187C83.937 68.2987 83.6504 68.5787 83.277 68.8587C82.9037 69.1387 82.4504 69.372 81.917 69.5587C81.3837 69.732 80.7704 69.8187 80.077 69.8187ZM77.357 63.6587H82.837V63.5987C82.837 62.9987 82.7237 62.4654 82.497 61.9987C82.2837 61.532 81.9704 61.1654 81.557 60.8987C81.1437 60.6187 80.6504 60.4787 80.077 60.4787C79.5037 60.4787 79.0104 60.6187 78.597 60.8987C78.197 61.1654 77.8904 61.532 77.677 61.9987C77.4637 62.4654 77.357 62.9987 77.357 63.5987V63.6587ZM87.6084 69.6187C87.4751 69.6187 87.3618 69.5787 87.2684 69.4987C87.1884 69.4054 87.1484 69.292 87.1484 69.1587V55.8787C87.1484 55.7454 87.1884 55.6387 87.2684 55.5587C87.3618 55.4654 87.4751 55.4187 87.6084 55.4187H88.5484C88.6951 55.4187 88.8084 55.4654 88.8884 55.5587C88.9684 55.6387 89.0084 55.7454 89.0084 55.8787V69.1587C89.0084 69.292 88.9684 69.4054 88.8884 69.4987C88.8084 69.5787 88.6951 69.6187 88.5484 69.6187H87.6084ZM92.647 69.6187C92.5137 69.6187 92.4004 69.5787 92.307 69.4987C92.227 69.4054 92.187 69.292 92.187 69.1587V59.6787C92.187 59.5454 92.227 59.4387 92.307 59.3587C92.4004 59.2654 92.5137 59.2187 92.647 59.2187H93.607C93.7404 59.2187 93.847 59.2654 93.927 59.3587C94.007 59.4387 94.047 59.5454 94.047 59.6787V69.1587C94.047 69.292 94.007 69.4054 93.927 69.4987C93.847 69.5787 93.7404 69.6187 93.607 69.6187H92.647ZM92.487 57.2787C92.3537 57.2787 92.2404 57.2387 92.147 57.1587C92.067 57.0654 92.027 56.952 92.027 56.8187V55.7387C92.027 55.6054 92.067 55.4987 92.147 55.4187C92.2404 55.3254 92.3537 55.2787 92.487 55.2787H93.747C93.8804 55.2787 93.987 55.3254 94.067 55.4187C94.1604 55.4987 94.207 55.6054 94.207 55.7387V56.8187C94.207 56.952 94.1604 57.0654 94.067 57.1587C93.987 57.2387 93.8804 57.2787 93.747 57.2787H92.487ZM101.291 74.0187C100.384 74.0187 99.6374 73.8987 99.0508 73.6587C98.4774 73.4187 98.0241 73.1254 97.6908 72.7787C97.3708 72.4454 97.1374 72.1054 96.9908 71.7587C96.8574 71.4254 96.7841 71.1587 96.7708 70.9587C96.7574 70.8254 96.7974 70.712 96.8908 70.6187C96.9974 70.5254 97.1108 70.4787 97.2308 70.4787H98.1908C98.3108 70.4787 98.4108 70.5054 98.4908 70.5587C98.5708 70.612 98.6374 70.7254 98.6908 70.8987C98.7708 71.0987 98.8908 71.3187 99.0508 71.5587C99.2108 71.812 99.4574 72.0254 99.7908 72.1987C100.124 72.3854 100.591 72.4787 101.191 72.4787C101.817 72.4787 102.344 72.392 102.771 72.2187C103.197 72.0587 103.517 71.7654 103.731 71.3387C103.957 70.9254 104.071 70.352 104.071 69.6187V68.2587C103.751 68.672 103.331 69.0187 102.811 69.2987C102.291 69.5654 101.637 69.6987 100.851 69.6987C100.104 69.6987 99.4641 69.572 98.9308 69.3187C98.3974 69.052 97.9574 68.6987 97.6108 68.2587C97.2774 67.8054 97.0241 67.292 96.8508 66.7187C96.6908 66.1454 96.5974 65.5454 96.5708 64.9187C96.5574 64.5454 96.5574 64.1787 96.5708 63.8187C96.5974 63.192 96.6908 62.592 96.8508 62.0187C97.0241 61.4454 97.2774 60.932 97.6108 60.4787C97.9574 60.0254 98.3974 59.672 98.9308 59.4187C99.4641 59.152 100.104 59.0187 100.851 59.0187C101.651 59.0187 102.311 59.172 102.831 59.4787C103.364 59.772 103.797 60.132 104.131 60.5587V59.6987C104.131 59.5654 104.171 59.452 104.251 59.3587C104.344 59.2654 104.457 59.2187 104.591 59.2187H105.511C105.644 59.2187 105.757 59.2654 105.851 59.3587C105.944 59.452 105.991 59.5654 105.991 59.6987V69.3987C105.991 70.292 105.837 71.0854 105.531 71.7787C105.237 72.472 104.744 73.0187 104.051 73.4187C103.371 73.8187 102.451 74.0187 101.291 74.0187ZM101.251 68.0987C101.917 68.0987 102.451 67.9454 102.851 67.6387C103.264 67.332 103.564 66.9454 103.751 66.4787C103.951 66.012 104.057 65.5387 104.071 65.0587C104.084 64.872 104.091 64.6454 104.091 64.3787C104.091 64.0987 104.084 63.8654 104.071 63.6787C104.057 63.1987 103.951 62.7254 103.751 62.2587C103.564 61.792 103.264 61.4054 102.851 61.0987C102.451 60.792 101.917 60.6387 101.251 60.6387C100.584 60.6387 100.051 60.792 99.6508 61.0987C99.2508 61.392 98.9641 61.7854 98.7908 62.2787C98.6174 62.7587 98.5174 63.2787 98.4908 63.8387C98.4774 64.1854 98.4774 64.5387 98.4908 64.8987C98.5174 65.4587 98.6174 65.9854 98.7908 66.4787C98.9641 66.9587 99.2508 67.352 99.6508 67.6587C100.051 67.952 100.584 68.0987 101.251 68.0987ZM113.104 69.8187C111.731 69.8187 110.638 69.3987 109.824 68.5587C109.011 67.7054 108.564 66.5454 108.484 65.0787C108.471 64.9054 108.464 64.6854 108.464 64.4187C108.464 64.1387 108.471 63.912 108.484 63.7387C108.538 62.792 108.758 61.9654 109.144 61.2587C109.531 60.5387 110.058 59.9854 110.724 59.5987C111.404 59.212 112.198 59.0187 113.104 59.0187C114.118 59.0187 114.964 59.232 115.644 59.6587C116.338 60.0854 116.864 60.692 117.224 61.4787C117.584 62.2654 117.764 63.1854 117.764 64.2387V64.5787C117.764 64.7254 117.718 64.8387 117.624 64.9187C117.544 64.9987 117.438 65.0387 117.304 65.0387H110.384C110.384 65.052 110.384 65.0787 110.384 65.1187C110.384 65.1587 110.384 65.192 110.384 65.2187C110.411 65.7654 110.531 66.2787 110.744 66.7587C110.958 67.2254 111.264 67.6054 111.664 67.8987C112.064 68.192 112.544 68.3387 113.104 68.3387C113.584 68.3387 113.984 68.2654 114.304 68.1187C114.624 67.972 114.884 67.812 115.084 67.6387C115.284 67.452 115.418 67.312 115.484 67.2187C115.604 67.0454 115.698 66.9454 115.764 66.9187C115.831 66.8787 115.938 66.8587 116.084 66.8587H117.044C117.178 66.8587 117.284 66.8987 117.364 66.9787C117.458 67.0454 117.498 67.1454 117.484 67.2787C117.471 67.4787 117.364 67.7254 117.164 68.0187C116.964 68.2987 116.678 68.5787 116.304 68.8587C115.931 69.1387 115.478 69.372 114.944 69.5587C114.411 69.732 113.798 69.8187 113.104 69.8187ZM110.384 63.6587H115.864V63.5987C115.864 62.9987 115.751 62.4654 115.524 61.9987C115.311 61.532 114.998 61.1654 114.584 60.8987C114.171 60.6187 113.678 60.4787 113.104 60.4787C112.531 60.4787 112.038 60.6187 111.624 60.8987C111.224 61.1654 110.918 61.532 110.704 61.9987C110.491 62.4654 110.384 62.9987 110.384 63.5987V63.6587ZM110.384 57.7187C110.184 57.7187 110.084 57.6387 110.084 57.4787C110.084 57.372 110.158 57.2454 110.304 57.0987L112.144 55.2587C112.278 55.112 112.391 55.032 112.484 55.0187C112.591 54.992 112.698 54.9787 112.804 54.9787H113.404C113.524 54.9787 113.631 54.992 113.724 55.0187C113.818 55.032 113.931 55.112 114.064 55.2587L115.904 57.0987C116.038 57.2454 116.104 57.372 116.104 57.4787C116.104 57.6387 116.011 57.7187 115.824 57.7187H115.304C115.211 57.7187 115.111 57.7054 115.004 57.6787C114.898 57.652 114.811 57.6187 114.744 57.5787L113.104 56.4387L111.464 57.5787C111.384 57.6187 111.291 57.652 111.184 57.6787C111.091 57.7054 110.998 57.7187 110.904 57.7187H110.384ZM120.616 69.6187C120.482 69.6187 120.369 69.5787 120.276 69.4987C120.196 69.4054 120.156 69.292 120.156 69.1587V59.6787C120.156 59.5454 120.196 59.4387 120.276 59.3587C120.369 59.2654 120.482 59.2187 120.616 59.2187H121.556C121.689 59.2187 121.796 59.2654 121.876 59.3587C121.969 59.4387 122.016 59.5454 122.016 59.6787V60.5587C122.362 60.1054 122.796 59.7387 123.316 59.4587C123.849 59.1654 124.529 59.0187 125.356 59.0187C126.222 59.0187 126.956 59.212 127.556 59.5987C128.169 59.972 128.629 60.4987 128.936 61.1787C129.242 61.8454 129.396 62.6254 129.396 63.5187V69.1587C129.396 69.292 129.356 69.4054 129.276 69.4987C129.196 69.5787 129.089 69.6187 128.956 69.6187H127.956C127.822 69.6187 127.709 69.5787 127.616 69.4987C127.536 69.4054 127.496 69.292 127.496 69.1587V63.6187C127.496 62.6854 127.269 61.9587 126.816 61.4387C126.362 60.9054 125.696 60.6387 124.816 60.6387C123.989 60.6387 123.322 60.9054 122.816 61.4387C122.322 61.9587 122.076 62.6854 122.076 63.6187V69.1587C122.076 69.292 122.029 69.4054 121.936 69.4987C121.856 69.5787 121.749 69.6187 121.616 69.6187H120.616ZM136.485 69.8187C135.538 69.8187 134.718 69.6387 134.025 69.2787C133.345 68.9054 132.818 68.3787 132.445 67.6987C132.071 67.0054 131.871 66.1787 131.845 65.2187C131.831 65.0187 131.825 64.752 131.825 64.4187C131.825 64.0854 131.831 63.8187 131.845 63.6187C131.871 62.6587 132.071 61.8387 132.445 61.1587C132.818 60.4654 133.345 59.9387 134.025 59.5787C134.718 59.2054 135.538 59.0187 136.485 59.0187C137.258 59.0187 137.918 59.1254 138.465 59.3387C139.025 59.552 139.485 59.8254 139.845 60.1587C140.205 60.492 140.471 60.852 140.645 61.2387C140.831 61.6254 140.931 61.992 140.945 62.3387C140.958 62.472 140.918 62.5787 140.825 62.6587C140.731 62.7387 140.618 62.7787 140.485 62.7787H139.525C139.391 62.7787 139.291 62.752 139.225 62.6987C139.158 62.632 139.091 62.5254 139.025 62.3787C138.785 61.7254 138.458 61.2654 138.045 60.9987C137.631 60.732 137.118 60.5987 136.505 60.5987C135.705 60.5987 135.051 60.8454 134.545 61.3387C134.051 61.832 133.785 62.6254 133.745 63.7187C133.731 64.1987 133.731 64.6654 133.745 65.1187C133.785 66.2254 134.051 67.0254 134.545 67.5187C135.051 67.9987 135.705 68.2387 136.505 68.2387C137.118 68.2387 137.631 68.1054 138.045 67.8387C138.458 67.572 138.785 67.112 139.025 66.4587C139.091 66.312 139.158 66.212 139.225 66.1587C139.291 66.092 139.391 66.0587 139.525 66.0587H140.485C140.618 66.0587 140.731 66.0987 140.825 66.1787C140.918 66.2587 140.958 66.3654 140.945 66.4987C140.931 66.7787 140.871 67.0654 140.765 67.3587C140.658 67.652 140.485 67.952 140.245 68.2587C140.018 68.552 139.731 68.8187 139.385 69.0587C139.038 69.2854 138.618 69.472 138.125 69.6187C137.645 69.752 137.098 69.8187 136.485 69.8187ZM143.78 69.6187C143.647 69.6187 143.533 69.5787 143.44 69.4987C143.36 69.4054 143.32 69.292 143.32 69.1587V59.6787C143.32 59.5454 143.36 59.4387 143.44 59.3587C143.533 59.2654 143.647 59.2187 143.78 59.2187H144.74C144.873 59.2187 144.98 59.2654 145.06 59.3587C145.14 59.4387 145.18 59.5454 145.18 59.6787V69.1587C145.18 69.292 145.14 69.4054 145.06 69.4987C144.98 69.5787 144.873 69.6187 144.74 69.6187H143.78ZM143.62 57.2787C143.487 57.2787 143.373 57.2387 143.28 57.1587C143.2 57.0654 143.16 56.952 143.16 56.8187V55.7387C143.16 55.6054 143.2 55.4987 143.28 55.4187C143.373 55.3254 143.487 55.2787 143.62 55.2787H144.88C145.013 55.2787 145.12 55.3254 145.2 55.4187C145.293 55.4987 145.34 55.6054 145.34 55.7387V56.8187C145.34 56.952 145.293 57.0654 145.2 57.1587C145.12 57.2387 145.013 57.2787 144.88 57.2787H143.62ZM151.064 69.8187C150.397 69.8187 149.79 69.6854 149.244 69.4187C148.697 69.152 148.257 68.792 147.924 68.3387C147.59 67.8854 147.424 67.372 147.424 66.7987C147.424 65.8787 147.797 65.1454 148.544 64.5987C149.29 64.052 150.264 63.692 151.464 63.5187L154.444 63.0987V62.5187C154.444 61.8787 154.257 61.3787 153.884 61.0187C153.524 60.6587 152.93 60.4787 152.104 60.4787C151.504 60.4787 151.017 60.5987 150.644 60.8387C150.284 61.0787 150.03 61.3854 149.884 61.7587C149.804 61.9587 149.664 62.0587 149.464 62.0587H148.564C148.417 62.0587 148.304 62.0187 148.224 61.9387C148.157 61.8454 148.124 61.7387 148.124 61.6187C148.124 61.4187 148.197 61.172 148.344 60.8787C148.504 60.5854 148.744 60.2987 149.064 60.0187C149.384 59.7387 149.79 59.5054 150.284 59.3187C150.79 59.1187 151.404 59.0187 152.124 59.0187C152.924 59.0187 153.597 59.1254 154.144 59.3387C154.69 59.5387 155.117 59.812 155.424 60.1587C155.744 60.5054 155.97 60.8987 156.104 61.3387C156.25 61.7787 156.324 62.2254 156.324 62.6787V69.1587C156.324 69.292 156.277 69.4054 156.184 69.4987C156.104 69.5787 155.997 69.6187 155.864 69.6187H154.944C154.797 69.6187 154.684 69.5787 154.604 69.4987C154.524 69.4054 154.484 69.292 154.484 69.1587V68.2987C154.31 68.5387 154.077 68.7787 153.784 69.0187C153.49 69.2454 153.124 69.4387 152.684 69.5987C152.244 69.7454 151.704 69.8187 151.064 69.8187ZM151.484 68.3187C152.03 68.3187 152.53 68.2054 152.984 67.9787C153.437 67.7387 153.79 67.372 154.044 66.8787C154.31 66.3854 154.444 65.7654 154.444 65.0187V64.4587L152.124 64.7987C151.177 64.932 150.464 65.1587 149.984 65.4787C149.504 65.7854 149.264 66.1787 149.264 66.6587C149.264 67.032 149.37 67.3454 149.584 67.5987C149.81 67.8387 150.09 68.0187 150.424 68.1387C150.77 68.2587 151.124 68.3187 151.484 68.3187ZM67.1258 93.6187C66.9791 93.6187 66.8658 93.5787 66.7858 93.4987C66.7058 93.4054 66.6658 93.292 66.6658 93.1587V80.0987C66.6658 79.952 66.7058 79.8387 66.7858 79.7587C66.8658 79.6654 66.9791 79.6187 67.1258 79.6187H75.3858C75.5324 79.6187 75.6458 79.6654 75.7258 79.7587C75.8058 79.8387 75.8458 79.952 75.8458 80.0987V80.8587C75.8458 81.0054 75.8058 81.1187 75.7258 81.1987C75.6458 81.2787 75.5324 81.3187 75.3858 81.3187H68.5858V85.6987H74.9458C75.0924 85.6987 75.2058 85.7454 75.2858 85.8387C75.3658 85.9187 75.4058 86.032 75.4058 86.1787V86.9187C75.4058 87.052 75.3658 87.1654 75.2858 87.2587C75.2058 87.3387 75.0924 87.3787 74.9458 87.3787H68.5858V91.9187H75.5458C75.6924 91.9187 75.8058 91.9587 75.8858 92.0387C75.9658 92.1187 76.0058 92.232 76.0058 92.3787V93.1587C76.0058 93.292 75.9658 93.4054 75.8858 93.4987C75.8058 93.5787 75.6924 93.6187 75.5458 93.6187H67.1258ZM82.1347 93.8187C81.388 93.8187 80.748 93.7254 80.2147 93.5387C79.6814 93.352 79.248 93.1254 78.9147 92.8587C78.5814 92.592 78.328 92.3254 78.1547 92.0587C77.9947 91.792 77.908 91.5787 77.8947 91.4187C77.8814 91.272 77.928 91.1587 78.0347 91.0787C78.1414 90.9987 78.248 90.9587 78.3547 90.9587H79.2347C79.3147 90.9587 79.3747 90.972 79.4147 90.9987C79.468 91.012 79.5347 91.0654 79.6147 91.1587C79.788 91.3454 79.9814 91.532 80.1947 91.7187C80.408 91.9054 80.668 92.0587 80.9747 92.1787C81.2947 92.2987 81.688 92.3587 82.1547 92.3587C82.8347 92.3587 83.3947 92.232 83.8347 91.9787C84.2747 91.712 84.4947 91.3254 84.4947 90.8187C84.4947 90.4854 84.4014 90.2187 84.2147 90.0187C84.0414 89.8187 83.7214 89.6387 83.2547 89.4787C82.8014 89.3187 82.1747 89.152 81.3747 88.9787C80.5747 88.792 79.9414 88.5654 79.4747 88.2987C79.008 88.0187 78.6747 87.692 78.4747 87.3187C78.2747 86.932 78.1747 86.4987 78.1747 86.0187C78.1747 85.5254 78.3214 85.052 78.6147 84.5987C78.908 84.132 79.3347 83.752 79.8947 83.4587C80.468 83.1654 81.1814 83.0187 82.0347 83.0187C82.728 83.0187 83.3214 83.1054 83.8147 83.2787C84.308 83.452 84.7147 83.672 85.0347 83.9387C85.3547 84.192 85.5947 84.4454 85.7547 84.6987C85.9147 84.952 86.0014 85.1654 86.0147 85.3387C86.028 85.472 85.988 85.5854 85.8947 85.6787C85.8014 85.7587 85.6947 85.7987 85.5747 85.7987H84.7347C84.6414 85.7987 84.5614 85.7787 84.4947 85.7387C84.4414 85.6987 84.388 85.652 84.3347 85.5987C84.2014 85.4254 84.0414 85.252 83.8547 85.0787C83.6814 84.9054 83.448 84.7654 83.1547 84.6587C82.8747 84.5387 82.5014 84.4787 82.0347 84.4787C81.368 84.4787 80.868 84.6187 80.5347 84.8987C80.2014 85.1787 80.0347 85.532 80.0347 85.9587C80.0347 86.212 80.108 86.4387 80.2547 86.6387C80.4014 86.8387 80.6814 87.0187 81.0947 87.1787C81.508 87.3387 82.1214 87.512 82.9347 87.6987C83.8147 87.872 84.508 88.1054 85.0147 88.3987C85.5214 88.692 85.8814 89.032 86.0947 89.4187C86.308 89.8054 86.4147 90.252 86.4147 90.7587C86.4147 91.3187 86.248 91.832 85.9147 92.2987C85.5947 92.7654 85.1147 93.1387 84.4747 93.4187C83.848 93.6854 83.068 93.8187 82.1347 93.8187ZM89.21 97.4187C89.0767 97.4187 88.9633 97.372 88.87 97.2787C88.79 97.1987 88.75 97.092 88.75 96.9587V83.6787C88.75 83.5454 88.79 83.4387 88.87 83.3587C88.9633 83.2654 89.0767 83.2187 89.21 83.2187H90.13C90.2633 83.2187 90.37 83.2654 90.45 83.3587C90.5433 83.4387 90.59 83.5454 90.59 83.6787V84.5587C90.91 84.1187 91.3367 83.752 91.87 83.4587C92.4033 83.1654 93.07 83.0187 93.87 83.0187C94.6167 83.0187 95.25 83.1454 95.77 83.3987C96.3033 83.652 96.7367 83.9987 97.07 84.4387C97.4167 84.8787 97.6767 85.3787 97.85 85.9387C98.0233 86.4987 98.1167 87.0987 98.13 87.7387C98.1433 87.952 98.15 88.1787 98.15 88.4187C98.15 88.6587 98.1433 88.8854 98.13 89.0987C98.1167 89.7254 98.0233 90.3254 97.85 90.8987C97.6767 91.4587 97.4167 91.9587 97.07 92.3987C96.7367 92.8254 96.3033 93.172 95.77 93.4387C95.25 93.692 94.6167 93.8187 93.87 93.8187C93.0967 93.8187 92.4433 93.6787 91.91 93.3987C91.39 93.1054 90.9633 92.7454 90.63 92.3187V96.9587C90.63 97.092 90.59 97.1987 90.51 97.2787C90.43 97.372 90.3167 97.4187 90.17 97.4187H89.21ZM93.45 92.1987C94.1433 92.1987 94.6833 92.052 95.07 91.7587C95.47 91.452 95.7567 91.0587 95.93 90.5787C96.1033 90.0854 96.2033 89.5587 96.23 88.9987C96.2433 88.612 96.2433 88.2254 96.23 87.8387C96.2033 87.2787 96.1033 86.7587 95.93 86.2787C95.7567 85.7854 95.47 85.392 95.07 85.0987C94.6833 84.792 94.1433 84.6387 93.45 84.6387C92.7967 84.6387 92.2633 84.792 91.85 85.0987C91.45 85.4054 91.15 85.7987 90.95 86.2787C90.7633 86.7454 90.6567 87.2254 90.63 87.7187C90.6167 87.932 90.61 88.1854 90.61 88.4787C90.61 88.772 90.6167 89.032 90.63 89.2587C90.6433 89.7254 90.75 90.1854 90.95 90.6387C91.1633 91.092 91.4767 91.4654 91.89 91.7587C92.3033 92.052 92.8233 92.1987 93.45 92.1987ZM103.544 93.8187C102.877 93.8187 102.271 93.6854 101.724 93.4187C101.177 93.152 100.737 92.792 100.404 92.3387C100.071 91.8854 99.9041 91.372 99.9041 90.7987C99.9041 89.8787 100.277 89.1454 101.024 88.5987C101.771 88.052 102.744 87.692 103.944 87.5187L106.924 87.0987V86.5187C106.924 85.8787 106.737 85.3787 106.364 85.0187C106.004 84.6587 105.411 84.4787 104.584 84.4787C103.984 84.4787 103.497 84.5987 103.124 84.8387C102.764 85.0787 102.511 85.3854 102.364 85.7587C102.284 85.9587 102.144 86.0587 101.944 86.0587H101.044C100.897 86.0587 100.784 86.0187 100.704 85.9387C100.637 85.8454 100.604 85.7387 100.604 85.6187C100.604 85.4187 100.677 85.172 100.824 84.8787C100.984 84.5854 101.224 84.2987 101.544 84.0187C101.864 83.7387 102.271 83.5054 102.764 83.3187C103.271 83.1187 103.884 83.0187 104.604 83.0187C105.404 83.0187 106.077 83.1254 106.624 83.3387C107.171 83.5387 107.597 83.812 107.904 84.1587C108.224 84.5054 108.451 84.8987 108.584 85.3387C108.731 85.7787 108.804 86.2254 108.804 86.6787V93.1587C108.804 93.292 108.757 93.4054 108.664 93.4987C108.584 93.5787 108.477 93.6187 108.344 93.6187H107.424C107.277 93.6187 107.164 93.5787 107.084 93.4987C107.004 93.4054 106.964 93.292 106.964 93.1587V92.2987C106.791 92.5387 106.557 92.7787 106.264 93.0187C105.971 93.2454 105.604 93.4387 105.164 93.5987C104.724 93.7454 104.184 93.8187 103.544 93.8187ZM103.964 92.3187C104.511 92.3187 105.011 92.2054 105.464 91.9787C105.917 91.7387 106.271 91.372 106.524 90.8787C106.791 90.3854 106.924 89.7654 106.924 89.0187V88.4587L104.604 88.7987C103.657 88.932 102.944 89.1587 102.464 89.4787C101.984 89.7854 101.744 90.1787 101.744 90.6587C101.744 91.032 101.851 91.3454 102.064 91.5987C102.291 91.8387 102.571 92.0187 102.904 92.1387C103.251 92.2587 103.604 92.3187 103.964 92.3187ZM115.879 93.8187C114.933 93.8187 114.113 93.6387 113.419 93.2787C112.739 92.9054 112.213 92.3787 111.839 91.6987C111.466 91.0054 111.266 90.1787 111.239 89.2187C111.226 89.0187 111.219 88.752 111.219 88.4187C111.219 88.0854 111.226 87.8187 111.239 87.6187C111.266 86.6587 111.466 85.8387 111.839 85.1587C112.213 84.4654 112.739 83.9387 113.419 83.5787C114.113 83.2054 114.933 83.0187 115.879 83.0187C116.653 83.0187 117.313 83.1254 117.859 83.3387C118.419 83.552 118.879 83.8254 119.239 84.1587C119.599 84.492 119.866 84.852 120.039 85.2387C120.226 85.6254 120.326 85.992 120.339 86.3387C120.353 86.472 120.313 86.5787 120.219 86.6587C120.126 86.7387 120.013 86.7787 119.879 86.7787H118.919C118.786 86.7787 118.686 86.752 118.619 86.6987C118.553 86.632 118.486 86.5254 118.419 86.3787C118.179 85.7254 117.853 85.2654 117.439 84.9987C117.026 84.732 116.513 84.5987 115.899 84.5987C115.099 84.5987 114.446 84.8454 113.939 85.3387C113.446 85.832 113.179 86.6254 113.139 87.7187C113.126 88.1987 113.126 88.6654 113.139 89.1187C113.179 90.2254 113.446 91.0254 113.939 91.5187C114.446 91.9987 115.099 92.2387 115.899 92.2387C116.513 92.2387 117.026 92.1054 117.439 91.8387C117.853 91.572 118.179 91.112 118.419 90.4587C118.486 90.312 118.553 90.212 118.619 90.1587C118.686 90.092 118.786 90.0587 118.919 90.0587H119.879C120.013 90.0587 120.126 90.0987 120.219 90.1787C120.313 90.2587 120.353 90.3654 120.339 90.4987C120.326 90.7787 120.266 91.0654 120.159 91.3587C120.053 91.652 119.879 91.952 119.639 92.2587C119.413 92.552 119.126 92.8187 118.779 93.0587C118.433 93.2854 118.013 93.472 117.519 93.6187C117.039 93.752 116.493 93.8187 115.879 93.8187ZM123.174 93.6187C123.041 93.6187 122.928 93.5787 122.834 93.4987C122.754 93.4054 122.714 93.292 122.714 93.1587V83.6787C122.714 83.5454 122.754 83.4387 122.834 83.3587C122.928 83.2654 123.041 83.2187 123.174 83.2187H124.134C124.268 83.2187 124.374 83.2654 124.454 83.3587C124.534 83.4387 124.574 83.5454 124.574 83.6787V93.1587C124.574 93.292 124.534 93.4054 124.454 93.4987C124.374 93.5787 124.268 93.6187 124.134 93.6187H123.174ZM123.014 81.2787C122.881 81.2787 122.768 81.2387 122.674 81.1587C122.594 81.0654 122.554 80.952 122.554 80.8187V79.7387C122.554 79.6054 122.594 79.4987 122.674 79.4187C122.768 79.3254 122.881 79.2787 123.014 79.2787H124.274C124.408 79.2787 124.514 79.3254 124.594 79.4187C124.688 79.4987 124.734 79.6054 124.734 79.7387V80.8187C124.734 80.952 124.688 81.0654 124.594 81.1587C124.514 81.2387 124.408 81.2787 124.274 81.2787H123.014ZM130.458 93.8187C129.791 93.8187 129.185 93.6854 128.638 93.4187C128.091 93.152 127.651 92.792 127.318 92.3387C126.985 91.8854 126.818 91.372 126.818 90.7987C126.818 89.8787 127.191 89.1454 127.938 88.5987C128.685 88.052 129.658 87.692 130.858 87.5187L133.838 87.0987V86.5187C133.838 85.8787 133.651 85.3787 133.278 85.0187C132.918 84.6587 132.325 84.4787 131.498 84.4787C130.898 84.4787 130.411 84.5987 130.038 84.8387C129.678 85.0787 129.425 85.3854 129.278 85.7587C129.198 85.9587 129.058 86.0587 128.858 86.0587H127.958C127.811 86.0587 127.698 86.0187 127.618 85.9387C127.551 85.8454 127.518 85.7387 127.518 85.6187C127.518 85.4187 127.591 85.172 127.738 84.8787C127.898 84.5854 128.138 84.2987 128.458 84.0187C128.778 83.7387 129.185 83.5054 129.678 83.3187C130.185 83.1187 130.798 83.0187 131.518 83.0187C132.318 83.0187 132.991 83.1254 133.538 83.3387C134.085 83.5387 134.511 83.812 134.818 84.1587C135.138 84.5054 135.365 84.8987 135.498 85.3387C135.645 85.7787 135.718 86.2254 135.718 86.6787V93.1587C135.718 93.292 135.671 93.4054 135.578 93.4987C135.498 93.5787 135.391 93.6187 135.258 93.6187H134.338C134.191 93.6187 134.078 93.5787 133.998 93.4987C133.918 93.4054 133.878 93.292 133.878 93.1587V92.2987C133.705 92.5387 133.471 92.7787 133.178 93.0187C132.885 93.2454 132.518 93.4387 132.078 93.5987C131.638 93.7454 131.098 93.8187 130.458 93.8187ZM130.878 92.3187C131.425 92.3187 131.925 92.2054 132.378 91.9787C132.831 91.7387 133.185 91.372 133.438 90.8787C133.705 90.3854 133.838 89.7654 133.838 89.0187V88.4587L131.518 88.7987C130.571 88.932 129.858 89.1587 129.378 89.4787C128.898 89.7854 128.658 90.1787 128.658 90.6587C128.658 91.032 128.765 91.3454 128.978 91.5987C129.205 91.8387 129.485 92.0187 129.818 92.1387C130.165 92.2587 130.518 92.3187 130.878 92.3187ZM139.073 93.6187C138.94 93.6187 138.827 93.5787 138.733 93.4987C138.653 93.4054 138.613 93.292 138.613 93.1587V79.8787C138.613 79.7454 138.653 79.6387 138.733 79.5587C138.827 79.4654 138.94 79.4187 139.073 79.4187H140.013C140.16 79.4187 140.273 79.4654 140.353 79.5587C140.433 79.6387 140.473 79.7454 140.473 79.8787V93.1587C140.473 93.292 140.433 93.4054 140.353 93.4987C140.273 93.5787 140.16 93.6187 140.013 93.6187H139.073Z" fill="black"/>
<path d="M16.4512 34.6187C23.6564 35.173 29.475 39.0235 36.3401 40.3965C51.1845 43.3654 71.4261 31.5351 83.7846 24.8409C93.3888 19.6386 103.388 13.6345 114.118 10.952C122.274 8.91303 128.935 17.569 135.118 21.3965C140.701 24.8528 142.382 31.2794 148.896 34.1743C158.979 38.6558 171.272 39.8062 182.007 42.1743C199.327 45.9949 205.348 58.982 206.007 75.2854C206.868 96.6064 187.309 106.98 169.118 110.619C158.532 112.736 148.921 114.815 140.896 122.841C135.088 128.648 131.968 136.435 126.118 142.285C119.398 149.005 110.809 152.865 102.229 156.619C93.7214 160.341 48.4294 173.578 43.6735 161.952C40.0602 153.12 41.4781 137.737 42.6735 128.174C44.7824 111.302 45.2392 108.732 28.8957 97.952C17.3855 90.3602 -0.21027 87.4207 2.22901 71.0632C3.52962 62.3414 4.53685 51.4207 14.229 49.0632C22.9109 46.9514 28.7576 45.4272 36.4512 40.6187" stroke="#EB2323" stroke-width="3" stroke-linecap="round"/>
<path d="M161.451 24.6187C141.641 24.6187 124.102 15.3496 105.562 9.3965C86.3906 3.24043 69.9101 13.333 53.6735 22.5076C41.2336 29.5368 27.6208 41.1264 21.5623 54.5076C16.5067 65.6741 16.7975 79.7636 17.1179 91.6187C17.4609 104.311 18.1114 118.268 25.5623 129.174C34.4371 142.164 51.5422 149.681 65.7846 154.73C81.1165 160.165 98.0656 163.28 114.34 163.619C143.075 164.217 167.749 151.134 181.118 124.841C190.574 106.244 195.779 82.3708 191.34 61.5076C189.165 51.286 187.2 37.6711 177.34 31.3965C172.649 28.4109 166.077 29.2443 162.451 25.6187" stroke="#2723EB" stroke-width="3" stroke-linecap="round"/>
<path d="M178.451 52.6187C176.263 48.585 168.013 32.6592 164.562 29.0631C148.094 11.903 118.549 7.58041 96.6735 4.56315C80.9707 2.39724 59.1992 -0.676529 43.3402 6.39648C29.3053 12.6559 27.7284 31.4168 25.5624 44.2854C22.4605 62.7143 19.6385 84.9517 28.5069 102.285C38.2119 121.254 58.5752 130.535 77.2291 138.396C109.697 152.079 155.521 161.675 176.674 123.619C188.827 101.752 186.194 72.1 177.451 49.6187" stroke="#F5ED28" stroke-width="3" stroke-linecap="round"/>
<path d="M193.451 31.6187C183.75 24.4705 170.94 20.5645 159.673 16.9521C147.819 13.1512 135.608 9.3471 123.229 7.67427C105.477 5.27534 86.3413 6.83113 68.6734 9.00761C58.7742 10.2271 46.6261 11.3773 39.229 19.1743C33.2288 25.4988 29.3508 35.5183 26.1734 43.3965C14.8753 71.4095 12.982 105.363 19.3401 134.841C22.1767 147.992 27.3305 160.2 38.6734 168.063C48.6009 174.945 61.8837 178.541 73.3401 181.73C98.7425 188.801 126.861 192.751 148.229 173.896C158.212 165.088 160.771 153.001 163.34 140.285C168.108 116.69 170.995 92.4437 172.84 68.452C173.884 54.8852 173.451 41.2171 173.451 27.6187" stroke="#33E64F" stroke-width="3" stroke-linecap="round"/>
<path d="M151.451 43.6187C145.134 41.5129 139.491 36.7354 133.673 33.6187C121.841 27.28 109.328 22.123 96.1179 19.5076C78.7696 16.0729 59.3143 15.5449 43.0068 23.2854C30.1733 29.3768 23.4822 38.932 17.8957 51.952C9.87793 70.6383 -0.963689 96.7517 4.1179 117.619C7.47658 131.411 19.3019 141.658 31.0068 148.396C44.3894 156.1 59.5036 162.575 74.0068 167.896C96.4752 176.14 123.438 177.64 147.062 175.23C158.003 174.113 170.188 172.085 176.729 162.174C182.44 153.521 181.657 142.032 181.285 132.174C180.518 111.862 173.135 93.6115 166.451 74.6743C162.711 64.0775 159.197 55.1945 153.451 45.6187" stroke="#EF33DC" stroke-width="3" stroke-linecap="round"/>
</svg>
