<svg width="19" height="19" viewBox="0 0 19 19" fill="none" xmlns="http://www.w3.org/2000/svg">
<g clip-path="url(#clip0_67_224)">
<path d="M17.8125 1.77953L13.0583 1.77955V0.596207C13.0583 0.26816 12.7926 0.00245667 12.4646 0.00245667C12.1365 0.00245667 11.8708 0.26816 11.8708 0.596207V1.77925H7.12084V0.596207C7.12084 0.26816 6.85514 0.00245667 6.52709 0.00245667C6.19905 0.00245667 5.93334 0.26816 5.93334 0.596207V1.77925H1.1875C0.531703 1.77925 0 2.31096 0 2.96675V17.8105C0 18.4663 0.531703 18.998 1.1875 18.998H17.8125C18.4683 18.998 19 18.4663 19 17.8105V2.96675C19 2.31123 18.4683 1.77953 17.8125 1.77953ZM17.8125 17.8105H1.1875V2.96675H5.93334V3.56496C5.93334 3.89299 6.19905 4.15871 6.52709 4.15871C6.85514 4.15871 7.12084 3.89299 7.12084 3.56496V2.96705H11.8708V3.56525C11.8708 3.8933 12.1365 4.159 12.4646 4.159C12.7926 4.159 13.0583 3.8933 13.0583 3.56525V2.96705H17.8125V17.8105ZM13.6562 9.49828H14.8438C15.1715 9.49828 15.4375 9.23228 15.4375 8.90453V7.71703C15.4375 7.38928 15.1715 7.12328 14.8438 7.12328H13.6562C13.3285 7.12328 13.0625 7.38928 13.0625 7.71703V8.90453C13.0625 9.23228 13.3285 9.49828 13.6562 9.49828ZM13.6562 14.248H14.8438C15.1715 14.248 15.4375 13.9823 15.4375 13.6542V12.4667C15.4375 12.139 15.1715 11.873 14.8438 11.873H13.6562C13.3285 11.873 13.0625 12.139 13.0625 12.4667V13.6542C13.0625 13.9826 13.3285 14.248 13.6562 14.248ZM10.0938 11.873H8.90625C8.5785 11.873 8.3125 12.139 8.3125 12.4667V13.6542C8.3125 13.9823 8.5785 14.248 8.90625 14.248H10.0938C10.4215 14.248 10.6875 13.9823 10.6875 13.6542V12.4667C10.6875 12.1393 10.4215 11.873 10.0938 11.873ZM10.0938 7.12328H8.90625C8.5785 7.12328 8.3125 7.38928 8.3125 7.71703V8.90453C8.3125 9.23228 8.5785 9.49828 8.90625 9.49828H10.0938C10.4215 9.49828 10.6875 9.23228 10.6875 8.90453V7.71703C10.6875 7.38898 10.4215 7.12328 10.0938 7.12328ZM5.34375 7.12328H4.15625C3.8285 7.12328 3.5625 7.38928 3.5625 7.71703V8.90453C3.5625 9.23228 3.8285 9.49828 4.15625 9.49828H5.34375C5.6715 9.49828 5.9375 9.23228 5.9375 8.90453V7.71703C5.9375 7.38898 5.6715 7.12328 5.34375 7.12328ZM5.34375 11.873H4.15625C3.8285 11.873 3.5625 12.139 3.5625 12.4667V13.6542C3.5625 13.9823 3.8285 14.248 4.15625 14.248H5.34375C5.6715 14.248 5.9375 13.9823 5.9375 13.6542V12.4667C5.9375 12.1393 5.6715 11.873 5.34375 11.873Z" fill="white"/>
</g>
<defs>
<clipPath id="clip0_67_224">
<rect width="19" height="19" fill="white"/>
</clipPath>
</defs>
</svg>
