<svg width="292" height="42" viewBox="0 0 292 42" fill="none" xmlns="http://www.w3.org/2000/svg">
<path d="M283.421 24.6875V23.9921C283.421 21.2799 283 19.2053 282.158 17.7681C281.334 16.3308 279.898 15.6122 277.848 15.6122C276.695 15.6122 275.633 15.7397 274.663 15.9947C273.711 16.2265 272.751 16.6206 271.781 17.1769C271.707 18.9619 271.543 20.3063 271.286 21.2104C271.03 22.1144 270.591 22.5665 269.969 22.5665C269.438 22.5665 269.026 22.3346 268.733 21.871C268.459 21.4074 268.322 20.8047 268.322 20.0629C268.322 18.6721 268.724 17.4203 269.529 16.3077C270.335 15.195 271.46 14.3257 272.906 13.6998C274.352 13.074 276.008 12.761 277.875 12.761C279.98 12.761 281.627 13.2594 282.817 14.2562C284.025 15.2529 284.867 16.6901 285.342 18.5678C285.818 20.4222 286.056 22.7635 286.056 25.5915V36.4401C286.056 37.2514 286.184 37.8077 286.44 38.1091C286.697 38.3873 287.044 38.5263 287.484 38.5263C287.96 38.5263 288.463 38.3525 288.994 38.0048C289.524 37.6339 289.945 37.2398 290.256 36.8226C290.458 36.5444 290.677 36.4053 290.915 36.4053C291.19 36.4053 291.428 36.556 291.629 36.8573C291.83 37.1587 291.931 37.4948 291.931 37.8657C291.931 38.2134 291.84 38.5032 291.657 38.735C291.071 39.5231 290.394 40.149 289.625 40.6126C288.875 41.053 288.088 41.2733 287.264 41.2733C286.331 41.2733 285.544 40.9951 284.903 40.4387C284.263 39.8592 283.832 38.7466 283.613 37.1007C282.716 38.3757 281.453 39.442 279.824 40.2997C278.214 41.1574 276.457 41.5862 274.553 41.5862C272.504 41.5862 270.902 40.8792 269.749 39.4652C268.596 38.028 268.02 36.1156 268.02 33.7279C268.02 31.3172 268.623 29.4975 269.831 28.2689C271.039 27.0403 272.522 26.229 274.279 25.8349C276.054 25.4409 278.433 25.1163 281.417 24.8613L283.421 24.6875ZM279.605 37.6223C281.16 36.8342 282.432 35.7794 283.421 34.4581V27.0867L282.295 27.2258C279.294 27.5967 277.042 27.956 275.542 28.3037C274.059 28.6282 272.879 29.2077 272 30.0422C271.122 30.8767 270.682 32.1053 270.682 33.7279C270.682 35.4897 271.058 36.7762 271.808 37.5875C272.577 38.3757 273.592 38.7697 274.855 38.7697C276.484 38.7697 278.067 38.3873 279.605 37.6223Z" fill="#010911"/>
<path d="M251.08 16.9683H240.895V33.9365C240.895 35.6055 241.325 36.8341 242.185 37.6222C243.064 38.3872 244.207 38.7697 245.617 38.7697C246.898 38.7697 248.225 38.4915 249.597 37.9352C250.988 37.3557 252.123 36.6486 253.001 35.8141C253.075 35.7214 253.175 35.6751 253.303 35.6751C253.56 35.6751 253.816 35.8721 254.072 36.2662C254.328 36.6602 254.456 37.0543 254.456 37.4484C254.456 37.6338 254.411 37.8077 254.319 37.9699C253.935 38.5495 253.267 39.129 252.315 39.7085C251.382 40.2648 250.293 40.7169 249.048 41.0646C247.804 41.4355 246.568 41.6209 245.342 41.6209C244.098 41.6209 242.926 41.3311 241.828 40.7516C240.748 40.1489 239.879 39.3492 239.22 38.3524C238.58 37.3557 238.259 36.2893 238.259 35.1535V16.9683H234.333C233.931 16.9683 233.62 16.8176 233.4 16.5162C233.18 16.2149 233.071 15.8672 233.071 15.4731C233.071 15.1022 233.171 14.7893 233.373 14.5343C233.574 14.2561 233.858 14.117 234.224 14.117H238.259C238.259 11.2194 238.287 9.14478 238.342 7.89302C238.396 6.64127 238.534 5.72563 238.753 5.14611C238.991 4.54341 239.376 4.24207 239.906 4.24207C240.309 4.24207 240.574 4.38115 240.703 4.65932C240.831 4.91431 240.895 5.29679 240.895 5.80676V14.117H251.107C251.437 14.117 251.693 14.2677 251.876 14.5691C252.077 14.8472 252.178 15.1718 252.178 15.5426C252.178 15.9367 252.077 16.2728 251.876 16.551C251.693 16.8292 251.428 16.9683 251.08 16.9683Z" fill="#010911"/>
<path d="M203.037 14.3258V32.0242C203.037 34.0409 203.486 35.6752 204.383 36.9269C205.298 38.1555 206.643 38.7698 208.418 38.7698C209.498 38.7698 210.605 38.5148 211.74 38.0048C212.875 37.4948 213.89 36.7994 214.787 35.9186C215.702 35.0377 216.361 34.0641 216.764 32.9978V16.4816L214.101 17.177C213.936 17.2465 213.771 17.2813 213.607 17.2813C213.222 17.2813 212.911 17.1306 212.673 16.8293C212.435 16.5279 212.316 16.1802 212.316 15.7861C212.316 15.4616 212.399 15.1834 212.564 14.9516C212.747 14.6967 213.012 14.5228 213.36 14.4301L218.136 13.2131C218.283 13.1667 218.393 13.1436 218.466 13.1436C218.74 13.1436 218.96 13.2595 219.125 13.4913C219.308 13.7231 219.399 14.0012 219.399 14.3258V38.0744L223.462 37.6919H223.627C223.993 37.6919 224.268 37.8078 224.451 38.0396C224.634 38.2714 224.725 38.5612 224.725 38.9089C224.725 39.2566 224.634 39.5811 224.451 39.8825C224.268 40.1606 224.011 40.3461 223.682 40.4388L218.576 41.1342H218.384C218.018 41.1342 217.716 40.9951 217.478 40.717C217.24 40.4156 217.112 39.9752 217.093 39.3957L216.956 36.3706C216.151 37.8773 214.952 39.1291 213.36 40.1259C211.767 41.1226 210.111 41.621 208.391 41.621C206.743 41.621 205.316 41.2153 204.108 40.404C202.9 39.5927 201.976 38.4568 201.335 36.9965C200.713 35.5361 200.402 33.8439 200.402 31.9199V16.4816L197.711 17.177C197.602 17.2233 197.446 17.2465 197.245 17.2465C196.879 17.2465 196.577 17.0959 196.339 16.7945C196.101 16.4932 195.982 16.1454 195.982 15.7514C195.982 15.4268 196.064 15.1487 196.229 14.9169C196.394 14.6851 196.641 14.5228 196.97 14.4301L201.775 13.2131C201.921 13.1667 202.031 13.1436 202.104 13.1436C202.378 13.1436 202.598 13.2595 202.763 13.4913C202.946 13.7231 203.037 14.0012 203.037 14.3258Z" fill="#010911"/>
<path d="M183.546 38.1786V22.2534C183.546 20.144 183.125 18.5098 182.284 17.3507C181.46 16.1917 180.234 15.6122 178.605 15.6122C176.939 15.6122 175.429 16.0294 174.075 16.8639C172.739 17.6753 171.696 18.7184 170.945 19.9933C170.195 21.2683 169.82 22.52 169.82 23.7486V38.1786H172.702C173.123 38.1786 173.444 38.3176 173.663 38.5958C173.901 38.874 174.02 39.1985 174.02 39.5694C174.02 39.9635 173.892 40.3112 173.636 40.6125C173.398 40.8907 173.069 41.0298 172.648 41.0298H164.329C163.927 41.0298 163.616 40.8791 163.396 40.5778C163.176 40.2764 163.066 39.9287 163.066 39.5346C163.066 39.1637 163.167 38.8508 163.368 38.5958C163.57 38.3176 163.853 38.1786 164.22 38.1786H167.184V3.09462L163.121 3.40756C162.81 3.43074 162.554 3.32643 162.353 3.09462C162.151 2.83963 162.051 2.52669 162.051 2.1558C162.051 1.83127 162.124 1.51833 162.27 1.21699C162.435 0.915636 162.664 0.753372 162.957 0.730191L168.145 0.069542C168.438 0.0231807 168.621 0 168.694 0C169.445 0 169.82 0.452023 169.82 1.35607V18.8111C170.277 17.6753 170.945 16.6553 171.824 15.7513C172.702 14.824 173.718 14.0938 174.871 13.5607C176.043 13.0275 177.241 12.761 178.468 12.761C181.048 12.761 182.979 13.6071 184.26 15.2992C185.541 16.9914 186.182 19.3906 186.182 22.4968V38.1786H189.174C189.522 38.1786 189.787 38.3176 189.97 38.5958C190.172 38.874 190.272 39.1985 190.272 39.5694C190.272 39.9635 190.172 40.3112 189.97 40.6125C189.769 40.8907 189.485 41.0298 189.119 41.0298H179.648C179.245 41.0298 178.934 40.8791 178.715 40.5778C178.495 40.2764 178.385 39.9287 178.385 39.5346C178.385 39.1637 178.486 38.8508 178.687 38.5958C178.889 38.3176 179.172 38.1786 179.538 38.1786H183.546Z" fill="#010911"/>
<path d="M133.828 0.069542C134.121 0.0231807 134.304 0 134.377 0C135.128 0 135.503 0.452023 135.503 1.35607V16.4467C136.601 15.2413 137.754 14.3257 138.962 13.6998C140.188 13.0739 141.634 12.761 143.299 12.761C145.404 12.761 147.234 13.3868 148.79 14.6386C150.364 15.8672 151.572 17.5825 152.414 19.7847C153.256 21.9637 153.677 24.4324 153.677 27.1909C153.677 29.9958 153.265 32.4877 152.441 34.6667C151.618 36.8457 150.428 38.5495 148.872 39.778C147.335 41.0066 145.514 41.6209 143.409 41.6209C141.762 41.6209 140.252 41.2384 138.88 40.4735C137.507 39.7085 136.345 38.7117 135.393 37.4832C135.393 38.5958 135.329 39.4187 135.201 39.9519C135.073 40.4851 134.908 40.8212 134.707 40.9603C134.524 41.0993 134.286 41.1689 133.993 41.1689C133.645 41.1689 133.371 40.9834 133.169 40.6125C132.968 40.2416 132.867 39.5231 132.867 38.4567V3.09462L129.353 3.37279C129.28 3.39597 129.198 3.41915 129.106 3.44233C129.015 3.46551 128.914 3.4771 128.804 3.4771C128.493 3.4771 128.237 3.34961 128.036 3.09462C127.834 2.83963 127.734 2.52669 127.734 2.1558C127.734 1.83127 127.807 1.52992 127.953 1.25176C128.1 0.973588 128.328 0.799733 128.64 0.730191L133.828 0.069542ZM138.742 37.4136C140.06 38.3177 141.597 38.7697 143.354 38.7697C145.002 38.7697 146.402 38.2481 147.555 37.205C148.708 36.1619 149.577 34.771 150.163 33.0325C150.748 31.2707 151.041 29.3236 151.041 27.1909C151.041 25.0815 150.739 23.1459 150.135 21.3842C149.531 19.6224 148.635 18.22 147.445 17.1769C146.255 16.1337 144.819 15.6122 143.135 15.6122C139.932 15.6122 137.388 17.1073 135.503 20.0976V33.7279C136.363 35.281 137.443 36.5096 138.742 37.4136Z" fill="#010911"/>
<path d="M112.694 27.0888V26.4751C112.694 24.082 112.308 22.2513 111.537 20.9831C110.782 19.715 109.466 19.0809 107.588 19.0809C106.531 19.0809 105.559 19.1934 104.67 19.4184C103.798 19.6229 102.918 19.9707 102.029 20.4616C101.962 22.0365 101.811 23.2229 101.576 24.0206C101.342 24.8183 100.939 25.2172 100.369 25.2172C99.8828 25.2172 99.5055 25.0127 99.2372 24.6036C98.9857 24.1945 98.8599 23.6627 98.8599 23.0081C98.8599 21.7809 99.2288 20.6763 99.9666 19.6945C100.704 18.7127 101.736 17.9457 103.06 17.3934C104.385 16.8411 105.903 16.565 107.613 16.565C109.541 16.565 111.05 17.0048 112.14 17.8843C113.247 18.7638 114.018 20.032 114.454 21.6888C114.89 23.3252 115.108 25.3911 115.108 27.8865V37.4591C115.108 38.175 115.226 38.6659 115.46 38.9318C115.695 39.1773 116.014 39.3 116.416 39.3C116.852 39.3 117.313 39.1466 117.799 38.8398C118.286 38.5125 118.671 38.1648 118.956 37.7966C119.141 37.5512 119.342 37.4284 119.56 37.4284C119.812 37.4284 120.03 37.5614 120.214 37.8273C120.399 38.0932 120.491 38.3898 120.491 38.7171C120.491 39.0239 120.407 39.2796 120.239 39.4841C119.703 40.1796 119.082 40.7318 118.378 41.1409C117.69 41.5295 116.969 41.7239 116.215 41.7239C115.36 41.7239 114.639 41.4784 114.052 40.9875C113.465 40.4761 113.071 39.4943 112.87 38.0421C112.048 39.1671 110.891 40.108 109.399 40.8648C107.923 41.6216 106.313 42 104.569 42C102.691 42 101.224 41.3761 100.168 40.1284C99.1114 38.8603 98.5833 37.1728 98.5833 35.066C98.5833 32.9387 99.1366 31.333 100.243 30.249C101.35 29.1649 102.708 28.449 104.318 28.1013C105.944 27.7535 108.124 27.4672 110.857 27.2422L112.694 27.0888ZM109.197 38.5023C110.623 37.8069 111.788 36.8762 112.694 35.7103V29.2058L111.662 29.3285C108.912 29.6558 106.85 29.9728 105.475 30.2796C104.117 30.566 103.035 31.0774 102.23 31.8137C101.425 32.5501 101.023 33.6342 101.023 35.066C101.023 36.6205 101.367 37.7557 102.054 38.4716C102.758 39.1671 103.689 39.5148 104.846 39.5148C106.338 39.5148 107.789 39.1773 109.197 38.5023Z" fill="#010911"/>
<path d="M83.7989 39.429V25.0694C83.7989 23.1674 83.4449 21.6938 82.7369 20.6487C82.0443 19.6036 81.0131 19.081 79.6433 19.081C78.2427 19.081 76.973 19.4573 75.834 20.2097C74.7105 20.9413 73.8332 21.8819 73.2021 23.0315C72.5711 24.1811 72.2556 25.3098 72.2556 26.4176V39.429H74.6797C75.0337 39.429 75.303 39.5545 75.4877 39.8053C75.6878 40.0561 75.7878 40.3487 75.7878 40.6832C75.7878 41.0385 75.6801 41.352 75.4646 41.6237C75.2645 41.8746 74.9875 42 74.6335 42H67.6382C67.2996 42 67.038 41.8641 66.8533 41.5924C66.6686 41.3207 66.5763 41.0071 66.5763 40.6518C66.5763 40.3174 66.6609 40.0352 66.8302 39.8053C66.9995 39.5545 67.2381 39.429 67.5459 39.429H70.0393V7.79402L66.6224 8.07619C66.3608 8.09709 66.1453 8.00303 65.976 7.79402C65.8067 7.5641 65.722 7.28192 65.722 6.94749C65.722 6.65486 65.7836 6.37269 65.9067 6.10096C66.0453 5.82924 66.2376 5.68292 66.4839 5.66202L70.8473 5.06632C71.0935 5.02451 71.2475 5.00361 71.309 5.00361C71.9401 5.00361 72.2556 5.4112 72.2556 6.22637V21.9655C72.6404 20.9413 73.2021 20.0216 73.9409 19.2065C74.6797 18.3704 75.5339 17.712 76.5035 17.2312C77.4886 16.7505 78.4967 16.5101 79.5279 16.5101C81.698 16.5101 83.3218 17.273 84.3992 18.7989C85.4765 20.3247 86.0152 22.4881 86.0152 25.2889V39.429H88.5317C88.8241 39.429 89.0473 39.5545 89.2012 39.8053C89.3705 40.0561 89.4551 40.3487 89.4551 40.6832C89.4551 41.0385 89.3705 41.352 89.2012 41.6237C89.0319 41.8746 88.7933 42 88.4855 42H80.5206C80.182 42 79.9203 41.8641 79.7357 41.5924C79.551 41.3207 79.4586 41.0071 79.4586 40.6518C79.4586 40.3174 79.5433 40.0352 79.7126 39.8053C79.8819 39.5545 80.1204 39.429 80.4283 39.429H83.7989Z" fill="#010911"/>
<path d="M50.6227 27.0888V26.4751C50.6227 24.082 50.237 22.2513 49.4657 20.9831C48.7111 19.715 47.3948 19.0809 45.5168 19.0809C44.4604 19.0809 43.4878 19.1934 42.5991 19.4184C41.7272 19.6229 40.8469 19.9707 39.9582 20.4616C39.8911 22.0365 39.7402 23.2229 39.5054 24.0206C39.2707 24.8183 38.8682 25.2172 38.2981 25.2172C37.8119 25.2172 37.4346 25.0127 37.1663 24.6036C36.9148 24.1945 36.789 23.6627 36.789 23.0081C36.789 21.7809 37.1579 20.6763 37.8957 19.6945C38.6335 18.7127 39.6647 17.9457 40.9894 17.3934C42.3141 16.8411 43.8316 16.565 45.5419 16.565C47.4703 16.565 48.9794 17.0048 50.0693 17.8843C51.176 18.7638 51.9473 20.032 52.3833 21.6888C52.8193 23.3252 53.0373 25.3911 53.0373 27.8865V37.4591C53.0373 38.175 53.1546 38.6659 53.3894 38.9318C53.6241 39.1773 53.9427 39.3 54.3452 39.3C54.7811 39.3 55.2423 39.1466 55.7285 38.8398C56.2148 38.5125 56.6005 38.1648 56.8855 37.7966C57.07 37.5512 57.2712 37.4284 57.4892 37.4284C57.7407 37.4284 57.9587 37.5614 58.1431 37.8273C58.3276 38.0932 58.4198 38.3898 58.4198 38.7171C58.4198 39.0239 58.336 39.2796 58.1683 39.4841C57.6317 40.1796 57.0113 40.7318 56.307 41.1409C55.6195 41.5295 54.8985 41.7239 54.1439 41.7239C53.2888 41.7239 52.5677 41.4784 51.9809 40.9875C51.394 40.4761 50.9999 39.4943 50.7987 38.0421C49.9771 39.1671 48.8201 40.108 47.3277 40.8648C45.8521 41.6216 44.2424 42 42.4985 42C40.6205 42 39.1533 41.3761 38.0969 40.1284C37.0405 38.8603 36.5123 37.1728 36.5123 35.066C36.5123 32.9387 37.0657 31.333 38.1724 30.249C39.2791 29.1649 40.6373 28.449 42.247 28.1013C43.8735 27.7535 46.0534 27.4672 48.7866 27.2422L50.6227 27.0888ZM47.1265 38.5023C48.5518 37.8069 49.7172 36.8762 50.6227 35.7103V29.2058L49.5914 29.3285C46.8415 29.6558 44.779 29.9728 43.404 30.2796C42.0458 30.566 40.9642 31.0774 40.1594 31.8137C39.3545 32.5501 38.9521 33.6342 38.9521 35.066C38.9521 36.6205 39.2958 37.7557 39.9833 38.4716C40.6876 39.1671 41.6182 39.5148 42.7752 39.5148C44.2676 39.5148 45.718 39.1773 47.1265 38.5023Z" fill="#010911"/>
<path d="M28.8692 41.5893C28.6582 41.8631 28.3661 42 27.9929 42H19.4003C19.0108 42 18.7025 41.8631 18.4753 41.5893C18.2643 41.3154 18.1589 40.989 18.1589 40.6098C18.1589 40.2518 18.2643 39.9464 18.4753 39.6936C18.6863 39.4198 18.9784 39.2829 19.3516 39.2829H22.589V10.9748L16.3332 29.6784C16.171 30.1628 15.9438 30.5419 15.6517 30.8158C15.3596 31.0685 15.0512 31.1949 14.7267 31.1949C14.4184 31.1949 14.1344 31.0896 13.8747 30.879C13.6151 30.6473 13.4122 30.2997 13.2662 29.8364L6.76698 11.1012V39.2829H9.68797C10.0774 39.2829 10.3777 39.4198 10.5886 39.6936C10.7996 39.9464 10.9051 40.2518 10.9051 40.6098C10.9051 40.989 10.7915 41.3154 10.5643 41.5893C10.3533 41.8631 10.0531 42 9.66363 42H1.21708C0.827616 42 0.527402 41.8736 0.316441 41.6208C0.10548 41.347 0 41.0206 0 40.6414C0 40.2834 0.10548 39.9674 0.316441 39.6936C0.527402 39.4198 0.819502 39.2829 1.19274 39.2829H4.43018V7.72068H1.53352C1.16028 7.72068 0.868185 7.59431 0.657224 7.34156C0.446263 7.06774 0.340783 6.7518 0.340783 6.39374C0.340783 6.01461 0.446263 5.68815 0.657224 5.41433C0.884413 5.14052 1.18463 5.00361 1.55786 5.00361H6.37751C6.86434 5.00361 7.23758 5.37221 7.49722 6.1094L14.8241 27.0561L21.8831 5.95143C21.9643 5.67761 22.1022 5.45646 22.2969 5.28796C22.4917 5.09839 22.7189 5.00361 22.9785 5.00361H27.6521C28.0416 5.00361 28.3418 5.14052 28.5527 5.41433C28.7799 5.68815 28.8935 6.01461 28.8935 6.39374C28.8935 6.7518 28.7799 7.06774 28.5527 7.34156C28.3418 7.59431 28.0497 7.72068 27.6764 7.72068H24.9258V39.2829H28.0416C28.4148 39.2829 28.6988 39.4198 28.8935 39.6936C29.1045 39.9464 29.21 40.2518 29.21 40.6098C29.21 40.989 29.0964 41.3154 28.8692 41.5893Z" fill="#010911"/>
</svg>
