<svg width="125" height="61" viewBox="0 0 125 61" fill="none" xmlns="http://www.w3.org/2000/svg">
<path d="M118.227 50.8472V50.4303C118.227 48.8042 117.908 47.5602 117.268 46.6985C116.643 45.8369 115.552 45.406 113.995 45.406C113.12 45.406 112.313 45.4824 111.577 45.6353C110.854 45.7743 110.124 46.0106 109.388 46.3441C109.332 47.4143 109.207 48.2204 109.013 48.7625C108.818 49.3045 108.484 49.5755 108.012 49.5755C107.609 49.5755 107.296 49.4365 107.074 49.1586C106.865 48.8806 106.761 48.5192 106.761 48.0745C106.761 47.2406 107.067 46.4901 107.678 45.823C108.29 45.1558 109.145 44.6346 110.243 44.2594C111.341 43.8841 112.598 43.6965 114.016 43.6965C115.614 43.6965 116.865 43.9953 117.769 44.5929C118.686 45.1906 119.325 46.0523 119.687 47.178C120.048 48.2899 120.229 49.6936 120.229 51.3892V57.8937C120.229 58.3801 120.326 58.7137 120.52 58.8944C120.715 59.0611 120.979 59.1445 121.313 59.1445C121.674 59.1445 122.056 59.0403 122.459 58.8318C122.862 58.6095 123.182 58.3732 123.418 58.123C123.571 57.9562 123.738 57.8728 123.919 57.8728C124.127 57.8728 124.308 57.9632 124.461 58.1439C124.614 58.3245 124.69 58.5261 124.69 58.7484C124.69 58.9569 124.62 59.1306 124.481 59.2696C124.037 59.7422 123.522 60.1174 122.939 60.3954C122.369 60.6595 121.771 60.7915 121.146 60.7915C120.437 60.7915 119.839 60.6247 119.353 60.2912C118.867 59.9437 118.54 59.2766 118.373 58.2898C117.692 59.0542 116.733 59.6935 115.496 60.2078C114.273 60.722 112.939 60.9791 111.493 60.9791C109.937 60.9791 108.721 60.5552 107.845 59.7074C106.97 58.8457 106.532 57.6991 106.532 56.2676C106.532 54.8221 106.99 53.7311 107.908 52.9945C108.825 52.2579 109.951 51.7715 111.285 51.5352C112.633 51.2989 114.44 51.1043 116.705 50.9515L118.227 50.8472ZM115.329 58.6025C116.511 58.13 117.477 57.4976 118.227 56.7054V52.2857L117.372 52.3691C115.093 52.5915 113.384 52.8069 112.244 53.0154C111.118 53.2099 110.222 53.5574 109.555 54.0577C108.888 54.5581 108.554 55.2947 108.554 56.2676C108.554 57.3239 108.839 58.0952 109.409 58.5817C109.992 59.0542 110.764 59.2905 111.723 59.2905C112.96 59.2905 114.162 59.0611 115.329 58.6025Z" fill="#010911"/>
<path d="M93.6681 46.219H85.9336V56.3926C85.9336 57.3933 86.2602 58.1299 86.9135 58.6025C87.5806 59.0611 88.4492 59.2904 89.5194 59.2904C90.4923 59.2904 91.4999 59.1236 92.5423 58.7901C93.5986 58.4426 94.4603 58.0187 95.1274 57.5184C95.183 57.4628 95.2594 57.435 95.3567 57.435C95.5513 57.435 95.7459 57.5531 95.9404 57.7894C96.135 58.0257 96.2323 58.2619 96.2323 58.4982C96.2323 58.6094 96.1976 58.7136 96.1281 58.8109C95.8362 59.1584 95.3289 59.5059 94.6062 59.8533C93.8974 60.1869 93.0704 60.4579 92.1253 60.6664C91.1803 60.8887 90.2421 60.9999 89.3109 60.9999C88.3658 60.9999 87.4763 60.8262 86.6424 60.4787C85.8224 60.1174 85.1623 59.6379 84.6619 59.0403C84.1755 58.4426 83.9323 57.8033 83.9323 57.1223V46.219H80.9511C80.6453 46.219 80.409 46.1287 80.2422 45.948C80.0755 45.7673 79.9921 45.5588 79.9921 45.3226C79.9921 45.1002 80.0685 44.9126 80.2214 44.7597C80.3743 44.5929 80.5897 44.5095 80.8677 44.5095H83.9323C83.9323 42.7722 83.9531 41.5283 83.9948 40.7778C84.0365 40.0273 84.1407 39.4783 84.3075 39.1308C84.4882 38.7695 84.7801 38.5888 85.1831 38.5888C85.4889 38.5888 85.6904 38.6722 85.7877 38.839C85.885 38.9919 85.9336 39.2212 85.9336 39.5269V44.5095H93.6889C93.9391 44.5095 94.1337 44.5999 94.2726 44.7805C94.4255 44.9473 94.502 45.1419 94.502 45.3643C94.502 45.6005 94.4255 45.8021 94.2726 45.9688C94.1337 46.1356 93.9321 46.219 93.6681 46.219Z" fill="#010911"/>
<path d="M57.1847 44.6347V55.2461C57.1847 56.4552 57.5252 57.4351 58.2063 58.1856C58.9012 58.9222 59.9227 59.2905 61.2708 59.2905C62.0908 59.2905 62.9317 59.1376 63.7934 58.8319C64.6551 58.5261 65.4265 58.1091 66.1075 57.581C66.8024 57.0529 67.3027 56.4691 67.6085 55.8298V45.9272L65.5863 46.3442C65.4612 46.3859 65.3361 46.4067 65.211 46.4067C64.9192 46.4067 64.6829 46.3164 64.5022 46.1357C64.3215 45.955 64.2312 45.7465 64.2312 45.5103C64.2312 45.3157 64.2937 45.1489 64.4188 45.0099C64.5578 44.857 64.7593 44.7528 65.0234 44.6972L68.6509 43.9676C68.7621 43.9398 68.8455 43.9259 68.901 43.9259C69.1095 43.9259 69.2763 43.9953 69.4014 44.1343C69.5404 44.2733 69.6099 44.4401 69.6099 44.6347V58.8736L72.6953 58.6442H72.8204C73.0984 58.6442 73.3068 58.7137 73.4458 58.8527C73.5848 58.9917 73.6543 59.1654 73.6543 59.3739C73.6543 59.5824 73.5848 59.7769 73.4458 59.9576C73.3068 60.1244 73.1123 60.2356 72.8621 60.2912L68.9844 60.7081H68.8385C68.5605 60.7081 68.3312 60.6247 68.1505 60.458C67.9699 60.2773 67.8726 60.0132 67.8587 59.6658L67.7544 57.852C67.1429 58.7554 66.2326 59.5059 65.0234 60.1036C63.8142 60.7012 62.5564 61 61.25 61C59.9991 61 58.9151 60.7568 57.9978 60.2703C57.0805 59.7839 56.3786 59.1029 55.8922 58.2273C55.4196 57.3517 55.1834 56.3371 55.1834 55.1835V45.9272L53.1403 46.3442C53.0569 46.372 52.9388 46.3859 52.7859 46.3859C52.5079 46.3859 52.2786 46.2955 52.0979 46.1149C51.9172 45.9342 51.8269 45.7257 51.8269 45.4894C51.8269 45.2948 51.8894 45.1281 52.0145 44.9891C52.1396 44.8501 52.3272 44.7528 52.5774 44.6972L56.2257 43.9676C56.3369 43.9398 56.4203 43.9259 56.4759 43.9259C56.6844 43.9259 56.8512 43.9953 56.9762 44.1343C57.1152 44.2733 57.1847 44.4401 57.1847 44.6347Z" fill="#010911"/>
<path d="M42.3836 58.936V49.3878C42.3836 48.1231 42.0639 47.1433 41.4246 46.4483C40.7992 45.7534 39.868 45.406 38.631 45.406C37.3663 45.406 36.2196 45.6561 35.1912 46.1565C34.1766 46.6429 33.3844 47.2683 32.8145 48.0328C32.2447 48.7972 31.9598 49.5477 31.9598 50.2843V58.936H34.1488C34.4684 58.936 34.7117 59.0194 34.8785 59.1862C35.0591 59.353 35.1495 59.5476 35.1495 59.7699C35.1495 60.0062 35.0522 60.2147 34.8576 60.3954C34.6769 60.5621 34.4268 60.6455 34.1071 60.6455H27.7903C27.4845 60.6455 27.2482 60.5552 27.0815 60.3745C26.9147 60.1938 26.8313 59.9854 26.8313 59.7491C26.8313 59.5267 26.9077 59.3391 27.0606 59.1862C27.2135 59.0194 27.4289 58.936 27.7069 58.936H29.9584V37.9008L26.873 38.0885C26.6367 38.1024 26.4421 38.0398 26.2893 37.9008C26.1364 37.748 26.0599 37.5603 26.0599 37.338C26.0599 37.1434 26.1155 36.9558 26.2267 36.7751C26.3518 36.5944 26.5255 36.4971 26.7479 36.4832L30.6881 36.0871C30.9105 36.0593 31.0495 36.0454 31.105 36.0454C31.6749 36.0454 31.9598 36.3164 31.9598 36.8585V47.3239C32.3073 46.6429 32.8145 46.0314 33.4817 45.4894C34.1488 44.9334 34.9201 44.4956 35.7957 44.176C36.6852 43.8563 37.5956 43.6965 38.5268 43.6965C40.4864 43.6965 41.9527 44.2038 42.9256 45.2183C43.8985 46.2329 44.3849 47.6714 44.3849 49.5338V58.936H46.6573C46.9214 58.936 47.1229 59.0194 47.2619 59.1862C47.4148 59.353 47.4912 59.5476 47.4912 59.7699C47.4912 60.0062 47.4148 60.2147 47.2619 60.3954C47.109 60.5621 46.8936 60.6455 46.6156 60.6455H39.4232C39.1175 60.6455 38.8812 60.5552 38.7144 60.3745C38.5476 60.1938 38.4642 59.9854 38.4642 59.7491C38.4642 59.5267 38.5407 59.3391 38.6936 59.1862C38.8464 59.0194 39.0619 58.936 39.3398 58.936H42.3836Z" fill="#010911"/>
<path d="M4.62816 36.0871C4.85053 36.0593 4.98951 36.0454 5.04511 36.0454C5.61494 36.0454 5.89986 36.3164 5.89986 36.8585V45.9063C6.73376 45.1836 7.60936 44.6346 8.52665 44.2594C9.45784 43.8841 10.5558 43.6965 11.8206 43.6965C13.4189 43.6965 14.8087 44.0717 15.9901 44.8222C17.1853 45.5589 18.1026 46.5873 18.7419 47.9077C19.3813 49.2141 19.7009 50.6943 19.7009 52.3482C19.7009 54.0299 19.3882 55.524 18.7628 56.8304C18.1374 58.1369 17.234 59.1584 16.0526 59.895C14.8852 60.6316 13.5023 60.9999 11.904 60.9999C10.6531 60.9999 9.50648 60.7706 8.46411 60.312C7.42173 59.8533 6.53918 59.2557 5.81647 58.5191C5.81647 59.1862 5.76782 59.6796 5.67053 59.9993C5.57325 60.3189 5.44816 60.5204 5.29528 60.6038C5.15629 60.6872 4.97562 60.7289 4.75324 60.7289C4.48917 60.7289 4.2807 60.6177 4.12782 60.3954C3.97493 60.173 3.89849 59.7421 3.89849 59.1028V37.9008L1.23001 38.0676C1.17441 38.0815 1.11187 38.0954 1.04238 38.1093C0.972886 38.1232 0.896445 38.1302 0.813055 38.1302C0.576782 38.1302 0.382205 38.0537 0.229323 37.9008C0.076441 37.748 0 37.5603 0 37.338C0 37.1434 0.0555935 36.9627 0.16678 36.7959C0.277967 36.6291 0.451697 36.5249 0.687969 36.4832L4.62816 36.0871ZM8.35987 58.4774C9.36055 59.0194 10.528 59.2904 11.8623 59.2904C13.1131 59.2904 14.1763 58.9777 15.0519 58.3523C15.9275 57.7269 16.5877 56.893 17.0324 55.8506C17.4772 54.7943 17.6996 53.6269 17.6996 52.3482C17.6996 51.0835 17.4702 49.9229 17.0116 48.8667C16.553 47.8104 15.8719 46.9695 14.9685 46.3441C14.0651 45.7187 12.9741 45.406 11.6955 45.406C9.26326 45.406 7.33139 46.3024 5.89986 48.0953V56.2675C6.55308 57.1987 7.37308 57.9353 8.35987 58.4774Z" fill="#010911"/>
<path d="M85.5788 13.2415V12.8736C85.5788 11.4387 85.2859 10.3411 84.7002 9.58078C84.1272 8.82043 83.1276 8.44025 81.7014 8.44025C80.8992 8.44025 80.1607 8.5077 79.4858 8.6426C78.8237 8.76524 78.1551 8.97372 77.4803 9.26805C77.4293 10.2124 77.3147 10.9237 77.1365 11.4019C76.9582 11.8802 76.6526 12.1194 76.2196 12.1194C75.8504 12.1194 75.5639 11.9967 75.3601 11.7515C75.1691 11.5062 75.0736 11.1873 75.0736 10.7949C75.0736 10.0591 75.3538 9.39682 75.914 8.80816C76.4743 8.2195 77.2574 7.75961 78.2634 7.42849C79.2693 7.09737 80.4217 6.93181 81.7205 6.93181C83.1849 6.93181 84.3309 7.19548 85.1586 7.72282C85.999 8.25016 86.5847 9.01052 86.9158 10.0039C87.2469 10.985 87.4124 12.2236 87.4124 13.7198V19.4592C87.4124 19.8885 87.5015 20.1828 87.6798 20.3422C87.8581 20.4894 88.1 20.563 88.4056 20.563C88.7367 20.563 89.0869 20.471 89.4561 20.287C89.8254 20.0908 90.1183 19.8823 90.3348 19.6616C90.4748 19.5144 90.6276 19.4408 90.7932 19.4408C90.9842 19.4408 91.1497 19.5206 91.2898 19.68C91.4298 19.8394 91.4999 20.0172 91.4999 20.2135C91.4999 20.3974 91.4362 20.5507 91.3089 20.6734C90.9014 21.0903 90.4303 21.4214 89.8954 21.6667C89.3734 21.8997 88.8258 22.0162 88.2528 22.0162C87.6034 22.0162 87.0559 21.8691 86.6102 21.5747C86.1645 21.2681 85.8653 20.6795 85.7125 19.8088C85.0885 20.4833 84.2099 21.0474 83.0766 21.5012C81.9561 21.9549 80.7337 22.1818 79.4094 22.1818C77.9832 22.1818 76.8691 21.8077 76.0668 21.0597C75.2646 20.2993 74.8635 19.2875 74.8635 18.0244C74.8635 16.7489 75.2837 15.7862 76.1241 15.1363C76.9646 14.4863 77.996 14.0571 79.2184 13.8486C80.4535 13.6401 82.1089 13.4684 84.1845 13.3335L85.5788 13.2415ZM82.9238 20.0847C84.0062 19.6677 84.8912 19.1097 85.5788 18.4107V14.5108L84.7957 14.5844C82.7074 14.7806 81.1412 14.9707 80.097 15.1547C79.0656 15.3264 78.2443 15.6329 77.6331 16.0744C77.0219 16.5159 76.7163 17.1659 76.7163 18.0244C76.7163 18.9564 76.9773 19.6371 77.4994 20.0663C78.0342 20.4833 78.7409 20.6917 79.6195 20.6917C80.7528 20.6917 81.8542 20.4894 82.9238 20.0847Z" fill="#010911"/>
<path d="M63.6365 20.6403V12.0308C63.6365 10.8904 63.3677 10.0069 62.83 9.38027C62.3041 8.75366 61.521 8.44036 60.4807 8.44036C59.4171 8.44036 58.4529 8.66594 57.588 9.11709C56.7348 9.55572 56.0686 10.1197 55.5894 10.8089C55.1102 11.4982 54.8706 12.1749 54.8706 12.8391V20.6403H56.7114C56.9802 20.6403 57.1848 20.7155 57.325 20.8659C57.477 21.0163 57.5529 21.1918 57.5529 21.3923C57.5529 21.6053 57.4711 21.7933 57.3075 21.9562C57.1555 22.1066 56.9452 22.1818 56.6763 22.1818H51.3642C51.1071 22.1818 50.9084 22.1003 50.7681 21.9374C50.6279 21.7745 50.5577 21.5865 50.5577 21.3735C50.5577 21.173 50.622 21.0038 50.7506 20.8659C50.8792 20.7155 51.0603 20.6403 51.2941 20.6403H53.1875V1.67303L50.5928 1.84222C50.3941 1.85475 50.2305 1.79835 50.1019 1.67303C49.9733 1.53518 49.9091 1.366 49.9091 1.16548C49.9091 0.990035 49.9558 0.820852 50.0493 0.657935C50.1545 0.495017 50.3006 0.407293 50.4876 0.394761L53.8011 0.0375963C53.9881 0.0125321 54.105 0 54.1518 0C54.631 0 54.8706 0.244376 54.8706 0.733127V10.1698C55.1628 9.55572 55.5894 9.0043 56.1504 8.51555C56.7114 8.01427 57.3601 7.61951 58.0964 7.33127C58.8444 7.04303 59.61 6.89891 60.3931 6.89891C62.0411 6.89891 63.2741 7.35634 64.0923 8.27118C64.9104 9.18602 65.3195 10.4831 65.3195 12.1624V20.6403H67.2305C67.4526 20.6403 67.622 20.7155 67.7389 20.8659C67.8675 21.0163 67.9318 21.1918 67.9318 21.3923C67.9318 21.6053 67.8675 21.7933 67.7389 21.9562C67.6103 22.1066 67.4292 22.1818 67.1954 22.1818H61.147C60.8898 22.1818 60.6911 22.1003 60.5509 21.9374C60.4106 21.7745 60.3405 21.5865 60.3405 21.3735C60.3405 21.173 60.4048 21.0038 60.5333 20.8659C60.6619 20.7155 60.8431 20.6403 61.0768 20.6403H63.6365Z" fill="#010911"/>
<path d="M38.4426 13.2415V12.8736C38.4426 11.4387 38.1497 10.3411 37.5639 9.58078C36.9909 8.82043 35.9914 8.44025 34.5652 8.44025C33.763 8.44025 33.0244 8.5077 32.3496 8.6426C31.6874 8.76524 31.0189 8.97372 30.344 9.26805C30.2931 10.2124 30.1785 10.9237 30.0002 11.4019C29.822 11.8802 29.5164 12.1194 29.0834 12.1194C28.7141 12.1194 28.4276 11.9967 28.2239 11.7515C28.0329 11.5062 27.9374 11.1873 27.9374 10.7949C27.9374 10.0591 28.2175 9.39682 28.7778 8.80816C29.3381 8.2195 30.1212 7.75961 31.1271 7.42849C32.1331 7.09737 33.2855 6.93181 34.5843 6.93181C36.0487 6.93181 37.1947 7.19548 38.0223 7.72282C38.8628 8.25016 39.4485 9.01052 39.7796 10.0039C40.1106 10.985 40.2762 12.2236 40.2762 13.7198V19.4592C40.2762 19.8885 40.3653 20.1828 40.5436 20.3422C40.7219 20.4894 40.9638 20.563 41.2694 20.563C41.6005 20.563 41.9506 20.471 42.3199 20.287C42.6892 20.0908 42.9821 19.8823 43.1985 19.6616C43.3386 19.5144 43.4914 19.4408 43.6569 19.4408C43.8479 19.4408 44.0135 19.5206 44.1535 19.68C44.2936 19.8394 44.3636 20.0172 44.3636 20.2135C44.3636 20.3974 44.3 20.5507 44.1726 20.6734C43.7652 21.0903 43.294 21.4214 42.7592 21.6667C42.2371 21.8997 41.6896 22.0162 41.1166 22.0162C40.4672 22.0162 39.9196 21.8691 39.474 21.5747C39.0283 21.2681 38.7291 20.6795 38.5763 19.8088C37.9523 20.4833 37.0737 21.0474 35.9404 21.5012C34.8199 21.9549 33.5974 22.1818 32.2732 22.1818C30.847 22.1818 29.7328 21.8077 28.9306 21.0597C28.1284 20.2993 27.7273 19.2875 27.7273 18.0244C27.7273 16.7489 28.1475 15.7862 28.9879 15.1363C29.8283 14.4863 30.8597 14.0571 32.0822 13.8486C33.3173 13.6401 34.9727 13.4684 37.0482 13.3335L38.4426 13.2415ZM35.7876 20.0847C36.87 19.6677 37.7549 19.1097 38.4426 18.4107V14.5108L37.6594 14.5844C35.5711 14.7806 34.0049 14.9707 32.9608 15.1547C31.9294 15.3264 31.108 15.6329 30.4968 16.0744C29.8856 16.5159 29.58 17.1659 29.58 18.0244C29.58 18.9564 29.8411 19.6371 30.3631 20.0663C30.8979 20.4833 31.6047 20.6917 32.4833 20.6917C33.6165 20.6917 34.718 20.4894 35.7876 20.0847Z" fill="#010911"/>
<path d="M21.923 21.9355C21.7628 22.0997 21.541 22.1818 21.2576 22.1818H14.7324C14.4367 22.1818 14.2025 22.0997 14.03 21.9355C13.8698 21.7714 13.7897 21.5756 13.7897 21.3483C13.7897 21.1336 13.8698 20.9505 14.03 20.799C14.1902 20.6348 14.412 20.5527 14.6954 20.5527H17.1539V3.58015L12.4033 14.7942C12.2801 15.0846 12.1076 15.3119 11.8857 15.4761C11.6639 15.6277 11.4298 15.7034 11.1833 15.7034C10.9492 15.7034 10.7335 15.6403 10.5364 15.514C10.3392 15.3751 10.1851 15.1667 10.0742 14.8889L5.13878 3.65592V20.5527H7.35696C7.65272 20.5527 7.8807 20.6348 8.0409 20.799C8.2011 20.9505 8.2812 21.1336 8.2812 21.3483C8.2812 21.5756 8.19494 21.7714 8.02242 21.9355C7.86221 22.0997 7.63423 22.1818 7.33848 22.1818H0.924241C0.628484 22.1818 0.400505 22.106 0.240303 21.9545C0.0801009 21.7903 0 21.5946 0 21.3673C0 21.1526 0.0801009 20.9632 0.240303 20.799C0.400505 20.6348 0.622323 20.5527 0.905757 20.5527H3.36424V1.62906H1.16454C0.88111 1.62906 0.659292 1.55329 0.49909 1.40175C0.338889 1.23758 0.258788 1.04816 0.258788 0.833475C0.258788 0.606164 0.338889 0.410423 0.49909 0.246254C0.671615 0.0820846 0.899595 0 1.18303 0H4.84303C5.21272 0 5.49616 0.220997 5.69333 0.662991L11.2573 13.2219L16.6179 0.568278C16.6795 0.404109 16.7842 0.271511 16.9321 0.170483C17.08 0.0568278 17.2525 0 17.4497 0H20.9988C21.2945 0 21.5225 0.0820846 21.6827 0.246254C21.8552 0.410423 21.9415 0.606164 21.9415 0.833475C21.9415 1.04816 21.8552 1.23758 21.6827 1.40175C21.5225 1.55329 21.3007 1.62906 21.0173 1.62906H18.9285V20.5527H21.2945C21.578 20.5527 21.7936 20.6348 21.9415 20.799C22.1017 20.9505 22.1818 21.1336 22.1818 21.3483C22.1818 21.5756 22.0955 21.7714 21.923 21.9355Z" fill="#010911"/>
</svg>
