<svg width="755" height="338" viewBox="0 0 755 338" fill="none" xmlns="http://www.w3.org/2000/svg">
<path d="M670.663 163.997V162.814C670.663 158.2 669.756 154.671 667.942 152.226C666.168 149.781 663.072 148.559 658.656 148.559C656.171 148.559 653.884 148.776 651.794 149.209C649.744 149.604 647.673 150.274 645.583 151.221C645.426 154.257 645.071 156.544 644.519 158.082C643.967 159.62 643.02 160.389 641.679 160.389C640.536 160.389 639.649 159.995 639.018 159.206C638.426 158.417 638.13 157.392 638.13 156.13C638.13 153.764 638.998 151.635 640.733 149.742C642.468 147.849 644.893 146.37 648.009 145.305C651.124 144.241 654.693 143.708 658.715 143.708C663.25 143.708 666.799 144.556 669.362 146.252C671.965 147.948 673.779 150.392 674.804 153.587C675.829 156.741 676.342 160.724 676.342 165.535V183.99C676.342 185.37 676.618 186.317 677.17 186.829C677.722 187.302 678.471 187.539 679.418 187.539C680.443 187.539 681.527 187.243 682.671 186.652C683.814 186.021 684.721 185.35 685.392 184.641C685.826 184.167 686.299 183.931 686.811 183.931C687.403 183.931 687.916 184.187 688.349 184.7C688.783 185.212 689 185.784 689 186.415C689 187.007 688.803 187.5 688.408 187.894C687.147 189.235 685.688 190.299 684.031 191.088C682.415 191.837 680.719 192.212 678.944 192.212C676.933 192.212 675.238 191.739 673.857 190.792C672.477 189.806 671.551 187.914 671.077 185.114C669.145 187.283 666.424 189.097 662.915 190.556C659.444 192.015 655.659 192.744 651.558 192.744C647.141 192.744 643.691 191.542 641.206 189.136C638.722 186.691 637.48 183.438 637.48 179.376C637.48 175.275 638.781 172.18 641.384 170.09C643.986 168 647.18 166.619 650.966 165.949C654.791 165.279 659.918 164.727 666.345 164.293L670.663 163.997ZM662.441 186.001C665.793 184.66 668.534 182.866 670.663 180.618V168.078L668.238 168.315C661.771 168.946 656.921 169.557 653.687 170.149C650.493 170.701 647.949 171.687 646.057 173.106C644.164 174.526 643.217 176.616 643.217 179.376C643.217 182.373 644.026 184.562 645.643 185.942C647.299 187.283 649.487 187.953 652.208 187.953C655.718 187.953 659.129 187.302 662.441 186.001Z" fill="#010911"/>
<path d="M600.982 150.866H579.037V179.731C579.037 182.57 579.963 184.66 581.817 186.001C583.71 187.302 586.174 187.953 589.211 187.953C591.971 187.953 594.83 187.48 597.787 186.533C600.784 185.548 603.229 184.345 605.122 182.925C605.28 182.767 605.497 182.689 605.773 182.689C606.325 182.689 606.877 183.024 607.429 183.694C607.981 184.365 608.257 185.035 608.257 185.705C608.257 186.021 608.158 186.316 607.961 186.593C607.133 187.578 605.694 188.564 603.643 189.55C601.632 190.496 599.286 191.265 596.604 191.857C593.923 192.488 591.261 192.803 588.619 192.803C585.938 192.803 583.414 192.31 581.048 191.325C578.721 190.299 576.848 188.939 575.428 187.243C574.048 185.548 573.358 183.734 573.358 181.801V150.866H564.9C564.032 150.866 563.362 150.609 562.888 150.097C562.415 149.584 562.179 148.992 562.179 148.322C562.179 147.691 562.396 147.159 562.829 146.725C563.263 146.252 563.874 146.015 564.663 146.015H573.358C573.358 141.086 573.417 137.557 573.536 135.427C573.654 133.298 573.95 131.74 574.423 130.754C574.936 129.729 575.764 129.216 576.907 129.216C577.775 129.216 578.347 129.453 578.623 129.926C578.899 130.36 579.037 131.011 579.037 131.878V146.015H601.041C601.75 146.015 602.303 146.271 602.697 146.784C603.131 147.257 603.348 147.809 603.348 148.44C603.348 149.111 603.131 149.683 602.697 150.156C602.303 150.629 601.731 150.866 600.982 150.866Z" fill="#010911"/>
<path d="M497.468 146.37V176.478C497.468 179.909 498.434 182.689 500.366 184.818C502.338 186.908 505.236 187.953 509.061 187.953C511.388 187.953 513.774 187.519 516.219 186.652C518.663 185.784 520.852 184.601 522.784 183.103C524.756 181.604 526.176 179.948 527.043 178.134V150.038L521.306 151.221C520.951 151.339 520.596 151.398 520.241 151.398C519.413 151.398 518.742 151.142 518.23 150.629C517.717 150.116 517.461 149.525 517.461 148.855C517.461 148.302 517.638 147.829 517.993 147.435C518.387 147.001 518.959 146.705 519.708 146.548L530.001 144.477C530.316 144.399 530.553 144.359 530.711 144.359C531.302 144.359 531.775 144.556 532.13 144.951C532.524 145.345 532.722 145.818 532.722 146.37V186.77L541.476 186.119H541.831C542.62 186.119 543.211 186.317 543.605 186.711C544 187.105 544.197 187.598 544.197 188.19C544.197 188.781 544 189.333 543.605 189.846C543.211 190.319 542.659 190.635 541.949 190.792L530.947 191.975H530.533C529.744 191.975 529.094 191.739 528.581 191.266C528.068 190.753 527.792 190.004 527.753 189.018L527.457 183.872C525.722 186.435 523.139 188.564 519.708 190.26C516.278 191.956 512.709 192.803 509.002 192.803C505.453 192.803 502.377 192.113 499.775 190.733C497.172 189.353 495.181 187.421 493.8 184.936C492.46 182.452 491.789 179.573 491.789 176.3V150.038L485.993 151.221C485.756 151.299 485.421 151.339 484.987 151.339C484.198 151.339 483.548 151.083 483.035 150.57C482.522 150.057 482.266 149.466 482.266 148.795C482.266 148.243 482.444 147.77 482.798 147.376C483.153 146.981 483.686 146.705 484.396 146.548L494.747 144.477C495.062 144.399 495.299 144.359 495.457 144.359C496.048 144.359 496.521 144.556 496.876 144.951C497.271 145.345 497.468 145.818 497.468 146.37Z" fill="#010911"/>
<path d="M455.472 186.947V159.856C455.472 156.268 454.565 153.488 452.751 151.516C450.977 149.544 448.335 148.559 444.825 148.559C441.237 148.559 437.984 149.268 435.065 150.688C432.187 152.068 429.939 153.843 428.322 156.012C426.705 158.18 425.897 160.31 425.897 162.4V186.947H432.108C433.015 186.947 433.705 187.184 434.178 187.657C434.691 188.13 434.947 188.683 434.947 189.313C434.947 189.984 434.671 190.575 434.119 191.088C433.606 191.561 432.897 191.798 431.99 191.798H414.067C413.199 191.798 412.529 191.541 412.056 191.029C411.583 190.516 411.346 189.925 411.346 189.254C411.346 188.623 411.563 188.091 411.997 187.657C412.43 187.184 413.042 186.947 413.83 186.947H420.219V127.264L411.464 127.797C410.794 127.836 410.242 127.659 409.808 127.264C409.374 126.831 409.157 126.298 409.157 125.667C409.157 125.115 409.315 124.583 409.631 124.07C409.986 123.558 410.478 123.282 411.109 123.242L422.289 122.118C422.92 122.039 423.314 122 423.472 122C425.089 122 425.897 122.769 425.897 124.307V154.001C426.883 152.068 428.322 150.333 430.215 148.795C432.108 147.218 434.296 145.976 436.781 145.069C439.305 144.162 441.887 143.708 444.53 143.708C450.09 143.708 454.25 145.148 457.01 148.026C459.771 150.905 461.151 154.986 461.151 160.27V186.947H467.598C468.348 186.947 468.919 187.184 469.314 187.657C469.747 188.13 469.964 188.683 469.964 189.313C469.964 189.984 469.747 190.575 469.314 191.088C468.88 191.561 468.269 191.798 467.48 191.798H447.073C446.205 191.798 445.535 191.541 445.062 191.029C444.589 190.516 444.352 189.925 444.352 189.254C444.352 188.623 444.569 188.091 445.003 187.657C445.437 187.184 446.048 186.947 446.836 186.947H455.472Z" fill="#010911"/>
<path d="M348.349 122.118C348.98 122.039 349.374 122 349.532 122C351.149 122 351.957 122.769 351.957 124.307V149.978C354.323 147.928 356.808 146.37 359.41 145.305C362.052 144.241 365.168 143.708 368.756 143.708C373.291 143.708 377.234 144.773 380.586 146.902C383.978 148.992 386.58 151.911 388.394 155.657C390.208 159.364 391.115 163.563 391.115 168.256C391.115 173.027 390.228 177.266 388.453 180.973C386.679 184.68 384.116 187.578 380.764 189.668C377.451 191.758 373.528 192.803 368.993 192.803C365.444 192.803 362.19 192.153 359.233 190.851C356.275 189.55 353.771 187.854 351.721 185.764C351.721 187.657 351.583 189.057 351.307 189.964C351.031 190.871 350.676 191.443 350.242 191.679C349.848 191.916 349.335 192.034 348.704 192.034C347.955 192.034 347.363 191.719 346.929 191.088C346.496 190.457 346.279 189.235 346.279 187.421V127.264L338.708 127.738C338.55 127.777 338.372 127.816 338.175 127.856C337.978 127.895 337.761 127.915 337.525 127.915C336.854 127.915 336.302 127.698 335.868 127.264C335.435 126.831 335.218 126.298 335.218 125.667C335.218 125.115 335.375 124.603 335.691 124.129C336.006 123.656 336.499 123.36 337.17 123.242L348.349 122.118ZM358.937 185.646C361.776 187.184 365.089 187.953 368.874 187.953C372.423 187.953 375.44 187.066 377.924 185.291C380.409 183.517 382.282 181.151 383.544 178.193C384.806 175.196 385.437 171.884 385.437 168.256C385.437 164.667 384.786 161.375 383.485 158.378C382.183 155.381 380.251 152.995 377.688 151.22C375.125 149.446 372.029 148.559 368.401 148.559C361.5 148.559 356.019 151.102 351.957 156.189V179.376C353.811 182.018 356.137 184.108 358.937 185.646Z" fill="#010911"/>
<path d="M302.812 168.082V167.038C302.812 162.967 301.981 159.853 300.319 157.695C298.694 155.538 295.858 154.459 291.811 154.459C289.535 154.459 287.44 154.651 285.525 155.034C283.646 155.381 281.749 155.973 279.834 156.808C279.69 159.487 279.365 161.506 278.859 162.863C278.353 164.22 277.486 164.898 276.258 164.898C275.21 164.898 274.397 164.55 273.819 163.854C273.277 163.158 273.006 162.254 273.006 161.14C273.006 159.052 273.801 157.173 275.391 155.503C276.98 153.833 279.202 152.528 282.056 151.589C284.911 150.649 288.18 150.18 291.865 150.18C296.02 150.18 299.272 150.928 301.62 152.424C304.005 153.92 305.667 156.077 306.606 158.896C307.545 161.68 308.015 165.194 308.015 169.439V185.724C308.015 186.941 308.268 187.776 308.774 188.229C309.279 188.646 309.966 188.855 310.833 188.855C311.772 188.855 312.766 188.594 313.814 188.072C314.861 187.516 315.692 186.924 316.306 186.298C316.704 185.88 317.137 185.671 317.607 185.671C318.149 185.671 318.619 185.898 319.016 186.35C319.413 186.802 319.612 187.307 319.612 187.863C319.612 188.385 319.432 188.82 319.07 189.168C317.914 190.351 316.577 191.291 315.06 191.987C313.579 192.648 312.025 192.978 310.399 192.978C308.557 192.978 307.003 192.561 305.739 191.726C304.474 190.856 303.625 189.186 303.192 186.715C301.421 188.629 298.928 190.23 295.713 191.517C292.534 192.804 289.065 193.448 285.308 193.448C281.262 193.448 278.1 192.387 275.824 190.264C273.548 188.107 272.41 185.236 272.41 181.652C272.41 178.034 273.602 175.302 275.987 173.458C278.371 171.614 281.298 170.396 284.766 169.804C288.271 169.213 292.967 168.726 298.856 168.343L302.812 168.082ZM295.279 187.498C298.35 186.315 300.861 184.732 302.812 182.748V171.683L300.59 171.892C294.665 172.449 290.221 172.988 287.259 173.51C284.332 173.997 282.002 174.867 280.268 176.12C278.534 177.373 277.667 179.217 277.667 181.652C277.667 184.297 278.407 186.228 279.889 187.446C281.406 188.629 283.411 189.221 285.904 189.221C289.12 189.221 292.245 188.646 295.279 187.498Z" fill="#010911"/>
<path d="M240.556 189.075V164.647C240.556 161.411 239.793 158.904 238.267 157.126C236.775 155.349 234.553 154.46 231.602 154.46C228.584 154.46 225.848 155.1 223.394 156.38C220.973 157.624 219.083 159.224 217.724 161.18C216.364 163.136 215.684 165.056 215.684 166.94V189.075H220.907C221.67 189.075 222.25 189.288 222.648 189.715C223.079 190.141 223.295 190.639 223.295 191.208C223.295 191.813 223.063 192.346 222.598 192.808C222.167 193.235 221.57 193.448 220.808 193.448H205.735C205.006 193.448 204.442 193.217 204.044 192.755C203.646 192.293 203.447 191.759 203.447 191.155C203.447 190.586 203.63 190.106 203.994 189.715C204.359 189.288 204.873 189.075 205.537 189.075H210.909V135.259L203.547 135.739C202.983 135.774 202.519 135.614 202.154 135.259C201.789 134.868 201.607 134.388 201.607 133.819C201.607 133.321 201.739 132.841 202.005 132.379C202.303 131.916 202.718 131.667 203.248 131.632L212.65 130.619C213.18 130.547 213.512 130.512 213.645 130.512C215.004 130.512 215.684 131.205 215.684 132.592V159.367C216.513 157.624 217.724 156.06 219.315 154.673C220.907 153.251 222.748 152.131 224.837 151.313C226.959 150.495 229.131 150.086 231.353 150.086C236.029 150.086 239.528 151.384 241.849 153.98C244.17 156.575 245.331 160.256 245.331 165.02V189.075H250.753C251.383 189.075 251.864 189.288 252.195 189.715C252.56 190.141 252.743 190.639 252.743 191.208C252.743 191.813 252.56 192.346 252.195 192.808C251.831 193.235 251.317 193.448 250.653 193.448H233.492C232.762 193.448 232.199 193.217 231.801 192.755C231.403 192.293 231.204 191.759 231.204 191.155C231.204 190.586 231.386 190.106 231.751 189.715C232.116 189.288 232.63 189.075 233.293 189.075H240.556Z" fill="#010911"/>
<path d="M169.073 168.082V167.038C169.073 162.967 168.242 159.853 166.58 157.695C164.954 155.538 162.118 154.459 158.071 154.459C155.795 154.459 153.7 154.651 151.785 155.034C149.906 155.381 148.01 155.973 146.095 156.808C145.95 159.487 145.625 161.506 145.119 162.863C144.614 164.22 143.746 164.898 142.518 164.898C141.47 164.898 140.657 164.55 140.079 163.854C139.537 163.158 139.266 162.254 139.266 161.14C139.266 159.052 140.061 157.173 141.651 155.503C143.241 153.833 145.463 152.528 148.317 151.589C151.171 150.649 154.441 150.18 158.126 150.18C162.28 150.18 165.532 150.928 167.88 152.424C170.265 153.92 171.927 156.077 172.866 158.896C173.806 161.68 174.275 165.194 174.275 169.439V185.724C174.275 186.941 174.528 187.776 175.034 188.229C175.54 188.646 176.226 188.855 177.093 188.855C178.033 188.855 179.026 188.594 180.074 188.072C181.122 187.516 181.953 186.924 182.567 186.298C182.964 185.88 183.398 185.671 183.867 185.671C184.409 185.671 184.879 185.898 185.276 186.35C185.674 186.802 185.873 187.307 185.873 187.863C185.873 188.385 185.692 188.82 185.331 189.168C184.175 190.351 182.838 191.291 181.32 191.987C179.839 192.648 178.286 192.978 176.66 192.978C174.817 192.978 173.264 192.561 171.999 191.726C170.735 190.856 169.886 189.186 169.452 186.715C167.682 188.629 165.189 190.23 161.973 191.517C158.794 192.804 155.326 193.448 151.568 193.448C147.522 193.448 144.361 192.387 142.085 190.264C139.808 188.107 138.67 185.236 138.67 181.652C138.67 178.034 139.863 175.302 142.247 173.458C144.632 171.614 147.558 170.396 151.026 169.804C154.531 169.213 159.228 168.726 165.117 168.343L169.073 168.082ZM161.54 187.498C164.611 186.315 167.122 184.732 169.073 182.748V171.683L166.851 171.892C160.926 172.449 156.482 172.988 153.519 173.51C150.593 173.997 148.263 174.867 146.528 176.12C144.794 177.373 143.927 179.217 143.927 181.652C143.927 184.297 144.668 186.228 146.149 187.446C147.666 188.629 149.672 189.221 152.164 189.221C155.38 189.221 158.505 188.646 161.54 187.498Z" fill="#010911"/>
<path d="M122.202 192.749C121.748 193.215 121.118 193.448 120.314 193.448H101.8C100.961 193.448 100.297 193.215 99.8072 192.749C99.3527 192.284 99.1254 191.728 99.1254 191.083C99.1254 190.474 99.3527 189.955 99.8072 189.525C100.262 189.059 100.891 188.826 101.695 188.826H108.671V140.67L95.1919 172.487C94.8422 173.311 94.3527 173.956 93.7234 174.422C93.094 174.852 92.4297 175.067 91.7304 175.067C91.0661 175.067 90.4542 174.888 89.8948 174.53C89.3353 174.136 88.8983 173.544 88.5836 172.756L74.5802 140.885V188.826H80.8739C81.713 188.826 82.3599 189.059 82.8144 189.525C83.269 189.955 83.4962 190.474 83.4962 191.083C83.4962 191.728 83.2515 192.284 82.762 192.749C82.3074 193.215 81.6606 193.448 80.8214 193.448H62.6223C61.7832 193.448 61.1364 193.233 60.6818 192.803C60.2273 192.337 60 191.782 60 191.137C60 190.528 60.2273 189.991 60.6818 189.525C61.1364 189.059 61.7657 188.826 62.5699 188.826H69.5453V135.134H63.3042C62.5 135.134 61.8706 134.919 61.4161 134.489C60.9615 134.023 60.7343 133.486 60.7343 132.877C60.7343 132.232 60.9615 131.676 61.4161 131.211C61.9056 130.745 62.5524 130.512 63.3566 130.512H73.7411C74.79 130.512 75.5942 131.139 76.1537 132.393L91.9402 168.026L107.15 132.124C107.325 131.658 107.622 131.282 108.041 130.996C108.461 130.673 108.95 130.512 109.51 130.512H119.58C120.419 130.512 121.066 130.745 121.52 131.211C122.01 131.676 122.255 132.232 122.255 132.877C122.255 133.486 122.01 134.023 121.52 134.489C121.066 134.919 120.436 135.134 119.632 135.134H113.706V188.826H120.419C121.223 188.826 121.835 189.059 122.255 189.525C122.709 189.955 122.936 190.474 122.936 191.083C122.936 191.728 122.692 192.284 122.202 192.749Z" fill="#010911"/>
<ellipse cx="363" cy="19" rx="20" ry="19" fill="#E42631"/>
<ellipse cx="181.5" cy="319" rx="20.5" ry="19" fill="#EF33DC"/>
<ellipse cx="582" cy="319" rx="20" ry="19" fill="#18B71F"/>
<ellipse cx="735" cy="138" rx="20" ry="19" fill="#F0F335"/>
<ellipse cx="20" cy="68" rx="20" ry="19" fill="#6475D3"/>
<path d="M151.684 244C151.444 244 151.252 243.928 151.108 243.784C150.964 243.64 150.892 243.448 150.892 243.208V220.96H143.764C143.524 220.96 143.332 220.888 143.188 220.744C143.044 220.6 142.972 220.408 142.972 220.168V219.628C142.972 219.364 143.044 219.16 143.188 219.016C143.332 218.872 143.524 218.8 143.764 218.8H160.252C160.516 218.8 160.72 218.872 160.864 219.016C161.008 219.16 161.08 219.364 161.08 219.628V220.168C161.08 220.408 161.008 220.6 160.864 220.744C160.72 220.888 160.516 220.96 160.252 220.96H153.16V243.208C153.16 243.448 153.088 243.64 152.944 243.784C152.8 243.928 152.596 244 152.332 244H151.684ZM166.215 244C165.975 244 165.783 243.928 165.639 243.784C165.495 243.64 165.423 243.448 165.423 243.208V219.628C165.423 219.364 165.495 219.16 165.639 219.016C165.783 218.872 165.975 218.8 166.215 218.8H166.863C167.127 218.8 167.331 218.872 167.475 219.016C167.619 219.16 167.691 219.364 167.691 219.628V230.14H181.587V219.628C181.587 219.364 181.659 219.16 181.803 219.016C181.947 218.872 182.139 218.8 182.379 218.8H183.027C183.291 218.8 183.495 218.872 183.639 219.016C183.783 219.16 183.855 219.364 183.855 219.628V243.208C183.855 243.448 183.783 243.64 183.639 243.784C183.495 243.928 183.291 244 183.027 244H182.379C182.139 244 181.947 243.928 181.803 243.784C181.659 243.64 181.587 243.448 181.587 243.208V232.3H167.691V243.208C167.691 243.448 167.619 243.64 167.475 243.784C167.331 243.928 167.127 244 166.863 244H166.215ZM191.422 244C191.182 244 190.99 243.928 190.846 243.784C190.702 243.64 190.63 243.448 190.63 243.208V219.628C190.63 219.364 190.702 219.16 190.846 219.016C190.99 218.872 191.182 218.8 191.422 218.8H205.462C205.726 218.8 205.93 218.872 206.074 219.016C206.218 219.16 206.29 219.364 206.29 219.628V220.168C206.29 220.408 206.218 220.6 206.074 220.744C205.93 220.888 205.726 220.96 205.462 220.96H192.898V230.14H204.67C204.934 230.14 205.138 230.212 205.282 230.356C205.426 230.5 205.498 230.704 205.498 230.968V231.508C205.498 231.748 205.426 231.94 205.282 232.084C205.138 232.228 204.934 232.3 204.67 232.3H192.898V241.84H205.75C206.014 241.84 206.218 241.912 206.362 242.056C206.506 242.2 206.578 242.404 206.578 242.668V243.208C206.578 243.448 206.506 243.64 206.362 243.784C206.218 243.928 206.014 244 205.75 244H191.422ZM229.856 244.36C227.792 244.36 226.052 243.964 224.636 243.172C223.244 242.356 222.176 241.228 221.432 239.788C220.712 238.348 220.316 236.692 220.244 234.82C220.22 233.74 220.208 232.6 220.208 231.4C220.208 230.2 220.22 229.06 220.244 227.98C220.316 226.084 220.712 224.428 221.432 223.012C222.176 221.572 223.256 220.456 224.672 219.664C226.088 218.848 227.816 218.44 229.856 218.44C231.512 218.44 232.928 218.692 234.104 219.196C235.28 219.676 236.24 220.288 236.984 221.032C237.728 221.752 238.28 222.484 238.64 223.228C239 223.972 239.192 224.596 239.216 225.1C239.24 225.316 239.18 225.496 239.036 225.64C238.892 225.76 238.7 225.82 238.46 225.82H237.668C237.452 225.82 237.296 225.772 237.2 225.676C237.104 225.556 237.008 225.364 236.912 225.1C236.672 224.356 236.264 223.648 235.688 222.976C235.136 222.28 234.38 221.716 233.42 221.284C232.484 220.828 231.296 220.6 229.856 220.6C227.72 220.6 225.98 221.188 224.636 222.364C223.316 223.516 222.608 225.448 222.512 228.16C222.44 230.32 222.44 232.48 222.512 234.64C222.608 237.328 223.316 239.26 224.636 240.436C225.98 241.612 227.72 242.2 229.856 242.2C231.272 242.2 232.544 241.936 233.672 241.408C234.8 240.856 235.688 240.028 236.336 238.924C236.984 237.796 237.308 236.368 237.308 234.64V232.804H231.044C230.804 232.804 230.612 232.732 230.468 232.588C230.324 232.42 230.252 232.216 230.252 231.976V231.472C230.252 231.208 230.324 231.004 230.468 230.86C230.612 230.716 230.804 230.644 231.044 230.644H238.748C239.012 230.644 239.216 230.716 239.36 230.86C239.504 231.004 239.576 231.208 239.576 231.472V234.64C239.576 236.56 239.192 238.252 238.424 239.716C237.68 241.18 236.576 242.32 235.112 243.136C233.672 243.952 231.92 244.36 229.856 244.36ZM245.914 244C245.674 244 245.482 243.928 245.338 243.784C245.194 243.64 245.122 243.448 245.122 243.208V219.628C245.122 219.364 245.194 219.16 245.338 219.016C245.482 218.872 245.674 218.8 245.914 218.8H254.302C256.822 218.8 258.826 219.4 260.314 220.6C261.826 221.8 262.582 223.624 262.582 226.072C262.582 227.992 262.102 229.528 261.142 230.68C260.182 231.832 258.85 232.612 257.146 233.02L262.942 242.884C263.014 243.028 263.05 243.16 263.05 243.28C263.05 243.472 262.978 243.64 262.834 243.784C262.69 243.928 262.522 244 262.33 244H261.898C261.514 244 261.226 243.904 261.034 243.712C260.842 243.496 260.674 243.268 260.53 243.028L254.806 233.344H247.39V243.208C247.39 243.448 247.318 243.64 247.174 243.784C247.03 243.928 246.826 244 246.562 244H245.914ZM247.39 231.184H254.122C256.21 231.184 257.758 230.764 258.766 229.924C259.798 229.06 260.314 227.776 260.314 226.072C260.314 224.368 259.798 223.096 258.766 222.256C257.758 221.392 256.21 220.96 254.122 220.96H247.39V231.184ZM268.942 244C268.702 244 268.51 243.928 268.366 243.784C268.222 243.64 268.15 243.448 268.15 243.208V219.628C268.15 219.364 268.222 219.16 268.366 219.016C268.51 218.872 268.702 218.8 268.942 218.8H282.982C283.246 218.8 283.45 218.872 283.594 219.016C283.738 219.16 283.81 219.364 283.81 219.628V220.168C283.81 220.408 283.738 220.6 283.594 220.744C283.45 220.888 283.246 220.96 282.982 220.96H270.418V230.14H282.19C282.454 230.14 282.658 230.212 282.802 230.356C282.946 230.5 283.018 230.704 283.018 230.968V231.508C283.018 231.748 282.946 231.94 282.802 232.084C282.658 232.228 282.454 232.3 282.19 232.3H270.418V241.84H283.27C283.534 241.84 283.738 241.912 283.882 242.056C284.026 242.2 284.098 242.404 284.098 242.668V243.208C284.098 243.448 284.026 243.64 283.882 243.784C283.738 243.928 283.534 244 283.27 244H268.942ZM287.654 244C287.462 244 287.294 243.928 287.15 243.784C287.006 243.64 286.934 243.472 286.934 243.28C286.934 243.16 286.958 243.028 287.006 242.884L296.114 219.52C296.21 219.28 296.33 219.1 296.474 218.98C296.642 218.86 296.87 218.8 297.158 218.8H298.382C298.67 218.8 298.886 218.86 299.03 218.98C299.198 219.1 299.33 219.28 299.426 219.52L308.534 242.884C308.582 243.028 308.606 243.16 308.606 243.28C308.606 243.472 308.534 243.64 308.39 243.784C308.246 243.928 308.078 244 307.886 244H307.166C306.926 244 306.746 243.94 306.626 243.82C306.506 243.676 306.422 243.556 306.374 243.46L304.142 237.7H291.398L289.166 243.46C289.142 243.556 289.058 243.676 288.914 243.82C288.794 243.94 288.614 244 288.374 244H287.654ZM292.262 235.54H303.278L297.77 221.356L292.262 235.54ZM316.461 244C316.221 244 316.029 243.928 315.885 243.784C315.741 243.64 315.669 243.448 315.669 243.208V220.96H308.541C308.301 220.96 308.109 220.888 307.965 220.744C307.821 220.6 307.749 220.408 307.749 220.168V219.628C307.749 219.364 307.821 219.16 307.965 219.016C308.109 218.872 308.301 218.8 308.541 218.8H325.029C325.293 218.8 325.497 218.872 325.641 219.016C325.785 219.16 325.857 219.364 325.857 219.628V220.168C325.857 220.408 325.785 220.6 325.641 220.744C325.497 220.888 325.293 220.96 325.029 220.96H317.937V243.208C317.937 243.448 317.865 243.64 317.721 243.784C317.577 243.928 317.373 244 317.109 244H316.461ZM339.324 244C339.084 244 338.892 243.928 338.748 243.784C338.604 243.64 338.532 243.448 338.532 243.208V219.628C338.532 219.364 338.604 219.16 338.748 219.016C338.892 218.872 339.084 218.8 339.324 218.8H353.364C353.628 218.8 353.832 218.872 353.976 219.016C354.12 219.16 354.192 219.364 354.192 219.628V220.168C354.192 220.408 354.12 220.6 353.976 220.744C353.832 220.888 353.628 220.96 353.364 220.96H340.8V230.14H352.572C352.836 230.14 353.04 230.212 353.184 230.356C353.328 230.5 353.4 230.704 353.4 230.968V231.508C353.4 231.748 353.328 231.94 353.184 232.084C353.04 232.228 352.836 232.3 352.572 232.3H340.8V241.84H353.652C353.916 241.84 354.12 241.912 354.264 242.056C354.408 242.2 354.48 242.404 354.48 242.668V243.208C354.48 243.448 354.408 243.64 354.264 243.784C354.12 243.928 353.916 244 353.652 244H339.324ZM360.629 244C360.389 244 360.197 243.928 360.053 243.784C359.909 243.64 359.837 243.448 359.837 243.208V219.592C359.837 219.352 359.909 219.16 360.053 219.016C360.197 218.872 360.389 218.8 360.629 218.8H361.313C361.553 218.8 361.745 218.872 361.889 219.016C362.033 219.16 362.105 219.352 362.105 219.592V241.84H374.525C374.789 241.84 374.993 241.912 375.137 242.056C375.281 242.2 375.353 242.404 375.353 242.668V243.208C375.353 243.448 375.281 243.64 375.137 243.784C374.993 243.928 374.789 244 374.525 244H360.629ZM380.352 244C380.112 244 379.92 243.928 379.776 243.784C379.632 243.64 379.56 243.448 379.56 243.208V219.628C379.56 219.364 379.632 219.16 379.776 219.016C379.92 218.872 380.112 218.8 380.352 218.8H394.392C394.656 218.8 394.86 218.872 395.004 219.016C395.148 219.16 395.22 219.364 395.22 219.628V220.168C395.22 220.408 395.148 220.6 395.004 220.744C394.86 220.888 394.656 220.96 394.392 220.96H381.828V230.14H393.6C393.864 230.14 394.068 230.212 394.212 230.356C394.356 230.5 394.428 230.704 394.428 230.968V231.508C394.428 231.748 394.356 231.94 394.212 232.084C394.068 232.228 393.864 232.3 393.6 232.3H381.828V241.84H394.68C394.944 241.84 395.148 241.912 395.292 242.056C395.436 242.2 395.508 242.404 395.508 242.668V243.208C395.508 243.448 395.436 243.64 395.292 243.784C395.148 243.928 394.944 244 394.68 244H380.352ZM401.692 244C401.452 244 401.248 243.928 401.08 243.784C400.936 243.64 400.864 243.448 400.864 243.208V219.628C400.864 219.364 400.936 219.16 401.08 219.016C401.248 218.872 401.452 218.8 401.692 218.8H402.592C402.832 218.8 403.012 218.86 403.132 218.98C403.252 219.1 403.324 219.196 403.348 219.268L411.52 235.18L419.728 219.268C419.776 219.196 419.848 219.1 419.944 218.98C420.064 218.86 420.244 218.8 420.484 218.8H421.348C421.612 218.8 421.816 218.872 421.96 219.016C422.104 219.16 422.176 219.364 422.176 219.628V243.208C422.176 243.448 422.104 243.64 421.96 243.784C421.816 243.928 421.612 244 421.348 244H420.7C420.46 244 420.268 243.928 420.124 243.784C419.98 243.64 419.908 243.448 419.908 243.208V223.696L413.032 237.232C412.936 237.472 412.792 237.652 412.6 237.772C412.432 237.892 412.204 237.952 411.916 237.952H411.124C410.836 237.952 410.608 237.892 410.44 237.772C410.272 237.652 410.128 237.472 410.008 237.232L403.132 223.696V243.208C403.132 243.448 403.06 243.64 402.916 243.784C402.772 243.928 402.58 244 402.34 244H401.692ZM429.746 244C429.506 244 429.314 243.928 429.17 243.784C429.026 243.64 428.954 243.448 428.954 243.208V219.628C428.954 219.364 429.026 219.16 429.17 219.016C429.314 218.872 429.506 218.8 429.746 218.8H443.786C444.05 218.8 444.254 218.872 444.398 219.016C444.542 219.16 444.614 219.364 444.614 219.628V220.168C444.614 220.408 444.542 220.6 444.398 220.744C444.254 220.888 444.05 220.96 443.786 220.96H431.222V230.14H442.994C443.258 230.14 443.462 230.212 443.606 230.356C443.75 230.5 443.822 230.704 443.822 230.968V231.508C443.822 231.748 443.75 231.94 443.606 232.084C443.462 232.228 443.258 232.3 442.994 232.3H431.222V241.84H444.074C444.338 241.84 444.542 241.912 444.686 242.056C444.83 242.2 444.902 242.404 444.902 242.668V243.208C444.902 243.448 444.83 243.64 444.686 243.784C444.542 243.928 444.338 244 444.074 244H429.746ZM451.051 244C450.811 244 450.619 243.928 450.475 243.784C450.331 243.64 450.259 243.448 450.259 243.208V219.628C450.259 219.364 450.331 219.16 450.475 219.016C450.619 218.872 450.811 218.8 451.051 218.8H451.807C452.047 218.8 452.227 218.86 452.347 218.98C452.467 219.1 452.539 219.184 452.563 219.232L465.847 239.536V219.628C465.847 219.364 465.919 219.16 466.063 219.016C466.207 218.872 466.399 218.8 466.639 218.8H467.287C467.551 218.8 467.755 218.872 467.899 219.016C468.043 219.16 468.115 219.364 468.115 219.628V243.172C468.115 243.412 468.043 243.616 467.899 243.784C467.755 243.928 467.563 244 467.323 244H466.531C466.291 244 466.111 243.94 465.991 243.82C465.895 243.7 465.823 243.616 465.775 243.568L452.527 223.336V243.208C452.527 243.448 452.455 243.64 452.311 243.784C452.167 243.928 451.963 244 451.699 244H451.051ZM481.168 244C480.928 244 480.736 243.928 480.592 243.784C480.448 243.64 480.376 243.448 480.376 243.208V220.96H473.248C473.008 220.96 472.816 220.888 472.672 220.744C472.528 220.6 472.456 220.408 472.456 220.168V219.628C472.456 219.364 472.528 219.16 472.672 219.016C472.816 218.872 473.008 218.8 473.248 218.8H489.736C490 218.8 490.204 218.872 490.348 219.016C490.492 219.16 490.564 219.364 490.564 219.628V220.168C490.564 220.408 490.492 220.6 490.348 220.744C490.204 220.888 490 220.96 489.736 220.96H482.644V243.208C482.644 243.448 482.572 243.64 482.428 243.784C482.284 243.928 482.08 244 481.816 244H481.168ZM504.031 244C503.791 244 503.599 243.928 503.455 243.784C503.311 243.64 503.239 243.448 503.239 243.208V219.592C503.239 219.352 503.311 219.16 503.455 219.016C503.599 218.872 503.791 218.8 504.031 218.8H504.715C504.955 218.8 505.147 218.872 505.291 219.016C505.435 219.16 505.507 219.352 505.507 219.592V243.208C505.507 243.448 505.435 243.64 505.291 243.784C505.147 243.928 504.955 244 504.715 244H504.031ZM519.835 244.36C517.891 244.36 516.235 244.048 514.867 243.424C513.523 242.8 512.491 241.996 511.771 241.012C511.051 240.028 510.667 238.984 510.619 237.88C510.619 237.688 510.691 237.52 510.835 237.376C510.979 237.232 511.159 237.16 511.375 237.16H512.095C512.335 237.16 512.515 237.232 512.635 237.376C512.779 237.52 512.863 237.688 512.887 237.88C512.983 238.552 513.283 239.224 513.787 239.896C514.291 240.544 515.035 241.096 516.019 241.552C517.003 241.984 518.275 242.2 519.835 242.2C522.187 242.2 523.903 241.78 524.983 240.94C526.063 240.076 526.603 238.924 526.603 237.484C526.603 236.524 526.315 235.756 525.739 235.18C525.187 234.58 524.335 234.052 523.183 233.596C522.031 233.116 520.555 232.588 518.755 232.012C517.051 231.46 515.647 230.896 514.543 230.32C513.439 229.72 512.623 229 512.095 228.16C511.591 227.32 511.339 226.24 511.339 224.92C511.339 223.696 511.663 222.604 512.311 221.644C512.959 220.66 513.895 219.88 515.119 219.304C516.367 218.728 517.879 218.44 519.655 218.44C521.071 218.44 522.307 218.632 523.363 219.016C524.419 219.4 525.295 219.916 525.991 220.564C526.687 221.188 527.215 221.872 527.575 222.616C527.935 223.336 528.127 224.044 528.151 224.74C528.151 224.908 528.091 225.076 527.971 225.244C527.851 225.388 527.659 225.46 527.395 225.46H526.675C526.555 225.46 526.399 225.412 526.207 225.316C526.039 225.22 525.931 225.028 525.883 224.74C525.739 223.54 525.103 222.556 523.975 221.788C522.871 220.996 521.431 220.6 519.655 220.6C517.879 220.6 516.427 220.948 515.299 221.644C514.171 222.34 513.607 223.432 513.607 224.92C513.607 225.88 513.859 226.672 514.363 227.296C514.867 227.896 515.659 228.436 516.739 228.916C517.819 229.372 519.211 229.876 520.915 230.428C522.715 231.004 524.203 231.58 525.379 232.156C526.555 232.732 527.431 233.44 528.007 234.28C528.583 235.096 528.871 236.164 528.871 237.484C528.871 238.948 528.499 240.196 527.755 241.228C527.035 242.236 526.003 243.016 524.659 243.568C523.315 244.096 521.707 244.36 519.835 244.36ZM549.895 244C549.655 244 549.463 243.928 549.319 243.784C549.175 243.64 549.103 243.448 549.103 243.208V234.388L540.319 219.988C540.295 219.916 540.259 219.844 540.211 219.772C540.187 219.7 540.175 219.616 540.175 219.52C540.175 219.328 540.247 219.16 540.391 219.016C540.535 218.872 540.703 218.8 540.895 218.8H541.615C541.783 218.8 541.939 218.848 542.083 218.944C542.227 219.016 542.347 219.148 542.443 219.34L550.255 232.048L558.067 219.34C558.187 219.148 558.307 219.016 558.427 218.944C558.571 218.848 558.727 218.8 558.895 218.8H559.615C559.807 218.8 559.975 218.872 560.119 219.016C560.263 219.16 560.335 219.328 560.335 219.52C560.335 219.616 560.323 219.7 560.299 219.772C560.275 219.844 560.239 219.916 560.191 219.988L551.407 234.388V243.208C551.407 243.448 551.335 243.64 551.191 243.784C551.047 243.928 550.843 244 550.579 244H549.895ZM572.486 244.36C570.494 244.36 568.802 244.012 567.41 243.316C566.018 242.596 564.95 241.504 564.206 240.04C563.462 238.552 563.054 236.68 562.982 234.424C562.958 233.344 562.946 232.336 562.946 231.4C562.946 230.464 562.958 229.456 562.982 228.376C563.054 226.144 563.486 224.296 564.278 222.832C565.07 221.344 566.162 220.24 567.554 219.52C568.97 218.8 570.614 218.44 572.486 218.44C574.358 218.44 575.99 218.8 577.382 219.52C578.798 220.24 579.902 221.344 580.694 222.832C581.51 224.296 581.942 226.144 581.99 228.376C582.038 229.456 582.062 230.464 582.062 231.4C582.062 232.336 582.038 233.344 581.99 234.424C581.942 236.68 581.534 238.552 580.766 240.04C580.022 241.504 578.954 242.596 577.562 243.316C576.17 244.012 574.478 244.36 572.486 244.36ZM572.486 242.2C574.55 242.2 576.242 241.576 577.562 240.328C578.906 239.08 579.626 237.052 579.722 234.244C579.77 233.164 579.794 232.216 579.794 231.4C579.794 230.584 579.77 229.636 579.722 228.556C579.674 226.684 579.326 225.16 578.678 223.984C578.054 222.808 577.202 221.956 576.122 221.428C575.066 220.876 573.854 220.6 572.486 220.6C571.142 220.6 569.93 220.876 568.85 221.428C567.794 221.956 566.942 222.808 566.294 223.984C565.67 225.16 565.322 226.684 565.25 228.556C565.226 229.636 565.214 230.584 565.214 231.4C565.214 232.216 565.226 233.164 565.25 234.244C565.346 237.052 566.066 239.08 567.41 240.328C568.754 241.576 570.446 242.2 572.486 242.2ZM596.862 244.36C594.918 244.36 593.25 244 591.858 243.28C590.49 242.56 589.434 241.456 588.69 239.968C587.946 238.48 587.574 236.572 587.574 234.244V219.628C587.574 219.364 587.646 219.16 587.79 219.016C587.934 218.872 588.126 218.8 588.366 218.8H589.014C589.278 218.8 589.482 218.872 589.626 219.016C589.77 219.16 589.842 219.364 589.842 219.628V234.352C589.842 237.04 590.466 239.02 591.714 240.292C592.986 241.564 594.702 242.2 596.862 242.2C598.998 242.2 600.69 241.564 601.938 240.292C603.21 239.02 603.846 237.04 603.846 234.352V219.628C603.846 219.364 603.918 219.16 604.062 219.016C604.23 218.872 604.434 218.8 604.674 218.8H605.322C605.562 218.8 605.754 218.872 605.898 219.016C606.042 219.16 606.114 219.364 606.114 219.628V234.244C606.114 236.572 605.742 238.48 604.998 239.968C604.278 241.456 603.234 242.56 601.866 243.28C600.498 244 598.83 244.36 596.862 244.36Z" fill="black"/>
</svg>
